ISO-10303-21;
HEADER;
FILE_DESCRIPTION (( 'STEP AP214' ),
    '1' );
FILE_NAME ('800H-FRXT6D4.STEP',
    '2026-03-27T19:41:51',
    ( '' ),
    ( '' ),
    'SwSTEP 2.0',
    'SolidWorks 2022',
    '' );
FILE_SCHEMA (( 'AUTOMOTIVE_DESIGN' ));
ENDSEC;

DATA;
#1 = AXIS2_PLACEMENT_3D ( 'NONE', #946, #659, #534 ) ;
#2 = LINE ( 'NONE', #804, #1179 ) ;
#3 = AXIS2_PLACEMENT_3D ( 'NONE', #289, #379, #1066 ) ;
#4 = CARTESIAN_POINT ( 'NONE',  ( -1.030483372586405702E-16, 20.88840478080879848, 1.177218809571307784E-16 ) ) ;
#5 = VERTEX_POINT ( 'NONE', #816 ) ;
#6 = PRODUCT_DEFINITION_SHAPE ( 'NONE', 'NONE',  #959 ) ;
#7 = FILL_AREA_STYLE ('',( #107 ) ) ;
#8 = ORIENTED_EDGE ( 'NONE', *, *, #1036, .F. ) ;
#9 = CARTESIAN_POINT ( 'NONE',  ( 5.127624999999637723, 20.88840478080879848, 5.127625000000000099 ) ) ;
#10 = LINE ( 'NONE', #606, #767 ) ;
#11 = CARTESIAN_POINT ( 'NONE',  ( -1.030483372586405702E-16, 26.50815478080879828, -4.167187499999112532 ) ) ;
#12 = EDGE_LOOP ( 'NONE', ( #58, #1034, #370 ) ) ;
#13 = ADVANCED_FACE ( 'NONE', ( #1213, #1296 ), #292, .T. ) ;
#14 = DIRECTION ( 'NONE',  ( 0.000000000000000000, 0.000000000000000000, -1.000000000000000000 ) ) ;
#15 = ORIENTED_EDGE ( 'NONE', *, *, #1128, .F. ) ;
#16 = FACE_OUTER_BOUND ( 'NONE', #766, .T. ) ;
#17 = FACE_OUTER_BOUND ( 'NONE', #1022, .T. ) ;
#18 = CARTESIAN_POINT ( 'NONE',  ( 4.072849460734368863E-16, 26.50815478080879828, 4.167187499999112532 ) ) ;
#19 = ORIENTED_EDGE ( 'NONE', *, *, #860, .F. ) ;
#20 = VECTOR ( 'NONE', #1193, 1000.000000000000000 ) ;
#21 = EDGE_CURVE ( 'NONE', #1107, #1024, #613, .T. ) ;
#22 = AXIS2_PLACEMENT_3D ( 'NONE', #1073, #258, #173 ) ;
#23 = AXIS2_PLACEMENT_3D ( 'NONE', #266, #75, #867 ) ;
#24 = DIRECTION ( 'NONE',  ( 2.810543203358299820E-16, 1.000000000000000000, 0.000000000000000000 ) ) ;
#25 = EDGE_LOOP ( 'NONE', ( #1269, #792, #1194, #853 ) ) ;
#26 = AXIS2_PLACEMENT_3D ( 'NONE', #1292, #201, #403 ) ;
#27 = DIRECTION ( 'NONE',  ( 0.000000000000000000, -1.000000000000000000, 0.000000000000000000 ) ) ;
#28 = AXIS2_PLACEMENT_3D ( 'NONE', #1059, #33, #832 ) ;
#29 = DIRECTION ( 'NONE',  ( 0.000000000000000000, 0.000000000000000000, 1.000000000000000000 ) ) ;
#30 = VERTEX_POINT ( 'NONE', #1209 ) ;
#31 = DIRECTION ( 'NONE',  ( 0.000000000000000000, -1.000000000000000000, 0.000000000000000000 ) ) ;
#32 = CARTESIAN_POINT ( 'NONE',  ( 6.724650000000225170, 16.81805478080879723, -5.159374999999999822 ) ) ;
#33 = DIRECTION ( 'NONE',  ( 0.000000000000000000, -1.000000000000000000, 0.000000000000000000 ) ) ;
#34 = CARTESIAN_POINT ( 'NONE',  ( -1.801725442932205157, 24.36820478080879582, -4.349749999999600547 ) ) ;
#35 = ORIENTED_EDGE ( 'NONE', *, *, #237, .T. ) ;
#36 = EDGE_CURVE ( 'NONE', #485, #221, #179, .T. ) ;
#37 = LINE ( 'NONE', #140, #1195 ) ;
#38 = ADVANCED_FACE ( 'NONE', ( #512 ), #322, .F. ) ;
#39 = DIRECTION ( 'NONE',  ( 0.000000000000000000, -1.000000000000000000, 0.000000000000000000 ) ) ;
#40 = PLANE ( 'NONE',  #585 ) ;
#41 = ORIENTED_EDGE ( 'NONE', *, *, #314, .T. ) ;
#42 = EDGE_CURVE ( 'NONE', #750, #809, #211, .T. ) ;
#43 = CIRCLE ( 'NONE', #1056, 4.960937499999487521 ) ;
#44 = VECTOR ( 'NONE', #200, 1000.000000000000000 ) ;
#45 = CARTESIAN_POINT ( 'NONE',  ( -1.030483372586405702E-16, 16.81805478080879723, 1.177218809571307784E-16 ) ) ;
#46 = ORIENTED_EDGE ( 'NONE', *, *, #1105, .F. ) ;
#47 = AXIS2_PLACEMENT_3D ( 'NONE', #369, #1068, #682 ) ;
#48 = DIRECTION ( 'NONE',  ( 1.000000000000000000, 0.000000000000000000, 0.000000000000000000 ) ) ;
#49 = CARTESIAN_POINT ( 'NONE',  ( 4.349749999999600547, 22.72355478080880076, 1.801725442932200272 ) ) ;
#50 = AXIS2_PLACEMENT_3D ( 'NONE', #920, #1100, #997 ) ;
#51 = CARTESIAN_POINT ( 'NONE',  ( -1.030483372586405702E-16, 30.08955478080879686, 1.177218809571307784E-16 ) ) ;
#52 = ORIENTED_EDGE ( 'NONE', *, *, #916, .F. ) ;
#53 = DIRECTION ( 'NONE',  ( 1.000000000000000000, 0.000000000000000000, 0.000000000000000000 ) ) ;
#54 = ORIENTED_EDGE ( 'NONE', *, *, #83, .T. ) ;
#55 = CARTESIAN_POINT ( 'NONE',  ( -3.637534008945605191, 26.50815478080879828, 1.177218809571307784E-16 ) ) ;
#56 = FACE_OUTER_BOUND ( 'NONE', #311, .T. ) ;
#57 = DIRECTION ( 'NONE',  ( 0.000000000000000000, 0.000000000000000000, -1.000000000000000000 ) ) ;
#58 = ORIENTED_EDGE ( 'NONE', *, *, #921, .F. ) ;
#59 = CARTESIAN_POINT ( 'NONE',  ( 6.724650000000225170, 16.81805478080879723, 5.159374999999999822 ) ) ;
#60 = ORIENTED_EDGE ( 'NONE', *, *, #1129, .T. ) ;
#61 = EDGE_CURVE ( 'NONE', #934, #886, #805, .T. ) ;
#62 = PLANE ( 'NONE',  #175 ) ;
#63 = ADVANCED_FACE ( 'NONE', ( #17 ), #1203, .F. ) ;
#64 = LINE ( 'NONE', #975, #256 ) ;
#65 = EDGE_LOOP ( 'NONE', ( #1278, #482, #421 ) ) ;
#66 = EDGE_CURVE ( 'NONE', #387, #717, #1018, .T. ) ;
#67 = VECTOR ( 'NONE', #692, 1000.000000000000000 ) ;
#68 = DIRECTION ( 'NONE',  ( -1.000000000000000000, 0.000000000000000000, 0.000000000000000000 ) ) ;
#69 = ORIENTED_EDGE ( 'NONE', *, *, #197, .F. ) ;
#70 = VECTOR ( 'NONE', #746, 1000.000000000000000 ) ;
#71 = CARTESIAN_POINT ( 'NONE',  ( -1.801725442932205157, 36.67115566667240500, -4.349749999999600547 ) ) ;
#72 = FACE_OUTER_BOUND ( 'NONE', #450, .T. ) ;
#73 = ORIENTED_EDGE ( 'NONE', *, *, #664, .F. ) ;
#74 =( GEOMETRIC_REPRESENTATION_CONTEXT ( 3 ) GLOBAL_UNCERTAINTY_ASSIGNED_CONTEXT ( ( #1014 ) ) GLOBAL_UNIT_ASSIGNED_CONTEXT ( ( #94, #106, #703 ) ) REPRESENTATION_CONTEXT ( 'NONE', 'WORKASPACE' ) );
#75 = DIRECTION ( 'NONE',  ( 0.000000000000000000, -1.000000000000000000, 0.000000000000000000 ) ) ;
#76 = ORIENTED_EDGE ( 'NONE', *, *, #199, .F. ) ;
#77 = PRESENTATION_STYLE_ASSIGNMENT (( #869 ) ) ;
#78 = DIRECTION ( 'NONE',  ( 0.000000000000000000, 0.000000000000000000, -1.000000000000000000 ) ) ;
#79 = ORIENTED_EDGE ( 'NONE', *, *, #21, .F. ) ;
#80 = ORIENTED_EDGE ( 'NONE', *, *, #836, .F. ) ;
#81 = EDGE_CURVE ( 'NONE', #158, #356, #476, .T. ) ;
#82 = CARTESIAN_POINT ( 'NONE',  ( -1.801725442932205157, 36.67115566667240500, -4.349749999999600547 ) ) ;
#83 = EDGE_CURVE ( 'NONE', #187, #553, #787, .T. ) ;
#84 = LINE ( 'NONE', #366, #396 ) ;
#85 = ORIENTED_EDGE ( 'NONE', *, *, #698, .F. ) ;
#86 = LINE ( 'NONE', #1175, #1037 ) ;
#87 = AXIS2_PLACEMENT_3D ( 'NONE', #704, #110, #297 ) ;
#88 = ORIENTED_EDGE ( 'NONE', *, *, #1298, .T. ) ;
#89 = CIRCLE ( 'NONE', #955, 4.960937499999487521 ) ;
#90 = DIRECTION ( 'NONE',  ( 0.000000000000000000, -1.000000000000000000, 0.000000000000000000 ) ) ;
#91 = DIRECTION ( 'NONE',  ( 0.000000000000000000, -1.000000000000000000, 0.000000000000000000 ) ) ;
#92 = CARTESIAN_POINT ( 'NONE',  ( -1.801725442932205157, 24.36820478080879582, -4.349749999999600547 ) ) ;
#93 = EDGE_CURVE ( 'NONE', #340, #356, #10, .T. ) ;
#94 =( LENGTH_UNIT ( ) NAMED_UNIT ( * ) SI_UNIT ( .MILLI., .METRE. ) );
#95 = LINE ( 'NONE', #611, #909 ) ;
#96 = EDGE_CURVE ( 'NONE', #221, #535, #1199, .T. ) ;
#97 = DIRECTION ( 'NONE',  ( -2.407030830892919977E-16, 0.000000000000000000, -1.000000000000000000 ) ) ;
#98 = ORIENTED_EDGE ( 'NONE', *, *, #1220, .F. ) ;
#99 = CARTESIAN_POINT ( 'NONE',  ( -1.030483372586405702E-16, 31.42305478080879766, -3.502025000000405175 ) ) ;
#100 = LINE ( 'NONE', #1167, #1140 ) ;
#101 = ORIENTED_EDGE ( 'NONE', *, *, #938, .T. ) ;
#102 = PLANE ( 'NONE',  #407 ) ;
#103 = DIRECTION ( 'NONE',  ( 0.000000000000000000, 0.000000000000000000, -1.000000000000000000 ) ) ;
#104 = ORIENTED_EDGE ( 'NONE', *, *, #260, .F. ) ;
#105 = VECTOR ( 'NONE', #1271, 1000.000000000000000 ) ;
#106 =( NAMED_UNIT ( * ) PLANE_ANGLE_UNIT ( ) SI_UNIT ( $, .RADIAN. ) );
#107 = FILL_AREA_STYLE_COLOUR ( '', #850 ) ;
#108 = VERTEX_POINT ( 'NONE', #1222 ) ;
#109 = MECHANICAL_DESIGN_GEOMETRIC_PRESENTATION_REPRESENTATION (  '', ( #743 ), #1197 ) ;
#110 = DIRECTION ( 'NONE',  ( 0.000000000000000000, -1.000000000000000000, 0.000000000000000000 ) ) ;
#111 = VECTOR ( 'NONE', #344, 1000.000000000000000 ) ;
#112 = DIRECTION ( 'NONE',  ( 0.000000000000000000, -1.000000000000000000, 0.000000000000000000 ) ) ;
#113 = DIRECTION ( 'NONE',  ( -0.7071067811865470176, 0.000000000000000000, 0.7071067811865480168 ) ) ;
#114 = CARTESIAN_POINT ( 'NONE',  ( -1.030483372586405702E-16, 16.81805478080879723, 1.177218809571307784E-16 ) ) ;
#115 = VERTEX_POINT ( 'NONE', #49 ) ;
#116 = PLANE ( 'NONE',  #1013 ) ;
#117 = EDGE_LOOP ( 'NONE', ( #1005, #986, #905, #208 ) ) ;
#118 = ORIENTED_EDGE ( 'NONE', *, *, #163, .T. ) ;
#119 = EDGE_CURVE ( 'NONE', #115, #287, #646, .T. ) ;
#120 = LINE ( 'NONE', #526, #1145 ) ;
#121 =( NAMED_UNIT ( * ) PLANE_ANGLE_UNIT ( ) SI_UNIT ( $, .RADIAN. ) );
#122 = ORIENTED_EDGE ( 'NONE', *, *, #180, .T. ) ;
#123 = CARTESIAN_POINT ( 'NONE',  ( 5.127624999999637723, 20.88840478080879848, 5.127625000000000099 ) ) ;
#124 = DIRECTION ( 'NONE',  ( 0.000000000000000000, -1.000000000000000000, 0.000000000000000000 ) ) ;
#125 = FACE_OUTER_BOUND ( 'NONE', #415, .T. ) ;
#126 = AXIS2_PLACEMENT_3D ( 'NONE', #599, #91, #103 ) ;
#127 = PLANE ( 'NONE',  #602 ) ;
#128 = ORIENTED_EDGE ( 'NONE', *, *, #698, .T. ) ;
#129 = VECTOR ( 'NONE', #845, 1000.000000000000000 ) ;
#130 = AXIS2_PLACEMENT_3D ( 'NONE', #1192, #699, #308 ) ;
#131 = DIRECTION ( 'NONE',  ( 1.000000000000000000, 0.000000000000000000, 0.000000000000000000 ) ) ;
#132 = ORIENTED_EDGE ( 'NONE', *, *, #1153, .T. ) ;
#133 = VECTOR ( 'NONE', #617, 1000.000000000000000 ) ;
#134 = CARTESIAN_POINT ( 'NONE',  ( 4.349749999999600547, 24.36820478080879582, -1.801725442932204935 ) ) ;
#135 = DIRECTION ( 'NONE',  ( 0.000000000000000000, -1.000000000000000000, 0.000000000000000000 ) ) ;
#136 = VECTOR ( 'NONE', #1003, 1000.000000000000000 ) ;
#137 = FACE_BOUND ( 'NONE', #949, .T. ) ;
#138 = ORIENTED_EDGE ( 'NONE', *, *, #509, .T. ) ;
#139 = EDGE_CURVE ( 'NONE', #544, #761, #149, .T. ) ;
#140 = CARTESIAN_POINT ( 'NONE',  ( 6.724650000000225170, 16.81805478080879723, -5.159374999999999822 ) ) ;
#141 = ORIENTED_EDGE ( 'NONE', *, *, #1188, .F. ) ;
#142 = EDGE_CURVE ( 'NONE', #284, #734, #642, .T. ) ;
#143 = DIRECTION ( 'NONE',  ( 0.7071067811865470176, 0.000000000000000000, -0.7071067811865480168 ) ) ;
#144 = DIRECTION ( 'NONE',  ( 0.000000000000000000, -1.000000000000000000, 0.000000000000000000 ) ) ;
#145 = CARTESIAN_POINT ( 'NONE',  ( 5.127624999999637723, 20.88840478080879848, 5.127625000000000099 ) ) ;
#146 = ORIENTED_EDGE ( 'NONE', *, *, #742, .F. ) ;
#147 = FACE_OUTER_BOUND ( 'NONE', #656, .T. ) ;
#148 = ORIENTED_EDGE ( 'NONE', *, *, #916, .T. ) ;
#149 = LINE ( 'NONE', #940, #537 ) ;
#150 = LINE ( 'NONE', #1231, #793 ) ;
#151 = ORIENTED_EDGE ( 'NONE', *, *, #842, .T. ) ;
#152 = VECTOR ( 'NONE', #511, 1000.000000000000000 ) ;
#153 = AXIS2_PLACEMENT_3D ( 'NONE', #312, #1023, #615 ) ;
#154 = DIRECTION ( 'NONE',  ( -0.7071067811865470176, 0.000000000000000000, 0.7071067811865480168 ) ) ;
#155 = EDGE_LOOP ( 'NONE', ( #41, #522, #486, #562 ) ) ;
#156 = DIRECTION ( 'NONE',  ( 0.000000000000000000, 0.000000000000000000, -1.000000000000000000 ) ) ;
#157 = PLANE ( 'NONE',  #1184 ) ;
#158 = VERTEX_POINT ( 'NONE', #1142 ) ;
#159 = AXIS2_PLACEMENT_3D ( 'NONE', #1113, #521, #719 ) ;
#160 = EDGE_CURVE ( 'NONE', #841, #1279, #349, .T. ) ;
#161 = CARTESIAN_POINT ( 'NONE',  ( -6.724650000000225170, 19.90415478080879907, -5.159374999999999822 ) ) ;
#162 = ORIENTED_EDGE ( 'NONE', *, *, #820, .T. ) ;
#163 = EDGE_CURVE ( 'NONE', #535, #750, #1252, .T. ) ;
#164 = DIRECTION ( 'NONE',  ( 0.000000000000000000, 0.000000000000000000, -1.000000000000000000 ) ) ;
#165 = CARTESIAN_POINT ( 'NONE',  ( 5.127624999999637723, 20.88840478080879848, 5.127625000000000099 ) ) ;
#166 = VERTEX_POINT ( 'NONE', #242 ) ;
#167 = EDGE_CURVE ( 'NONE', #1152, #221, #233, .T. ) ;
#168 = CARTESIAN_POINT ( 'NONE',  ( -1.030483372586405702E-16, 22.02505478080879797, 1.177218809571307784E-16 ) ) ;
#169 = ORIENTED_EDGE ( 'NONE', *, *, #492, .T. ) ;
#170 = FACE_OUTER_BOUND ( 'NONE', #573, .T. ) ;
#171 = ORIENTED_EDGE ( 'NONE', *, *, #1105, .T. ) ;
#172 = AXIS2_PLACEMENT_3D ( 'NONE', #357, #1257, #569 ) ;
#173 = DIRECTION ( 'NONE',  ( 0.000000000000000000, 0.000000000000000000, -1.000000000000000000 ) ) ;
#174 = VERTEX_POINT ( 'NONE', #754 ) ;
#175 = AXIS2_PLACEMENT_3D ( 'NONE', #794, #1190, #291 ) ;
#176 = AXIS2_PLACEMENT_3D ( 'NONE', #223, #310, #514 ) ;
#177 = DIRECTION ( 'NONE',  ( 0.000000000000000000, -1.000000000000000000, 0.000000000000000000 ) ) ;
#178 = EDGE_LOOP ( 'NONE', ( #1048, #672, #190, #239 ) ) ;
#179 = CIRCLE ( 'NONE', #1118, 5.159374999999187139 ) ;
#180 = EDGE_CURVE ( 'NONE', #303, #354, #1183, .T. ) ;
#181 = CIRCLE ( 'NONE', #219, 5.159374999999187139 ) ;
#182 = LINE ( 'NONE', #676, #1139 ) ;
#183 = ORIENTED_EDGE ( 'NONE', *, *, #721, .F. ) ;
#184 = CARTESIAN_POINT ( 'NONE',  ( 4.801897008352056686E-16, 22.72355478080880076, 4.762499999999337597 ) ) ;
#185 = EDGE_CURVE ( 'NONE', #776, #546, #253, .T. ) ;
#186 = DIRECTION ( 'NONE',  ( 0.000000000000000000, 0.000000000000000000, -1.000000000000000000 ) ) ;
#187 = VERTEX_POINT ( 'NONE', #556 ) ;
#188 = LINE ( 'NONE', #71, #803 ) ;
#189 = CARTESIAN_POINT ( 'NONE',  ( 3.343801913117507372E-16, 30.08955478080879686, 3.571874999999554934 ) ) ;
#190 = ORIENTED_EDGE ( 'NONE', *, *, #416, .T. ) ;
#191 = ADVANCED_FACE ( 'NONE', ( #125 ), #729, .T. ) ;
#192 = DIRECTION ( 'NONE',  ( -2.407030830892924907E-16, 0.000000000000000000, -1.000000000000000000 ) ) ;
#193 = CIRCLE ( 'NONE', #1136, 4.167187499999112532 ) ;
#194 = AXIS2_PLACEMENT_3D ( 'NONE', #662, #777, #278 ) ;
#195 = CARTESIAN_POINT ( 'NONE',  ( -1.801725442932202492, 24.36820478080879582, 4.349749999999600547 ) ) ;
#196 = PRESENTATION_STYLE_ASSIGNMENT (( #294 ) ) ;
#197 = EDGE_CURVE ( 'NONE', #1205, #965, #665, .T. ) ;
#198 = AXIS2_PLACEMENT_3D ( 'NONE', #1293, #603, #404 ) ;
#199 = EDGE_CURVE ( 'NONE', #965, #485, #996, .T. ) ;
#200 = DIRECTION ( 'NONE',  ( -1.000000000000000000, 0.000000000000000000, 2.407030830892919977E-16 ) ) ;
#201 = DIRECTION ( 'NONE',  ( 0.000000000000000000, -1.000000000000000000, 0.000000000000000000 ) ) ;
#202 = FACE_OUTER_BOUND ( 'NONE', #675, .T. ) ;
#203 = CARTESIAN_POINT ( 'NONE',  ( 3.343801913117507372E-16, 26.50815478080879828, 3.571874999999554934 ) ) ;
#204 = ORIENTED_EDGE ( 'NONE', *, *, #900, .F. ) ;
#205 = CARTESIAN_POINT ( 'NONE',  ( 6.724650000000225170, 19.90415478080879907, 5.159374999999999822 ) ) ;
#206 = DIRECTION ( 'NONE',  ( 0.000000000000000000, -1.000000000000000000, 0.000000000000000000 ) ) ;
#207 = PRESENTATION_STYLE_ASSIGNMENT (( #1106 ) ) ;
#208 = ORIENTED_EDGE ( 'NONE', *, *, #1226, .T. ) ;
#209 = LINE ( 'NONE', #426, #874 ) ;
#210 = FILL_AREA_STYLE_COLOUR ( '', #557 ) ;
#211 = LINE ( 'NONE', #1008, #133 ) ;
#212 = VECTOR ( 'NONE', #328, 1000.000000000000000 ) ;
#213 = FILL_AREA_STYLE_COLOUR ( '', #240 ) ;
#214 = EDGE_LOOP ( 'NONE', ( #752, #880, #1044, #947 ) ) ;
#215 = ADVANCED_FACE ( 'NONE', ( #1149 ), #437, .F. ) ;
#216 = AXIS2_PLACEMENT_3D ( 'NONE', #531, #144, #565 ) ;
#217 = DIRECTION ( 'NONE',  ( 0.000000000000000000, -1.000000000000000000, 0.000000000000000000 ) ) ;
#218 = EDGE_CURVE ( 'NONE', #158, #750, #227, .T. ) ;
#219 = AXIS2_PLACEMENT_3D ( 'NONE', #1150, #248, #336 ) ;
#220 = APPLICATION_CONTEXT ( 'automotive_design' ) ;
#221 = VERTEX_POINT ( 'NONE', #548 ) ;
#222 = SURFACE_SIDE_STYLE ('',( #796 ) ) ;
#223 = CARTESIAN_POINT ( 'NONE',  ( 0.000000000000000000, 0.000000000000000000, 0.000000000000000000 ) ) ;
#224 = ORIENTED_EDGE ( 'NONE', *, *, #784, .F. ) ;
#225 = DIRECTION ( 'NONE',  ( 1.000000000000000000, 0.000000000000000000, -2.407030830892919977E-16 ) ) ;
#226 = EDGE_LOOP ( 'NONE', ( #431, #469, #489, #8 ) ) ;
#227 = LINE ( 'NONE', #1133, #702 ) ;
#228 = LINE ( 'NONE', #145, #1201 ) ;
#229 = VERTEX_POINT ( 'NONE', #855 ) ;
#230 = CARTESIAN_POINT ( 'NONE',  ( 1.801725442932202492, 36.67115566667240500, 4.349749999999600547 ) ) ;
#231 = ORIENTED_EDGE ( 'NONE', *, *, #81, .F. ) ;
#232 = ADVANCED_FACE ( 'NONE', ( #638, #56 ), #1039, .T. ) ;
#233 = LINE ( 'NONE', #1241, #851 ) ;
#234 = AXIS2_PLACEMENT_3D ( 'NONE', #386, #1086, #186 ) ;
#235 = CARTESIAN_POINT ( 'NONE',  ( -1.030483372586405702E-16, 24.36820478080879582, -4.167187499999112532 ) ) ;
#236 = VERTEX_POINT ( 'NONE', #724 ) ;
#237 = EDGE_CURVE ( 'NONE', #610, #317, #542, .T. ) ;
#238 = DIRECTION ( 'NONE',  ( 0.000000000000000000, 0.000000000000000000, -1.000000000000000000 ) ) ;
#239 = ORIENTED_EDGE ( 'NONE', *, *, #185, .T. ) ;
#240 = COLOUR_RGB ( '',0.2509803921568627416, 0.2509803921568627416, 0.2509803921568627416 ) ;
#241 = PLANE ( 'NONE',  #658 ) ;
#242 = CARTESIAN_POINT ( 'NONE',  ( 0.5714999999926748675, 20.88840478080879848, -5.127625000000000099 ) ) ;
#243 = LINE ( 'NONE', #730, #1223 ) ;
#244 = ORIENTED_EDGE ( 'NONE', *, *, #1261, .F. ) ;
#245 = LINE ( 'NONE', #1147, #390 ) ;
#246 = PLANE ( 'NONE',  #343 ) ;
#247 = DIRECTION ( 'NONE',  ( 0.000000000000000000, 0.000000000000000000, -1.000000000000000000 ) ) ;
#248 = DIRECTION ( 'NONE',  ( 0.000000000000000000, -1.000000000000000000, 0.000000000000000000 ) ) ;
#249 = ORIENTED_EDGE ( 'NONE', *, *, #651, .F. ) ;
#250 = LINE ( 'NONE', #459, #1238 ) ;
#251 = ORIENTED_EDGE ( 'NONE', *, *, #338, .T. ) ;
#252 = FACE_OUTER_BOUND ( 'NONE', #1135, .T. ) ;
#253 = LINE ( 'NONE', #1046, #620 ) ;
#254 = DIRECTION ( 'NONE',  ( -1.000000000000000000, 8.812412882787889882E-16, 0.000000000000000000 ) ) ;
#255 = ORIENTED_EDGE ( 'NONE', *, *, #93, .F. ) ;
#256 = VECTOR ( 'NONE', #269, 1000.000000000000000 ) ;
#257 = VECTOR ( 'NONE', #930, 1000.000000000000000 ) ;
#258 = DIRECTION ( 'NONE',  ( 0.000000000000000000, -1.000000000000000000, 0.000000000000000000 ) ) ;
#259 = ORIENTED_EDGE ( 'NONE', *, *, #576, .T. ) ;
#260 = EDGE_CURVE ( 'NONE', #30, #5, #967, .T. ) ;
#261 = CARTESIAN_POINT ( 'NONE',  ( -1.030483372586405702E-16, 24.36820478080879582, 1.177218809571307784E-16 ) ) ;
#262 = CARTESIAN_POINT ( 'NONE',  ( 5.127624999999637723, 20.88840478080879848, 5.127625000000000099 ) ) ;
#263 = DIRECTION ( 'NONE',  ( 0.000000000000000000, 0.000000000000000000, -1.000000000000000000 ) ) ;
#264 = VERTEX_POINT ( 'NONE', #365 ) ;
#265 = AXIS2_PLACEMENT_3D ( 'NONE', #1224, #953, #634 ) ;
#266 = CARTESIAN_POINT ( 'NONE',  ( -1.030483372586405702E-16, 16.81805478080879723, 1.177218809571307784E-16 ) ) ;
#267 = EDGE_LOOP ( 'NONE', ( #528, #290 ) ) ;
#268 = DIRECTION ( 'NONE',  ( -1.000000000000000000, 0.000000000000000000, 2.407030830892924907E-16 ) ) ;
#269 = DIRECTION ( 'NONE',  ( 0.000000000000000000, 0.000000000000000000, -1.000000000000000000 ) ) ;
#270 = VERTEX_POINT ( 'NONE', #262 ) ;
#271 = FACE_OUTER_BOUND ( 'NONE', #876, .T. ) ;
#272 = ORIENTED_EDGE ( 'NONE', *, *, #1016, .T. ) ;
#273 = LINE ( 'NONE', #1280, #471 ) ;
#274 = EDGE_CURVE ( 'NONE', #1187, #610, #570, .T. ) ;
#275 = CARTESIAN_POINT ( 'NONE',  ( -1.030483372586405702E-16, 22.72355478080880076, 1.177218809571307784E-16 ) ) ;
#276 = ORIENTED_EDGE ( 'NONE', *, *, #898, .T. ) ;
#277 = EDGE_CURVE ( 'NONE', #559, #1232, #1099, .T. ) ;
#278 = DIRECTION ( 'NONE',  ( 0.000000000000000000, 0.000000000000000000, -1.000000000000000000 ) ) ;
#279 = ORIENTED_EDGE ( 'NONE', *, *, #649, .F. ) ;
#280 = ADVANCED_FACE ( 'NONE', ( #861 ), #643, .T. ) ;
#281 = AXIS2_PLACEMENT_3D ( 'NONE', #910, #1200, #14 ) ;
#282 = DIRECTION ( 'NONE',  ( 0.000000000000000000, -1.000000000000000000, 0.000000000000000000 ) ) ;
#283 = CARTESIAN_POINT ( 'NONE',  ( 1.801725442932202492, 24.36820478080879582, -4.349749999999600547 ) ) ;
#284 = VERTEX_POINT ( 'NONE', #99 ) ;
#285 = VECTOR ( 'NONE', #632, 1000.000000000000000 ) ;
#286 = VECTOR ( 'NONE', #771, 1000.000000000000000 ) ;
#287 = VERTEX_POINT ( 'NONE', #807 ) ;
#288 = CARTESIAN_POINT ( 'NONE',  ( -4.349749999999600547, 22.72355478080880076, 1.801725442932205379 ) ) ;
#289 = CARTESIAN_POINT ( 'NONE',  ( 5.127624999999637723, 20.88840478080879848, 5.127625000000000099 ) ) ;
#290 = ORIENTED_EDGE ( 'NONE', *, *, #977, .F. ) ;
#291 = DIRECTION ( 'NONE',  ( 1.000000000000000000, 0.000000000000000000, 0.000000000000000000 ) ) ;
#292 = PLANE ( 'NONE',  #394 ) ;
#293 = ADVANCED_FACE ( 'NONE', ( #202 ), #315, .F. ) ;
#294 = SURFACE_STYLE_USAGE ( .BOTH. , #1214 ) ;
#295 = EDGE_CURVE ( 'NONE', #915, #317, #499, .T. ) ;
#296 = AXIS2_PLACEMENT_3D ( 'NONE', #950, #854, #737 ) ;
#297 = DIRECTION ( 'NONE',  ( 0.000000000000000000, 0.000000000000000000, -1.000000000000000000 ) ) ;
#298 = PRESENTATION_LAYER_ASSIGNMENT (  '', '', ( #616 ) ) ;
#299 = ADVANCED_FACE ( 'NONE', ( #1021 ), #325, .T. ) ;
#300 = CIRCLE ( 'NONE', #153, 4.960937499999487521 ) ;
#301 = CARTESIAN_POINT ( 'NONE',  ( -1.030483372586405702E-16, 16.81805478080879723, 1.177218809571307784E-16 ) ) ;
#302 = SURFACE_STYLE_USAGE ( .BOTH. , #919 ) ;
#303 = VERTEX_POINT ( 'NONE', #11 ) ;
#304 = CYLINDRICAL_SURFACE ( 'NONE', #806, 5.159374999999187139 ) ;
#305 = DIRECTION ( 'NONE',  ( 0.000000000000000000, 0.000000000000000000, 1.000000000000000000 ) ) ;
#306 = PRODUCT_DEFINITION_FORMATION_WITH_SPECIFIED_SOURCE ( 'ANY', '', #1250, .NOT_KNOWN. ) ;
#307 = VECTOR ( 'NONE', #447, 1000.000000000000000 ) ;
#308 = DIRECTION ( 'NONE',  ( 0.000000000000000000, 0.000000000000000000, -1.000000000000000000 ) ) ;
#309 = CARTESIAN_POINT ( 'NONE',  ( -4.349749999999600547, 36.67115566667240500, 1.801725442932205379 ) ) ;
#310 = DIRECTION ( 'NONE',  ( 0.000000000000000000, 0.000000000000000000, 1.000000000000000000 ) ) ;
#311 = EDGE_LOOP ( 'NONE', ( #741, #663 ) ) ;
#312 = CARTESIAN_POINT ( 'NONE',  ( -1.030483372586405702E-16, 30.72455478080880198, 1.177218809571307784E-16 ) ) ;
#313 = ORIENTED_EDGE ( 'NONE', *, *, #607, .T. ) ;
#314 = EDGE_CURVE ( 'NONE', #873, #575, #1042, .T. ) ;
#315 = PLANE ( 'NONE',  #159 ) ;
#316 = SURFACE_SIDE_STYLE ('',( #424 ) ) ;
#317 = VERTEX_POINT ( 'NONE', #1027 ) ;
#318 = EDGE_CURVE ( 'NONE', #1072, #505, #120, .T. ) ;
#319 = UNCERTAINTY_MEASURE_WITH_UNIT (LENGTH_MEASURE( 1.000000000000000082E-05 ), #875, 'distance_accuracy_value', 'NONE');
#320 = CARTESIAN_POINT ( 'NONE',  ( 4.349749999999600547, 22.72355478080880076, -1.804842005505781711E-15 ) ) ;
#321 = CARTESIAN_POINT ( 'NONE',  ( 4.801897008352056686E-16, 22.02505478080879797, 4.762499999999337597 ) ) ;
#322 = PLANE ( 'NONE',  #1080 ) ;
#323 = AXIS2_PLACEMENT_3D ( 'NONE', #605, #1017, #97 ) ;
#324 = AXIS2_PLACEMENT_3D ( 'NONE', #45, #31, #1159 ) ;
#325 = CYLINDRICAL_SURFACE ( 'NONE', #913, 4.762499999999337597 ) ;
#326 = ORIENTED_EDGE ( 'NONE', *, *, #900, .T. ) ;
#327 = VECTOR ( 'NONE', #759, 1000.000000000000000 ) ;
#328 = DIRECTION ( 'NONE',  ( 2.407030830892924907E-16, 0.000000000000000000, 1.000000000000000000 ) ) ;
#329 = DIRECTION ( 'NONE',  ( 1.000000000000000000, 0.000000000000000000, 0.000000000000000000 ) ) ;
#330 = DIRECTION ( 'NONE',  ( -1.000000000000000000, 0.000000000000000000, 0.000000000000000000 ) ) ;
#331 = ORIENTED_EDGE ( 'NONE', *, *, #81, .T. ) ;
#332 = ADVANCED_FACE ( 'NONE', ( #800 ), #304, .T. ) ;
#333 = PLANE ( 'NONE',  #1163 ) ;
#334 = DIRECTION ( 'NONE',  ( 1.000000000000000000, 0.000000000000000000, 0.000000000000000000 ) ) ;
#335 = DIRECTION ( 'NONE',  ( 0.000000000000000000, -1.000000000000000000, 0.000000000000000000 ) ) ;
#336 = DIRECTION ( 'NONE',  ( 0.000000000000000000, 0.000000000000000000, -1.000000000000000000 ) ) ;
#337 = ORIENTED_EDGE ( 'NONE', *, *, #398, .T. ) ;
#338 = EDGE_CURVE ( 'NONE', #934, #1107, #243, .T. ) ;
#339 = CARTESIAN_POINT ( 'NONE',  ( 1.801725442932202492, 36.67115566667240500, -4.349749999999600547 ) ) ;
#340 = VERTEX_POINT ( 'NONE', #647 ) ;
#341 = DIRECTION ( 'NONE',  ( 0.000000000000000000, -1.000000000000000000, 0.000000000000000000 ) ) ;
#342 = CARTESIAN_POINT ( 'NONE',  ( -6.724650000000225170, 16.81805478080879723, -5.159374999999999822 ) ) ;
#343 = AXIS2_PLACEMENT_3D ( 'NONE', #55, #966, #48 ) ;
#344 = DIRECTION ( 'NONE',  ( -1.000000000000000000, 0.000000000000000000, 0.000000000000000000 ) ) ;
#345 = EDGE_LOOP ( 'NONE', ( #1123, #683 ) ) ;
#346 = VECTOR ( 'NONE', #883, 1000.000000000000000 ) ;
#347 = DIRECTION ( 'NONE',  ( 2.407030830892919977E-16, 0.000000000000000000, 1.000000000000000000 ) ) ;
#348 = ORIENTED_EDGE ( 'NONE', *, *, #994, .T. ) ;
#349 = CIRCLE ( 'NONE', #935, 4.762499999999337597 ) ;
#350 = CARTESIAN_POINT ( 'NONE',  ( -4.349749999999600547, 24.36820478080879582, -1.801725442932202270 ) ) ;
#351 = DIRECTION ( 'NONE',  ( 0.000000000000000000, 0.000000000000000000, -1.000000000000000000 ) ) ;
#352 = CIRCLE ( 'NONE', #956, 3.571874999999554934 ) ;
#353 = CARTESIAN_POINT ( 'NONE',  ( 6.724650000000225170, 16.81805478080879723, 5.159374999999999822 ) ) ;
#354 = VERTEX_POINT ( 'NONE', #18 ) ;
#355 = FACE_OUTER_BOUND ( 'NONE', #1178, .T. ) ;
#356 = VERTEX_POINT ( 'NONE', #1242 ) ;
#357 = CARTESIAN_POINT ( 'NONE',  ( 4.349749999999600547, 36.67115566667240500, 1.801725442932200272 ) ) ;
#358 = CARTESIAN_POINT ( 'NONE',  ( -1.030483372586405702E-16, 22.72355478080880076, 1.177218809571307784E-16 ) ) ;
#359 = CARTESIAN_POINT ( 'NONE',  ( 6.724650000000225170, 19.90415478080879907, 5.159374999999999822 ) ) ;
#360 = EDGE_LOOP ( 'NONE', ( #128, #774 ) ) ;
#361 = ADVANCED_FACE ( 'NONE', ( #1047 ), #1134, .T. ) ;
#362 = LINE ( 'NONE', #757, #257 ) ;
#363 = ORIENTED_EDGE ( 'NONE', *, *, #1204, .F. ) ;
#364 = FACE_OUTER_BOUND ( 'NONE', #669, .T. ) ;
#365 = CARTESIAN_POINT ( 'NONE',  ( 4.072849460734368863E-16, 24.36820478080879582, 4.167187499999112532 ) ) ;
#366 = CARTESIAN_POINT ( 'NONE',  ( -5.127624999999637723, 20.88840478080879848, 5.127625000000000099 ) ) ;
#367 = ORIENTED_EDGE ( 'NONE', *, *, #836, .T. ) ;
#368 = AXIS2_PLACEMENT_3D ( 'NONE', #82, #378, #282 ) ;
#369 = CARTESIAN_POINT ( 'NONE',  ( -1.030483372586405702E-16, 16.81805478080879723, 1.177218809571307784E-16 ) ) ;
#370 = ORIENTED_EDGE ( 'NONE', *, *, #199, .T. ) ;
#371 = CARTESIAN_POINT ( 'NONE',  ( -1.030483372586405702E-16, 30.08955478080879686, -3.571874999999554934 ) ) ;
#372 = PLANE ( 'NONE',  #1084 ) ;
#373 = ORIENTED_EDGE ( 'NONE', *, *, #492, .F. ) ;
#374 = VECTOR ( 'NONE', #1162, 1000.000000000000000 ) ;
#375 =( NAMED_UNIT ( * ) PLANE_ANGLE_UNIT ( ) SI_UNIT ( $, .RADIAN. ) );
#376 = EDGE_LOOP ( 'NONE', ( #331, #1285, #1215 ) ) ;
#377 = ADVANCED_FACE ( 'NONE', ( #137, #848 ), #127, .F. ) ;
#378 = DIRECTION ( 'NONE',  ( 0.7071067811865480168, 0.000000000000000000, 0.7071067811865470176 ) ) ;
#379 = DIRECTION ( 'NONE',  ( 0.000000000000000000, -1.000000000000000000, 0.000000000000000000 ) ) ;
#380 = ORIENTED_EDGE ( 'NONE', *, *, #1092, .F. ) ;
#381 = UNCERTAINTY_MEASURE_WITH_UNIT (LENGTH_MEASURE( 1.000000000000000082E-05 ), #834, 'distance_accuracy_value', 'NONE');
#382 = ADVANCED_FACE ( 'NONE', ( #856 ), #833, .F. ) ;
#383 = CYLINDRICAL_SURFACE ( 'NONE', #23, 4.762499999999337597 ) ;
#384 = ORIENTED_EDGE ( 'NONE', *, *, #163, .F. ) ;
#385 =( NAMED_UNIT ( * ) PLANE_ANGLE_UNIT ( ) SI_UNIT ( $, .RADIAN. ) );
#386 = CARTESIAN_POINT ( 'NONE',  ( -1.030483372586405702E-16, 20.88840478080879848, 1.177218809571307784E-16 ) ) ;
#387 = VERTEX_POINT ( 'NONE', #34 ) ;
#388 = AXIS2_PLACEMENT_3D ( 'NONE', #165, #479, #57 ) ;
#389 = ORIENTED_EDGE ( 'NONE', *, *, #440, .T. ) ;
#390 = VECTOR ( 'NONE', #943, 1000.000000000000000 ) ;
#391 = DIRECTION ( 'NONE',  ( -1.000000000000000000, 0.000000000000000000, 2.407030830892924907E-16 ) ) ;
#392 = CARTESIAN_POINT ( 'NONE',  ( -6.724650000000225170, 19.90415478080879907, -5.159374999999999822 ) ) ;
#393 = ORIENTED_EDGE ( 'NONE', *, *, #1153, .F. ) ;
#394 = AXIS2_PLACEMENT_3D ( 'NONE', #422, #899, #498 ) ;
#395 = AXIS2_PLACEMENT_3D ( 'NONE', #1065, #462, #164 ) ;
#396 = VECTOR ( 'NONE', #484, 1000.000000000000000 ) ;
#397 = DIRECTION ( 'NONE',  ( 0.000000000000000000, -1.000000000000000000, 0.000000000000000000 ) ) ;
#398 = EDGE_CURVE ( 'NONE', #270, #1205, #228, .T. ) ;
#399 = ORIENTED_EDGE ( 'NONE', *, *, #338, .F. ) ;
#400 =( LENGTH_UNIT ( ) NAMED_UNIT ( * ) SI_UNIT ( .MILLI., .METRE. ) );
#401 = ADVANCED_FACE ( 'NONE', ( #549 ), #443, .T. ) ;
#402 = DIRECTION ( 'NONE',  ( -0.7071067811865480168, 0.000000000000000000, -0.7071067811865470176 ) ) ;
#403 = DIRECTION ( 'NONE',  ( 0.000000000000000000, 0.000000000000000000, -1.000000000000000000 ) ) ;
#404 = DIRECTION ( 'NONE',  ( 0.000000000000000000, 0.000000000000000000, -1.000000000000000000 ) ) ;
#405 = AXIS2_PLACEMENT_3D ( 'NONE', #4, #1001, #414 ) ;
#406 = CARTESIAN_POINT ( 'NONE',  ( -4.349749999999600547, 24.36820478080879582, 1.801725442932205379 ) ) ;
#407 = AXIS2_PLACEMENT_3D ( 'NONE', #1211, #1295, #500 ) ;
#408 = DIRECTION ( 'NONE',  ( -0.000000000000000000, 1.000000000000000000, 0.000000000000000000 ) ) ;
#409 = CARTESIAN_POINT ( 'NONE',  ( -6.724650000000225170, 16.81805478080879723, 5.159374999999999822 ) ) ;
#410 = ORIENTED_EDGE ( 'NONE', *, *, #1108, .T. ) ;
#411 =( GEOMETRIC_REPRESENTATION_CONTEXT ( 3 ) GLOBAL_UNCERTAINTY_ASSIGNED_CONTEXT ( ( #985 ) ) GLOBAL_UNIT_ASSIGNED_CONTEXT ( ( #400, #423, #608 ) ) REPRESENTATION_CONTEXT ( 'NONE', 'WORKASPACE' ) );
#412 = ADVANCED_FACE ( 'NONE', ( #932 ), #40, .F. ) ;
#413 = LINE ( 'NONE', #1122, #44 ) ;
#414 = DIRECTION ( 'NONE',  ( 0.000000000000000000, 0.000000000000000000, -1.000000000000000000 ) ) ;
#415 = EDGE_LOOP ( 'NONE', ( #635, #830, #720, #1114 ) ) ;
#416 = EDGE_CURVE ( 'NONE', #614, #776, #449, .T. ) ;
#417 = SURFACE_STYLE_USAGE ( .BOTH. , #222 ) ;
#418 = APPLICATION_PROTOCOL_DEFINITION ( 'draft international standard', 'automotive_design', 1998, #706 ) ;
#419 = ORIENTED_EDGE ( 'NONE', *, *, #430, .F. ) ;
#420 = CARTESIAN_POINT ( 'NONE',  ( 5.127624999999637723, 20.88840478080879848, 5.127625000000000099 ) ) ;
#421 = ORIENTED_EDGE ( 'NONE', *, *, #167, .F. ) ;
#422 = CARTESIAN_POINT ( 'NONE',  ( -3.637534008945605191, 22.02505478080879797, 1.177218809571307784E-16 ) ) ;
#423 =( NAMED_UNIT ( * ) PLANE_ANGLE_UNIT ( ) SI_UNIT ( $, .RADIAN. ) );
#424 = SURFACE_STYLE_FILL_AREA ( #7 ) ;
#425 = ORIENTED_EDGE ( 'NONE', *, *, #933, .F. ) ;
#426 = CARTESIAN_POINT ( 'NONE',  ( 4.349749999999600547, 24.36820478080879582, -1.801725442932204935 ) ) ;
#427 = CARTESIAN_POINT ( 'NONE',  ( -5.127624999999637723, 20.88840478080879848, 5.127625000000000099 ) ) ;
#428 = CIRCLE ( 'NONE', #532, 4.167187499999112532 ) ;
#429 = DIRECTION ( 'NONE',  ( 0.7071067811865470176, 0.000000000000000000, -0.7071067811865480168 ) ) ;
#430 = EDGE_CURVE ( 'NONE', #596, #584, #181, .T. ) ;
#431 = ORIENTED_EDGE ( 'NONE', *, *, #1070, .T. ) ;
#432 = VECTOR ( 'NONE', #465, 1000.000000000000000 ) ;
#433 = STYLED_ITEM ( 'NONE', ( #503 ), #293 ) ;
#434 = LINE ( 'NONE', #843, #1137 ) ;
#435 = EDGE_CURVE ( 'NONE', #575, #873, #352, .T. ) ;
#436 = LINE ( 'NONE', #32, #129 ) ;
#437 = PLANE ( 'NONE',  #1244 ) ;
#438 = DIRECTION ( 'NONE',  ( 0.000000000000000000, -1.000000000000000000, 0.000000000000000000 ) ) ;
#439 = ORIENTED_EDGE ( 'NONE', *, *, #1070, .F. ) ;
#440 = EDGE_CURVE ( 'NONE', #1024, #844, #150, .T. ) ;
#441 = DIRECTION ( 'NONE',  ( -0.000000000000000000, 1.000000000000000000, 0.000000000000000000 ) ) ;
#442 = DIRECTION ( 'NONE',  ( 0.000000000000000000, 0.000000000000000000, -1.000000000000000000 ) ) ;
#443 = CYLINDRICAL_SURFACE ( 'NONE', #1, 4.167187499999112532 ) ;
#444 = ORIENTED_EDGE ( 'NONE', *, *, #1247, .T. ) ;
#445 = LINE ( 'NONE', #230, #581 ) ;
#446 = CARTESIAN_POINT ( 'NONE',  ( 4.151586595878068847E-16, 31.42305478080879766, 3.502025000000405175 ) ) ;
#447 = DIRECTION ( 'NONE',  ( -0.7071067811865470176, 0.000000000000000000, 0.7071067811865480168 ) ) ;
#448 = MECHANICAL_DESIGN_GEOMETRIC_PRESENTATION_REPRESENTATION (  '', ( #695 ), #973 ) ;
#449 = LINE ( 'NONE', #353, #744 ) ;
#450 = EDGE_LOOP ( 'NONE', ( #384, #783, #1131 ) ) ;
#451 = AXIS2_PLACEMENT_3D ( 'NONE', #1054, #441, #53 ) ;
#452 = CARTESIAN_POINT ( 'NONE',  ( 1.801725442932202492, 36.67115566667240500, 4.349749999999600547 ) ) ;
#453 = VERTEX_POINT ( 'NONE', #456 ) ;
#454 = EDGE_CURVE ( 'NONE', #761, #108, #1253, .T. ) ;
#455 = DIRECTION ( 'NONE',  ( 0.000000000000000000, -1.000000000000000000, 0.000000000000000000 ) ) ;
#456 = CARTESIAN_POINT ( 'NONE',  ( 5.044912857558031020E-16, 30.72455478080880198, 4.960937499999487521 ) ) ;
#457 = VERTEX_POINT ( 'NONE', #235 ) ;
#458 = ADVANCED_FACE ( 'NONE', ( #1061 ), #157, .F. ) ;
#459 = CARTESIAN_POINT ( 'NONE',  ( -4.349749999999600547, 24.36820478080879582, -1.801725442932202270 ) ) ;
#460 = EDGE_LOOP ( 'NONE', ( #726, #313, #272 ) ) ;
#461 = CARTESIAN_POINT ( 'NONE',  ( 1.801725442932202492, 22.72355478080880076, -4.349749999999600547 ) ) ;
#462 = DIRECTION ( 'NONE',  ( 0.000000000000000000, -1.000000000000000000, 0.000000000000000000 ) ) ;
#463 = LINE ( 'NONE', #578, #1146 ) ;
#464 = ORIENTED_EDGE ( 'NONE', *, *, #649, .T. ) ;
#465 = DIRECTION ( 'NONE',  ( 0.000000000000000000, 0.000000000000000000, -1.000000000000000000 ) ) ;
#466 = EDGE_LOOP ( 'NONE', ( #1028, #1260, #348, #619, #171, #251, #589, #389 ) ) ;
#467 = DIRECTION ( 'NONE',  ( -2.407030830892924907E-16, 0.000000000000000000, -1.000000000000000000 ) ) ;
#468 = DIRECTION ( 'NONE',  ( 0.000000000000000000, 0.000000000000000000, -1.000000000000000000 ) ) ;
#469 = ORIENTED_EDGE ( 'NONE', *, *, #1095, .T. ) ;
#470 = EDGE_CURVE ( 'NONE', #485, #1152, #543, .T. ) ;
#471 = VECTOR ( 'NONE', #391, 1000.000000000000000 ) ;
#472 = PLANE ( 'NONE',  #718 ) ;
#473 = ORIENTED_EDGE ( 'NONE', *, *, #295, .F. ) ;
#474 = CIRCLE ( 'NONE', #764, 5.159374999999187139 ) ;
#475 = DIRECTION ( 'NONE',  ( 0.000000000000000000, -1.000000000000000000, 0.000000000000000000 ) ) ;
#476 = CIRCLE ( 'NONE', #50, 5.159374999999187139 ) ;
#477 = ADVANCED_FACE ( 'NONE', ( #170 ), #372, .F. ) ;
#478 = PRESENTATION_STYLE_ASSIGNMENT (( #302 ) ) ;
#479 = DIRECTION ( 'NONE',  ( 0.000000000000000000, -1.000000000000000000, 0.000000000000000000 ) ) ;
#480 = EDGE_LOOP ( 'NONE', ( #1270, #971 ) ) ;
#481 = DIRECTION ( 'NONE',  ( 0.000000000000000000, -1.000000000000000000, 0.000000000000000000 ) ) ;
#482 = ORIENTED_EDGE ( 'NONE', *, *, #36, .T. ) ;
#483 = CARTESIAN_POINT ( 'NONE',  ( 4.349749999999600547, 24.36820478080879582, 1.801725442932200272 ) ) ;
#484 = DIRECTION ( 'NONE',  ( 0.000000000000000000, 0.000000000000000000, -1.000000000000000000 ) ) ;
#485 = VERTEX_POINT ( 'NONE', #1268 ) ;
#486 = ORIENTED_EDGE ( 'NONE', *, *, #277, .F. ) ;
#487 = LINE ( 'NONE', #598, #1299 ) ;
#488 = DIRECTION ( 'NONE',  ( 0.000000000000000000, -1.000000000000000000, 0.000000000000000000 ) ) ;
#489 = ORIENTED_EDGE ( 'NONE', *, *, #83, .F. ) ;
#490 = AXIS2_PLACEMENT_3D ( 'NONE', #716, #700, #1025 ) ;
#491 = CIRCLE ( 'NONE', #130, 3.571874999999554934 ) ;
#492 = EDGE_CURVE ( 'NONE', #886, #1072, #686, .T. ) ;
#493 = VERTEX_POINT ( 'NONE', #1259 ) ;
#494 = VECTOR ( 'NONE', #113, 1000.000000000000000 ) ;
#495 = STYLED_ITEM ( 'NONE', ( #196 ), #280 ) ;
#496 = ADVANCED_FACE ( 'NONE', ( #1176 ), #1272, .F. ) ;
#497 = LINE ( 'NONE', #205, #739 ) ;
#498 = DIRECTION ( 'NONE',  ( 1.000000000000000000, 0.000000000000000000, 0.000000000000000000 ) ) ;
#499 = LINE ( 'NONE', #618, #136 ) ;
#500 = DIRECTION ( 'NONE',  ( 0.000000000000000000, 0.000000000000000000, -1.000000000000000000 ) ) ;
#501 = CARTESIAN_POINT ( 'NONE',  ( 5.127624999999637723, 20.88840478080879848, -5.127625000000000099 ) ) ;
#502 = EDGE_LOOP ( 'NONE', ( #35, #473, #19, #937 ) ) ;
#503 = PRESENTATION_STYLE_ASSIGNMENT (( #417 ) ) ;
#504 = DIRECTION ( 'NONE',  ( 1.000000000000000000, 0.000000000000000000, 0.000000000000000000 ) ) ;
#505 = VERTEX_POINT ( 'NONE', #591 ) ;
#506 = EDGE_CURVE ( 'NONE', #915, #614, #463, .T. ) ;
#507 = AXIS2_PLACEMENT_3D ( 'NONE', #1132, #1276, #987 ) ;
#508 = LINE ( 'NONE', #1207, #847 ) ;
#509 = EDGE_CURVE ( 'NONE', #221, #535, #84, .T. ) ;
#510 = AXIS2_PLACEMENT_3D ( 'NONE', #779, #467, #268 ) ;
#511 = DIRECTION ( 'NONE',  ( 0.000000000000000000, 0.000000000000000000, -1.000000000000000000 ) ) ;
#512 = FACE_OUTER_BOUND ( 'NONE', #345, .T. ) ;
#513 = FILL_AREA_STYLE_COLOUR ( '', #685 ) ;
#514 = DIRECTION ( 'NONE',  ( 1.000000000000000000, 0.000000000000000000, 0.000000000000000000 ) ) ;
#515 = ORIENTED_EDGE ( 'NONE', *, *, #42, .T. ) ;
#516 = AXIS2_PLACEMENT_3D ( 'NONE', #427, #705, #701 ) ;
#517 = DIRECTION ( 'NONE',  ( 0.000000000000000000, 0.000000000000000000, -1.000000000000000000 ) ) ;
#518 = DIRECTION ( 'NONE',  ( 0.000000000000000000, 0.000000000000000000, -1.000000000000000000 ) ) ;
#519 = FILL_AREA_STYLE ('',( #210 ) ) ;
#520 = CARTESIAN_POINT ( 'NONE',  ( -1.030483372586405702E-16, 20.88840478080879848, 1.177218809571307784E-16 ) ) ;
#521 = DIRECTION ( 'NONE',  ( 0.000000000000000000, -1.000000000000000000, 0.000000000000000000 ) ) ;
#522 = ORIENTED_EDGE ( 'NONE', *, *, #1012, .T. ) ;
#523 = LINE ( 'NONE', #420, #871 ) ;
#524 = EDGE_LOOP ( 'NONE', ( #122, #464, #85, #1172 ) ) ;
#525 = EDGE_LOOP ( 'NONE', ( #367, #52, #568, #1069 ) ) ;
#526 = CARTESIAN_POINT ( 'NONE',  ( -4.894504725938699785, 22.72355478080880076, -1.256970716993097259 ) ) ;
#527 = APPLICATION_PROTOCOL_DEFINITION ( 'draft international standard', 'automotive_design', 1998, #220 ) ;
#528 = ORIENTED_EDGE ( 'NONE', *, *, #1286, .F. ) ;
#529 = ADVANCED_FACE ( 'NONE', ( #72 ), #1171, .F. ) ;
#530 = FACE_OUTER_BOUND ( 'NONE', #524, .T. ) ;
#531 = CARTESIAN_POINT ( 'NONE',  ( -1.030483372586405702E-16, 20.88840478080879848, 1.177218809571307784E-16 ) ) ;
#532 = AXIS2_PLACEMENT_3D ( 'NONE', #679, #674, #78 ) ;
#533 =( GEOMETRIC_REPRESENTATION_CONTEXT ( 3 ) GLOBAL_UNCERTAINTY_ASSIGNED_CONTEXT ( ( #621 ) ) GLOBAL_UNIT_ASSIGNED_CONTEXT ( ( #878, #385, #1265 ) ) REPRESENTATION_CONTEXT ( 'NONE', 'WORKASPACE' ) );
#534 = DIRECTION ( 'NONE',  ( 0.000000000000000000, 0.000000000000000000, -1.000000000000000000 ) ) ;
#535 = VERTEX_POINT ( 'NONE', #760 ) ;
#536 = EDGE_CURVE ( 'NONE', #680, #236, #1297, .T. ) ;
#537 = VECTOR ( 'NONE', #335, 1000.000000000000000 ) ;
#538 = VECTOR ( 'NONE', #351, 1000.000000000000000 ) ;
#539 = DIRECTION ( 'NONE',  ( 0.000000000000000000, -1.000000000000000000, 0.000000000000000000 ) ) ;
#540 = ORIENTED_EDGE ( 'NONE', *, *, #318, .F. ) ;
#541 = CARTESIAN_POINT ( 'NONE',  ( -5.127624999999637723, 20.88840478080879848, 5.127625000000000099 ) ) ;
#542 = LINE ( 'NONE', #342, #285 ) ;
#543 = LINE ( 'NONE', #941, #111 ) ;
#544 = VERTEX_POINT ( 'NONE', #283 ) ;
#545 = CARTESIAN_POINT ( 'NONE',  ( -1.801725442932202492, 24.36820478080879582, 4.349749999999600547 ) ) ;
#546 = VERTEX_POINT ( 'NONE', #668 ) ;
#547 = DIRECTION ( 'NONE',  ( 0.000000000000000000, -1.000000000000000000, 0.000000000000000000 ) ) ;
#548 = CARTESIAN_POINT ( 'NONE',  ( -5.127624999999637723, 20.88840478080879848, 0.5714999999959450294 ) ) ;
#549 = FACE_OUTER_BOUND ( 'NONE', #942, .T. ) ;
#550 = ORIENTED_EDGE ( 'NONE', *, *, #688, .F. ) ;
#551 = ADVANCED_FACE ( 'NONE', ( #782 ), #586, .F. ) ;
#552 = DIRECTION ( 'NONE',  ( 0.000000000000000000, -1.000000000000000000, 0.000000000000000000 ) ) ;
#553 = VERTEX_POINT ( 'NONE', #1284 ) ;
#554 = EDGE_CURVE ( 'NONE', #546, #610, #791, .T. ) ;
#555 = CARTESIAN_POINT ( 'NONE',  ( -5.127624999999637723, 20.88840478080879848, -5.127625000000000099 ) ) ;
#556 = CARTESIAN_POINT ( 'NONE',  ( -1.030483372586405702E-16, 30.08955478080879686, -4.960937499999487521 ) ) ;
#557 = COLOUR_RGB ( '',0.2509803921568627416, 0.2509803921568627416, 0.2509803921568627416 ) ;
#558 = CARTESIAN_POINT ( 'NONE',  ( 1.256970716993095039, 22.72355478080880076, -4.894504725938699785 ) ) ;
#559 = VERTEX_POINT ( 'NONE', #983 ) ;
#560 = VECTOR ( 'NONE', #1049, 1000.000000000000000 ) ;
#561 = DIRECTION ( 'NONE',  ( 1.000000000000000000, 0.000000000000000000, 0.000000000000000000 ) ) ;
#562 = ORIENTED_EDGE ( 'NONE', *, *, #982, .F. ) ;
#563 = AXIS2_PLACEMENT_3D ( 'NONE', #823, #945, #329 ) ;
#564 = CARTESIAN_POINT ( 'NONE',  ( -4.349749999999600547, 36.67115566667240500, 1.801725442932205379 ) ) ;
#565 = DIRECTION ( 'NONE',  ( 0.000000000000000000, 0.000000000000000000, -1.000000000000000000 ) ) ;
#566 = DIRECTION ( 'NONE',  ( 1.000000000000000000, 0.000000000000000000, 0.000000000000000000 ) ) ;
#567 = ORIENTED_EDGE ( 'NONE', *, *, #963, .F. ) ;
#568 = ORIENTED_EDGE ( 'NONE', *, *, #1108, .F. ) ;
#569 = DIRECTION ( 'NONE',  ( 0.000000000000000000, 1.000000000000000000, 0.000000000000000000 ) ) ;
#570 = LINE ( 'NONE', #667, #327 ) ;
#571 = EDGE_CURVE ( 'NONE', #270, #584, #64, .T. ) ;
#572 = CARTESIAN_POINT ( 'NONE',  ( -6.724650000000225170, 19.90415478080879907, 5.159374999999999822 ) ) ;
#573 = EDGE_LOOP ( 'NONE', ( #410, #859, #896, #857 ) ) ;
#574 = DIRECTION ( 'NONE',  ( 1.000000000000000000, 0.000000000000000000, 0.000000000000000000 ) ) ;
#575 = VERTEX_POINT ( 'NONE', #189 ) ;
#576 = EDGE_CURVE ( 'NONE', #1279, #841, #1011, .T. ) ;
#577 = CARTESIAN_POINT ( 'NONE',  ( -3.637534008945605191, 22.72355478080880076, -4.349749999999600547 ) ) ;
#578 = CARTESIAN_POINT ( 'NONE',  ( 6.724650000000225170, 16.81805478080879723, 5.159374999999999822 ) ) ;
#579 = ORIENTED_EDGE ( 'NONE', *, *, #1204, .T. ) ;
#580 = VECTOR ( 'NONE', #341, 1000.000000000000000 ) ;
#581 = VECTOR ( 'NONE', #539, 1000.000000000000000 ) ;
#582 = VECTOR ( 'NONE', #1004, 1000.000000000000000 ) ;
#583 = LINE ( 'NONE', #801, #1303 ) ;
#584 = VERTEX_POINT ( 'NONE', #872 ) ;
#585 = AXIS2_PLACEMENT_3D ( 'NONE', #755, #254, #29 ) ;
#586 = PLANE ( 'NONE',  #388 ) ;
#587 = ORIENTED_EDGE ( 'NONE', *, *, #1245, .F. ) ;
#588 = CYLINDRICAL_SURFACE ( 'NONE', #22, 4.960937499999487521 ) ;
#589 = ORIENTED_EDGE ( 'NONE', *, *, #21, .T. ) ;
#590 = PLANE ( 'NONE',  #368 ) ;
#591 = CARTESIAN_POINT ( 'NONE',  ( -1.801725442932205157, 22.72355478080880076, -4.349749999999600547 ) ) ;
#592 = ORIENTED_EDGE ( 'NONE', *, *, #274, .T. ) ;
#593 = EDGE_CURVE ( 'NONE', #354, #303, #428, .T. ) ;
#594 = FACE_OUTER_BOUND ( 'NONE', #466, .T. ) ;
#595 = EDGE_CURVE ( 'NONE', #1279, #236, #1071, .T. ) ;
#596 = VERTEX_POINT ( 'NONE', #1277 ) ;
#597 = VECTOR ( 'NONE', #517, 1000.000000000000000 ) ;
#598 = CARTESIAN_POINT ( 'NONE',  ( -1.030483372586405702E-16, 16.81805478080879723, -4.167187499999112532 ) ) ;
#599 = CARTESIAN_POINT ( 'NONE',  ( -1.030483372586405702E-16, 30.72455478080880198, 1.177218809571307784E-16 ) ) ;
#600 = DIRECTION ( 'NONE',  ( 0.000000000000000000, -1.000000000000000000, 0.000000000000000000 ) ) ;
#601 = VECTOR ( 'NONE', #625, 1000.000000000000000 ) ;
#602 = AXIS2_PLACEMENT_3D ( 'NONE', #359, #840, #1033 ) ;
#603 = DIRECTION ( 'NONE',  ( 0.000000000000000000, -1.000000000000000000, 0.000000000000000000 ) ) ;
#604 = DIRECTION ( 'NONE',  ( 0.000000000000000000, 0.000000000000000000, -1.000000000000000000 ) ) ;
#605 = CARTESIAN_POINT ( 'NONE',  ( -4.349749999999600547, 36.67115566667240500, -1.801725442932202270 ) ) ;
#606 = CARTESIAN_POINT ( 'NONE',  ( -1.030483372586405702E-16, 16.81805478080879723, -5.159374999999187139 ) ) ;
#607 = EDGE_CURVE ( 'NONE', #166, #596, #802, .T. ) ;
#608 =( NAMED_UNIT ( * ) SI_UNIT ( $, .STERADIAN. ) SOLID_ANGLE_UNIT ( ) );
#609 = FACE_OUTER_BOUND ( 'NONE', #226, .T. ) ;
#610 = VERTEX_POINT ( 'NONE', #392 ) ;
#611 = CARTESIAN_POINT ( 'NONE',  ( -1.030483372586405702E-16, 16.81805478080879723, -4.960937499999487521 ) ) ;
#612 = ADVANCED_FACE ( 'NONE', ( #1186 ), #870, .T. ) ;
#613 = LINE ( 'NONE', #195, #601 ) ;
#614 = VERTEX_POINT ( 'NONE', #1208 ) ;
#615 = DIRECTION ( 'NONE',  ( 0.000000000000000000, 0.000000000000000000, -1.000000000000000000 ) ) ;
#616 = STYLED_ITEM ( 'NONE', ( #77 ), #824 ) ;
#617 = DIRECTION ( 'NONE',  ( 0.000000000000000000, -1.000000000000000000, 0.000000000000000000 ) ) ;
#618 = CARTESIAN_POINT ( 'NONE',  ( -6.724650000000225170, 16.81805478080879723, 5.159374999999999822 ) ) ;
#619 = ORIENTED_EDGE ( 'NONE', *, *, #66, .T. ) ;
#620 = VECTOR ( 'NONE', #1050, 1000.000000000000000 ) ;
#621 = UNCERTAINTY_MEASURE_WITH_UNIT (LENGTH_MEASURE( 1.000000000000000082E-05 ), #878, 'distance_accuracy_value', 'NONE');
#622 = FACE_OUTER_BOUND ( 'NONE', #376, .T. ) ;
#623 = ORIENTED_EDGE ( 'NONE', *, *, #1129, .F. ) ;
#624 = LINE ( 'NONE', #1007, #152 ) ;
#625 = DIRECTION ( 'NONE',  ( 1.000000000000000000, 0.000000000000000000, -2.407030830892924907E-16 ) ) ;
#626 = DIRECTION ( 'NONE',  ( 0.000000000000000000, 0.000000000000000000, -1.000000000000000000 ) ) ;
#627 = ORIENTED_EDGE ( 'NONE', *, *, #142, .F. ) ;
#628 = EDGE_CURVE ( 'NONE', #584, #596, #624, .T. ) ;
#629 = PRODUCT_RELATED_PRODUCT_CATEGORY ( 'part', '', ( #1250 ) ) ;
#630 = FACE_OUTER_BOUND ( 'NONE', #178, .T. ) ;
#631 = EDGE_LOOP ( 'NONE', ( #393, #326, #849, #925 ) ) ;
#632 = DIRECTION ( 'NONE',  ( 0.000000000000000000, -1.000000000000000000, 0.000000000000000000 ) ) ;
#633 = ADVANCED_FACE ( 'NONE', ( #1221 ), #911, .F. ) ;
#634 = DIRECTION ( 'NONE',  ( 0.000000000000000000, -1.000000000000000000, 0.000000000000000000 ) ) ;
#635 = ORIENTED_EDGE ( 'NONE', *, *, #1012, .F. ) ;
#636 = CARTESIAN_POINT ( 'NONE',  ( -5.127624999999637723, 20.88840478080879848, 5.127625000000000099 ) ) ;
#637 = CARTESIAN_POINT ( 'NONE',  ( -3.637534008945605191, 30.08955478080879686, 1.177218809571307784E-16 ) ) ;
#638 = FACE_BOUND ( 'NONE', #991, .T. ) ;
#639 = CIRCLE ( 'NONE', #87, 5.159374999999187139 ) ;
#640 = DIRECTION ( 'NONE',  ( -0.000000000000000000, 1.000000000000000000, 0.000000000000000000 ) ) ;
#641 = ORIENTED_EDGE ( 'NONE', *, *, #42, .F. ) ;
#642 = CIRCLE ( 'NONE', #28, 3.502025000000405175 ) ;
#643 = CONICAL_SURFACE ( 'NONE', #198, 4.960937499999487521, 1.124267326361750197 ) ;
#644 = DIRECTION ( 'NONE',  ( 1.000000000000000000, 0.000000000000000000, 0.000000000000000000 ) ) ;
#645 = FACE_OUTER_BOUND ( 'NONE', #929, .T. ) ;
#646 = LINE ( 'NONE', #931, #307 ) ;
#647 = CARTESIAN_POINT ( 'NONE',  ( -1.030483372586405702E-16, 22.02505478080879797, -5.159374999999187139 ) ) ;
#648 = ORIENTED_EDGE ( 'NONE', *, *, #96, .F. ) ;
#649 = EDGE_CURVE ( 'NONE', #354, #264, #1202, .T. ) ;
#650 = LINE ( 'NONE', #837, #560 ) ;
#651 = EDGE_CURVE ( 'NONE', #356, #166, #696, .T. ) ;
#652 = DIRECTION ( 'NONE',  ( 0.000000000000000000, 0.000000000000000000, -1.000000000000000000 ) ) ;
#653 = DIRECTION ( 'NONE',  ( 2.810543203358299820E-16, 1.000000000000000000, 0.000000000000000000 ) ) ;
#654 = ORIENTED_EDGE ( 'NONE', *, *, #994, .F. ) ;
#655 = PLANE ( 'NONE',  #451 ) ;
#656 = EDGE_LOOP ( 'NONE', ( #60, #1256, #80, #1079 ) ) ;
#657 = DIRECTION ( 'NONE',  ( 0.000000000000000000, -1.000000000000000000, 0.000000000000000000 ) ) ;
#658 = AXIS2_PLACEMENT_3D ( 'NONE', #564, #143, #547 ) ;
#659 = DIRECTION ( 'NONE',  ( 0.000000000000000000, -1.000000000000000000, 0.000000000000000000 ) ) ;
#660 = ORIENTED_EDGE ( 'NONE', *, *, #36, .F. ) ;
#661 = AXIS2_PLACEMENT_3D ( 'NONE', #1138, #957, #238 ) ;
#662 = CARTESIAN_POINT ( 'NONE',  ( -1.030483372586405702E-16, 22.02505478080879797, 1.177218809571307784E-16 ) ) ;
#663 = ORIENTED_EDGE ( 'NONE', *, *, #160, .F. ) ;
#664 = EDGE_CURVE ( 'NONE', #166, #158, #811, .T. ) ;
#665 = CIRCLE ( 'NONE', #789, 5.159374999999187139 ) ;
#666 = CARTESIAN_POINT ( 'NONE',  ( -5.127624999999637723, 19.90415478080879907, 5.127625000000000099 ) ) ;
#667 = CARTESIAN_POINT ( 'NONE',  ( 6.724650000000225170, 19.90415478080879907, -5.159374999999999822 ) ) ;
#668 = CARTESIAN_POINT ( 'NONE',  ( -6.724650000000225170, 19.90415478080879907, 5.159374999999999822 ) ) ;
#669 = EDGE_LOOP ( 'NONE', ( #707, #1074, #363, #399 ) ) ;
#670 = EDGE_CURVE ( 'NONE', #453, #1055, #43, .T. ) ;
#671 = DIRECTION ( 'NONE',  ( 0.000000000000000000, -1.000000000000000000, 0.000000000000000000 ) ) ;
#672 = ORIENTED_EDGE ( 'NONE', *, *, #506, .T. ) ;
#673 = ADVANCED_FACE ( 'NONE', ( #918 ), #904, .T. ) ;
#674 = DIRECTION ( 'NONE',  ( 0.000000000000000000, -1.000000000000000000, 0.000000000000000000 ) ) ;
#675 = EDGE_LOOP ( 'NONE', ( #627, #204 ) ) ;
#676 = CARTESIAN_POINT ( 'NONE',  ( 5.127624999999637723, 20.88840478080879848, -5.127625000000000099 ) ) ;
#677 = ORIENTED_EDGE ( 'NONE', *, *, #1173, .F. ) ;
#678 = LINE ( 'NONE', #1076, #105 ) ;
#679 = CARTESIAN_POINT ( 'NONE',  ( -1.030483372586405702E-16, 26.50815478080879828, 1.177218809571307784E-16 ) ) ;
#680 = VERTEX_POINT ( 'NONE', #321 ) ;
#681 = VECTOR ( 'NONE', #131, 1000.000000000000000 ) ;
#682 = DIRECTION ( 'NONE',  ( 0.000000000000000000, 0.000000000000000000, -1.000000000000000000 ) ) ;
#683 = ORIENTED_EDGE ( 'NONE', *, *, #96, .T. ) ;
#684 = FILL_AREA_STYLE ('',( #1170 ) ) ;
#685 = COLOUR_RGB ( '',0.2509803921568627416, 0.2509803921568627416, 0.2509803921568627416 ) ;
#686 = LINE ( 'NONE', #1090, #286 ) ;
#687 = ORIENTED_EDGE ( 'NONE', *, *, #1095, .F. ) ;
#688 = EDGE_CURVE ( 'NONE', #584, #1205, #735, .T. ) ;
#689 = ORIENTED_EDGE ( 'NONE', *, *, #784, .T. ) ;
#690 = ADVANCED_FACE ( 'NONE', ( #926, #16 ), #831, .F. ) ;
#691 = PLANE ( 'NONE',  #510 ) ;
#692 = DIRECTION ( 'NONE',  ( 0.000000000000000000, 0.000000000000000000, -1.000000000000000000 ) ) ;
#693 = EDGE_LOOP ( 'NONE', ( #864, #1030 ) ) ;
#694 = ORIENTED_EDGE ( 'NONE', *, *, #670, .T. ) ;
#695 = STYLED_ITEM ( 'NONE', ( #478 ), #612 ) ;
#696 = CIRCLE ( 'NONE', #405, 5.159374999999187139 ) ;
#697 = CIRCLE ( 'NONE', #1217, 4.167187499999112532 ) ;
#698 = EDGE_CURVE ( 'NONE', #457, #264, #193, .T. ) ;
#699 = DIRECTION ( 'NONE',  ( 0.000000000000000000, -1.000000000000000000, 0.000000000000000000 ) ) ;
#700 = DIRECTION ( 'NONE',  ( 0.000000000000000000, -1.000000000000000000, 0.000000000000000000 ) ) ;
#701 = DIRECTION ( 'NONE',  ( 0.000000000000000000, 1.000000000000000000, 0.000000000000000000 ) ) ;
#702 = VECTOR ( 'NONE', #960, 1000.000000000000000 ) ;
#703 =( NAMED_UNIT ( * ) SI_UNIT ( $, .STERADIAN. ) SOLID_ANGLE_UNIT ( ) );
#704 = CARTESIAN_POINT ( 'NONE',  ( -1.030483372586405702E-16, 22.02505478080879797, 1.177218809571307784E-16 ) ) ;
#705 = DIRECTION ( 'NONE',  ( 1.000000000000000000, 0.000000000000000000, 0.000000000000000000 ) ) ;
#706 = APPLICATION_CONTEXT ( 'automotive_design' ) ;
#707 = ORIENTED_EDGE ( 'NONE', *, *, #61, .T. ) ;
#708 = CARTESIAN_POINT ( 'NONE',  ( 1.801725442932202492, 24.36820478080879582, 4.349749999999600547 ) ) ;
#709 = CARTESIAN_POINT ( 'NONE',  ( -1.030483372586405702E-16, 30.72455478080880198, 1.177218809571307784E-16 ) ) ;
#710 = DIRECTION ( 'NONE',  ( 0.000000000000000000, 0.000000000000000000, -1.000000000000000000 ) ) ;
#711 = FILL_AREA_STYLE ('',( #213 ) ) ;
#712 = PRODUCT_CONTEXT ( 'NONE', #706, 'mechanical' ) ;
#713 = VERTEX_POINT ( 'NONE', #134 ) ;
#714 = DIRECTION ( 'NONE',  ( 0.000000000000000000, -1.000000000000000000, 0.000000000000000000 ) ) ;
#715 = VECTOR ( 'NONE', #225, 1000.000000000000000 ) ;
#716 = CARTESIAN_POINT ( 'NONE',  ( -1.030483372586405702E-16, 20.88840478080879848, 1.177218809571307784E-16 ) ) ;
#717 = VERTEX_POINT ( 'NONE', #350 ) ;
#718 = AXIS2_PLACEMENT_3D ( 'NONE', #161, #305, #574 ) ;
#719 = DIRECTION ( 'NONE',  ( 0.000000000000000000, 0.000000000000000000, -1.000000000000000000 ) ) ;
#720 = ORIENTED_EDGE ( 'NONE', *, *, #982, .T. ) ;
#721 = EDGE_CURVE ( 'NONE', #1152, #30, #939, .T. ) ;
#722 = CARTESIAN_POINT ( 'NONE',  ( 5.127624999999637723, 20.88840478080879848, -5.127625000000000099 ) ) ;
#723 = EDGE_CURVE ( 'NONE', #317, #229, #436, .T. ) ;
#724 = CARTESIAN_POINT ( 'NONE',  ( -1.030483372586405702E-16, 22.02505478080879797, -4.762499999999337597 ) ) ;
#725 = DIRECTION ( 'NONE',  ( 0.7071067811865480168, 0.000000000000000000, 0.7071067811865470176 ) ) ;
#726 = ORIENTED_EDGE ( 'NONE', *, *, #1240, .T. ) ;
#727 = FACE_OUTER_BOUND ( 'NONE', #12, .T. ) ;
#728 = LINE ( 'NONE', #666, #908 ) ;
#729 = CYLINDRICAL_SURFACE ( 'NONE', #1083, 3.571874999999554934 ) ;
#730 = CARTESIAN_POINT ( 'NONE',  ( -4.349749999999600547, 24.36820478080879582, 1.801725442932205379 ) ) ;
#731 = SHAPE_DEFINITION_REPRESENTATION ( #6, #884 ) ;
#732 = ORIENTED_EDGE ( 'NONE', *, *, #142, .T. ) ;
#733 = CYLINDRICAL_SURFACE ( 'NONE', #324, 4.167187499999112532 ) ;
#734 = VERTEX_POINT ( 'NONE', #446 ) ;
#735 = CIRCLE ( 'NONE', #490, 5.159374999999187139 ) ;
#736 = ADVANCED_FACE ( 'NONE', ( #645 ), #1229, .T. ) ;
#737 = DIRECTION ( 'NONE',  ( 0.000000000000000000, 0.000000000000000000, -1.000000000000000000 ) ) ;
#738 = CARTESIAN_POINT ( 'NONE',  ( -1.030483372586405702E-16, 20.88840478080879848, 1.177218809571307784E-16 ) ) ;
#739 = VECTOR ( 'NONE', #604, 1000.000000000000000 ) ;
#740 = DIRECTION ( 'NONE',  ( 0.000000000000000000, 0.000000000000000000, -1.000000000000000000 ) ) ;
#741 = ORIENTED_EDGE ( 'NONE', *, *, #576, .F. ) ;
#742 = EDGE_CURVE ( 'NONE', #30, #809, #728, .T. ) ;
#743 = STYLED_ITEM ( 'NONE', ( #207 ), #884 ) ;
#744 = VECTOR ( 'NONE', #653, 1000.000000000000000 ) ;
#745 = ADVANCED_FACE ( 'NONE', ( #1045 ), #1141, .F. ) ;
#746 = DIRECTION ( 'NONE',  ( 0.000000000000000000, -1.000000000000000000, 0.000000000000000000 ) ) ;
#747 = FACE_BOUND ( 'NONE', #1052, .T. ) ;
#748 = CARTESIAN_POINT ( 'NONE',  ( -1.030483372586405702E-16, 16.81805478080879723, 1.177218809571307784E-16 ) ) ;
#749 = CARTESIAN_POINT ( 'NONE',  ( -1.030483372586405702E-16, 16.81805478080879723, 1.177218809571307784E-16 ) ) ;
#750 = VERTEX_POINT ( 'NONE', #555 ) ;
#751 = CARTESIAN_POINT ( 'NONE',  ( -6.724650000000225170, 19.90415478080879907, 5.159374999999999822 ) ) ;
#752 = ORIENTED_EDGE ( 'NONE', *, *, #237, .F. ) ;
#753 = CARTESIAN_POINT ( 'NONE',  ( 6.724650000000225170, 19.90415478080879907, 5.159374999999999822 ) ) ;
#754 = CARTESIAN_POINT ( 'NONE',  ( 5.287928706763480762E-16, 22.02505478080879797, 5.159374999999187139 ) ) ;
#755 = CARTESIAN_POINT ( 'NONE',  ( 5.127624999999637723, 20.88840478080879848, 5.127625000000000099 ) ) ;
#756 = ORIENTED_EDGE ( 'NONE', *, *, #167, .T. ) ;
#757 = CARTESIAN_POINT ( 'NONE',  ( -1.801725442932202492, 36.67115566667240500, 4.349749999999600547 ) ) ;
#758 = ORIENTED_EDGE ( 'NONE', *, *, #554, .F. ) ;
#759 = DIRECTION ( 'NONE',  ( -1.000000000000000000, 0.000000000000000000, 0.000000000000000000 ) ) ;
#760 = CARTESIAN_POINT ( 'NONE',  ( -5.127624999999637723, 20.88840478080879848, -0.5714999999959448074 ) ) ;
#761 = VERTEX_POINT ( 'NONE', #461 ) ;
#762 = CIRCLE ( 'NONE', #194, 4.762499999999337597 ) ;
#763 = ADVANCED_FACE ( 'NONE', ( #364 ), #241, .F. ) ;
#764 = AXIS2_PLACEMENT_3D ( 'NONE', #168, #481, #906 ) ;
#765 = LINE ( 'NONE', #59, #432 ) ;
#766 = EDGE_LOOP ( 'NONE', ( #54, #88 ) ) ;
#767 = VECTOR ( 'NONE', #657, 1000.000000000000000 ) ;
#768 = AXIS2_PLACEMENT_3D ( 'NONE', #826, #1143, #1126 ) ;
#769 = ADVANCED_FACE ( 'NONE', ( #747, #1148 ), #246, .T. ) ;
#770 = LINE ( 'NONE', #577, #715 ) ;
#771 = DIRECTION ( 'NONE',  ( -2.407030830892919977E-16, 0.000000000000000000, -1.000000000000000000 ) ) ;
#772 = ORIENTED_EDGE ( 'NONE', *, *, #628, .T. ) ;
#773 = CARTESIAN_POINT ( 'NONE',  ( -4.349749999999600547, 36.67115566667240500, -1.801725442932202270 ) ) ;
#774 = ORIENTED_EDGE ( 'NONE', *, *, #963, .T. ) ;
#775 = DIRECTION ( 'NONE',  ( 0.000000000000000000, -1.000000000000000000, 0.000000000000000000 ) ) ;
#776 = VERTEX_POINT ( 'NONE', #753 ) ;
#777 = DIRECTION ( 'NONE',  ( 0.000000000000000000, -1.000000000000000000, 0.000000000000000000 ) ) ;
#778 = ORIENTED_EDGE ( 'NONE', *, *, #721, .T. ) ;
#779 = CARTESIAN_POINT ( 'NONE',  ( -1.801725442932202492, 36.67115566667240500, 4.349749999999600547 ) ) ;
#780 = ADVANCED_FACE ( 'NONE', ( #252 ), #1058, .F. ) ;
#781 =( NAMED_UNIT ( * ) PLANE_ANGLE_UNIT ( ) SI_UNIT ( $, .RADIAN. ) );
#782 = FACE_OUTER_BOUND ( 'NONE', #912, .T. ) ;
#783 = ORIENTED_EDGE ( 'NONE', *, *, #1188, .T. ) ;
#784 = EDGE_CURVE ( 'NONE', #387, #505, #188, .T. ) ;
#785 = VECTOR ( 'NONE', #1029, 1000.000000000000000 ) ;
#786 = ORIENTED_EDGE ( 'NONE', *, *, #536, .T. ) ;
#787 = CIRCLE ( 'NONE', #26, 4.960937499999487521 ) ;
#788 = LINE ( 'NONE', #893, #993 ) ;
#789 = AXIS2_PLACEMENT_3D ( 'NONE', #798, #27, #247 ) ;
#790 =( NAMED_UNIT ( * ) SI_UNIT ( $, .STERADIAN. ) SOLID_ANGLE_UNIT ( ) );
#791 = LINE ( 'NONE', #572, #67 ) ;
#792 = ORIENTED_EDGE ( 'NONE', *, *, #160, .T. ) ;
#793 = VECTOR ( 'NONE', #429, 1000.000000000000000 ) ;
#794 = CARTESIAN_POINT ( 'NONE',  ( -3.637534008945605191, 24.36820478080879582, 1.177218809571307784E-16 ) ) ;
#795 = EDGE_LOOP ( 'NONE', ( #1181, #1182, #891, #969, #380, #1160 ) ) ;
#796 = SURFACE_STYLE_FILL_AREA ( #711 ) ;
#797 = CARTESIAN_POINT ( 'NONE',  ( 3.343801913117507372E-16, 16.81805478080879723, 3.571874999999554934 ) ) ;
#798 = CARTESIAN_POINT ( 'NONE',  ( -1.030483372586405702E-16, 20.88840478080879848, 1.177218809571307784E-16 ) ) ;
#799 = ADVANCED_FACE ( 'NONE', ( #972 ), #590, .F. ) ;
#800 = FACE_OUTER_BOUND ( 'NONE', #1177, .T. ) ;
#801 = CARTESIAN_POINT ( 'NONE',  ( 5.287928706763480762E-16, 16.81805478080879723, 5.159374999999187139 ) ) ;
#802 = CIRCLE ( 'NONE', #234, 5.159374999999187139 ) ;
#803 = VECTOR ( 'NONE', #475, 1000.000000000000000 ) ;
#804 = CARTESIAN_POINT ( 'NONE',  ( -1.030483372586405702E-16, 16.81805478080879723, -3.571874999999554934 ) ) ;
#805 = LINE ( 'NONE', #309, #1287 ) ;
#806 = AXIS2_PLACEMENT_3D ( 'NONE', #749, #1157, #740 ) ;
#807 = CARTESIAN_POINT ( 'NONE',  ( 1.801725442932202492, 22.72355478080880076, 4.349749999999600547 ) ) ;
#808 = DIRECTION ( 'NONE',  ( 0.000000000000000000, -1.000000000000000000, 0.000000000000000000 ) ) ;
#809 = VERTEX_POINT ( 'NONE', #990 ) ;
#810 = LINE ( 'NONE', #722, #952 ) ;
#811 = LINE ( 'NONE', #501, #20 ) ;
#812 = ORIENTED_EDGE ( 'NONE', *, *, #1298, .F. ) ;
#813 = EDGE_LOOP ( 'NONE', ( #579, #1010, #623, #79 ) ) ;
#814 = DIRECTION ( 'NONE',  ( 0.000000000000000000, -1.000000000000000000, 0.000000000000000000 ) ) ;
#815 = ORIENTED_EDGE ( 'NONE', *, *, #1220, .T. ) ;
#816 = CARTESIAN_POINT ( 'NONE',  ( 5.127624999999637723, 19.90415478080879907, 5.127625000000000099 ) ) ;
#817 = ADVANCED_FACE ( 'NONE', ( #1089 ), #691, .F. ) ;
#818 = CARTESIAN_POINT ( 'NONE',  ( -1.030483372586405702E-16, 30.08955478080879686, 1.177218809571307784E-16 ) ) ;
#819 = EDGE_LOOP ( 'NONE', ( #888, #373, #1104, #46 ) ) ;
#820 = EDGE_CURVE ( 'NONE', #303, #457, #487, .T. ) ;
#821 = CARTESIAN_POINT ( 'NONE',  ( -3.637534008945605191, 20.88840478080879848, 1.177218809571307784E-16 ) ) ;
#822 = AXIS2_PLACEMENT_3D ( 'NONE', #452, #852, #154 ) ;
#823 = CARTESIAN_POINT ( 'NONE',  ( -3.637534008945605191, 22.72355478080880076, 1.177218809571307784E-16 ) ) ;
#824 = MANIFOLD_SOLID_BREP ( 'NONE', #1166 ) ;
#825 = AXIS2_PLACEMENT_3D ( 'NONE', #409, #504, #1196 ) ;
#826 = CARTESIAN_POINT ( 'NONE',  ( 6.724650000000225170, 16.81805478080879723, 5.159374999999999822 ) ) ;
#827 = EDGE_LOOP ( 'NONE', ( #979, #1191, #69, #550, #419, #1121, #249, #255 ) ) ;
#828 = PRESENTATION_LAYER_ASSIGNMENT (  '', '', ( #495 ) ) ;
#829 = CARTESIAN_POINT ( 'NONE',  ( 5.127624999999637723, 19.90415478080879907, -5.127625000000000099 ) ) ;
#830 = ORIENTED_EDGE ( 'NONE', *, *, #435, .T. ) ;
#831 = PLANE ( 'NONE',  #1216 ) ;
#832 = DIRECTION ( 'NONE',  ( 0.000000000000000000, 0.000000000000000000, -1.000000000000000000 ) ) ;
#833 = PLANE ( 'NONE',  #768 ) ;
#834 =( LENGTH_UNIT ( ) NAMED_UNIT ( * ) SI_UNIT ( .MILLI., .METRE. ) );
#835 = EDGE_LOOP ( 'NONE', ( #689, #540, #587, #1263 ) ) ;
#836 = EDGE_CURVE ( 'NONE', #844, #115, #86, .T. ) ;
#837 = CARTESIAN_POINT ( 'NONE',  ( -1.030483372586405702E-16, 30.72455478080880198, -4.960937499999487521 ) ) ;
#838 = DIRECTION ( 'NONE',  ( 0.000000000000000000, -1.000000000000000000, 0.000000000000000000 ) ) ;
#839 = DIRECTION ( 'NONE',  ( 0.000000000000000000, -1.000000000000000000, 0.000000000000000000 ) ) ;
#840 = DIRECTION ( 'NONE',  ( 0.000000000000000000, -1.000000000000000000, 0.000000000000000000 ) ) ;
#841 = VERTEX_POINT ( 'NONE', #184 ) ;
#842 = EDGE_CURVE ( 'NONE', #287, #1119, #273, .T. ) ;
#843 = CARTESIAN_POINT ( 'NONE',  ( 4.349749999999600547, 36.67115566667240500, -1.801725442932204935 ) ) ;
#844 = VERTEX_POINT ( 'NONE', #483 ) ;
#845 = DIRECTION ( 'NONE',  ( 1.000000000000000000, 0.000000000000000000, 0.000000000000000000 ) ) ;
#846 = DIRECTION ( 'NONE',  ( 0.000000000000000000, 0.000000000000000000, -1.000000000000000000 ) ) ;
#847 = VECTOR ( 'NONE', #714, 1000.000000000000000 ) ;
#848 = FACE_OUTER_BOUND ( 'NONE', #1249, .T. ) ;
#849 = ORIENTED_EDGE ( 'NONE', *, *, #1173, .T. ) ;
#850 = COLOUR_RGB ( '',0.7921568627450980005, 0.8196078431372548767, 0.9333333333333333481 ) ;
#851 = VECTOR ( 'NONE', #846, 1000.000000000000000 ) ;
#852 = DIRECTION ( 'NONE',  ( -0.7071067811865480168, 0.000000000000000000, -0.7071067811865470176 ) ) ;
#853 = ORIENTED_EDGE ( 'NONE', *, *, #536, .F. ) ;
#854 = DIRECTION ( 'NONE',  ( 0.000000000000000000, -1.000000000000000000, 0.000000000000000000 ) ) ;
#855 = CARTESIAN_POINT ( 'NONE',  ( 6.724650000000225170, 16.81805478080879723, -5.159374999999999822 ) ) ;
#856 = FACE_OUTER_BOUND ( 'NONE', #117, .T. ) ;
#857 = ORIENTED_EDGE ( 'NONE', *, *, #1031, .F. ) ;
#858 = PLANE ( 'NONE',  #822 ) ;
#859 = ORIENTED_EDGE ( 'NONE', *, *, #454, .F. ) ;
#860 = EDGE_CURVE ( 'NONE', #546, #915, #678, .T. ) ;
#861 = FACE_OUTER_BOUND ( 'NONE', #631, .T. ) ;
#862 = EDGE_CURVE ( 'NONE', #844, #713, #788, .T. ) ;
#863 = DIRECTION ( 'NONE',  ( 0.000000000000000000, 0.000000000000000000, -1.000000000000000000 ) ) ;
#864 = ORIENTED_EDGE ( 'NONE', *, *, #314, .F. ) ;
#865 = UNCERTAINTY_MEASURE_WITH_UNIT (LENGTH_MEASURE( 1.000000000000000082E-05 ), #988, 'distance_accuracy_value', 'NONE');
#866 = EDGE_CURVE ( 'NONE', #5, #1168, #1094, .T. ) ;
#867 = DIRECTION ( 'NONE',  ( 0.000000000000000000, 0.000000000000000000, -1.000000000000000000 ) ) ;
#868 = ORIENTED_EDGE ( 'NONE', *, *, #1036, .T. ) ;
#869 = SURFACE_STYLE_USAGE ( .BOTH. , #1085 ) ;
#870 = CONICAL_SURFACE ( 'NONE', #126, 4.960937499999487521, 1.124267326361750197 ) ;
#871 = VECTOR ( 'NONE', #1103, 1000.000000000000000 ) ;
#872 = CARTESIAN_POINT ( 'NONE',  ( 5.127624999999637723, 20.88840478080879848, 0.5714999999959350374 ) ) ;
#873 = VERTEX_POINT ( 'NONE', #371 ) ;
#874 = VECTOR ( 'NONE', #402, 1000.000000000000000 ) ;
#875 =( LENGTH_UNIT ( ) NAMED_UNIT ( * ) SI_UNIT ( .MILLI., .METRE. ) );
#876 = EDGE_LOOP ( 'NONE', ( #259, #976, #98, #1127 ) ) ;
#877 = PRESENTATION_LAYER_ASSIGNMENT (  '', '', ( #433 ) ) ;
#878 =( LENGTH_UNIT ( ) NAMED_UNIT ( * ) SI_UNIT ( .MILLI., .METRE. ) );
#879 = CARTESIAN_POINT ( 'NONE',  ( 4.349749999999600547, 36.67115566667240500, -1.801725442932204935 ) ) ;
#880 = ORIENTED_EDGE ( 'NONE', *, *, #274, .F. ) ;
#881 = FACE_OUTER_BOUND ( 'NONE', #214, .T. ) ;
#882 = EDGE_LOOP ( 'NONE', ( #778, #1062, #958, #337, #1088, #989 ) ) ;
#883 = DIRECTION ( 'NONE',  ( 0.000000000000000000, 0.000000000000000000, -1.000000000000000000 ) ) ;
#884 = ADVANCED_BREP_SHAPE_REPRESENTATION ( '800H-FRXT6D4', ( #824, #176 ), #1219 ) ;
#885 = DIRECTION ( 'NONE',  ( 0.000000000000000000, -1.000000000000000000, 0.000000000000000000 ) ) ;
#886 = VERTEX_POINT ( 'NONE', #288 ) ;
#887 = ADVANCED_FACE ( 'NONE', ( #1289, #594 ), #62, .T. ) ;
#888 = ORIENTED_EDGE ( 'NONE', *, *, #1245, .T. ) ;
#889 = SURFACE_STYLE_FILL_AREA ( #684 ) ;
#890 = DIRECTION ( 'NONE',  ( 0.000000000000000000, 1.000000000000000000, 0.000000000000000000 ) ) ;
#891 = ORIENTED_EDGE ( 'NONE', *, *, #628, .F. ) ;
#892 = PRESENTATION_LAYER_ASSIGNMENT (  '', '', ( #743 ) ) ;
#893 = CARTESIAN_POINT ( 'NONE',  ( 4.349749999999600547, 24.36820478080879582, 1.801725442932200272 ) ) ;
#894 = AXIS2_PLACEMENT_3D ( 'NONE', #818, #1120, #626 ) ;
#895 = SURFACE_STYLE_FILL_AREA ( #519 ) ;
#896 = ORIENTED_EDGE ( 'NONE', *, *, #139, .F. ) ;
#897 = LINE ( 'NONE', #797, #1266 ) ;
#898 = EDGE_CURVE ( 'NONE', #505, #761, #770, .T. ) ;
#899 = DIRECTION ( 'NONE',  ( -0.000000000000000000, 1.000000000000000000, 0.000000000000000000 ) ) ;
#900 = EDGE_CURVE ( 'NONE', #734, #284, #974, .T. ) ;
#901 = DIRECTION ( 'NONE',  ( 0.000000000000000000, 0.000000000000000000, -1.000000000000000000 ) ) ;
#902 =( NAMED_UNIT ( * ) SI_UNIT ( $, .STERADIAN. ) SOLID_ANGLE_UNIT ( ) );
#903 = CARTESIAN_POINT ( 'NONE',  ( -1.030483372586405702E-16, 30.72455478080880198, -4.960937499999487521 ) ) ;
#904 = CYLINDRICAL_SURFACE ( 'NONE', #992, 3.571874999999554934 ) ;
#905 = ORIENTED_EDGE ( 'NONE', *, *, #416, .F. ) ;
#906 = DIRECTION ( 'NONE',  ( 0.000000000000000000, 0.000000000000000000, -1.000000000000000000 ) ) ;
#907 = ORIENTED_EDGE ( 'NONE', *, *, #139, .T. ) ;
#908 = VECTOR ( 'NONE', #1251, 1000.000000000000000 ) ;
#909 = VECTOR ( 'NONE', #814, 1000.000000000000000 ) ;
#910 = CARTESIAN_POINT ( 'NONE',  ( -1.030483372586405702E-16, 31.42305478080879766, 1.177218809571307784E-16 ) ) ;
#911 = PLANE ( 'NONE',  #323 ) ;
#912 = EDGE_LOOP ( 'NONE', ( #1067, #984, #1158 ) ) ;
#913 = AXIS2_PLACEMENT_3D ( 'NONE', #114, #922, #901 ) ;
#914 = SURFACE_STYLE_FILL_AREA ( #1300 ) ;
#915 = VERTEX_POINT ( 'NONE', #1109 ) ;
#916 = EDGE_CURVE ( 'NONE', #108, #115, #995, .T. ) ;
#917 = CARTESIAN_POINT ( 'NONE',  ( -1.030483372586405702E-16, 24.36820478080879582, 1.177218809571307784E-16 ) ) ;
#918 = FACE_OUTER_BOUND ( 'NONE', #155, .T. ) ;
#919 = SURFACE_SIDE_STYLE ('',( #895 ) ) ;
#920 = CARTESIAN_POINT ( 'NONE',  ( -1.030483372586405702E-16, 20.88840478080879848, 1.177218809571307784E-16 ) ) ;
#921 = EDGE_CURVE ( 'NONE', #1205, #485, #523, .T. ) ;
#922 = DIRECTION ( 'NONE',  ( 0.000000000000000000, -1.000000000000000000, 0.000000000000000000 ) ) ;
#923 = ORIENTED_EDGE ( 'NONE', *, *, #119, .T. ) ;
#924 = DIRECTION ( 'NONE',  ( 0.000000000000000000, 0.000000000000000000, -1.000000000000000000 ) ) ;
#925 = ORIENTED_EDGE ( 'NONE', *, *, #670, .F. ) ;
#926 = FACE_BOUND ( 'NONE', #693, .T. ) ;
#927 = CARTESIAN_POINT ( 'NONE',  ( -3.637534008945605191, 20.88840478080879848, 1.177218809571307784E-16 ) ) ;
#928 = DIRECTION ( 'NONE',  ( 0.7071067811865470176, 0.000000000000000000, -0.7071067811865480168 ) ) ;
#929 = EDGE_LOOP ( 'NONE', ( #687, #694, #868, #812 ) ) ;
#930 = DIRECTION ( 'NONE',  ( 0.000000000000000000, -1.000000000000000000, 0.000000000000000000 ) ) ;
#931 = CARTESIAN_POINT ( 'NONE',  ( 1.256970716993097481, 22.72355478080880076, 4.894504725938699785 ) ) ;
#932 = FACE_OUTER_BOUND ( 'NONE', #795, .T. ) ;
#933 = EDGE_CURVE ( 'NONE', #1168, #493, #810, .T. ) ;
#934 = VERTEX_POINT ( 'NONE', #406 ) ;
#935 = AXIS2_PLACEMENT_3D ( 'NONE', #358, #839, #442 ) ;
#936 = DIRECTION ( 'NONE',  ( 1.000000000000000000, 0.000000000000000000, -2.407030830892919977E-16 ) ) ;
#937 = ORIENTED_EDGE ( 'NONE', *, *, #554, .T. ) ;
#938 = EDGE_CURVE ( 'NONE', #1232, #559, #491, .T. ) ;
#939 = LINE ( 'NONE', #541, #580 ) ;
#940 = CARTESIAN_POINT ( 'NONE',  ( 1.801725442932202492, 36.67115566667240500, -4.349749999999600547 ) ) ;
#941 = CARTESIAN_POINT ( 'NONE',  ( 5.127624999999637723, 20.88840478080879848, 5.127625000000000099 ) ) ;
#942 = EDGE_LOOP ( 'NONE', ( #279, #1002, #162, #567 ) ) ;
#943 = DIRECTION ( 'NONE',  ( 1.104571944333387651E-16, -0.4318374686902948789, 0.9019514402866478653 ) ) ;
#944 = DIRECTION ( 'NONE',  ( -0.000000000000000000, 1.000000000000000000, 0.000000000000000000 ) ) ;
#945 = DIRECTION ( 'NONE',  ( -0.000000000000000000, 1.000000000000000000, 0.000000000000000000 ) ) ;
#946 = CARTESIAN_POINT ( 'NONE',  ( -1.030483372586405702E-16, 16.81805478080879723, 1.177218809571307784E-16 ) ) ;
#947 = ORIENTED_EDGE ( 'NONE', *, *, #723, .F. ) ;
#948 = CARTESIAN_POINT ( 'NONE',  ( 5.127624999999637723, 19.90415478080879907, -5.127625000000000099 ) ) ;
#949 = EDGE_LOOP ( 'NONE', ( #962, #104, #1275, #1174 ) ) ;
#950 = CARTESIAN_POINT ( 'NONE',  ( -1.030483372586405702E-16, 16.81805478080879723, 1.177218809571307784E-16 ) ) ;
#951 = DIRECTION ( 'NONE',  ( 0.000000000000000000, 0.000000000000000000, -1.000000000000000000 ) ) ;
#952 = VECTOR ( 'NONE', #1098, 1000.000000000000000 ) ;
#953 = DIRECTION ( 'NONE',  ( 0.000000000000000000, 0.000000000000000000, -1.000000000000000000 ) ) ;
#954 = ORIENTED_EDGE ( 'NONE', *, *, #723, .T. ) ;
#955 = AXIS2_PLACEMENT_3D ( 'NONE', #970, #808, #1274 ) ;
#956 = AXIS2_PLACEMENT_3D ( 'NONE', #51, #438, #1051 ) ;
#957 = DIRECTION ( 'NONE',  ( 0.000000000000000000, -1.000000000000000000, 0.000000000000000000 ) ) ;
#958 = ORIENTED_EDGE ( 'NONE', *, *, #1092, .T. ) ;
#959 = PRODUCT_DEFINITION ( 'UNKNOWN', '', #306, #1102 ) ;
#960 = DIRECTION ( 'NONE',  ( -1.000000000000000000, 0.000000000000000000, 0.000000000000000000 ) ) ;
#961 = DIRECTION ( 'NONE',  ( 1.000000000000000000, 0.000000000000000000, 0.000000000000000000 ) ) ;
#962 = ORIENTED_EDGE ( 'NONE', *, *, #866, .F. ) ;
#963 = EDGE_CURVE ( 'NONE', #264, #457, #697, .T. ) ;
#964 = PLANE ( 'NONE',  #825 ) ;
#965 = VERTEX_POINT ( 'NONE', #1015 ) ;
#966 = DIRECTION ( 'NONE',  ( -0.000000000000000000, 1.000000000000000000, 0.000000000000000000 ) ) ;
#967 = LINE ( 'NONE', #1258, #374 ) ;
#968 = DIRECTION ( 'NONE',  ( -0.7071067811865470176, 0.000000000000000000, 0.7071067811865480168 ) ) ;
#969 = ORIENTED_EDGE ( 'NONE', *, *, #571, .F. ) ;
#970 = CARTESIAN_POINT ( 'NONE',  ( -1.030483372586405702E-16, 30.08955478080879686, 1.177218809571307784E-16 ) ) ;
#971 = ORIENTED_EDGE ( 'NONE', *, *, #593, .F. ) ;
#972 = FACE_OUTER_BOUND ( 'NONE', #835, .T. ) ;
#973 =( GEOMETRIC_REPRESENTATION_CONTEXT ( 3 ) GLOBAL_UNCERTAINTY_ASSIGNED_CONTEXT ( ( #865 ) ) GLOBAL_UNIT_ASSIGNED_CONTEXT ( ( #988, #781, #790 ) ) REPRESENTATION_CONTEXT ( 'NONE', 'WORKASPACE' ) );
#974 = CIRCLE ( 'NONE', #281, 3.502025000000405175 ) ;
#975 = CARTESIAN_POINT ( 'NONE',  ( 5.127624999999637723, 20.88840478080879848, 5.127625000000000099 ) ) ;
#976 = ORIENTED_EDGE ( 'NONE', *, *, #1057, .T. ) ;
#977 = EDGE_CURVE ( 'NONE', #174, #340, #639, .T. ) ;
#978 = FACE_OUTER_BOUND ( 'NONE', #502, .T. ) ;
#979 = ORIENTED_EDGE ( 'NONE', *, *, #1286, .T. ) ;
#980 = MECHANICAL_DESIGN_GEOMETRIC_PRESENTATION_REPRESENTATION (  '', ( #433 ), #74 ) ;
#981 = DIRECTION ( 'NONE',  ( 0.000000000000000000, -1.000000000000000000, 0.000000000000000000 ) ) ;
#982 = EDGE_CURVE ( 'NONE', #873, #559, #2, .T. ) ;
#983 = CARTESIAN_POINT ( 'NONE',  ( -1.030483372586405702E-16, 26.50815478080879828, -3.571874999999554934 ) ) ;
#984 = ORIENTED_EDGE ( 'NONE', *, *, #688, .T. ) ;
#985 = UNCERTAINTY_MEASURE_WITH_UNIT (LENGTH_MEASURE( 1.000000000000000082E-05 ), #400, 'distance_accuracy_value', 'NONE');
#986 = ORIENTED_EDGE ( 'NONE', *, *, #998, .F. ) ;
#987 = DIRECTION ( 'NONE',  ( 1.000000000000000000, 0.000000000000000000, 0.000000000000000000 ) ) ;
#988 =( LENGTH_UNIT ( ) NAMED_UNIT ( * ) SI_UNIT ( .MILLI., .METRE. ) );
#989 = ORIENTED_EDGE ( 'NONE', *, *, #470, .T. ) ;
#990 = CARTESIAN_POINT ( 'NONE',  ( -5.127624999999637723, 19.90415478080879907, -5.127625000000000099 ) ) ;
#991 = EDGE_LOOP ( 'NONE', ( #923, #151, #444, #169, #1144, #276, #1087, #148 ) ) ;
#992 = AXIS2_PLACEMENT_3D ( 'NONE', #301, #1111, #1212 ) ;
#993 = VECTOR ( 'NONE', #192, 1000.000000000000000 ) ;
#994 = EDGE_CURVE ( 'NONE', #544, #387, #413, .T. ) ;
#995 = LINE ( 'NONE', #320, #212 ) ;
#996 = CIRCLE ( 'NONE', #216, 5.159374999999187139 ) ;
#997 = DIRECTION ( 'NONE',  ( 0.000000000000000000, 0.000000000000000000, -1.000000000000000000 ) ) ;
#998 = EDGE_CURVE ( 'NONE', #776, #1187, #497, .T. ) ;
#999 = CYLINDRICAL_SURFACE ( 'NONE', #47, 5.159374999999187139 ) ;
#1000 = DIRECTION ( 'NONE',  ( 0.000000000000000000, -1.000000000000000000, 0.000000000000000000 ) ) ;
#1001 = DIRECTION ( 'NONE',  ( 0.000000000000000000, -1.000000000000000000, 0.000000000000000000 ) ) ;
#1002 = ORIENTED_EDGE ( 'NONE', *, *, #593, .T. ) ;
#1003 = DIRECTION ( 'NONE',  ( 0.000000000000000000, 0.000000000000000000, -1.000000000000000000 ) ) ;
#1004 = DIRECTION ( 'NONE',  ( 0.000000000000000000, -1.000000000000000000, 0.000000000000000000 ) ) ;
#1005 = ORIENTED_EDGE ( 'NONE', *, *, #1093, .T. ) ;
#1006 = FACE_OUTER_BOUND ( 'NONE', #460, .T. ) ;
#1007 = CARTESIAN_POINT ( 'NONE',  ( 5.127624999999637723, 20.88840478080879848, 5.127625000000000099 ) ) ;
#1008 = CARTESIAN_POINT ( 'NONE',  ( -5.127624999999637723, 20.88840478080879848, -5.127625000000000099 ) ) ;
#1009 =( NAMED_UNIT ( * ) SI_UNIT ( $, .STERADIAN. ) SOLID_ANGLE_UNIT ( ) );
#1010 = ORIENTED_EDGE ( 'NONE', *, *, #842, .F. ) ;
#1011 = CIRCLE ( 'NONE', #1115, 4.762499999999337597 ) ;
#1012 = EDGE_CURVE ( 'NONE', #575, #1232, #897, .T. ) ;
#1013 = AXIS2_PLACEMENT_3D ( 'NONE', #821, #1218, #644 ) ;
#1014 = UNCERTAINTY_MEASURE_WITH_UNIT (LENGTH_MEASURE( 1.000000000000000082E-05 ), #94, 'distance_accuracy_value', 'NONE');
#1015 = CARTESIAN_POINT ( 'NONE',  ( 5.287928706763480762E-16, 20.88840478080879848, 5.159374999999187139 ) ) ;
#1016 = EDGE_CURVE ( 'NONE', #596, #493, #1291, .T. ) ;
#1017 = DIRECTION ( 'NONE',  ( 1.000000000000000000, 0.000000000000000000, -2.407030830892919977E-16 ) ) ;
#1018 = LINE ( 'NONE', #92, #494 ) ;
#1019 = AXIS2_PLACEMENT_3D ( 'NONE', #1235, #39, #951 ) ;
#1020 = AXIS2_PLACEMENT_3D ( 'NONE', #1078, #177, #863 ) ;
#1021 = FACE_OUTER_BOUND ( 'NONE', #25, .T. ) ;
#1022 = EDGE_LOOP ( 'NONE', ( #515, #146, #183, #756, #138, #118 ) ) ;
#1023 = DIRECTION ( 'NONE',  ( 0.000000000000000000, -1.000000000000000000, 0.000000000000000000 ) ) ;
#1024 = VERTEX_POINT ( 'NONE', #708 ) ;
#1025 = DIRECTION ( 'NONE',  ( 0.000000000000000000, 0.000000000000000000, -1.000000000000000000 ) ) ;
#1026 = ORIENTED_EDGE ( 'NONE', *, *, #506, .F. ) ;
#1027 = CARTESIAN_POINT ( 'NONE',  ( -6.724650000000225170, 16.81805478080879723, -5.159374999999999822 ) ) ;
#1028 = ORIENTED_EDGE ( 'NONE', *, *, #862, .T. ) ;
#1029 = DIRECTION ( 'NONE',  ( 8.812412882787889882E-16, 1.000000000000000000, 0.000000000000000000 ) ) ;
#1030 = ORIENTED_EDGE ( 'NONE', *, *, #435, .F. ) ;
#1031 = EDGE_CURVE ( 'NONE', #713, #544, #209, .T. ) ;
#1032 = CARTESIAN_POINT ( 'NONE',  ( -5.127624999999637723, 19.90415478080879907, 5.127625000000000099 ) ) ;
#1033 = DIRECTION ( 'NONE',  ( 0.000000000000000000, 0.000000000000000000, -1.000000000000000000 ) ) ;
#1034 = ORIENTED_EDGE ( 'NONE', *, *, #197, .T. ) ;
#1035 = VECTOR ( 'NONE', #885, 1000.000000000000000 ) ;
#1036 = EDGE_CURVE ( 'NONE', #1055, #187, #95, .T. ) ;
#1037 = VECTOR ( 'NONE', #981, 1000.000000000000000 ) ;
#1038 = CARTESIAN_POINT ( 'NONE',  ( 5.044912857558031020E-16, 16.81805478080879723, 4.960937499999487521 ) ) ;
#1039 = PLANE ( 'NONE',  #563 ) ;
#1040 = DIRECTION ( 'NONE',  ( 0.7071067811865480168, 0.000000000000000000, 0.7071067811865470176 ) ) ;
#1041 = EDGE_LOOP ( 'NONE', ( #1082, #772 ) ) ;
#1042 = CIRCLE ( 'NONE', #894, 3.571874999999554934 ) ;
#1043 = CARTESIAN_POINT ( 'NONE',  ( -1.801725442932202492, 22.72355478080880076, 4.349749999999600547 ) ) ;
#1044 = ORIENTED_EDGE ( 'NONE', *, *, #1093, .F. ) ;
#1045 = FACE_OUTER_BOUND ( 'NONE', #525, .T. ) ;
#1046 = CARTESIAN_POINT ( 'NONE',  ( 6.724650000000225170, 19.90415478080879907, 5.159374999999999822 ) ) ;
#1047 = FACE_OUTER_BOUND ( 'NONE', #1064, .T. ) ;
#1048 = ORIENTED_EDGE ( 'NONE', *, *, #860, .T. ) ;
#1049 = DIRECTION ( 'NONE',  ( 0.000000000000000000, -0.4318374686902948789, -0.9019514402866478653 ) ) ;
#1050 = DIRECTION ( 'NONE',  ( -1.000000000000000000, 0.000000000000000000, 0.000000000000000000 ) ) ;
#1051 = DIRECTION ( 'NONE',  ( 0.000000000000000000, 0.000000000000000000, -1.000000000000000000 ) ) ;
#1052 = EDGE_LOOP ( 'NONE', ( #1091, #101 ) ) ;
#1053 = ADVANCED_FACE ( 'NONE', ( #1006 ), #102, .F. ) ;
#1054 = CARTESIAN_POINT ( 'NONE',  ( -3.637534008945605191, 20.88840478080879848, 1.177218809571307784E-16 ) ) ;
#1055 = VERTEX_POINT ( 'NONE', #903 ) ;
#1056 = AXIS2_PLACEMENT_3D ( 'NONE', #709, #124, #518 ) ;
#1057 = EDGE_CURVE ( 'NONE', #841, #680, #508, .T. ) ;
#1058 = PLANE ( 'NONE',  #507 ) ;
#1059 = CARTESIAN_POINT ( 'NONE',  ( -1.030483372586405702E-16, 31.42305478080879766, 1.177218809571307784E-16 ) ) ;
#1060 = CIRCLE ( 'NONE', #661, 5.159374999999187139 ) ;
#1061 = FACE_OUTER_BOUND ( 'NONE', #1041, .T. ) ;
#1062 = ORIENTED_EDGE ( 'NONE', *, *, #260, .T. ) ;
#1063 = CARTESIAN_POINT ( 'NONE',  ( -1.030483372586405702E-16, 22.72355478080880076, -4.762499999999337597 ) ) ;
#1064 = EDGE_LOOP ( 'NONE', ( #641, #1273, #73, #1210, #425, #15 ) ) ;
#1065 = CARTESIAN_POINT ( 'NONE',  ( -1.030483372586405702E-16, 26.50815478080879828, 1.177218809571307784E-16 ) ) ;
#1066 = DIRECTION ( 'NONE',  ( 0.000000000000000000, 0.000000000000000000, -1.000000000000000000 ) ) ;
#1067 = ORIENTED_EDGE ( 'NONE', *, *, #571, .T. ) ;
#1068 = DIRECTION ( 'NONE',  ( 0.000000000000000000, -1.000000000000000000, 0.000000000000000000 ) ) ;
#1069 = ORIENTED_EDGE ( 'NONE', *, *, #862, .F. ) ;
#1070 = EDGE_CURVE ( 'NONE', #1055, #453, #300, .T. ) ;
#1071 = LINE ( 'NONE', #1180, #1035 ) ;
#1072 = VERTEX_POINT ( 'NONE', #1117 ) ;
#1073 = CARTESIAN_POINT ( 'NONE',  ( -1.030483372586405702E-16, 16.81805478080879723, 1.177218809571307784E-16 ) ) ;
#1074 = ORIENTED_EDGE ( 'NONE', *, *, #1247, .F. ) ;
#1075 = ADVANCED_FACE ( 'NONE', ( #622 ), #116, .F. ) ;
#1076 = CARTESIAN_POINT ( 'NONE',  ( -6.724650000000225170, 16.81805478080879723, 5.159374999999999822 ) ) ;
#1077 = MECHANICAL_DESIGN_GEOMETRIC_PRESENTATION_REPRESENTATION (  '', ( #616 ), #533 ) ;
#1078 = CARTESIAN_POINT ( 'NONE',  ( 5.127624999999637723, 20.88840478080879848, 5.127625000000000099 ) ) ;
#1079 = ORIENTED_EDGE ( 'NONE', *, *, #440, .F. ) ;
#1080 = AXIS2_PLACEMENT_3D ( 'NONE', #927, #408, #1112 ) ;
#1081 = LINE ( 'NONE', #773, #582 ) ;
#1082 = ORIENTED_EDGE ( 'NONE', *, *, #430, .T. ) ;
#1083 = AXIS2_PLACEMENT_3D ( 'NONE', #748, #1156, #156 ) ;
#1084 = AXIS2_PLACEMENT_3D ( 'NONE', #879, #968, #890 ) ;
#1085 = SURFACE_SIDE_STYLE ('',( #889 ) ) ;
#1086 = DIRECTION ( 'NONE',  ( 0.000000000000000000, -1.000000000000000000, 0.000000000000000000 ) ) ;
#1087 = ORIENTED_EDGE ( 'NONE', *, *, #454, .T. ) ;
#1088 = ORIENTED_EDGE ( 'NONE', *, *, #921, .T. ) ;
#1089 = FACE_OUTER_BOUND ( 'NONE', #813, .T. ) ;
#1090 = CARTESIAN_POINT ( 'NONE',  ( -4.349749999999600547, 22.72355478080880076, 2.891544658293220343E-16 ) ) ;
#1091 = ORIENTED_EDGE ( 'NONE', *, *, #277, .T. ) ;
#1092 = EDGE_CURVE ( 'NONE', #5, #270, #1239, .T. ) ;
#1093 = EDGE_CURVE ( 'NONE', #229, #1187, #37, .T. ) ;
#1094 = LINE ( 'NONE', #1185, #346 ) ;
#1095 = EDGE_CURVE ( 'NONE', #453, #553, #1227, .T. ) ;
#1096 = ORIENTED_EDGE ( 'NONE', *, *, #185, .F. ) ;
#1097 = AXIS2_PLACEMENT_3D ( 'NONE', #738, #135, #652 ) ;
#1098 = DIRECTION ( 'NONE',  ( 8.812412882787889882E-16, 1.000000000000000000, 0.000000000000000000 ) ) ;
#1099 = CIRCLE ( 'NONE', #395, 3.571874999999554934 ) ;
#1100 = DIRECTION ( 'NONE',  ( 0.000000000000000000, -1.000000000000000000, 0.000000000000000000 ) ) ;
#1101 = CARTESIAN_POINT ( 'NONE',  ( 0.5714999999926748675, 20.88840478080879848, 5.127625000000000099 ) ) ;
#1102 = PRODUCT_DEFINITION_CONTEXT ( 'detailed design', #220, 'design' ) ;
#1103 = DIRECTION ( 'NONE',  ( -1.000000000000000000, 0.000000000000000000, 0.000000000000000000 ) ) ;
#1104 = ORIENTED_EDGE ( 'NONE', *, *, #61, .F. ) ;
#1105 = EDGE_CURVE ( 'NONE', #717, #934, #250, .T. ) ;
#1106 = SURFACE_STYLE_USAGE ( .BOTH. , #316 ) ;
#1107 = VERTEX_POINT ( 'NONE', #545 ) ;
#1108 = EDGE_CURVE ( 'NONE', #713, #108, #434, .T. ) ;
#1109 = CARTESIAN_POINT ( 'NONE',  ( -6.724650000000225170, 16.81805478080879723, 5.159374999999999822 ) ) ;
#1110 = ADVANCED_FACE ( 'NONE', ( #727 ), #655, .F. ) ;
#1111 = DIRECTION ( 'NONE',  ( 0.000000000000000000, -1.000000000000000000, 0.000000000000000000 ) ) ;
#1112 = DIRECTION ( 'NONE',  ( 1.000000000000000000, 0.000000000000000000, 0.000000000000000000 ) ) ;
#1113 = CARTESIAN_POINT ( 'NONE',  ( -3.637534008945605191, 31.42305478080879766, 1.177218809571307784E-16 ) ) ;
#1114 = ORIENTED_EDGE ( 'NONE', *, *, #938, .F. ) ;
#1115 = AXIS2_PLACEMENT_3D ( 'NONE', #275, #488, #468 ) ;
#1116 = AXIS2_PLACEMENT_3D ( 'NONE', #339, #347, #936 ) ;
#1117 = CARTESIAN_POINT ( 'NONE',  ( -4.349749999999600547, 22.72355478080880076, -1.801725442932202270 ) ) ;
#1118 = AXIS2_PLACEMENT_3D ( 'NONE', #520, #206, #710 ) ;
#1119 = VERTEX_POINT ( 'NONE', #1043 ) ;
#1120 = DIRECTION ( 'NONE',  ( 0.000000000000000000, -1.000000000000000000, 0.000000000000000000 ) ) ;
#1121 = ORIENTED_EDGE ( 'NONE', *, *, #607, .F. ) ;
#1122 = CARTESIAN_POINT ( 'NONE',  ( 1.801725442932202492, 24.36820478080879582, -4.349749999999600547 ) ) ;
#1123 = ORIENTED_EDGE ( 'NONE', *, *, #509, .F. ) ;
#1124 = CARTESIAN_POINT ( 'NONE',  ( 4.072849460734368863E-16, 16.81805478080879723, 4.167187499999112532 ) ) ;
#1125 = CARTESIAN_POINT ( 'NONE',  ( -5.127624999999637723, 20.88840478080879848, 5.127625000000000099 ) ) ;
#1126 = DIRECTION ( 'NONE',  ( 0.000000000000000000, 0.000000000000000000, 1.000000000000000000 ) ) ;
#1127 = ORIENTED_EDGE ( 'NONE', *, *, #595, .F. ) ;
#1128 = EDGE_CURVE ( 'NONE', #809, #1168, #1130, .T. ) ;
#1129 = EDGE_CURVE ( 'NONE', #1024, #287, #445, .T. ) ;
#1130 = LINE ( 'NONE', #829, #681 ) ;
#1131 = ORIENTED_EDGE ( 'NONE', *, *, #218, .T. ) ;
#1132 = CARTESIAN_POINT ( 'NONE',  ( 6.724650000000225170, 16.81805478080879723, 5.159374999999999822 ) ) ;
#1133 = CARTESIAN_POINT ( 'NONE',  ( 5.127624999999637723, 20.88840478080879848, -5.127625000000000099 ) ) ;
#1134 = PLANE ( 'NONE',  #265 ) ;
#1135 = EDGE_LOOP ( 'NONE', ( #954, #1165, #1026, #1225 ) ) ;
#1136 = AXIS2_PLACEMENT_3D ( 'NONE', #261, #838, #1234 ) ;
#1137 = VECTOR ( 'NONE', #552, 1000.000000000000000 ) ;
#1138 = CARTESIAN_POINT ( 'NONE',  ( -1.030483372586405702E-16, 20.88840478080879848, 1.177218809571307784E-16 ) ) ;
#1139 = VECTOR ( 'NONE', #68, 1000.000000000000000 ) ;
#1140 = VECTOR ( 'NONE', #1301, 1000.000000000000000 ) ;
#1141 = PLANE ( 'NONE',  #172 ) ;
#1142 = CARTESIAN_POINT ( 'NONE',  ( -0.5714999999926750895, 20.88840478080879848, -5.127625000000000099 ) ) ;
#1143 = DIRECTION ( 'NONE',  ( -1.000000000000000000, 2.810543203358299820E-16, 0.000000000000000000 ) ) ;
#1144 = ORIENTED_EDGE ( 'NONE', *, *, #318, .T. ) ;
#1145 = VECTOR ( 'NONE', #928, 1000.000000000000000 ) ;
#1146 = VECTOR ( 'NONE', #961, 1000.000000000000000 ) ;
#1147 = CARTESIAN_POINT ( 'NONE',  ( 5.044912857558031020E-16, 30.72455478080880198, 4.960937499999487521 ) ) ;
#1148 = FACE_OUTER_BOUND ( 'NONE', #480, .T. ) ;
#1149 = FACE_OUTER_BOUND ( 'NONE', #882, .T. ) ;
#1150 = CARTESIAN_POINT ( 'NONE',  ( -1.030483372586405702E-16, 20.88840478080879848, 1.177218809571307784E-16 ) ) ;
#1151 = ADVANCED_FACE ( 'NONE', ( #355 ), #1255, .F. ) ;
#1152 = VERTEX_POINT ( 'NONE', #636 ) ;
#1153 = EDGE_CURVE ( 'NONE', #734, #453, #245, .T. ) ;
#1154 = DIRECTION ( 'NONE',  ( 0.000000000000000000, 0.000000000000000000, 1.000000000000000000 ) ) ;
#1155 = EDGE_LOOP ( 'NONE', ( #815, #786 ) ) ;
#1156 = DIRECTION ( 'NONE',  ( 0.000000000000000000, -1.000000000000000000, 0.000000000000000000 ) ) ;
#1157 = DIRECTION ( 'NONE',  ( 0.000000000000000000, -1.000000000000000000, 0.000000000000000000 ) ) ;
#1158 = ORIENTED_EDGE ( 'NONE', *, *, #398, .F. ) ;
#1159 = DIRECTION ( 'NONE',  ( 0.000000000000000000, 0.000000000000000000, -1.000000000000000000 ) ) ;
#1160 = ORIENTED_EDGE ( 'NONE', *, *, #866, .T. ) ;
#1161 = PRESENTATION_LAYER_ASSIGNMENT (  '', '', ( #695 ) ) ;
#1162 = DIRECTION ( 'NONE',  ( 1.000000000000000000, 0.000000000000000000, 0.000000000000000000 ) ) ;
#1163 = AXIS2_PLACEMENT_3D ( 'NONE', #751, #1154, #561 ) ;
#1164 = CARTESIAN_POINT ( 'NONE',  ( -1.030483372586405702E-16, 22.02505478080879797, 1.177218809571307784E-16 ) ) ;
#1165 = ORIENTED_EDGE ( 'NONE', *, *, #1226, .F. ) ;
#1166 = CLOSED_SHELL ( 'NONE', ( #887, #401, #769, #191, #690, #736, #280, #293, #1151, #477, #745, #1189, #817, #763, #633, #799, #1294, #1198, #382, #780, #1267, #377, #361, #215, #412, #63, #529, #496, #551, #1053, #458, #332, #13, #299, #1075, #1110, #38, #232, #1228, #1282, #612, #1206, #673, #1169 ) ) ;
#1167 = CARTESIAN_POINT ( 'NONE',  ( -4.894504725938699785, 22.72355478080880076, 1.256970716993097703 ) ) ;
#1168 = VERTEX_POINT ( 'NONE', #948 ) ;
#1169 = ADVANCED_FACE ( 'NONE', ( #530 ), #733, .T. ) ;
#1170 = FILL_AREA_STYLE_COLOUR ( '', #1283 ) ;
#1171 = PLANE ( 'NONE',  #3 ) ;
#1172 = ORIENTED_EDGE ( 'NONE', *, *, #820, .F. ) ;
#1173 = EDGE_CURVE ( 'NONE', #284, #1055, #650, .T. ) ;
#1174 = ORIENTED_EDGE ( 'NONE', *, *, #1128, .T. ) ;
#1175 = CARTESIAN_POINT ( 'NONE',  ( 4.349749999999600547, 36.67115566667240500, 1.801725442932200272 ) ) ;
#1176 = FACE_OUTER_BOUND ( 'NONE', #65, .T. ) ;
#1177 = EDGE_LOOP ( 'NONE', ( #244, #1237, #1290, #231, #141, #648, #660, #76 ) ) ;
#1178 = EDGE_LOOP ( 'NONE', ( #907, #1302, #224, #654 ) ) ;
#1179 = VECTOR ( 'NONE', #217, 1000.000000000000000 ) ;
#1180 = CARTESIAN_POINT ( 'NONE',  ( -1.030483372586405702E-16, 16.81805478080879723, -4.762499999999337597 ) ) ;
#1181 = ORIENTED_EDGE ( 'NONE', *, *, #933, .T. ) ;
#1182 = ORIENTED_EDGE ( 'NONE', *, *, #1016, .F. ) ;
#1183 = CIRCLE ( 'NONE', #1019, 4.167187499999112532 ) ;
#1184 = AXIS2_PLACEMENT_3D ( 'NONE', #1236, #640, #566 ) ;
#1185 = CARTESIAN_POINT ( 'NONE',  ( 5.127624999999637723, 19.90415478080879907, 5.127625000000000099 ) ) ;
#1186 = FACE_OUTER_BOUND ( 'NONE', #1243, .T. ) ;
#1187 = VERTEX_POINT ( 'NONE', #1248 ) ;
#1188 = EDGE_CURVE ( 'NONE', #535, #158, #1060, .T. ) ;
#1189 = ADVANCED_FACE ( 'NONE', ( #147 ), #858, .F. ) ;
#1190 = DIRECTION ( 'NONE',  ( -0.000000000000000000, 1.000000000000000000, 0.000000000000000000 ) ) ;
#1191 = ORIENTED_EDGE ( 'NONE', *, *, #1261, .T. ) ;
#1192 = CARTESIAN_POINT ( 'NONE',  ( -1.030483372586405702E-16, 26.50815478080879828, 1.177218809571307784E-16 ) ) ;
#1193 = DIRECTION ( 'NONE',  ( -1.000000000000000000, 0.000000000000000000, 0.000000000000000000 ) ) ;
#1194 = ORIENTED_EDGE ( 'NONE', *, *, #595, .T. ) ;
#1195 = VECTOR ( 'NONE', #24, 1000.000000000000000 ) ;
#1196 = DIRECTION ( 'NONE',  ( 0.000000000000000000, 1.000000000000000000, 0.000000000000000000 ) ) ;
#1197 =( GEOMETRIC_REPRESENTATION_CONTEXT ( 3 ) GLOBAL_UNCERTAINTY_ASSIGNED_CONTEXT ( ( #381 ) ) GLOBAL_UNIT_ASSIGNED_CONTEXT ( ( #834, #121, #1009 ) ) REPRESENTATION_CONTEXT ( 'NONE', 'WORKASPACE' ) );
#1198 = ADVANCED_FACE ( 'NONE', ( #630 ), #333, .T. ) ;
#1199 = CIRCLE ( 'NONE', #1097, 5.159374999999187139 ) ;
#1200 = DIRECTION ( 'NONE',  ( 0.000000000000000000, -1.000000000000000000, 0.000000000000000000 ) ) ;
#1201 = VECTOR ( 'NONE', #330, 1000.000000000000000 ) ;
#1202 = LINE ( 'NONE', #1124, #1264 ) ;
#1203 = PLANE ( 'NONE',  #516 ) ;
#1204 = EDGE_CURVE ( 'NONE', #1107, #1119, #362, .T. ) ;
#1205 = VERTEX_POINT ( 'NONE', #1101 ) ;
#1206 = ADVANCED_FACE ( 'NONE', ( #609 ), #588, .T. ) ;
#1207 = CARTESIAN_POINT ( 'NONE',  ( 4.801897008352056686E-16, 16.81805478080879723, 4.762499999999337597 ) ) ;
#1208 = CARTESIAN_POINT ( 'NONE',  ( 6.724650000000225170, 16.81805478080879723, 5.159374999999999822 ) ) ;
#1209 = CARTESIAN_POINT ( 'NONE',  ( -5.127624999999637723, 19.90415478080879907, 5.127625000000000099 ) ) ;
#1210 = ORIENTED_EDGE ( 'NONE', *, *, #1240, .F. ) ;
#1211 = CARTESIAN_POINT ( 'NONE',  ( 5.127624999999637723, 20.88840478080879848, 5.127625000000000099 ) ) ;
#1212 = DIRECTION ( 'NONE',  ( 0.000000000000000000, 0.000000000000000000, -1.000000000000000000 ) ) ;
#1213 = FACE_BOUND ( 'NONE', #1155, .T. ) ;
#1214 = SURFACE_SIDE_STYLE ('',( #914 ) ) ;
#1215 = ORIENTED_EDGE ( 'NONE', *, *, #664, .T. ) ;
#1216 = AXIS2_PLACEMENT_3D ( 'NONE', #637, #944, #334 ) ;
#1217 = AXIS2_PLACEMENT_3D ( 'NONE', #917, #90, #924 ) ;
#1218 = DIRECTION ( 'NONE',  ( -0.000000000000000000, 1.000000000000000000, 0.000000000000000000 ) ) ;
#1219 =( GEOMETRIC_REPRESENTATION_CONTEXT ( 3 ) GLOBAL_UNCERTAINTY_ASSIGNED_CONTEXT ( ( #319 ) ) GLOBAL_UNIT_ASSIGNED_CONTEXT ( ( #875, #375, #902 ) ) REPRESENTATION_CONTEXT ( 'NONE', 'WORKASPACE' ) );
#1220 = EDGE_CURVE ( 'NONE', #236, #680, #762, .T. ) ;
#1221 = FACE_OUTER_BOUND ( 'NONE', #819, .T. ) ;
#1222 = CARTESIAN_POINT ( 'NONE',  ( 4.349749999999600547, 22.72355478080880076, -1.801725442932204935 ) ) ;
#1223 = VECTOR ( 'NONE', #1040, 1000.000000000000000 ) ;
#1224 = CARTESIAN_POINT ( 'NONE',  ( -5.127624999999637723, 19.90415478080879907, -5.127625000000000099 ) ) ;
#1225 = ORIENTED_EDGE ( 'NONE', *, *, #295, .T. ) ;
#1226 = EDGE_CURVE ( 'NONE', #614, #229, #765, .T. ) ;
#1227 = LINE ( 'NONE', #1038, #70 ) ;
#1228 = ADVANCED_FACE ( 'NONE', ( #271 ), #383, .T. ) ;
#1229 = CYLINDRICAL_SURFACE ( 'NONE', #296, 4.960937499999487521 ) ;
#1230 = DIRECTION ( 'NONE',  ( 0.000000000000000000, 0.000000000000000000, -1.000000000000000000 ) ) ;
#1231 = CARTESIAN_POINT ( 'NONE',  ( 1.801725442932202492, 24.36820478080879582, 4.349749999999600547 ) ) ;
#1232 = VERTEX_POINT ( 'NONE', #203 ) ;
#1233 = DIRECTION ( 'NONE',  ( 2.407030830892919977E-16, 0.000000000000000000, 1.000000000000000000 ) ) ;
#1234 = DIRECTION ( 'NONE',  ( 0.000000000000000000, 0.000000000000000000, -1.000000000000000000 ) ) ;
#1235 = CARTESIAN_POINT ( 'NONE',  ( -1.030483372586405702E-16, 26.50815478080879828, 1.177218809571307784E-16 ) ) ;
#1236 = CARTESIAN_POINT ( 'NONE',  ( -3.637534008945605191, 20.88840478080879848, 1.177218809571307784E-16 ) ) ;
#1237 = ORIENTED_EDGE ( 'NONE', *, *, #977, .T. ) ;
#1238 = VECTOR ( 'NONE', #1233, 1000.000000000000000 ) ;
#1239 = LINE ( 'NONE', #123, #785 ) ;
#1240 = EDGE_CURVE ( 'NONE', #493, #166, #182, .T. ) ;
#1241 = CARTESIAN_POINT ( 'NONE',  ( -5.127624999999637723, 20.88840478080879848, 5.127625000000000099 ) ) ;
#1242 = CARTESIAN_POINT ( 'NONE',  ( -1.030483372586405702E-16, 20.88840478080879848, -5.159374999999187139 ) ) ;
#1243 = EDGE_LOOP ( 'NONE', ( #732, #132, #439, #677 ) ) ;
#1244 = AXIS2_PLACEMENT_3D ( 'NONE', #1032, #1230, #455 ) ;
#1245 = EDGE_CURVE ( 'NONE', #717, #1072, #1081, .T. ) ;
#1246 = VECTOR ( 'NONE', #725, 1000.000000000000000 ) ;
#1247 = EDGE_CURVE ( 'NONE', #1119, #886, #100, .T. ) ;
#1248 = CARTESIAN_POINT ( 'NONE',  ( 6.724650000000225170, 19.90415478080879907, -5.159374999999999822 ) ) ;
#1249 = EDGE_LOOP ( 'NONE', ( #592, #758, #1096, #1254 ) ) ;
#1250 = PRODUCT ( '800H-FRXT6D4', '800H-FRXT6D4', '', ( #712 ) ) ;
#1251 = DIRECTION ( 'NONE',  ( 0.000000000000000000, 0.000000000000000000, -1.000000000000000000 ) ) ;
#1252 = LINE ( 'NONE', #1125, #538 ) ;
#1253 = LINE ( 'NONE', #558, #1246 ) ;
#1254 = ORIENTED_EDGE ( 'NONE', *, *, #998, .T. ) ;
#1255 = PLANE ( 'NONE',  #1116 ) ;
#1256 = ORIENTED_EDGE ( 'NONE', *, *, #119, .F. ) ;
#1257 = DIRECTION ( 'NONE',  ( -1.000000000000000000, 0.000000000000000000, 2.407030830892924907E-16 ) ) ;
#1258 = CARTESIAN_POINT ( 'NONE',  ( 5.127624999999637723, 19.90415478080879907, 5.127625000000000099 ) ) ;
#1259 = CARTESIAN_POINT ( 'NONE',  ( 5.127624999999637723, 20.88840478080879848, -5.127625000000000099 ) ) ;
#1260 = ORIENTED_EDGE ( 'NONE', *, *, #1031, .T. ) ;
#1261 = EDGE_CURVE ( 'NONE', #174, #965, #583, .T. ) ;
#1262 = FACE_OUTER_BOUND ( 'NONE', #827, .T. ) ;
#1263 = ORIENTED_EDGE ( 'NONE', *, *, #66, .F. ) ;
#1264 = VECTOR ( 'NONE', #112, 1000.000000000000000 ) ;
#1265 =( NAMED_UNIT ( * ) SI_UNIT ( $, .STERADIAN. ) SOLID_ANGLE_UNIT ( ) );
#1266 = VECTOR ( 'NONE', #1000, 1000.000000000000000 ) ;
#1267 = ADVANCED_FACE ( 'NONE', ( #978 ), #964, .F. ) ;
#1268 = CARTESIAN_POINT ( 'NONE',  ( -0.5714999999926750895, 20.88840478080879848, 5.127625000000000099 ) ) ;
#1269 = ORIENTED_EDGE ( 'NONE', *, *, #1057, .F. ) ;
#1270 = ORIENTED_EDGE ( 'NONE', *, *, #180, .F. ) ;
#1271 = DIRECTION ( 'NONE',  ( 0.000000000000000000, -1.000000000000000000, 0.000000000000000000 ) ) ;
#1272 = PLANE ( 'NONE',  #1020 ) ;
#1273 = ORIENTED_EDGE ( 'NONE', *, *, #218, .F. ) ;
#1274 = DIRECTION ( 'NONE',  ( 0.000000000000000000, 0.000000000000000000, -1.000000000000000000 ) ) ;
#1275 = ORIENTED_EDGE ( 'NONE', *, *, #742, .T. ) ;
#1276 = DIRECTION ( 'NONE',  ( -0.000000000000000000, 1.000000000000000000, 0.000000000000000000 ) ) ;
#1277 = CARTESIAN_POINT ( 'NONE',  ( 5.127624999999637723, 20.88840478080879848, -0.5714999999959361476 ) ) ;
#1278 = ORIENTED_EDGE ( 'NONE', *, *, #470, .F. ) ;
#1279 = VERTEX_POINT ( 'NONE', #1063 ) ;
#1280 = CARTESIAN_POINT ( 'NONE',  ( -3.637534008945605191, 22.72355478080880076, 4.349749999999600547 ) ) ;
#1281 = AXIS2_PLACEMENT_3D ( 'NONE', #1164, #775, #263 ) ;
#1282 = ADVANCED_FACE ( 'NONE', ( #1262 ), #999, .T. ) ;
#1283 = COLOUR_RGB ( '',0.7921568627450980005, 0.8196078431372548767, 0.9333333333333333481 ) ;
#1284 = CARTESIAN_POINT ( 'NONE',  ( 5.044912857558031020E-16, 30.08955478080879686, 4.960937499999487521 ) ) ;
#1285 = ORIENTED_EDGE ( 'NONE', *, *, #651, .T. ) ;
#1286 = EDGE_CURVE ( 'NONE', #340, #174, #474, .T. ) ;
#1287 = VECTOR ( 'NONE', #600, 1000.000000000000000 ) ;
#1288 = MECHANICAL_DESIGN_GEOMETRIC_PRESENTATION_REPRESENTATION (  '', ( #495 ), #411 ) ;
#1289 = FACE_BOUND ( 'NONE', #360, .T. ) ;
#1290 = ORIENTED_EDGE ( 'NONE', *, *, #93, .T. ) ;
#1291 = LINE ( 'NONE', #9, #597 ) ;
#1292 = CARTESIAN_POINT ( 'NONE',  ( -1.030483372586405702E-16, 30.08955478080879686, 1.177218809571307784E-16 ) ) ;
#1293 = CARTESIAN_POINT ( 'NONE',  ( -1.030483372586405702E-16, 30.72455478080880198, 1.177218809571307784E-16 ) ) ;
#1294 = ADVANCED_FACE ( 'NONE', ( #881 ), #472, .F. ) ;
#1295 = DIRECTION ( 'NONE',  ( 0.000000000000000000, -1.000000000000000000, 0.000000000000000000 ) ) ;
#1296 = FACE_OUTER_BOUND ( 'NONE', #267, .T. ) ;
#1297 = CIRCLE ( 'NONE', #1281, 4.762499999999337597 ) ;
#1298 = EDGE_CURVE ( 'NONE', #553, #187, #89, .T. ) ;
#1299 = VECTOR ( 'NONE', #397, 1000.000000000000000 ) ;
#1300 = FILL_AREA_STYLE ('',( #513 ) ) ;
#1301 = DIRECTION ( 'NONE',  ( -0.7071067811865480168, 0.000000000000000000, -0.7071067811865470176 ) ) ;
#1302 = ORIENTED_EDGE ( 'NONE', *, *, #898, .F. ) ;
#1303 = VECTOR ( 'NONE', #671, 1000.000000000000000 ) ;
ENDSEC;
END-ISO-10303-21;
