ISO-10303-21;
HEADER;
FILE_DESCRIPTION (( 'STEP AP214' ),
    '1' );
FILE_NAME ('BASE 1.STEP',
    '2026-04-26T15:38:45',
    ( '' ),
    ( '' ),
    'SwSTEP 2.0',
    'SolidWorks 2022',
    '' );
FILE_SCHEMA (( 'AUTOMOTIVE_DESIGN' ));
ENDSEC;

DATA;
#1 = PLANE ( 'NONE',  #483 ) ;
#2 = EDGE_CURVE ( 'NONE', #1161, #833, #607, .T. ) ;
#3 = CARTESIAN_POINT ( 'NONE',  ( -25.00000000000008171, 339.9999999999998863, 97.00000000000000000 ) ) ;
#4 = ORIENTED_EDGE ( 'NONE', *, *, #570, .F. ) ;
#5 = CARTESIAN_POINT ( 'NONE',  ( 0.000000000000000000, 340.0000000000000000, 98.50000000000000000 ) ) ;
#6 = PLANE ( 'NONE',  #905 ) ;
#7 = DIRECTION ( 'NONE',  ( -1.000000000000000000, -1.249000902703301108E-16, 0.000000000000000000 ) ) ;
#8 = ORIENTED_EDGE ( 'NONE', *, *, #969, .F. ) ;
#9 = ORIENTED_EDGE ( 'NONE', *, *, #1213, .F. ) ;
#10 = LINE ( 'NONE', #870, #758 ) ;
#11 = AXIS2_PLACEMENT_3D ( 'NONE', #847, #1070, #1144 ) ;
#12 = LINE ( 'NONE', #651, #380 ) ;
#13 = ORIENTED_EDGE ( 'NONE', *, *, #848, .T. ) ;
#14 = ADVANCED_FACE ( 'NONE', ( #150 ), #997, .F. ) ;
#15 = ORIENTED_EDGE ( 'NONE', *, *, #1173, .F. ) ;
#16 = CARTESIAN_POINT ( 'NONE',  ( -14.00000000000000711, 340.0000000000000000, 12.49999999999999645 ) ) ;
#17 = UNCERTAINTY_MEASURE_WITH_UNIT (LENGTH_MEASURE( 1.000000000000000082E-05 ), #509, 'distance_accuracy_value', 'NONE');
#18 = DIRECTION ( 'NONE',  ( 1.000000000000000000, 0.000000000000000000, 0.000000000000000000 ) ) ;
#19 = LINE ( 'NONE', #675, #283 ) ;
#20 = EDGE_LOOP ( 'NONE', ( #1188, #1102, #888, #911 ) ) ;
#21 = EDGE_LOOP ( 'NONE', ( #1162, #41, #270, #731, #4, #160, #497, #76, #1017, #1111, #578, #668, #333, #700 ) ) ;
#22 = CARTESIAN_POINT ( 'NONE',  ( -13.00000000000000888, 332.0000000000000000, 57.49999999999999289 ) ) ;
#23 = EDGE_CURVE ( 'NONE', #311, #315, #246, .T. ) ;
#24 = FACE_OUTER_BOUND ( 'NONE', #123, .T. ) ;
#25 = LINE ( 'NONE', #484, #141 ) ;
#26 = ORIENTED_EDGE ( 'NONE', *, *, #77, .F. ) ;
#27 = ORIENTED_EDGE ( 'NONE', *, *, #609, .T. ) ;
#28 = DIRECTION ( 'NONE',  ( 0.000000000000000000, -1.000000000000000000, 0.000000000000000000 ) ) ;
#29 = CIRCLE ( 'NONE', #259, 13.00000000000007105 ) ;
#30 =( NAMED_UNIT ( * ) SI_UNIT ( $, .STERADIAN. ) SOLID_ANGLE_UNIT ( ) );
#31 = VECTOR ( 'NONE', #49, 1000.000000000000000 ) ;
#32 = LINE ( 'NONE', #38, #635 ) ;
#33 = ORIENTED_EDGE ( 'NONE', *, *, #230, .F. ) ;
#34 = AXIS2_PLACEMENT_3D ( 'NONE', #64, #823, #144 ) ;
#35 = VERTEX_POINT ( 'NONE', #623 ) ;
#36 = EDGE_LOOP ( 'NONE', ( #138, #1131, #771, #354 ) ) ;
#37 = EDGE_CURVE ( 'NONE', #142, #232, #923, .T. ) ;
#38 = CARTESIAN_POINT ( 'NONE',  ( -108.5000000000000000, 365.0000000000000000, 1.500000000000000666 ) ) ;
#39 = EDGE_CURVE ( 'NONE', #1171, #686, #29, .T. ) ;
#40 = ORIENTED_EDGE ( 'NONE', *, *, #159, .T. ) ;
#41 = ORIENTED_EDGE ( 'NONE', *, *, #900, .T. ) ;
#42 = CARTESIAN_POINT ( 'NONE',  ( -25.00000000000008171, 352.9999999999999432, 97.00000000000000000 ) ) ;
#43 = LINE ( 'NONE', #1176, #463 ) ;
#44 = DIRECTION ( 'NONE',  ( -1.000000000000000000, -0.000000000000000000, -0.000000000000000000 ) ) ;
#45 = VERTEX_POINT ( 'NONE', #288 ) ;
#46 = ORIENTED_EDGE ( 'NONE', *, *, #663, .F. ) ;
#47 = SURFACE_SIDE_STYLE ('',( #786 ) ) ;
#48 = PLANE ( 'NONE',  #126 ) ;
#49 = DIRECTION ( 'NONE',  ( -1.000000000000000000, 6.530723674265633089E-16, -0.000000000000000000 ) ) ;
#50 = AXIS2_PLACEMENT_3D ( 'NONE', #703, #169, #81 ) ;
#51 = DIRECTION ( 'NONE',  ( -1.000000000000000000, 0.000000000000000000, 0.000000000000000000 ) ) ;
#52 = AXIS2_PLACEMENT_3D ( 'NONE', #185, #257, #1191 ) ;
#53 = EDGE_CURVE ( 'NONE', #910, #608, #269, .T. ) ;
#54 = VECTOR ( 'NONE', #287, 1000.000000000000000 ) ;
#55 = ORIENTED_EDGE ( 'NONE', *, *, #512, .T. ) ;
#56 = CARTESIAN_POINT ( 'NONE',  ( -25.00000000000008171, 340.0000000000000000, 0.000000000000000000 ) ) ;
#57 = PLANE ( 'NONE',  #716 ) ;
#58 = ORIENTED_EDGE ( 'NONE', *, *, #570, .T. ) ;
#59 = EDGE_LOOP ( 'NONE', ( #402, #784, #809, #110 ) ) ;
#60 = DIRECTION ( 'NONE',  ( 0.000000000000000000, 0.000000000000000000, 1.000000000000000000 ) ) ;
#61 = LINE ( 'NONE', #820, #522 ) ;
#62 = CARTESIAN_POINT ( 'NONE',  ( 0.000000000000000000, 332.0000000000000000, 0.000000000000000000 ) ) ;
#63 = CARTESIAN_POINT ( 'NONE',  ( -25.00000000000008171, 339.9999999999998863, 97.00000000000000000 ) ) ;
#64 = CARTESIAN_POINT ( 'NONE',  ( -11.00000000000000355, 339.9999999999998863, 4.000000000000000000 ) ) ;
#65 = VERTEX_POINT ( 'NONE', #757 ) ;
#66 = EDGE_CURVE ( 'NONE', #336, #447, #840, .T. ) ;
#67 = CARTESIAN_POINT ( 'NONE',  ( -110.0000000000000284, 351.6568542494923122, 100.0000000000000142 ) ) ;
#68 = ORIENTED_EDGE ( 'NONE', *, *, #72, .T. ) ;
#69 = CARTESIAN_POINT ( 'NONE',  ( 0.000000000000000000, 368.0000000000000000, 0.000000000000000000 ) ) ;
#70 = AXIS2_PLACEMENT_3D ( 'NONE', #639, #1027, #176 ) ;
#71 = AXIS2_PLACEMENT_3D ( 'NONE', #551, #356, #1220 ) ;
#72 = EDGE_CURVE ( 'NONE', #35, #407, #386, .T. ) ;
#73 = FACE_OUTER_BOUND ( 'NONE', #927, .T. ) ;
#74 = EDGE_CURVE ( 'NONE', #1006, #108, #662, .T. ) ;
#75 = DIRECTION ( 'NONE',  ( 1.156482317317871725E-16, 0.000000000000000000, -1.000000000000000000 ) ) ;
#76 = ORIENTED_EDGE ( 'NONE', *, *, #23, .F. ) ;
#77 = EDGE_CURVE ( 'NONE', #985, #567, #12, .T. ) ;
#78 = LINE ( 'NONE', #633, #656 ) ;
#79 = CARTESIAN_POINT ( 'NONE',  ( -108.3431457505076025, 350.0000000000000000, 1.656854249492384579 ) ) ;
#80 = DIRECTION ( 'NONE',  ( 0.000000000000000000, 0.000000000000000000, -1.000000000000000000 ) ) ;
#81 = DIRECTION ( 'NONE',  ( -1.156482317317871725E-16, 0.000000000000000000, 1.000000000000000000 ) ) ;
#82 = CARTESIAN_POINT ( 'NONE',  ( -110.0000000000000000, 354.0000000000000000, 0.000000000000000000 ) ) ;
#83 = DIRECTION ( 'NONE',  ( -1.000000000000000000, -0.000000000000000000, -0.000000000000000000 ) ) ;
#84 = ORIENTED_EDGE ( 'NONE', *, *, #39, .F. ) ;
#85 = VECTOR ( 'NONE', #748, 1000.000000000000000 ) ;
#86 = FACE_BOUND ( 'NONE', #588, .T. ) ;
#87 = AXIS2_PLACEMENT_3D ( 'NONE', #1186, #220, #408 ) ;
#88 = UNCERTAINTY_MEASURE_WITH_UNIT (LENGTH_MEASURE( 1.000000000000000082E-05 ), #342, 'distance_accuracy_value', 'NONE');
#89 = LINE ( 'NONE', #475, #145 ) ;
#90 = CARTESIAN_POINT ( 'NONE',  ( -110.0000000000000000, 354.0000000000000000, 100.0000000000000000 ) ) ;
#91 = CARTESIAN_POINT ( 'NONE',  ( -25.00000000000008171, 349.9999999999999432, 4.000000000000003553 ) ) ;
#92 = CARTESIAN_POINT ( 'NONE',  ( -14.00000000000000888, 332.0000000000000000, 27.49999999999999645 ) ) ;
#93 = DIRECTION ( 'NONE',  ( -1.000000000000000000, 0.000000000000000000, 0.000000000000000000 ) ) ;
#94 = DIRECTION ( 'NONE',  ( 0.000000000000000000, -0.000000000000000000, -1.000000000000000000 ) ) ;
#95 = PLANE ( 'NONE',  #11 ) ;
#96 = EDGE_CURVE ( 'NONE', #247, #315, #676, .T. ) ;
#97 = DIRECTION ( 'NONE',  ( -0.000000000000000000, 0.000000000000000000, 1.000000000000000000 ) ) ;
#98 = LINE ( 'NONE', #1121, #478 ) ;
#99 = ORIENTED_EDGE ( 'NONE', *, *, #974, .F. ) ;
#100 = ORIENTED_EDGE ( 'NONE', *, *, #124, .F. ) ;
#101 = DIRECTION ( 'NONE',  ( -1.156482317317871478E-16, -0.000000000000000000, 1.000000000000000000 ) ) ;
#102 = VECTOR ( 'NONE', #564, 1000.000000000000000 ) ;
#103 = VECTOR ( 'NONE', #1016, 1000.000000000000000 ) ;
#104 =( GEOMETRIC_REPRESENTATION_CONTEXT ( 3 ) GLOBAL_UNCERTAINTY_ASSIGNED_CONTEXT ( ( #469 ) ) GLOBAL_UNIT_ASSIGNED_CONTEXT ( ( #1159, #105, #465 ) ) REPRESENTATION_CONTEXT ( 'NONE', 'WORKASPACE' ) );
#105 =( NAMED_UNIT ( * ) PLANE_ANGLE_UNIT ( ) SI_UNIT ( $, .RADIAN. ) );
#106 = EDGE_CURVE ( 'NONE', #620, #686, #191, .T. ) ;
#107 = LINE ( 'NONE', #587, #1001 ) ;
#108 = VERTEX_POINT ( 'NONE', #179 ) ;
#109 = EDGE_CURVE ( 'NONE', #45, #35, #372, .T. ) ;
#110 = ORIENTED_EDGE ( 'NONE', *, *, #1031, .T. ) ;
#111 = FACE_BOUND ( 'NONE', #696, .T. ) ;
#112 = DIRECTION ( 'NONE',  ( -1.000000000000000000, 6.530723674265633089E-16, -0.000000000000000000 ) ) ;
#113 = DIRECTION ( 'NONE',  ( 1.000000000000000000, 0.000000000000000000, 0.000000000000000000 ) ) ;
#114 = DIRECTION ( 'NONE',  ( 1.000000000000000000, 0.000000000000000000, -0.000000000000000000 ) ) ;
#115 = ORIENTED_EDGE ( 'NONE', *, *, #234, .T. ) ;
#116 = ORIENTED_EDGE ( 'NONE', *, *, #857, .F. ) ;
#117 = CARTESIAN_POINT ( 'NONE',  ( 0.000000000000000000, 332.0000000000000000, 0.000000000000000000 ) ) ;
#118 = LINE ( 'NONE', #962, #856 ) ;
#119 = EDGE_LOOP ( 'NONE', ( #46, #921, #1177, #981 ) ) ;
#120 = DIRECTION ( 'NONE',  ( 1.000000000000000000, 0.000000000000000000, 0.000000000000000000 ) ) ;
#121 = EDGE_CURVE ( 'NONE', #608, #1105, #453, .T. ) ;
#122 = EDGE_LOOP ( 'NONE', ( #691, #978, #441, #596 ) ) ;
#123 = EDGE_LOOP ( 'NONE', ( #713, #690, #625, #237 ) ) ;
#124 = EDGE_CURVE ( 'NONE', #192, #972, #366, .T. ) ;
#125 = SHAPE_DEFINITION_REPRESENTATION ( #695, #834 ) ;
#126 = AXIS2_PLACEMENT_3D ( 'NONE', #256, #1193, #802 ) ;
#127 = DIRECTION ( 'NONE',  ( -1.000000000000000000, 0.000000000000000000, -0.000000000000000000 ) ) ;
#128 = VECTOR ( 'NONE', #374, 1000.000000000000000 ) ;
#129 = ORIENTED_EDGE ( 'NONE', *, *, #1004, .F. ) ;
#130 = ORIENTED_EDGE ( 'NONE', *, *, #537, .F. ) ;
#131 = DIRECTION ( 'NONE',  ( -0.000000000000000000, -0.000000000000000000, -1.000000000000000000 ) ) ;
#132 = CARTESIAN_POINT ( 'NONE',  ( -14.00000000000000888, 340.0000000000000000, 57.49999999999999289 ) ) ;
#133 = ORIENTED_EDGE ( 'NONE', *, *, #526, .T. ) ;
#134 = ORIENTED_EDGE ( 'NONE', *, *, #1173, .T. ) ;
#135 = EDGE_CURVE ( 'NONE', #338, #813, #566, .T. ) ;
#136 = FACE_OUTER_BOUND ( 'NONE', #805, .T. ) ;
#137 = VERTEX_POINT ( 'NONE', #553 ) ;
#138 = ORIENTED_EDGE ( 'NONE', *, *, #835, .T. ) ;
#139 = CIRCLE ( 'NONE', #942, 10.00000000000007461 ) ;
#140 = DIRECTION ( 'NONE',  ( -1.000000000000000000, 0.000000000000000000, -0.000000000000000000 ) ) ;
#141 = VECTOR ( 'NONE', #865, 1000.000000000000000 ) ;
#142 = VERTEX_POINT ( 'NONE', #955 ) ;
#143 = AXIS2_PLACEMENT_3D ( 'NONE', #669, #868, #491 ) ;
#144 = DIRECTION ( 'NONE',  ( 0.000000000000000000, 0.000000000000000000, 1.000000000000000000 ) ) ;
#145 = VECTOR ( 'NONE', #294, 1000.000000000000000 ) ;
#146 = LINE ( 'NONE', #827, #502 ) ;
#147 = EDGE_LOOP ( 'NONE', ( #241, #274, #687, #892 ) ) ;
#148 = PLANE ( 'NONE',  #204 ) ;
#149 = CARTESIAN_POINT ( 'NONE',  ( -107.0000000000000000, 365.0000000000000000, 100.0000000000000000 ) ) ;
#150 = FACE_OUTER_BOUND ( 'NONE', #796, .T. ) ;
#151 = DIRECTION ( 'NONE',  ( -1.156482317317871478E-16, -0.000000000000000000, 1.000000000000000000 ) ) ;
#152 = ORIENTED_EDGE ( 'NONE', *, *, #376, .T. ) ;
#153 = EDGE_CURVE ( 'NONE', #238, #895, #1134, .T. ) ;
#154 = DIRECTION ( 'NONE',  ( 0.000000000000000000, -1.000000000000000000, 0.000000000000000000 ) ) ;
#155 = CARTESIAN_POINT ( 'NONE',  ( -14.00000000000000711, 332.0000000000000000, 42.49999999999999289 ) ) ;
#156 = LINE ( 'NONE', #1218, #285 ) ;
#157 = CARTESIAN_POINT ( 'NONE',  ( -108.5000000000000000, 368.0000000000000000, 1.500000000000000666 ) ) ;
#158 = EDGE_LOOP ( 'NONE', ( #196, #180, #218, #1178 ) ) ;
#159 = EDGE_CURVE ( 'NONE', #1175, #318, #98, .T. ) ;
#160 = ORIENTED_EDGE ( 'NONE', *, *, #106, .T. ) ;
#161 = EDGE_CURVE ( 'NONE', #567, #605, #730, .T. ) ;
#162 = DIRECTION ( 'NONE',  ( 0.000000000000000000, -1.000000000000000000, 0.000000000000000000 ) ) ;
#163 = EDGE_CURVE ( 'NONE', #504, #1105, #1034, .T. ) ;
#164 = DIRECTION ( 'NONE',  ( -1.000000000000000000, 0.000000000000000000, -0.000000000000000000 ) ) ;
#165 = VERTEX_POINT ( 'NONE', #361 ) ;
#166 = VECTOR ( 'NONE', #369, 1000.000000000000000 ) ;
#167 = VECTOR ( 'NONE', #661, 1000.000000000000000 ) ;
#168 = AXIS2_PLACEMENT_3D ( 'NONE', #654, #970, #186 ) ;
#169 = DIRECTION ( 'NONE',  ( -1.000000000000000000, 0.000000000000000000, -1.156482317317871725E-16 ) ) ;
#170 = CARTESIAN_POINT ( 'NONE',  ( -13.00000000000000888, 340.0000000000000000, 57.49999999999999289 ) ) ;
#171 = CARTESIAN_POINT ( 'NONE',  ( -25.00000000000008171, 339.9999999999998863, 96.00000000000000000 ) ) ;
#172 = LINE ( 'NONE', #16, #166 ) ;
#173 = EDGE_CURVE ( 'NONE', #421, #343, #960, .T. ) ;
#174 = PRODUCT_DEFINITION_CONTEXT ( 'detailed design', #946, 'design' ) ;
#175 = CARTESIAN_POINT ( 'NONE',  ( -25.00000000000008171, 339.9999999999998863, 100.0000000000000000 ) ) ;
#176 = DIRECTION ( 'NONE',  ( 8.673617379884027583E-16, 1.000000000000000000, 0.000000000000000000 ) ) ;
#177 = LINE ( 'NONE', #606, #362 ) ;
#178 = CARTESIAN_POINT ( 'NONE',  ( 0.000000000000000000, 365.0000000000000000, 1.500000000000001332 ) ) ;
#179 = CARTESIAN_POINT ( 'NONE',  ( 3.000000000000000000, 368.0000000000000000, 0.000000000000000000 ) ) ;
#180 = ORIENTED_EDGE ( 'NONE', *, *, #1182, .F. ) ;
#181 = CARTESIAN_POINT ( 'NONE',  ( -13.00000000000000888, 332.0000000000000000, 27.49999999999999645 ) ) ;
#182 = VECTOR ( 'NONE', #466, 1000.000000000000000 ) ;
#183 = VECTOR ( 'NONE', #489, 1000.000000000000000 ) ;
#184 = FACE_OUTER_BOUND ( 'NONE', #1018, .T. ) ;
#185 = CARTESIAN_POINT ( 'NONE',  ( 0.000000000000000000, 365.0000000000000000, 100.0000000000000000 ) ) ;
#186 = DIRECTION ( 'NONE',  ( -1.000000000000000000, 0.000000000000000000, 0.000000000000000000 ) ) ;
#187 = DIRECTION ( 'NONE',  ( -1.000000000000000000, -0.000000000000000000, -0.000000000000000000 ) ) ;
#188 = CARTESIAN_POINT ( 'NONE',  ( -25.00000000000008171, 340.0000000000000000, 100.0000000000000000 ) ) ;
#189 = CARTESIAN_POINT ( 'NONE',  ( 0.000000000000000000, 0.000000000000000000, 100.0000000000000000 ) ) ;
#190 = LINE ( 'NONE', #1047, #1025 ) ;
#191 = LINE ( 'NONE', #1228, #884 ) ;
#192 = VERTEX_POINT ( 'NONE', #1219 ) ;
#193 = PLANE ( 'NONE',  #818 ) ;
#194 = DIRECTION ( 'NONE',  ( 1.000000000000000000, -0.000000000000000000, -5.834271780191055143E-18 ) ) ;
#195 = ADVANCED_FACE ( 'NONE', ( #950 ), #261, .T. ) ;
#196 = ORIENTED_EDGE ( 'NONE', *, *, #456, .T. ) ;
#197 = DIRECTION ( 'NONE',  ( -0.000000000000000000, -1.000000000000000000, -0.000000000000000000 ) ) ;
#198 = FACE_OUTER_BOUND ( 'NONE', #426, .T. ) ;
#199 = EDGE_CURVE ( 'NONE', #320, #421, #139, .T. ) ;
#200 = LINE ( 'NONE', #769, #539 ) ;
#201 = VERTEX_POINT ( 'NONE', #472 ) ;
#202 = CARTESIAN_POINT ( 'NONE',  ( -107.0000000000000000, 339.9999999999998863, 3.000000000000000000 ) ) ;
#203 = AXIS2_PLACEMENT_3D ( 'NONE', #787, #131, #572 ) ;
#204 = AXIS2_PLACEMENT_3D ( 'NONE', #912, #919, #528 ) ;
#205 = MECHANICAL_DESIGN_GEOMETRIC_PRESENTATION_REPRESENTATION (  '', ( #964 ), #736 ) ;
#206 = CYLINDRICAL_SURFACE ( 'NONE', #168, 10.00000000000007461 ) ;
#207 = DIRECTION ( 'NONE',  ( -1.000000000000000000, -0.000000000000000000, -0.000000000000000000 ) ) ;
#208 = ORIENTED_EDGE ( 'NONE', *, *, #537, .T. ) ;
#209 = ORIENTED_EDGE ( 'NONE', *, *, #106, .F. ) ;
#210 = ORIENTED_EDGE ( 'NONE', *, *, #918, .F. ) ;
#211 = CARTESIAN_POINT ( 'NONE',  ( 3.000000000000000000, 340.0000000000000000, 1.500000000000000000 ) ) ;
#212 = ADVANCED_FACE ( 'NONE', ( #850 ), #295, .T. ) ;
#213 = CARTESIAN_POINT ( 'NONE',  ( 0.000000000000000000, 1.500000000000000444, 98.50000000000000000 ) ) ;
#214 = CARTESIAN_POINT ( 'NONE',  ( -13.00000000000000711, 332.0000000000000000, 42.49999999999999289 ) ) ;
#215 = ORIENTED_EDGE ( 'NONE', *, *, #2, .T. ) ;
#216 = ORIENTED_EDGE ( 'NONE', *, *, #692, .T. ) ;
#217 = EDGE_CURVE ( 'NONE', #603, #201, #118, .T. ) ;
#218 = ORIENTED_EDGE ( 'NONE', *, *, #632, .F. ) ;
#219 = DIRECTION ( 'NONE',  ( -0.000000000000000000, -0.000000000000000000, -1.000000000000000000 ) ) ;
#220 = DIRECTION ( 'NONE',  ( 1.000000000000000000, -8.673617379884026597E-16, -8.673617379884026597E-16 ) ) ;
#221 = VERTEX_POINT ( 'NONE', #1160 ) ;
#222 = ORIENTED_EDGE ( 'NONE', *, *, #455, .T. ) ;
#223 = VECTOR ( 'NONE', #397, 1000.000000000000000 ) ;
#224 = LINE ( 'NONE', #989, #1023 ) ;
#225 = DIRECTION ( 'NONE',  ( 1.000000000000000000, 0.000000000000000000, 0.000000000000000000 ) ) ;
#226 = MECHANICAL_DESIGN_GEOMETRIC_PRESENTATION_REPRESENTATION (  '', ( #1107 ), #701 ) ;
#227 = ORIENTED_EDGE ( 'NONE', *, *, #722, .T. ) ;
#228 =( BOUNDED_CURVE ( )  B_SPLINE_CURVE ( 3, ( #734, #79, #930, #82 ),
 .UNSPECIFIED., .F., .T. ) 
 B_SPLINE_CURVE_WITH_KNOTS ( ( 4, 4 ),
 ( 4.712388980384689674, 6.283185307179586232 ),
 .UNSPECIFIED. ) 
 CURVE ( )  GEOMETRIC_REPRESENTATION_ITEM ( )  RATIONAL_B_SPLINE_CURVE ( ( 1.000000000000000000, 0.8047378541243649375, 0.8047378541243649375, 1.000000000000000000 ) ) 
 REPRESENTATION_ITEM ( '' )  );
#229 = ORIENTED_EDGE ( 'NONE', *, *, #742, .T. ) ;
#230 = EDGE_CURVE ( 'NONE', #895, #841, #776, .T. ) ;
#231 = DIRECTION ( 'NONE',  ( -0.000000000000000000, -0.000000000000000000, -1.000000000000000000 ) ) ;
#232 = VERTEX_POINT ( 'NONE', #390 ) ;
#233 = ORIENTED_EDGE ( 'NONE', *, *, #53, .T. ) ;
#234 = EDGE_CURVE ( 'NONE', #608, #1154, #200, .T. ) ;
#235 = PRESENTATION_STYLE_ASSIGNMENT (( #1095 ) ) ;
#236 = EDGE_CURVE ( 'NONE', #238, #221, #107, .T. ) ;
#237 = ORIENTED_EDGE ( 'NONE', *, *, #199, .T. ) ;
#238 = VERTEX_POINT ( 'NONE', #503 ) ;
#239 = PLANE ( 'NONE',  #385 ) ;
#240 = VECTOR ( 'NONE', #368, 1000.000000000000000 ) ;
#241 = ORIENTED_EDGE ( 'NONE', *, *, #931, .F. ) ;
#242 = COLOUR_RGB ( '',0.7921568627450980005, 0.8196078431372548767, 0.9333333333333333481 ) ;
#243 = EDGE_LOOP ( 'NONE', ( #928, #392, #590, #100 ) ) ;
#244 = DIRECTION ( 'NONE',  ( 1.000000000000000000, 0.000000000000000000, 0.000000000000000000 ) ) ;
#245 = CARTESIAN_POINT ( 'NONE',  ( 3.000000000000000000, 1.500000000000000222, 1.500000000000000000 ) ) ;
#246 = LINE ( 'NONE', #63, #756 ) ;
#247 = VERTEX_POINT ( 'NONE', #42 ) ;
#248 = FACE_OUTER_BOUND ( 'NONE', #1192, .T. ) ;
#249 = ORIENTED_EDGE ( 'NONE', *, *, #673, .T. ) ;
#250 = EDGE_CURVE ( 'NONE', #568, #311, #1168, .T. ) ;
#251 = DIRECTION ( 'NONE',  ( -1.013475744154521634E-19, -1.000000000000000000, -0.000000000000000000 ) ) ;
#252 = CARTESIAN_POINT ( 'NONE',  ( -108.3431457505076310, 350.0000000000000000, 98.34314575050760254 ) ) ;
#253 = ORIENTED_EDGE ( 'NONE', *, *, #900, .F. ) ;
#254 = EDGE_LOOP ( 'NONE', ( #84, #388, #815, #519 ) ) ;
#255 = DIRECTION ( 'NONE',  ( -0.000000000000000000, -0.000000000000000000, -1.000000000000000000 ) ) ;
#256 = CARTESIAN_POINT ( 'NONE',  ( -110.0000000000000000, 353.0000000000000000, 100.0000000000000000 ) ) ;
#257 = DIRECTION ( 'NONE',  ( 0.000000000000000000, -1.000000000000000000, 0.000000000000000000 ) ) ;
#258 = DIRECTION ( 'NONE',  ( -0.000000000000000000, 0.000000000000000000, -1.000000000000000000 ) ) ;
#259 = AXIS2_PLACEMENT_3D ( 'NONE', #517, #901, #51 ) ;
#260 = PLANE ( 'NONE',  #783 ) ;
#261 = CYLINDRICAL_SURFACE ( 'NONE', #70, 4.000000000000003553 ) ;
#262 = AXIS2_PLACEMENT_3D ( 'NONE', #494, #1179, #113 ) ;
#263 = CARTESIAN_POINT ( 'NONE',  ( -14.00000000000000711, 340.0000000000000000, 72.50000000000000000 ) ) ;
#264 = VECTOR ( 'NONE', #915, 1000.000000000000000 ) ;
#265 = LINE ( 'NONE', #643, #926 ) ;
#266 = COLOUR_RGB ( '',0.7921568627450980005, 0.8196078431372548767, 0.9333333333333333481 ) ;
#267 = CARTESIAN_POINT ( 'NONE',  ( -108.5000000000000000, 340.0000000000000000, 98.50000000000000000 ) ) ;
#268 = PLANE ( 'NONE',  #615 ) ;
#269 = LINE ( 'NONE', #273, #1060 ) ;
#270 = ORIENTED_EDGE ( 'NONE', *, *, #1004, .T. ) ;
#271 = DIRECTION ( 'NONE',  ( -1.156482317317871478E-16, -0.000000000000000000, 1.000000000000000000 ) ) ;
#272 = PLANE ( 'NONE',  #50 ) ;
#273 = CARTESIAN_POINT ( 'NONE',  ( -14.00000000000000888, 332.0000000000000000, 87.50000000000000000 ) ) ;
#274 = ORIENTED_EDGE ( 'NONE', *, *, #799, .F. ) ;
#275 = FACE_OUTER_BOUND ( 'NONE', #301, .T. ) ;
#276 = DIRECTION ( 'NONE',  ( 0.000000000000000000, -0.000000000000000000, 1.000000000000000000 ) ) ;
#277 = CARTESIAN_POINT ( 'NONE',  ( -13.00000000000000888, 340.0000000000000000, 87.50000000000000000 ) ) ;
#278 = DIRECTION ( 'NONE',  ( 0.000000000000000000, 0.000000000000000000, 1.000000000000000000 ) ) ;
#279 = CARTESIAN_POINT ( 'NONE',  ( -14.00000000000000888, 340.0000000000000000, 87.50000000000000000 ) ) ;
#280 = ORIENTED_EDGE ( 'NONE', *, *, #508, .T. ) ;
#281 = CARTESIAN_POINT ( 'NONE',  ( 3.000000000000000000, 340.0000000000000000, 0.000000000000000000 ) ) ;
#282 = AXIS2_PLACEMENT_3D ( 'NONE', #530, #913, #1204 ) ;
#283 = VECTOR ( 'NONE', #1077, 1000.000000000000000 ) ;
#284 = CARTESIAN_POINT ( 'NONE',  ( 0.000000000000000000, 340.0000000000000000, 0.000000000000000000 ) ) ;
#285 = VECTOR ( 'NONE', #650, 1000.000000000000000 ) ;
#286 = EDGE_CURVE ( 'NONE', #620, #1175, #881, .T. ) ;
#287 = DIRECTION ( 'NONE',  ( -0.000000000000000000, 1.000000000000000000, -0.000000000000000000 ) ) ;
#288 = CARTESIAN_POINT ( 'NONE',  ( 3.000000000000000000, 340.0000000000000000, 98.50000000000000000 ) ) ;
#289 = EDGE_LOOP ( 'NONE', ( #685, #434, #1013, #430 ) ) ;
#290 = EDGE_CURVE ( 'NONE', #315, #686, #25, .T. ) ;
#291 = VERTEX_POINT ( 'NONE', #300 ) ;
#292 = DIRECTION ( 'NONE',  ( 1.156482317317871478E-16, 0.000000000000000000, -1.000000000000000000 ) ) ;
#293 = EDGE_CURVE ( 'NONE', #1135, #629, #19, .T. ) ;
#294 = DIRECTION ( 'NONE',  ( -1.156482317317871478E-16, -0.000000000000000000, 1.000000000000000000 ) ) ;
#295 = CYLINDRICAL_SURFACE ( 'NONE', #203, 13.00000000000007105 ) ;
#296 = ORIENTED_EDGE ( 'NONE', *, *, #789, .F. ) ;
#297 = DIRECTION ( 'NONE',  ( -1.000000000000000000, 0.000000000000000000, -0.000000000000000000 ) ) ;
#298 = ORIENTED_EDGE ( 'NONE', *, *, #1057, .F. ) ;
#299 = FACE_BOUND ( 'NONE', #640, .T. ) ;
#300 = CARTESIAN_POINT ( 'NONE',  ( -107.0000000000000000, 353.0000000000000000, 97.00000000000000000 ) ) ;
#301 = EDGE_LOOP ( 'NONE', ( #331, #1122, #706, #351 ) ) ;
#302 = EDGE_CURVE ( 'NONE', #221, #833, #32, .T. ) ;
#303 = ORIENTED_EDGE ( 'NONE', *, *, #446, .F. ) ;
#304 = DIRECTION ( 'NONE',  ( -1.000000000000000000, 0.000000000000000000, 0.000000000000000000 ) ) ;
#305 = VECTOR ( 'NONE', #1073, 1000.000000000000000 ) ;
#306 = AXIS2_PLACEMENT_3D ( 'NONE', #529, #324, #448 ) ;
#307 = CARTESIAN_POINT ( 'NONE',  ( -14.00000000000000711, 332.0000000000000000, 42.49999999999999289 ) ) ;
#308 = CARTESIAN_POINT ( 'NONE',  ( 0.000000000000000000, 340.0000000000000000, 100.0000000000000000 ) ) ;
#309 = ORIENTED_EDGE ( 'NONE', *, *, #410, .F. ) ;
#310 = CARTESIAN_POINT ( 'NONE',  ( 3.000000000000000000, 368.0000000000000000, 0.000000000000000000 ) ) ;
#311 = VERTEX_POINT ( 'NONE', #1064 ) ;
#312 = FACE_OUTER_BOUND ( 'NONE', #158, .T. ) ;
#313 = ORIENTED_EDGE ( 'NONE', *, *, #523, .F. ) ;
#314 = ORIENTED_EDGE ( 'NONE', *, *, #893, .F. ) ;
#315 = VERTEX_POINT ( 'NONE', #411 ) ;
#316 = DIRECTION ( 'NONE',  ( 1.000000000000000000, 0.000000000000000000, 0.000000000000000000 ) ) ;
#317 = CARTESIAN_POINT ( 'NONE',  ( -25.00000000000008171, 353.9999999999999432, 100.0000000000000000 ) ) ;
#318 = VERTEX_POINT ( 'NONE', #792 ) ;
#319 = ADVANCED_FACE ( 'NONE', ( #581 ), #971, .F. ) ;
#320 = VERTEX_POINT ( 'NONE', #406 ) ;
#321 = VECTOR ( 'NONE', #694, 1000.000000000000000 ) ;
#322 = PRESENTATION_LAYER_ASSIGNMENT (  '', '', ( #1107 ) ) ;
#323 = CARTESIAN_POINT ( 'NONE',  ( -108.5000000000000000, 368.0000000000000000, 98.50000000000000000 ) ) ;
#324 = DIRECTION ( 'NONE',  ( 0.000000000000000000, 0.000000000000000000, -1.000000000000000000 ) ) ;
#325 = AXIS2_PLACEMENT_3D ( 'NONE', #871, #1041, #1062 ) ;
#326 = VERTEX_POINT ( 'NONE', #872 ) ;
#327 = EDGE_CURVE ( 'NONE', #247, #1171, #592, .T. ) ;
#328 = ORIENTED_EDGE ( 'NONE', *, *, #718, .T. ) ;
#329 = EDGE_CURVE ( 'NONE', #671, #714, #684, .T. ) ;
#330 = FILL_AREA_STYLE_COLOUR ( '', #266 ) ;
#331 = ORIENTED_EDGE ( 'NONE', *, *, #381, .T. ) ;
#332 = CARTESIAN_POINT ( 'NONE',  ( -107.0000000000000000, 353.0000000000000000, 100.0000000000000000 ) ) ;
#333 = ORIENTED_EDGE ( 'NONE', *, *, #931, .T. ) ;
#334 = PRODUCT_CONTEXT ( 'NONE', #1226, 'mechanical' ) ;
#335 = FACE_OUTER_BOUND ( 'NONE', #243, .T. ) ;
#336 = VERTEX_POINT ( 'NONE', #1072 ) ;
#337 = PLANE ( 'NONE',  #480 ) ;
#338 = VERTEX_POINT ( 'NONE', #214 ) ;
#339 = ADVANCED_FACE ( 'NONE', ( #312 ), #980, .F. ) ;
#340 = PLANE ( 'NONE',  #598 ) ;
#341 = TOROIDAL_SURFACE ( 'NONE', #439, 14.00000000000007105, 4.000000000000000000 ) ;
#342 =( LENGTH_UNIT ( ) NAMED_UNIT ( * ) SI_UNIT ( .MILLI., .METRE. ) );
#343 = VERTEX_POINT ( 'NONE', #317 ) ;
#344 = VECTOR ( 'NONE', #890, 1000.000000000000000 ) ;
#345 = DIRECTION ( 'NONE',  ( 1.000000000000000000, 0.000000000000000000, 0.000000000000000000 ) ) ;
#346 = ADVANCED_FACE ( 'NONE', ( #889 ), #341, .T. ) ;
#347 = ORIENTED_EDGE ( 'NONE', *, *, #673, .F. ) ;
#348 = DIRECTION ( 'NONE',  ( 1.000000000000000000, -6.530723674265633089E-16, 0.000000000000000000 ) ) ;
#349 = FACE_OUTER_BOUND ( 'NONE', #862, .T. ) ;
#350 = FACE_OUTER_BOUND ( 'NONE', #772, .T. ) ;
#351 = ORIENTED_EDGE ( 'NONE', *, *, #1182, .T. ) ;
#352 = ORIENTED_EDGE ( 'NONE', *, *, #952, .T. ) ;
#353 = LINE ( 'NONE', #457, #902 ) ;
#354 = ORIENTED_EDGE ( 'NONE', *, *, #1100, .T. ) ;
#355 = ORIENTED_EDGE ( 'NONE', *, *, #124, .T. ) ;
#356 = DIRECTION ( 'NONE',  ( -1.000000000000000000, 6.530723674265633089E-16, 0.000000000000000000 ) ) ;
#357 = ADVANCED_FACE ( 'NONE', ( #764 ), #48, .T. ) ;
#358 = CARTESIAN_POINT ( 'NONE',  ( -14.00000000000000711, 332.0000000000000000, 42.49999999999999289 ) ) ;
#359 = DIRECTION ( 'NONE',  ( -1.000000000000000000, 0.000000000000000000, 0.000000000000000000 ) ) ;
#360 = CARTESIAN_POINT ( 'NONE',  ( -14.00000000000000888, 340.0000000000000000, 57.49999999999999289 ) ) ;
#361 = CARTESIAN_POINT ( 'NONE',  ( 3.445817530125373887E-17, 340.0000000000000000, 1.500000000000000000 ) ) ;
#362 = VECTOR ( 'NONE', #543, 1000.000000000000000 ) ;
#363 = AXIS2_PLACEMENT_3D ( 'NONE', #470, #864, #775 ) ;
#364 = CARTESIAN_POINT ( 'NONE',  ( -14.00000000000000888, 332.0000000000000000, 27.49999999999999645 ) ) ;
#365 = CARTESIAN_POINT ( 'NONE',  ( -14.00000000000000711, 332.0000000000000000, 72.50000000000000000 ) ) ;
#366 = LINE ( 'NONE', #1141, #855 ) ;
#367 = ORIENTED_EDGE ( 'NONE', *, *, #135, .T. ) ;
#368 = DIRECTION ( 'NONE',  ( -0.000000000000000000, -0.000000000000000000, 1.000000000000000000 ) ) ;
#369 = DIRECTION ( 'NONE',  ( 1.000000000000000000, 0.000000000000000000, 0.000000000000000000 ) ) ;
#370 = EDGE_CURVE ( 'NONE', #291, #247, #353, .T. ) ;
#371 = CARTESIAN_POINT ( 'NONE',  ( -13.00000000000000888, 332.0000000000000000, 27.49999999999999645 ) ) ;
#372 = LINE ( 'NONE', #460, #573 ) ;
#373 = ORIENTED_EDGE ( 'NONE', *, *, #286, .T. ) ;
#374 = DIRECTION ( 'NONE',  ( -0.000000000000000000, 1.000000000000000000, -0.000000000000000000 ) ) ;
#375 = CARTESIAN_POINT ( 'NONE',  ( 0.000000000000000000, 340.0000000000000000, 100.0000000000000000 ) ) ;
#376 = EDGE_CURVE ( 'NONE', #841, #318, #78, .T. ) ;
#377 = CARTESIAN_POINT ( 'NONE',  ( 0.000000000000000000, 365.0000000000000000, 3.000000000000002665 ) ) ;
#378 = ADVANCED_FACE ( 'NONE', ( #349 ), #272, .F. ) ;
#379 = DIRECTION ( 'NONE',  ( -0.000000000000000000, 1.000000000000000000, -0.000000000000000000 ) ) ;
#380 = VECTOR ( 'NONE', #844, 1000.000000000000000 ) ;
#381 = EDGE_CURVE ( 'NONE', #938, #629, #177, .T. ) ;
#382 = AXIS2_PLACEMENT_3D ( 'NONE', #1212, #1119, #1217 ) ;
#383 = ORIENTED_EDGE ( 'NONE', *, *, #109, .F. ) ;
#384 = LINE ( 'NONE', #959, #781 ) ;
#385 = AXIS2_PLACEMENT_3D ( 'NONE', #1005, #154, #993 ) ;
#386 = LINE ( 'NONE', #1042, #715 ) ;
#387 = ORIENTED_EDGE ( 'NONE', *, *, #217, .F. ) ;
#388 = ORIENTED_EDGE ( 'NONE', *, *, #327, .F. ) ;
#389 = LINE ( 'NONE', #202, #925 ) ;
#390 = CARTESIAN_POINT ( 'NONE',  ( -15.00000000000001066, 339.9999999999998863, 4.000000000000003553 ) ) ;
#391 = PRODUCT_DEFINITION ( 'UNKNOWN', '', #1165, #174 ) ;
#392 = ORIENTED_EDGE ( 'NONE', *, *, #66, .F. ) ;
#393 = EDGE_CURVE ( 'NONE', #320, #232, #450, .T. ) ;
#394 = EDGE_LOOP ( 'NONE', ( #885, #628, #314, #210, #215, #249 ) ) ;
#395 = LINE ( 'NONE', #767, #85 ) ;
#396 = FACE_OUTER_BOUND ( 'NONE', #481, .T. ) ;
#397 = DIRECTION ( 'NONE',  ( -0.000000000000000000, -0.000000000000000000, -1.000000000000000000 ) ) ;
#398 = ORIENTED_EDGE ( 'NONE', *, *, #508, .F. ) ;
#399 = ORIENTED_EDGE ( 'NONE', *, *, #1213, .T. ) ;
#400 = CARTESIAN_POINT ( 'NONE',  ( -13.00000000000000888, 340.0000000000000000, 27.49999999999999645 ) ) ;
#401 = CARTESIAN_POINT ( 'NONE',  ( -110.0000000000000000, 368.0000000000000000, 0.000000000000000000 ) ) ;
#402 = ORIENTED_EDGE ( 'NONE', *, *, #163, .T. ) ;
#403 = CARTESIAN_POINT ( 'NONE',  ( -14.00000000000000888, 340.0000000000000000, 27.49999999999999645 ) ) ;
#404 = VECTOR ( 'NONE', #957, 1000.000000000000000 ) ;
#405 = AXIS2_PLACEMENT_3D ( 'NONE', #1112, #255, #631 ) ;
#406 = CARTESIAN_POINT ( 'NONE',  ( -15.00000000000001066, 339.9999999999998863, 96.00000000000000000 ) ) ;
#407 = VERTEX_POINT ( 'NONE', #323 ) ;
#408 = DIRECTION ( 'NONE',  ( -8.673617379884035472E-16, 0.000000000000000000, -1.000000000000000000 ) ) ;
#409 = ORIENTED_EDGE ( 'NONE', *, *, #994, .T. ) ;
#410 = EDGE_CURVE ( 'NONE', #841, #291, #721, .T. ) ;
#411 = CARTESIAN_POINT ( 'NONE',  ( -12.00000000000000355, 339.9999999999998863, 97.00000000000000000 ) ) ;
#412 = ORIENTED_EDGE ( 'NONE', *, *, #236, .T. ) ;
#413 = EDGE_LOOP ( 'NONE', ( #761, #541, #116, #130 ) ) ;
#414 = DIRECTION ( 'NONE',  ( 1.000000000000000000, -6.530723674265633089E-16, 0.000000000000000000 ) ) ;
#415 = FACE_OUTER_BOUND ( 'NONE', #1215, .T. ) ;
#416 = EDGE_CURVE ( 'NONE', #605, #486, #935, .T. ) ;
#417 = ORIENTED_EDGE ( 'NONE', *, *, #1128, .T. ) ;
#418 = DIRECTION ( 'NONE',  ( -0.000000000000000000, 0.000000000000000000, 1.000000000000000000 ) ) ;
#419 = DIRECTION ( 'NONE',  ( 0.000000000000000000, 0.000000000000000000, -1.000000000000000000 ) ) ;
#420 = EDGE_CURVE ( 'NONE', #35, #605, #1091, .T. ) ;
#421 = VERTEX_POINT ( 'NONE', #552 ) ;
#422 = VECTOR ( 'NONE', #231, 1000.000000000000000 ) ;
#423 = CIRCLE ( 'NONE', #405, 14.00000000000007105 ) ;
#424 = DIRECTION ( 'NONE',  ( -1.000000000000000000, 0.000000000000000000, 0.000000000000000000 ) ) ;
#425 = ORIENTED_EDGE ( 'NONE', *, *, #636, .F. ) ;
#426 = EDGE_LOOP ( 'NONE', ( #896, #1069, #798, #873 ) ) ;
#427 = PLANE ( 'NONE',  #1040 ) ;
#428 = DIRECTION ( 'NONE',  ( 1.000000000000000000, 0.000000000000000000, -0.000000000000000000 ) ) ;
#429 = ORIENTED_EDGE ( 'NONE', *, *, #830, .F. ) ;
#430 = ORIENTED_EDGE ( 'NONE', *, *, #327, .T. ) ;
#431 = EDGE_CURVE ( 'NONE', #45, #568, #649, .T. ) ;
#432 = ADVANCED_FACE ( 'NONE', ( #1223 ), #929, .F. ) ;
#433 = SURFACE_SIDE_STYLE ('',( #821 ) ) ;
#434 = ORIENTED_EDGE ( 'NONE', *, *, #742, .F. ) ;
#435 = DIRECTION ( 'NONE',  ( 0.000000000000000000, 0.000000000000000000, -1.000000000000000000 ) ) ;
#436 = EDGE_LOOP ( 'NONE', ( #222, #473, #693, #26 ) ) ;
#437 = CARTESIAN_POINT ( 'NONE',  ( 3.000000000000000000, 368.0000000000000000, 1.500000000000000000 ) ) ;
#438 = CARTESIAN_POINT ( 'NONE',  ( -14.00000000000000888, 332.0000000000000000, 87.50000000000000000 ) ) ;
#439 = AXIS2_PLACEMENT_3D ( 'NONE', #1153, #1133, #424 ) ;
#440 = ORIENTED_EDGE ( 'NONE', *, *, #857, .T. ) ;
#441 = ORIENTED_EDGE ( 'NONE', *, *, #974, .T. ) ;
#442 = CIRCLE ( 'NONE', #34, 4.000000000000000000 ) ;
#443 = LINE ( 'NONE', #618, #887 ) ;
#444 = CARTESIAN_POINT ( 'NONE',  ( -15.00000000000001066, 339.9999999999998863, 100.0000000000000000 ) ) ;
#445 = PRESENTATION_STYLE_ASSIGNMENT (( #743 ) ) ;
#446 = EDGE_CURVE ( 'NONE', #1084, #165, #536, .T. ) ;
#447 = VERTEX_POINT ( 'NONE', #797 ) ;
#448 = DIRECTION ( 'NONE',  ( -1.000000000000000000, 0.000000000000000000, 0.000000000000000000 ) ) ;
#449 = FACE_OUTER_BOUND ( 'NONE', #413, .T. ) ;
#450 = LINE ( 'NONE', #444, #422 ) ;
#451 = FILL_AREA_STYLE ('',( #1203 ) ) ;
#452 = DIRECTION ( 'NONE',  ( 1.000000000000000000, 0.000000000000000000, 1.156482317317871725E-16 ) ) ;
#453 = LINE ( 'NONE', #750, #1225 ) ;
#454 = ORIENTED_EDGE ( 'NONE', *, *, #410, .T. ) ;
#455 = EDGE_CURVE ( 'NONE', #985, #336, #924, .T. ) ;
#456 = EDGE_CURVE ( 'NONE', #714, #938, #732, .T. ) ;
#457 = CARTESIAN_POINT ( 'NONE',  ( -25.00000000000007461, 352.9999999999999432, 97.00000000000000000 ) ) ;
#458 = CARTESIAN_POINT ( 'NONE',  ( -14.00000000000000888, 332.0000000000000000, 57.49999999999999289 ) ) ;
#459 = CARTESIAN_POINT ( 'NONE',  ( -14.00000000000000888, 332.0000000000000000, 87.50000000000000000 ) ) ;
#460 = CARTESIAN_POINT ( 'NONE',  ( 3.000000000000000000, 1.500000000000000444, 98.50000000000000000 ) ) ;
#461 = EDGE_LOOP ( 'NONE', ( #495, #399, #998, #562 ) ) ;
#462 = VECTOR ( 'NONE', #44, 1000.000000000000000 ) ;
#463 = VECTOR ( 'NONE', #593, 1000.000000000000000 ) ;
#464 = PLANE ( 'NONE',  #982 ) ;
#465 =( NAMED_UNIT ( * ) SI_UNIT ( $, .STERADIAN. ) SOLID_ANGLE_UNIT ( ) );
#466 = DIRECTION ( 'NONE',  ( -0.000000000000000000, -0.000000000000000000, -1.000000000000000000 ) ) ;
#467 = ADVANCED_FACE ( 'NONE', ( #136 ), #1126, .T. ) ;
#468 = CARTESIAN_POINT ( 'NONE',  ( -110.0000000000000000, 368.0000000000000000, 100.0000000000000000 ) ) ;
#469 = UNCERTAINTY_MEASURE_WITH_UNIT (LENGTH_MEASURE( 1.000000000000000082E-05 ), #1159, 'distance_accuracy_value', 'NONE');
#470 = CARTESIAN_POINT ( 'NONE',  ( -14.00000000000000888, 332.0000000000000000, 57.49999999999999289 ) ) ;
#471 = ADVANCED_FACE ( 'NONE', ( #73 ), #826, .F. ) ;
#472 = CARTESIAN_POINT ( 'NONE',  ( -14.00000000000000711, 332.0000000000000000, 42.49999999999999289 ) ) ;
#473 = ORIENTED_EDGE ( 'NONE', *, *, #66, .T. ) ;
#474 = DIRECTION ( 'NONE',  ( 0.000000000000000000, 0.000000000000000000, -1.000000000000000000 ) ) ;
#475 = CARTESIAN_POINT ( 'NONE',  ( -13.00000000000000888, 340.0000000000000000, 57.49999999999999289 ) ) ;
#476 = DIRECTION ( 'NONE',  ( -0.000000000000000000, -0.000000000000000000, 1.000000000000000000 ) ) ;
#477 = FACE_OUTER_BOUND ( 'NONE', #589, .T. ) ;
#478 = VECTOR ( 'NONE', #561, 1000.000000000000000 ) ;
#479 = AXIS2_PLACEMENT_3D ( 'NONE', #117, #28, #976 ) ;
#480 = AXIS2_PLACEMENT_3D ( 'NONE', #619, #806, #60 ) ;
#481 = EDGE_LOOP ( 'NONE', ( #1097, #8, #387, #13 ) ) ;
#482 = LINE ( 'NONE', #375, #1205 ) ;
#483 = AXIS2_PLACEMENT_3D ( 'NONE', #1054, #580, #278 ) ;
#484 = CARTESIAN_POINT ( 'NONE',  ( -12.00000000000000355, 339.9999999999998863, 100.0000000000000000 ) ) ;
#485 = ORIENTED_EDGE ( 'NONE', *, *, #765, .F. ) ;
#486 = VERTEX_POINT ( 'NONE', #1028 ) ;
#487 = DIRECTION ( 'NONE',  ( 0.000000000000000000, -0.000000000000000000, 1.000000000000000000 ) ) ;
#488 = CARTESIAN_POINT ( 'NONE',  ( -25.00000000000008171, 352.9999999999999432, 3.000000000000002665 ) ) ;
#489 = DIRECTION ( 'NONE',  ( 0.000000000000000000, 0.000000000000000000, -1.000000000000000000 ) ) ;
#490 = ORIENTED_EDGE ( 'NONE', *, *, #381, .F. ) ;
#491 = DIRECTION ( 'NONE',  ( -0.000000000000000000, 0.000000000000000000, -1.000000000000000000 ) ) ;
#492 = ORIENTED_EDGE ( 'NONE', *, *, #1100, .F. ) ;
#493 = PLANE ( 'NONE',  #479 ) ;
#494 = CARTESIAN_POINT ( 'NONE',  ( -14.00000000000000711, 332.0000000000000000, 12.49999999999999645 ) ) ;
#495 = ORIENTED_EDGE ( 'NONE', *, *, #217, .T. ) ;
#496 = PLANE ( 'NONE',  #801 ) ;
#497 = ORIENTED_EDGE ( 'NONE', *, *, #290, .F. ) ;
#498 = FACE_OUTER_BOUND ( 'NONE', #122, .T. ) ;
#499 = ORIENTED_EDGE ( 'NONE', *, *, #835, .F. ) ;
#500 = VECTOR ( 'NONE', #197, 1000.000000000000000 ) ;
#501 = EDGE_CURVE ( 'NONE', #65, #714, #172, .T. ) ;
#502 = VECTOR ( 'NONE', #825, 1000.000000000000000 ) ;
#503 = CARTESIAN_POINT ( 'NONE',  ( 0.000000000000000000, 365.0000000000000000, 98.50000000000000000 ) ) ;
#504 = VERTEX_POINT ( 'NONE', #277 ) ;
#505 = CARTESIAN_POINT ( 'NONE',  ( -11.00000000000001066, 339.9999999999998863, 96.00000000000000000 ) ) ;
#506 = EDGE_CURVE ( 'NONE', #979, #1076, #1045, .T. ) ;
#507 = ORIENTED_EDGE ( 'NONE', *, *, #72, .F. ) ;
#508 = EDGE_CURVE ( 'NONE', #318, #751, #389, .T. ) ;
#509 =( LENGTH_UNIT ( ) NAMED_UNIT ( * ) SI_UNIT ( .MILLI., .METRE. ) );
#510 = CARTESIAN_POINT ( 'NONE',  ( -25.00000000000008171, 352.9999999999999432, 100.0000000000000000 ) ) ;
#511 = DIRECTION ( 'NONE',  ( -1.000000000000000000, -0.000000000000000000, -0.000000000000000000 ) ) ;
#512 = EDGE_CURVE ( 'NONE', #407, #1161, #10, .T. ) ;
#513 = ORIENTED_EDGE ( 'NONE', *, *, #526, .F. ) ;
#514 = ORIENTED_EDGE ( 'NONE', *, *, #506, .F. ) ;
#515 = CARTESIAN_POINT ( 'NONE',  ( -110.0000000000000000, 365.0000000000000000, 0.000000000000000000 ) ) ;
#516 = CARTESIAN_POINT ( 'NONE',  ( -107.0000000000000000, 365.0000000000000000, 97.00000000000000000 ) ) ;
#517 = CARTESIAN_POINT ( 'NONE',  ( -25.00000000000008171, 339.9999999999998863, 3.000000000000002665 ) ) ;
#518 = CARTESIAN_POINT ( 'NONE',  ( -107.0000000000000000, 353.0000000000000000, 3.000000000000000000 ) ) ;
#519 = ORIENTED_EDGE ( 'NONE', *, *, #290, .T. ) ;
#520 = VECTOR ( 'NONE', #476, 1000.000000000000000 ) ;
#521 = AXIS2_PLACEMENT_3D ( 'NONE', #747, #760, #852 ) ;
#522 = VECTOR ( 'NONE', #1202, 1000.000000000000000 ) ;
#523 = EDGE_CURVE ( 'NONE', #421, #142, #395, .T. ) ;
#524 = CARTESIAN_POINT ( 'NONE',  ( 3.000000000000000000, 339.9999999999998863, 0.000000000000000000 ) ) ;
#525 = ORIENTED_EDGE ( 'NONE', *, *, #230, .T. ) ;
#526 = EDGE_CURVE ( 'NONE', #1113, #504, #384, .T. ) ;
#527 = ORIENTED_EDGE ( 'NONE', *, *, #501, .F. ) ;
#528 = DIRECTION ( 'NONE',  ( -1.000000000000000000, 0.000000000000000000, 0.000000000000000000 ) ) ;
#529 = CARTESIAN_POINT ( 'NONE',  ( -106.0000000000000000, 354.0000000000000000, 100.0000000000000000 ) ) ;
#530 = CARTESIAN_POINT ( 'NONE',  ( -110.0000000000000000, 350.0000000000000000, 100.0000000000000000 ) ) ;
#531 = CARTESIAN_POINT ( 'NONE',  ( -25.00000000000007461, 352.9999999999999432, 3.000000000000000000 ) ) ;
#532 = VERTEX_POINT ( 'NONE', #948 ) ;
#533 = DIRECTION ( 'NONE',  ( 0.000000000000000000, -1.000000000000000000, 0.000000000000000000 ) ) ;
#534 = ORIENTED_EDGE ( 'NONE', *, *, #236, .F. ) ;
#535 = PLANE ( 'NONE',  #1224 ) ;
#536 = LINE ( 'NONE', #547, #1124 ) ;
#537 = EDGE_CURVE ( 'NONE', #972, #142, #1137, .T. ) ;
#538 = VECTOR ( 'NONE', #1158, 1000.000000000000000 ) ;
#539 = VECTOR ( 'NONE', #689, 1000.000000000000000 ) ;
#540 = CARTESIAN_POINT ( 'NONE',  ( -14.00000000000000888, 340.0000000000000000, 87.50000000000000000 ) ) ;
#541 = ORIENTED_EDGE ( 'NONE', *, *, #722, .F. ) ;
#542 = DIRECTION ( 'NONE',  ( 0.000000000000000000, -1.000000000000000000, 0.000000000000000000 ) ) ;
#543 = DIRECTION ( 'NONE',  ( -1.000000000000000000, -0.000000000000000000, -0.000000000000000000 ) ) ;
#544 =( NAMED_UNIT ( * ) PLANE_ANGLE_UNIT ( ) SI_UNIT ( $, .RADIAN. ) );
#545 = DIRECTION ( 'NONE',  ( -0.000000000000000000, 1.000000000000000000, -0.000000000000000000 ) ) ;
#546 = ADVANCED_FACE ( 'NONE', ( #773 ), #1063, .T. ) ;
#547 = CARTESIAN_POINT ( 'NONE',  ( 1.520213616231782872E-19, 1.500000000000000222, 1.500000000000000000 ) ) ;
#548 = CARTESIAN_POINT ( 'NONE',  ( -13.00000000000000888, 332.0000000000000000, 87.50000000000000000 ) ) ;
#549 = DIRECTION ( 'NONE',  ( 0.000000000000000000, 0.000000000000000000, 1.000000000000000000 ) ) ;
#550 = ORIENTED_EDGE ( 'NONE', *, *, #718, .F. ) ;
#551 = CARTESIAN_POINT ( 'NONE',  ( -110.0000000000000000, 354.0000000000000000, 4.000000000000003553 ) ) ;
#552 = CARTESIAN_POINT ( 'NONE',  ( -25.00000000000008171, 349.9999999999999432, 96.00000000000000000 ) ) ;
#553 = CARTESIAN_POINT ( 'NONE',  ( -13.00000000000000888, 332.0000000000000000, 27.49999999999999645 ) ) ;
#554 = CIRCLE ( 'NONE', #521, 14.00000000000007105 ) ;
#555 = CIRCLE ( 'NONE', #87, 4.000000000000000000 ) ;
#556 = ADVANCED_FACE ( 'NONE', ( #681 ), #95, .F. ) ;
#557 = CARTESIAN_POINT ( 'NONE',  ( -106.0000000000000000, 350.0000000000000000, 4.000000000000003553 ) ) ;
#558 = DIRECTION ( 'NONE',  ( -1.000000000000000000, 0.000000000000000000, 0.000000000000000000 ) ) ;
#559 = ADVANCED_FACE ( 'NONE', ( #184 ), #863, .F. ) ;
#560 = LINE ( 'NONE', #666, #1189 ) ;
#561 = DIRECTION ( 'NONE',  ( -1.000000000000000000, 0.000000000000000000, 0.000000000000000000 ) ) ;
#562 = ORIENTED_EDGE ( 'NONE', *, *, #875, .T. ) ;
#563 = PRODUCT ( 'BASE 1', 'BASE 1', '', ( #334 ) ) ;
#564 = DIRECTION ( 'NONE',  ( 1.156482317317871478E-16, 0.000000000000000000, -1.000000000000000000 ) ) ;
#565 = CARTESIAN_POINT ( 'NONE',  ( -108.5000000000000000, 368.0000000000000000, 1.500000000000000666 ) ) ;
#566 = LINE ( 'NONE', #744, #1038 ) ;
#567 = VERTEX_POINT ( 'NONE', #468 ) ;
#568 = VERTEX_POINT ( 'NONE', #5 ) ;
#569 = CARTESIAN_POINT ( 'NONE',  ( 0.000000000000000000, 339.9999976677415248, 3.000000000000000000 ) ) ;
#570 = EDGE_CURVE ( 'NONE', #620, #165, #482, .T. ) ;
#571 = DIRECTION ( 'NONE',  ( 1.000000000000000000, 0.000000000000000000, 0.000000000000000000 ) ) ;
#572 = DIRECTION ( 'NONE',  ( -1.000000000000000000, 0.000000000000000000, 0.000000000000000000 ) ) ;
#573 = VECTOR ( 'NONE', #937, 1000.000000000000000 ) ;
#574 = ORIENTED_EDGE ( 'NONE', *, *, #609, .F. ) ;
#575 = AXIS2_PLACEMENT_3D ( 'NONE', #829, #1022, #898 ) ;
#576 = VECTOR ( 'NONE', #1075, 1000.000000000000000 ) ;
#577 = CARTESIAN_POINT ( 'NONE',  ( 0.000000000000000000, 339.9999999999998863, 97.00000000000000000 ) ) ;
#578 = ORIENTED_EDGE ( 'NONE', *, *, #663, .T. ) ;
#579 = DIRECTION ( 'NONE',  ( 0.000000000000000000, 0.000000000000000000, 1.000000000000000000 ) ) ;
#580 = DIRECTION ( 'NONE',  ( -1.000000000000000000, 0.000000000000000000, 0.000000000000000000 ) ) ;
#581 = FACE_OUTER_BOUND ( 'NONE', #1090, .T. ) ;
#582 = ORIENTED_EDGE ( 'NONE', *, *, #816, .T. ) ;
#583 = CARTESIAN_POINT ( 'NONE',  ( -108.5000000000000000, 365.0000000000000000, 1.500000000000000666 ) ) ;
#584 = ORIENTED_EDGE ( 'NONE', *, *, #653, .F. ) ;
#585 = VERTEX_POINT ( 'NONE', #211 ) ;
#586 = DIRECTION ( 'NONE',  ( 0.000000000000000000, -1.000000000000000000, 0.000000000000000000 ) ) ;
#587 = CARTESIAN_POINT ( 'NONE',  ( -108.5000000000000000, 365.0000000000000000, 98.50000000000000000 ) ) ;
#588 = EDGE_LOOP ( 'NONE', ( #1094, #612, #513, #499 ) ) ;
#589 = EDGE_LOOP ( 'NONE', ( #129, #866, #680, #1183 ) ) ;
#590 = ORIENTED_EDGE ( 'NONE', *, *, #1082, .F. ) ;
#591 =( NAMED_UNIT ( * ) PLANE_ANGLE_UNIT ( ) SI_UNIT ( $, .RADIAN. ) );
#592 = LINE ( 'NONE', #510, #223 ) ;
#593 = DIRECTION ( 'NONE',  ( 0.000000000000000000, -1.000000000000000000, 0.000000000000000000 ) ) ;
#594 = ORIENTED_EDGE ( 'NONE', *, *, #135, .F. ) ;
#595 = ADVANCED_FACE ( 'NONE', ( #299, #968, #86, #111 ), #464, .F. ) ;
#596 = ORIENTED_EDGE ( 'NONE', *, *, #153, .F. ) ;
#597 = VECTOR ( 'NONE', #995, 1000.000000000000000 ) ;
#598 = AXIS2_PLACEMENT_3D ( 'NONE', #438, #811, #140 ) ;
#599 = EDGE_CURVE ( 'NONE', #1105, #1002, #1231, .T. ) ;
#600 = CARTESIAN_POINT ( 'NONE',  ( 0.000000000000000000, 0.000000000000000000, 0.000000000000000000 ) ) ;
#601 = DIRECTION ( 'NONE',  ( 0.000000000000000000, 1.000000000000000000, 0.000000000000000000 ) ) ;
#602 = LINE ( 'NONE', #132, #462 ) ;
#603 = VERTEX_POINT ( 'NONE', #660 ) ;
#604 = CARTESIAN_POINT ( 'NONE',  ( 3.000000000000000000, 340.0000000000000000, 0.000000000000000000 ) ) ;
#605 = VERTEX_POINT ( 'NONE', #1059 ) ;
#606 = CARTESIAN_POINT ( 'NONE',  ( -14.00000000000000888, 340.0000000000000000, 27.49999999999999645 ) ) ;
#607 = LINE ( 'NONE', #157, #1103 ) ;
#608 = VERTEX_POINT ( 'NONE', #951 ) ;
#609 = EDGE_CURVE ( 'NONE', #629, #65, #762, .T. ) ;
#610 = EDGE_CURVE ( 'NONE', #407, #221, #665, .T. ) ;
#611 = LINE ( 'NONE', #56, #1088 ) ;
#612 = ORIENTED_EDGE ( 'NONE', *, *, #163, .F. ) ;
#613 = ORIENTED_EDGE ( 'NONE', *, *, #1044, .T. ) ;
#614 = VECTOR ( 'NONE', #836, 1000.000000000000000 ) ;
#615 = AXIS2_PLACEMENT_3D ( 'NONE', #62, #533, #1227 ) ;
#616 = CARTESIAN_POINT ( 'NONE',  ( -13.00000000000000888, 332.0000000000000000, 87.50000000000000000 ) ) ;
#617 = DIRECTION ( 'NONE',  ( -0.000000000000000000, -1.000000000000000000, -0.000000000000000000 ) ) ;
#618 = CARTESIAN_POINT ( 'NONE',  ( -13.00000000000000888, 332.0000000000000000, 57.49999999999999289 ) ) ;
#619 = CARTESIAN_POINT ( 'NONE',  ( 0.000000000000000000, 0.000000000000000000, 100.0000000000000000 ) ) ;
#620 = VERTEX_POINT ( 'NONE', #569 ) ;
#621 = CARTESIAN_POINT ( 'NONE',  ( -14.00000000000000888, 332.0000000000000000, 27.49999999999999645 ) ) ;
#622 = DIRECTION ( 'NONE',  ( 1.156482317317871478E-16, 0.000000000000000000, -1.000000000000000000 ) ) ;
#623 = CARTESIAN_POINT ( 'NONE',  ( 3.000000000000000000, 368.0000000000000000, 98.50000000000000000 ) ) ;
#624 = ORIENTED_EDGE ( 'NONE', *, *, #74, .T. ) ;
#625 = ORIENTED_EDGE ( 'NONE', *, *, #393, .F. ) ;
#626 = CARTESIAN_POINT ( 'NONE',  ( -13.00000000000000888, 340.0000000000000000, 27.49999999999999645 ) ) ;
#627 = PLANE ( 'NONE',  #984 ) ;
#628 = ORIENTED_EDGE ( 'NONE', *, *, #991, .T. ) ;
#629 = VERTEX_POINT ( 'NONE', #403 ) ;
#630 = ADVANCED_FACE ( 'NONE', ( #879 ), #493, .T. ) ;
#631 = DIRECTION ( 'NONE',  ( -1.000000000000000000, 0.000000000000000000, 0.000000000000000000 ) ) ;
#632 = EDGE_CURVE ( 'NONE', #671, #137, #842, .T. ) ;
#633 = CARTESIAN_POINT ( 'NONE',  ( -107.0000000000000000, 365.0000000000000000, 100.0000000000000000 ) ) ;
#634 = VECTOR ( 'NONE', #646, 1000.000000000000000 ) ;
#635 = VECTOR ( 'NONE', #219, 1000.000000000000000 ) ;
#636 = EDGE_CURVE ( 'NONE', #882, #108, #1221, .T. ) ;
#637 = VECTOR ( 'NONE', #418, 1000.000000000000000 ) ;
#638 = FACE_OUTER_BOUND ( 'NONE', #394, .T. ) ;
#639 = CARTESIAN_POINT ( 'NONE',  ( -25.00000000000007105, 353.9999999999999432, 96.00000000000000000 ) ) ;
#640 = EDGE_LOOP ( 'NONE', ( #298, #550, #1172, #429 ) ) ;
#641 = VECTOR ( 'NONE', #18, 1000.000000000000000 ) ;
#642 = LINE ( 'NONE', #332, #860 ) ;
#643 = CARTESIAN_POINT ( 'NONE',  ( -14.00000000000000711, 340.0000000000000000, 72.50000000000000000 ) ) ;
#644 = DIRECTION ( 'NONE',  ( 1.000000000000000000, 0.000000000000000000, 1.156482317317871725E-16 ) ) ;
#645 = CARTESIAN_POINT ( 'NONE',  ( -14.00000000000000888, 340.0000000000000000, 57.49999999999999289 ) ) ;
#646 = DIRECTION ( 'NONE',  ( -1.000000000000000000, -0.000000000000000000, -0.000000000000000000 ) ) ;
#647 = ORIENTED_EDGE ( 'NONE', *, *, #918, .T. ) ;
#648 = CARTESIAN_POINT ( 'NONE',  ( -14.00000000000000888, 332.0000000000000000, 27.49999999999999645 ) ) ;
#649 = LINE ( 'NONE', #267, #733 ) ;
#650 = DIRECTION ( 'NONE',  ( -1.000000000000000000, -0.000000000000000000, -0.000000000000000000 ) ) ;
#651 = CARTESIAN_POINT ( 'NONE',  ( -110.0000000000000000, 368.0000000000000000, 0.000000000000000000 ) ) ;
#652 = CARTESIAN_POINT ( 'NONE',  ( -13.00000000000000888, 332.0000000000000000, 12.49999999999999645 ) ) ;
#653 = EDGE_CURVE ( 'NONE', #326, #869, #554, .T. ) ;
#654 = CARTESIAN_POINT ( 'NONE',  ( -25.00000000000008171, 339.9999999999998863, 100.0000000000000000 ) ) ;
#655 = CARTESIAN_POINT ( 'NONE',  ( -25.00000000000008171, 353.9999999999999432, 96.00000000000000000 ) ) ;
#656 = VECTOR ( 'NONE', #1015, 1000.000000000000000 ) ;
#657 = VECTOR ( 'NONE', #622, 1000.000000000000000 ) ;
#658 = CARTESIAN_POINT ( 'NONE',  ( -11.99999999999999645, 339.9999976677415248, 3.000000000000002665 ) ) ;
#659 = LINE ( 'NONE', #577, #838 ) ;
#660 = CARTESIAN_POINT ( 'NONE',  ( -14.00000000000000888, 332.0000000000000000, 57.49999999999999289 ) ) ;
#661 = DIRECTION ( 'NONE',  ( 0.000000000000000000, 1.000000000000000000, 0.000000000000000000 ) ) ;
#662 = LINE ( 'NONE', #1048, #182 ) ;
#663 = EDGE_CURVE ( 'NONE', #45, #486, #934, .T. ) ;
#664 = VERTEX_POINT ( 'NONE', #846 ) ;
#665 = LINE ( 'NONE', #1053, #500 ) ;
#666 = CARTESIAN_POINT ( 'NONE',  ( -110.0000000000000000, 350.0000000000000000, 96.00000000000000000 ) ) ;
#667 = DIRECTION ( 'NONE',  ( 1.156482317317871478E-16, 0.000000000000000000, -1.000000000000000000 ) ) ;
#668 = ORIENTED_EDGE ( 'NONE', *, *, #688, .F. ) ;
#669 = CARTESIAN_POINT ( 'NONE',  ( -110.0000000000000000, 365.0000000000000000, 100.0000000000000000 ) ) ;
#670 = PLANE ( 'NONE',  #702 ) ;
#671 = VERTEX_POINT ( 'NONE', #652 ) ;
#672 = CARTESIAN_POINT ( 'NONE',  ( -14.00000000000000888, 340.0000000000000000, 87.50000000000000000 ) ) ;
#673 = EDGE_CURVE ( 'NONE', #833, #1084, #739, .T. ) ;
#674 = EDGE_CURVE ( 'NONE', #845, #910, #939, .T. ) ;
#675 = CARTESIAN_POINT ( 'NONE',  ( -14.00000000000000888, 332.0000000000000000, 27.49999999999999645 ) ) ;
#676 = CIRCLE ( 'NONE', #906, 13.00000000000007105 ) ;
#677 = ORIENTED_EDGE ( 'NONE', *, *, #599, .T. ) ;
#678 = VECTOR ( 'NONE', #194, 1000.000000000000000 ) ;
#679 = CIRCLE ( 'NONE', #1127, 4.000000000000003553 ) ;
#680 = ORIENTED_EDGE ( 'NONE', *, *, #74, .F. ) ;
#681 = FACE_OUTER_BOUND ( 'NONE', #720, .T. ) ;
#682 = PRESENTATION_LAYER_ASSIGNMENT (  '', '', ( #964 ) ) ;
#683 = FACE_OUTER_BOUND ( 'NONE', #36, .T. ) ;
#684 = LINE ( 'NONE', #977, #1145 ) ;
#685 = ORIENTED_EDGE ( 'NONE', *, *, #768, .F. ) ;
#686 = VERTEX_POINT ( 'NONE', #658 ) ;
#687 = ORIENTED_EDGE ( 'NONE', *, *, #173, .F. ) ;
#688 = EDGE_CURVE ( 'NONE', #1074, #486, #1043, .T. ) ;
#689 = DIRECTION ( 'NONE',  ( 1.156482317317871478E-16, 0.000000000000000000, -1.000000000000000000 ) ) ;
#690 = ORIENTED_EDGE ( 'NONE', *, *, #37, .T. ) ;
#691 = ORIENTED_EDGE ( 'NONE', *, *, #1118, .F. ) ;
#692 = EDGE_CURVE ( 'NONE', #1154, #845, #1065, .T. ) ;
#693 = ORIENTED_EDGE ( 'NONE', *, *, #861, .F. ) ;
#694 = DIRECTION ( 'NONE',  ( -1.000000000000000000, 0.000000000000000000, 0.000000000000000000 ) ) ;
#695 = PRODUCT_DEFINITION_SHAPE ( 'NONE', 'NONE',  #391 ) ;
#696 = EDGE_LOOP ( 'NONE', ( #574, #490, #1116, #527 ) ) ;
#697 = CARTESIAN_POINT ( 'NONE',  ( 3.000000000000000000, 368.0000000000000000, 1.500000000000000000 ) ) ;
#698 = VECTOR ( 'NONE', #1130, 1000.000000000000000 ) ;
#699 = AXIS2_PLACEMENT_3D ( 'NONE', #189, #558, #579 ) ;
#700 = ORIENTED_EDGE ( 'NONE', *, *, #393, .T. ) ;
#701 =( GEOMETRIC_REPRESENTATION_CONTEXT ( 3 ) GLOBAL_UNCERTAINTY_ASSIGNED_CONTEXT ( ( #88 ) ) GLOBAL_UNIT_ASSIGNED_CONTEXT ( ( #342, #544, #1110 ) ) REPRESENTATION_CONTEXT ( 'NONE', 'WORKASPACE' ) );
#702 = AXIS2_PLACEMENT_3D ( 'NONE', #175, #258, #1115 ) ;
#703 = CARTESIAN_POINT ( 'NONE',  ( -13.00000000000000888, 332.0000000000000000, 57.49999999999999289 ) ) ;
#704 = EDGE_LOOP ( 'NONE', ( #1229, #990, #790, #878, #745, #409 ) ) ;
#705 = FACE_OUTER_BOUND ( 'NONE', #704, .T. ) ;
#706 = ORIENTED_EDGE ( 'NONE', *, *, #1044, .F. ) ;
#707 = FILL_AREA_STYLE ('',( #330 ) ) ;
#708 = ORIENTED_EDGE ( 'NONE', *, *, #768, .T. ) ;
#709 = CARTESIAN_POINT ( 'NONE',  ( -13.00000000000000888, 332.0000000000000000, 57.49999999999999289 ) ) ;
#710 = ORIENTED_EDGE ( 'NONE', *, *, #37, .F. ) ;
#711 = FACE_OUTER_BOUND ( 'NONE', #1000, .T. ) ;
#712 = CYLINDRICAL_SURFACE ( 'NONE', #306, 4.000000000000003553 ) ;
#713 = ORIENTED_EDGE ( 'NONE', *, *, #523, .T. ) ;
#714 = VERTEX_POINT ( 'NONE', #1078 ) ;
#715 = VECTOR ( 'NONE', #83, 1000.000000000000000 ) ;
#716 = AXIS2_PLACEMENT_3D ( 'NONE', #149, #428, #1092 ) ;
#717 = VECTOR ( 'NONE', #752, 1000.000000000000000 ) ;
#718 = EDGE_CURVE ( 'NONE', #1076, #1099, #602, .T. ) ;
#719 = DIRECTION ( 'NONE',  ( -1.000000000000000000, -1.249000902703301108E-16, 0.000000000000000000 ) ) ;
#720 = EDGE_LOOP ( 'NONE', ( #133, #770, #967, #791 ) ) ;
#721 = LINE ( 'NONE', #1114, #1222 ) ;
#722 = EDGE_CURVE ( 'NONE', #869, #336, #909, .T. ) ;
#723 = LINE ( 'NONE', #213, #167 ) ;
#724 = ORIENTED_EDGE ( 'NONE', *, *, #830, .T. ) ;
#725 = ORIENTED_EDGE ( 'NONE', *, *, #455, .F. ) ;
#726 = LINE ( 'NONE', #814, #1003 ) ;
#727 = ADVANCED_FACE ( 'NONE', ( #1096 ), #57, .T. ) ;
#728 = ADVANCED_FACE ( 'NONE', ( #335 ), #712, .T. ) ;
#729 = CARTESIAN_POINT ( 'NONE',  ( 3.000000000000000000, 368.0000000000000000, 100.0000000000000000 ) ) ;
#730 = LINE ( 'NONE', #932, #1184 ) ;
#731 = ORIENTED_EDGE ( 'NONE', *, *, #991, .F. ) ;
#732 = LINE ( 'NONE', #626, #597 ) ;
#733 = VECTOR ( 'NONE', #359, 1000.000000000000000 ) ;
#734 = CARTESIAN_POINT ( 'NONE',  ( -106.0000000000000000, 350.0000000000000000, 4.000000000000003553 ) ) ;
#735 = CARTESIAN_POINT ( 'NONE',  ( 0.000000000000000000, 365.0000000000000000, 100.0000000000000000 ) ) ;
#736 =( GEOMETRIC_REPRESENTATION_CONTEXT ( 3 ) GLOBAL_UNCERTAINTY_ASSIGNED_CONTEXT ( ( #17 ) ) GLOBAL_UNIT_ASSIGNED_CONTEXT ( ( #509, #591, #30 ) ) REPRESENTATION_CONTEXT ( 'NONE', 'WORKASPACE' ) );
#737 = LINE ( 'NONE', #1036, #717 ) ;
#738 = LINE ( 'NONE', #604, #637 ) ;
#739 = LINE ( 'NONE', #1051, #678 ) ;
#740 = PRODUCT_RELATED_PRODUCT_CATEGORY ( 'part', '', ( #563 ) ) ;
#741 = DIRECTION ( 'NONE',  ( -0.000000000000000000, -1.000000000000000000, -0.000000000000000000 ) ) ;
#742 = EDGE_CURVE ( 'NONE', #291, #751, #642, .T. ) ;
#743 = SURFACE_STYLE_USAGE ( .BOTH. , #433 ) ;
#744 = CARTESIAN_POINT ( 'NONE',  ( -13.00000000000000711, 332.0000000000000000, 42.49999999999999289 ) ) ;
#745 = ORIENTED_EDGE ( 'NONE', *, *, #861, .T. ) ;
#746 = CARTESIAN_POINT ( 'NONE',  ( 3.000000000000000000, -3.040427232463565263E-19, 0.000000000000000000 ) ) ;
#747 = CARTESIAN_POINT ( 'NONE',  ( -25.00000000000008171, 339.9999999999998863, 0.000000000000000000 ) ) ;
#748 = DIRECTION ( 'NONE',  ( -0.000000000000000000, -0.000000000000000000, -1.000000000000000000 ) ) ;
#749 = LINE ( 'NONE', #307, #641 ) ;
#750 = CARTESIAN_POINT ( 'NONE',  ( -14.00000000000000888, 332.0000000000000000, 87.50000000000000000 ) ) ;
#751 = VERTEX_POINT ( 'NONE', #518 ) ;
#752 = DIRECTION ( 'NONE',  ( 1.000000000000000000, 0.000000000000000000, 0.000000000000000000 ) ) ;
#753 = CARTESIAN_POINT ( 'NONE',  ( 3.000000000000000000, -3.040427232463565263E-19, 0.000000000000000000 ) ) ;
#754 = DIRECTION ( 'NONE',  ( -0.000000000000000000, -0.000000000000000000, -1.000000000000000000 ) ) ;
#755 = CARTESIAN_POINT ( 'NONE',  ( 0.000000000000000000, 365.0000000000000000, 100.0000000000000000 ) ) ;
#756 = VECTOR ( 'NONE', #719, 1000.000000000000000 ) ;
#757 = CARTESIAN_POINT ( 'NONE',  ( -14.00000000000000711, 340.0000000000000000, 12.49999999999999645 ) ) ;
#758 = VECTOR ( 'NONE', #754, 1000.000000000000000 ) ;
#759 = AXIS2_PLACEMENT_3D ( 'NONE', #245, #936, #812 ) ;
#760 = DIRECTION ( 'NONE',  ( 0.000000000000000000, 0.000000000000000000, 1.000000000000000000 ) ) ;
#761 = ORIENTED_EDGE ( 'NONE', *, *, #1082, .T. ) ;
#762 = LINE ( 'NONE', #1151, #1020 ) ;
#763 = DIRECTION ( 'NONE',  ( -0.000000000000000000, 1.000000000000000000, -0.000000000000000000 ) ) ;
#764 = FACE_OUTER_BOUND ( 'NONE', #289, .T. ) ;
#765 = EDGE_CURVE ( 'NONE', #338, #979, #443, .T. ) ;
#766 = ORIENTED_EDGE ( 'NONE', *, *, #674, .T. ) ;
#767 = CARTESIAN_POINT ( 'NONE',  ( -25.00000000000008171, 349.9999999999999432, 100.0000000000000000 ) ) ;
#768 = EDGE_CURVE ( 'NONE', #751, #1171, #1098, .T. ) ;
#769 = CARTESIAN_POINT ( 'NONE',  ( -14.00000000000000888, 332.0000000000000000, 87.50000000000000000 ) ) ;
#770 = ORIENTED_EDGE ( 'NONE', *, *, #1031, .F. ) ;
#771 = ORIENTED_EDGE ( 'NONE', *, *, #692, .F. ) ;
#772 = EDGE_LOOP ( 'NONE', ( #328, #780, #867, #1117 ) ) ;
#773 = FACE_OUTER_BOUND ( 'NONE', #1214, .T. ) ;
#774 =( BOUNDED_CURVE ( )  B_SPLINE_CURVE ( 3, ( #1011, #252, #67, #1120 ),
 .UNSPECIFIED., .F., .T. ) 
 B_SPLINE_CURVE_WITH_KNOTS ( ( 4, 4 ),
 ( 1.570796326794894560, 3.141592653589792672 ),
 .UNSPECIFIED. ) 
 CURVE ( )  GEOMETRIC_REPRESENTATION_ITEM ( )  RATIONAL_B_SPLINE_CURVE ( ( 1.000000000000000000, 0.8047378541243646044, 0.8047378541243646044, 1.000000000000000000 ) ) 
 REPRESENTATION_ITEM ( '' )  );
#775 = DIRECTION ( 'NONE',  ( 1.156482317317871725E-16, 0.000000000000000000, -1.000000000000000000 ) ) ;
#776 = LINE ( 'NONE', #1055, #321 ) ;
#777 = ORIENTED_EDGE ( 'NONE', *, *, #653, .T. ) ;
#778 = DIRECTION ( 'NONE',  ( -0.000000000000000000, 0.000000000000000000, -1.000000000000000000 ) ) ;
#779 = CLOSED_SHELL ( 'NONE', ( #595, #346, #546, #996, #877, #819, #1140, #854, #471, #807, #1009, #954, #1007, #1138, #1046, #559, #727, #357, #212, #467, #1156, #195, #947, #14, #728, #986, #1216, #556, #880, #630, #1196, #914, #378, #1024, #1089, #432, #319, #339, #824, #917 ) ) ;
#780 = ORIENTED_EDGE ( 'NONE', *, *, #848, .F. ) ;
#781 = VECTOR ( 'NONE', #101, 1000.000000000000000 ) ;
#782 = LINE ( 'NONE', #310, #576 ) ;
#783 = AXIS2_PLACEMENT_3D ( 'NONE', #459, #452, #75 ) ;
#784 = ORIENTED_EDGE ( 'NONE', *, *, #121, .F. ) ;
#785 = EDGE_CURVE ( 'NONE', #326, #232, #442, .T. ) ;
#786 = SURFACE_STYLE_FILL_AREA ( #707 ) ;
#787 = CARTESIAN_POINT ( 'NONE',  ( -25.00000000000008171, 339.9999999999998863, 100.0000000000000000 ) ) ;
#788 = EDGE_LOOP ( 'NONE', ( #677, #492, #1150, #1008 ) ) ;
#789 = EDGE_CURVE ( 'NONE', #664, #671, #726, .T. ) ;
#790 = ORIENTED_EDGE ( 'NONE', *, *, #416, .F. ) ;
#791 = ORIENTED_EDGE ( 'NONE', *, *, #1143, .T. ) ;
#792 = CARTESIAN_POINT ( 'NONE',  ( -107.0000000000000000, 365.0000000000000000, 3.000000000000000000 ) ) ;
#793 = ORIENTED_EDGE ( 'NONE', *, *, #420, .F. ) ;
#794 = DIRECTION ( 'NONE',  ( 0.000000000000000000, -1.000000000000000000, 0.000000000000000000 ) ) ;
#795 = FACE_OUTER_BOUND ( 'NONE', #788, .T. ) ;
#796 = EDGE_LOOP ( 'NONE', ( #313, #417, #355, #208 ) ) ;
#797 = CARTESIAN_POINT ( 'NONE',  ( -110.0000000000000000, 354.0000000000000000, 100.0000000000000000 ) ) ;
#798 = ORIENTED_EDGE ( 'NONE', *, *, #512, .F. ) ;
#799 = EDGE_CURVE ( 'NONE', #343, #1074, #423, .T. ) ;
#800 = ORIENTED_EDGE ( 'NONE', *, *, #302, .F. ) ;
#801 = AXIS2_PLACEMENT_3D ( 'NONE', #973, #114, #778 ) ;
#802 = DIRECTION ( 'NONE',  ( -1.000000000000000000, 6.530723674265633089E-16, 0.000000000000000000 ) ) ;
#803 = LINE ( 'NONE', #874, #344 ) ;
#804 = ORIENTED_EDGE ( 'NONE', *, *, #370, .F. ) ;
#805 = EDGE_LOOP ( 'NONE', ( #99, #1206, #1035, #804, #309, #33 ) ) ;
#806 = DIRECTION ( 'NONE',  ( -1.000000000000000000, 0.000000000000000000, 0.000000000000000000 ) ) ;
#807 = ADVANCED_FACE ( 'NONE', ( #248 ), #535, .F. ) ;
#808 = DIRECTION ( 'NONE',  ( -0.000000000000000000, 0.000000000000000000, 1.000000000000000000 ) ) ;
#809 = ORIENTED_EDGE ( 'NONE', *, *, #53, .F. ) ;
#810 = EDGE_LOOP ( 'NONE', ( #253, #777, #227, #725, #922, #425 ) ) ;
#811 = DIRECTION ( 'NONE',  ( 0.000000000000000000, 0.000000000000000000, -1.000000000000000000 ) ) ;
#812 = DIRECTION ( 'NONE',  ( -1.000000000000000000, 0.000000000000000000, -0.000000000000000000 ) ) ;
#813 = VERTEX_POINT ( 'NONE', #1142 ) ;
#814 = CARTESIAN_POINT ( 'NONE',  ( -14.00000000000000711, 332.0000000000000000, 12.49999999999999645 ) ) ;
#815 = ORIENTED_EDGE ( 'NONE', *, *, #96, .T. ) ;
#816 = EDGE_CURVE ( 'NONE', #664, #65, #1050, .T. ) ;
#817 = VECTOR ( 'NONE', #1185, 1000.000000000000000 ) ;
#818 = AXIS2_PLACEMENT_3D ( 'NONE', #746, #1155, #1136 ) ;
#819 = ADVANCED_FACE ( 'NONE', ( #477 ), #193, .T. ) ;
#820 = CARTESIAN_POINT ( 'NONE',  ( 3.000000000000000000, 1.500000000000000222, 1.500000000000000000 ) ) ;
#821 = SURFACE_STYLE_FILL_AREA ( #451 ) ;
#822 = DIRECTION ( 'NONE',  ( -0.000000000000000000, -0.000000000000000000, -1.000000000000000000 ) ) ;
#823 = DIRECTION ( 'NONE',  ( 0.000000000000000000, 1.000000000000000000, 0.000000000000000000 ) ) ;
#824 = ADVANCED_FACE ( 'NONE', ( #275 ), #933, .F. ) ;
#825 = DIRECTION ( 'NONE',  ( 1.000000000000000000, -0.000000000000000000, 0.000000000000000000 ) ) ;
#826 = PLANE ( 'NONE',  #382 ) ;
#827 = CARTESIAN_POINT ( 'NONE',  ( 3.000000000000000000, 340.0000000000000000, 1.500000000000000000 ) ) ;
#828 = EDGE_LOOP ( 'NONE', ( #398, #1200, #454, #229 ) ) ;
#829 = CARTESIAN_POINT ( 'NONE',  ( -25.00000000000008171, 339.9999999999998863, 97.00000000000000000 ) ) ;
#830 = EDGE_CURVE ( 'NONE', #532, #813, #737, .T. ) ;
#831 = DIRECTION ( 'NONE',  ( 0.000000000000000000, 0.000000000000000000, -1.000000000000000000 ) ) ;
#832 = DIRECTION ( 'NONE',  ( -0.000000000000000000, -0.000000000000000000, -1.000000000000000000 ) ) ;
#833 = VERTEX_POINT ( 'NONE', #583 ) ;
#834 = ADVANCED_BREP_SHAPE_REPRESENTATION ( 'BASE 1', ( #1108, #1021 ), #104 ) ;
#835 = EDGE_CURVE ( 'NONE', #1002, #1113, #265, .T. ) ;
#836 = DIRECTION ( 'NONE',  ( -0.000000000000000000, -0.000000000000000000, 1.000000000000000000 ) ) ;
#837 = VECTOR ( 'NONE', #225, 1000.000000000000000 ) ;
#838 = VECTOR ( 'NONE', #1149, 1000.000000000000000 ) ;
#839 = LINE ( 'NONE', #365, #103 ) ;
#840 = LINE ( 'NONE', #90, #520 ) ;
#841 = VERTEX_POINT ( 'NONE', #516 ) ;
#842 = LINE ( 'NONE', #181, #240 ) ;
#843 = DIRECTION ( 'NONE',  ( 0.000000000000000000, 1.000000000000000000, 0.000000000000000000 ) ) ;
#844 = DIRECTION ( 'NONE',  ( 0.000000000000000000, 0.000000000000000000, 1.000000000000000000 ) ) ;
#845 = VERTEX_POINT ( 'NONE', #883 ) ;
#846 = CARTESIAN_POINT ( 'NONE',  ( -14.00000000000000711, 332.0000000000000000, 12.49999999999999645 ) ) ;
#847 = CARTESIAN_POINT ( 'NONE',  ( -13.00000000000000888, 332.0000000000000000, 87.50000000000000000 ) ) ;
#848 = EDGE_CURVE ( 'NONE', #603, #1099, #803, .T. ) ;
#849 = CARTESIAN_POINT ( 'NONE',  ( -13.00000000000000711, 340.0000000000000000, 72.50000000000000000 ) ) ;
#850 = FACE_OUTER_BOUND ( 'NONE', #254, .T. ) ;
#851 = ORIENTED_EDGE ( 'NONE', *, *, #1210, .T. ) ;
#852 = DIRECTION ( 'NONE',  ( -1.000000000000000000, 0.000000000000000000, 0.000000000000000000 ) ) ;
#853 = DIRECTION ( 'NONE',  ( -0.000000000000000000, 1.000000000000000000, -0.000000000000000000 ) ) ;
#854 = ADVANCED_FACE ( 'NONE', ( #1194 ), #496, .T. ) ;
#855 = VECTOR ( 'NONE', #80, 1000.000000000000000 ) ;
#856 = VECTOR ( 'NONE', #667, 1000.000000000000000 ) ;
#857 = EDGE_CURVE ( 'NONE', #142, #869, #555, .T. ) ;
#858 = DIRECTION ( 'NONE',  ( 0.000000000000000000, 0.000000000000000000, 1.000000000000000000 ) ) ;
#859 = DIRECTION ( 'NONE',  ( 0.000000000000000000, 0.000000000000000000, -1.000000000000000000 ) ) ;
#860 = VECTOR ( 'NONE', #435, 1000.000000000000000 ) ;
#861 = EDGE_CURVE ( 'NONE', #567, #447, #43, .T. ) ;
#862 = EDGE_LOOP ( 'NONE', ( #851, #514, #485, #367 ) ) ;
#863 = PLANE ( 'NONE',  #699 ) ;
#864 = DIRECTION ( 'NONE',  ( 1.000000000000000000, 0.000000000000000000, 1.156482317317871725E-16 ) ) ;
#865 = DIRECTION ( 'NONE',  ( -0.000000000000000000, -0.000000000000000000, -1.000000000000000000 ) ) ;
#866 = ORIENTED_EDGE ( 'NONE', *, *, #636, .T. ) ;
#867 = ORIENTED_EDGE ( 'NONE', *, *, #875, .F. ) ;
#868 = DIRECTION ( 'NONE',  ( 1.000000000000000000, 0.000000000000000000, -0.000000000000000000 ) ) ;
#869 = VERTEX_POINT ( 'NONE', #1180 ) ;
#870 = CARTESIAN_POINT ( 'NONE',  ( -108.5000000000000000, 368.0000000000000000, 1.500000000000000666 ) ) ;
#871 = CARTESIAN_POINT ( 'NONE',  ( -25.00000000000008171, 339.9999999999998863, 0.000000000000000000 ) ) ;
#872 = CARTESIAN_POINT ( 'NONE',  ( -11.00000000000001066, 339.9999999999998863, 0.000000000000000000 ) ) ;
#873 = ORIENTED_EDGE ( 'NONE', *, *, #610, .T. ) ;
#874 = CARTESIAN_POINT ( 'NONE',  ( -14.00000000000000888, 332.0000000000000000, 57.49999999999999289 ) ) ;
#875 = EDGE_CURVE ( 'NONE', #979, #603, #224, .T. ) ;
#876 = ORIENTED_EDGE ( 'NONE', *, *, #293, .T. ) ;
#877 = ADVANCED_FACE ( 'NONE', ( #415 ), #148, .F. ) ;
#878 = ORIENTED_EDGE ( 'NONE', *, *, #161, .F. ) ;
#879 = FACE_OUTER_BOUND ( 'NONE', #992, .T. ) ;
#880 = ADVANCED_FACE ( 'NONE', ( #999 ), #340, .F. ) ;
#881 = LINE ( 'NONE', #988, #886 ) ;
#882 = VERTEX_POINT ( 'NONE', #524 ) ;
#883 = CARTESIAN_POINT ( 'NONE',  ( -13.00000000000000711, 332.0000000000000000, 72.50000000000000000 ) ) ;
#884 = VECTOR ( 'NONE', #7, 1000.000000000000000 ) ;
#885 = ORIENTED_EDGE ( 'NONE', *, *, #446, .T. ) ;
#886 = VECTOR ( 'NONE', #601, 1000.000000000000000 ) ;
#887 = VECTOR ( 'NONE', #151, 1000.000000000000000 ) ;
#888 = ORIENTED_EDGE ( 'NONE', *, *, #1061, .F. ) ;
#889 = FACE_OUTER_BOUND ( 'NONE', #147, .T. ) ;
#890 = DIRECTION ( 'NONE',  ( -0.000000000000000000, 1.000000000000000000, -0.000000000000000000 ) ) ;
#891 = ORIENTED_EDGE ( 'NONE', *, *, #632, .T. ) ;
#892 = ORIENTED_EDGE ( 'NONE', *, *, #199, .F. ) ;
#893 = EDGE_CURVE ( 'NONE', #1006, #585, #61, .T. ) ;
#894 = DIRECTION ( 'NONE',  ( -0.000000000000000000, 0.000000000000000000, 1.000000000000000000 ) ) ;
#895 = VERTEX_POINT ( 'NONE', #1109 ) ;
#896 = ORIENTED_EDGE ( 'NONE', *, *, #302, .T. ) ;
#897 = LINE ( 'NONE', #437, #963 ) ;
#898 = DIRECTION ( 'NONE',  ( -1.000000000000000000, 0.000000000000000000, 0.000000000000000000 ) ) ;
#899 = CARTESIAN_POINT ( 'NONE',  ( -110.0000000000000000, 354.0000000000000000, 0.000000000000000000 ) ) ;
#900 = EDGE_CURVE ( 'NONE', #326, #882, #611, .T. ) ;
#901 = DIRECTION ( 'NONE',  ( -0.000000000000000000, -0.000000000000000000, -1.000000000000000000 ) ) ;
#902 = VECTOR ( 'NONE', #414, 1000.000000000000000 ) ;
#903 = EDGE_CURVE ( 'NONE', #1135, #664, #908, .T. ) ;
#904 = ORIENTED_EDGE ( 'NONE', *, *, #501, .T. ) ;
#905 = AXIS2_PLACEMENT_3D ( 'NONE', #953, #97, #571 ) ;
#906 = AXIS2_PLACEMENT_3D ( 'NONE', #3, #832, #1148 ) ;
#907 = DIRECTION ( 'NONE',  ( 0.000000000000000000, 0.000000000000000000, 1.000000000000000000 ) ) ;
#908 = LINE ( 'NONE', #621, #1066 ) ;
#909 = LINE ( 'NONE', #899, #31 ) ;
#910 = VERTEX_POINT ( 'NONE', #616 ) ;
#911 = ORIENTED_EDGE ( 'NONE', *, *, #1128, .F. ) ;
#912 = CARTESIAN_POINT ( 'NONE',  ( -25.00000000000008171, 339.9999999999998863, 3.000000000000000000 ) ) ;
#913 = DIRECTION ( 'NONE',  ( 6.530723674265633089E-16, 1.000000000000000000, -0.000000000000000000 ) ) ;
#914 = ADVANCED_FACE ( 'NONE', ( #711 ), #427, .F. ) ;
#915 = DIRECTION ( 'NONE',  ( 1.000000000000000000, -6.530723674265633089E-16, 0.000000000000000000 ) ) ;
#916 = ORIENTED_EDGE ( 'NONE', *, *, #610, .F. ) ;
#917 = ADVANCED_FACE ( 'NONE', ( #1101 ), #239, .T. ) ;
#918 = EDGE_CURVE ( 'NONE', #1161, #1006, #897, .T. ) ;
#919 = DIRECTION ( 'NONE',  ( -0.000000000000000000, 0.000000000000000000, -1.000000000000000000 ) ) ;
#920 = LINE ( 'NONE', #548, #1207 ) ;
#921 = ORIENTED_EDGE ( 'NONE', *, *, #109, .T. ) ;
#922 = ORIENTED_EDGE ( 'NONE', *, *, #952, .F. ) ;
#923 = CIRCLE ( 'NONE', #1019, 10.00000000000007461 ) ;
#924 = LINE ( 'NONE', #515, #817 ) ;
#925 = VECTOR ( 'NONE', #586, 1000.000000000000000 ) ;
#926 = VECTOR ( 'NONE', #120, 1000.000000000000000 ) ;
#927 = EDGE_LOOP ( 'NONE', ( #383, #1052, #1181, #412, #916, #507 ) ) ;
#928 = ORIENTED_EDGE ( 'NONE', *, *, #1061, .T. ) ;
#929 = PLANE ( 'NONE',  #961 ) ;
#930 = CARTESIAN_POINT ( 'NONE',  ( -110.0000000000000000, 351.6568542494922553, 4.336808689942017736E-15 ) ) ;
#931 = EDGE_CURVE ( 'NONE', #1074, #320, #679, .T. ) ;
#932 = CARTESIAN_POINT ( 'NONE',  ( -110.0000000000000000, 368.0000000000000000, 100.0000000000000000 ) ) ;
#933 = PLANE ( 'NONE',  #1146 ) ;
#934 = LINE ( 'NONE', #281, #1187 ) ;
#935 = LINE ( 'NONE', #1032, #1039 ) ;
#936 = DIRECTION ( 'NONE',  ( 0.000000000000000000, 0.000000000000000000, -1.000000000000000000 ) ) ;
#937 = DIRECTION ( 'NONE',  ( 0.000000000000000000, 1.000000000000000000, 0.000000000000000000 ) ) ;
#938 = VERTEX_POINT ( 'NONE', #400 ) ;
#939 = LINE ( 'NONE', #1132, #1167 ) ;
#940 = DIRECTION ( 'NONE',  ( -0.000000000000000000, 1.000000000000000000, -0.000000000000000000 ) ) ;
#941 = DIRECTION ( 'NONE',  ( 1.156482317317871725E-16, 0.000000000000000000, -1.000000000000000000 ) ) ;
#942 = AXIS2_PLACEMENT_3D ( 'NONE', #171, #549, #93 ) ;
#943 = VECTOR ( 'NONE', #940, 1000.000000000000000 ) ;
#944 = CARTESIAN_POINT ( 'NONE',  ( -14.00000000000000711, 332.0000000000000000, 72.50000000000000000 ) ) ;
#945 = DIRECTION ( 'NONE',  ( 1.000000000000000000, 0.000000000000000000, 0.000000000000000000 ) ) ;
#946 = APPLICATION_CONTEXT ( 'automotive_design' ) ;
#947 = ADVANCED_FACE ( 'NONE', ( #966 ), #1087, .F. ) ;
#948 = CARTESIAN_POINT ( 'NONE',  ( -14.00000000000000711, 340.0000000000000000, 42.49999999999999289 ) ) ;
#949 = LINE ( 'NONE', #755, #1067 ) ;
#950 = FACE_OUTER_BOUND ( 'NONE', #20, .T. ) ;
#951 = CARTESIAN_POINT ( 'NONE',  ( -14.00000000000000888, 332.0000000000000000, 87.50000000000000000 ) ) ;
#952 = EDGE_CURVE ( 'NONE', #108, #985, #782, .T. ) ;
#953 = CARTESIAN_POINT ( 'NONE',  ( -14.00000000000000711, 332.0000000000000000, 72.50000000000000000 ) ) ;
#954 = ADVANCED_FACE ( 'NONE', ( #498 ), #337, .F. ) ;
#955 = CARTESIAN_POINT ( 'NONE',  ( -25.00000000000008171, 349.9999999999999432, 4.000000000000003553 ) ) ;
#956 = ORIENTED_EDGE ( 'NONE', *, *, #785, .T. ) ;
#957 = DIRECTION ( 'NONE',  ( 1.013475744154521754E-19, 1.000000000000000000, 0.000000000000000000 ) ) ;
#958 = ORIENTED_EDGE ( 'NONE', *, *, #816, .F. ) ;
#959 = CARTESIAN_POINT ( 'NONE',  ( -13.00000000000000888, 340.0000000000000000, 87.50000000000000000 ) ) ;
#960 = CIRCLE ( 'NONE', #1123, 4.000000000000003553 ) ;
#961 = AXIS2_PLACEMENT_3D ( 'NONE', #364, #644, #941 ) ;
#962 = CARTESIAN_POINT ( 'NONE',  ( -14.00000000000000888, 332.0000000000000000, 57.49999999999999289 ) ) ;
#963 = VECTOR ( 'NONE', #983, 1000.000000000000000 ) ;
#964 = STYLED_ITEM ( 'NONE', ( #235 ), #834 ) ;
#965 = EDGE_LOOP ( 'NONE', ( #1093, #1079, #891, #613 ) ) ;
#966 = FACE_OUTER_BOUND ( 'NONE', #436, .T. ) ;
#967 = ORIENTED_EDGE ( 'NONE', *, *, #674, .F. ) ;
#968 = FACE_OUTER_BOUND ( 'NONE', #21, .T. ) ;
#969 = EDGE_CURVE ( 'NONE', #201, #532, #1106, .T. ) ;
#970 = DIRECTION ( 'NONE',  ( -0.000000000000000000, -0.000000000000000000, -1.000000000000000000 ) ) ;
#971 = PLANE ( 'NONE',  #262 ) ;
#972 = VERTEX_POINT ( 'NONE', #557 ) ;
#973 = CARTESIAN_POINT ( 'NONE',  ( 3.000000000000000000, 0.000000000000000000, 0.000000000000000000 ) ) ;
#974 = EDGE_CURVE ( 'NONE', #311, #895, #659, .T. ) ;
#975 = ORIENTED_EDGE ( 'NONE', *, *, #286, .F. ) ;
#976 = DIRECTION ( 'NONE',  ( 0.000000000000000000, -0.000000000000000000, -1.000000000000000000 ) ) ;
#977 = CARTESIAN_POINT ( 'NONE',  ( -13.00000000000000888, 332.0000000000000000, 12.49999999999999645 ) ) ;
#978 = ORIENTED_EDGE ( 'NONE', *, *, #250, .T. ) ;
#979 = VERTEX_POINT ( 'NONE', #709 ) ;
#980 = PLANE ( 'NONE',  #1083 ) ;
#981 = ORIENTED_EDGE ( 'NONE', *, *, #416, .T. ) ;
#982 = AXIS2_PLACEMENT_3D ( 'NONE', #284, #843, #487 ) ;
#983 = DIRECTION ( 'NONE',  ( 1.000000000000000000, -0.000000000000000000, -5.834271780191055143E-18 ) ) ;
#984 = AXIS2_PLACEMENT_3D ( 'NONE', #458, #831, #164 ) ;
#985 = VERTEX_POINT ( 'NONE', #401 ) ;
#986 = ADVANCED_FACE ( 'NONE', ( #795 ), #260, .F. ) ;
#987 = APPLICATION_PROTOCOL_DEFINITION ( 'draft international standard', 'automotive_design', 1998, #1226 ) ;
#988 = CARTESIAN_POINT ( 'NONE',  ( 0.000000000000000000, 339.9999999999998863, 3.000000000000000000 ) ) ;
#989 = CARTESIAN_POINT ( 'NONE',  ( -14.00000000000000888, 332.0000000000000000, 57.49999999999999289 ) ) ;
#990 = ORIENTED_EDGE ( 'NONE', *, *, #688, .T. ) ;
#991 = EDGE_CURVE ( 'NONE', #165, #585, #146, .T. ) ;
#992 = EDGE_LOOP ( 'NONE', ( #115, #216, #766, #233 ) ) ;
#993 = DIRECTION ( 'NONE',  ( 0.000000000000000000, -0.000000000000000000, -1.000000000000000000 ) ) ;
#994 = EDGE_CURVE ( 'NONE', #447, #343, #1201, .T. ) ;
#995 = DIRECTION ( 'NONE',  ( -0.000000000000000000, -0.000000000000000000, 1.000000000000000000 ) ) ;
#996 = ADVANCED_FACE ( 'NONE', ( #449 ), #1125, .T. ) ;
#997 = PLANE ( 'NONE',  #282 ) ;
#998 = ORIENTED_EDGE ( 'NONE', *, *, #765, .T. ) ;
#999 = FACE_OUTER_BOUND ( 'NONE', #59, .T. ) ;
#1000 = EDGE_LOOP ( 'NONE', ( #724, #594, #9, #1157 ) ) ;
#1001 = VECTOR ( 'NONE', #207, 1000.000000000000000 ) ;
#1002 = VERTEX_POINT ( 'NONE', #263 ) ;
#1003 = VECTOR ( 'NONE', #345, 1000.000000000000000 ) ;
#1004 = EDGE_CURVE ( 'NONE', #882, #585, #738, .T. ) ;
#1005 = CARTESIAN_POINT ( 'NONE',  ( 0.000000000000000000, 332.0000000000000000, 0.000000000000000000 ) ) ;
#1006 = VERTEX_POINT ( 'NONE', #697 ) ;
#1007 = ADVANCED_FACE ( 'NONE', ( #1190 ), #1086, .F. ) ;
#1008 = ORIENTED_EDGE ( 'NONE', *, *, #121, .T. ) ;
#1009 = ADVANCED_FACE ( 'NONE', ( #705 ), #670, .F. ) ;
#1010 = DIRECTION ( 'NONE',  ( 1.156482317317871478E-16, 0.000000000000000000, -1.000000000000000000 ) ) ;
#1011 = CARTESIAN_POINT ( 'NONE',  ( -106.0000000000000000, 350.0000000000000000, 96.00000000000000000 ) ) ;
#1012 = CARTESIAN_POINT ( 'NONE',  ( -25.00000000000008171, 339.9999999999998863, 4.000000000000003553 ) ) ;
#1013 = ORIENTED_EDGE ( 'NONE', *, *, #370, .T. ) ;
#1014 = EDGE_LOOP ( 'NONE', ( #27, #958, #1199, #876 ) ) ;
#1015 = DIRECTION ( 'NONE',  ( 0.000000000000000000, 0.000000000000000000, -1.000000000000000000 ) ) ;
#1016 = DIRECTION ( 'NONE',  ( -0.000000000000000000, 1.000000000000000000, -0.000000000000000000 ) ) ;
#1017 = ORIENTED_EDGE ( 'NONE', *, *, #250, .F. ) ;
#1018 = EDGE_LOOP ( 'NONE', ( #975, #58, #303, #15 ) ) ;
#1019 = AXIS2_PLACEMENT_3D ( 'NONE', #1012, #822, #1211 ) ;
#1020 = VECTOR ( 'NONE', #292, 1000.000000000000000 ) ;
#1021 = AXIS2_PLACEMENT_3D ( 'NONE', #600, #907, #316 ) ;
#1022 = DIRECTION ( 'NONE',  ( -0.000000000000000000, 0.000000000000000000, -1.000000000000000000 ) ) ;
#1023 = VECTOR ( 'NONE', #511, 1000.000000000000000 ) ;
#1024 = ADVANCED_FACE ( 'NONE', ( #350 ), #627, .F. ) ;
#1025 = VECTOR ( 'NONE', #763, 1000.000000000000000 ) ;
#1026 = LINE ( 'NONE', #360, #657 ) ;
#1027 = DIRECTION ( 'NONE',  ( 1.000000000000000000, -6.530723674265633089E-16, 0.000000000000000000 ) ) ;
#1028 = CARTESIAN_POINT ( 'NONE',  ( 3.000000000000000000, 340.0000000000000000, 100.0000000000000000 ) ) ;
#1029 = PLANE ( 'NONE',  #759 ) ;
#1030 = DIRECTION ( 'NONE',  ( -1.000000000000000000, 0.000000000000000000, 0.000000000000000000 ) ) ;
#1031 = EDGE_CURVE ( 'NONE', #910, #504, #920, .T. ) ;
#1032 = CARTESIAN_POINT ( 'NONE',  ( 3.000000000000000000, 0.000000000000000000, 100.0000000000000000 ) ) ;
#1033 = CARTESIAN_POINT ( 'NONE',  ( -11.00000000000000355, 339.9999999999998863, 100.0000000000000000 ) ) ;
#1034 = LINE ( 'NONE', #279, #634 ) ;
#1035 = ORIENTED_EDGE ( 'NONE', *, *, #96, .F. ) ;
#1036 = CARTESIAN_POINT ( 'NONE',  ( -14.00000000000000711, 340.0000000000000000, 42.49999999999999289 ) ) ;
#1037 = DIRECTION ( 'NONE',  ( -0.000000000000000000, -0.000000000000000000, -1.000000000000000000 ) ) ;
#1038 = VECTOR ( 'NONE', #379, 1000.000000000000000 ) ;
#1039 = VECTOR ( 'NONE', #741, 1000.000000000000000 ) ;
#1040 = AXIS2_PLACEMENT_3D ( 'NONE', #155, #808, #1198 ) ;
#1041 = DIRECTION ( 'NONE',  ( -0.000000000000000000, 0.000000000000000000, -1.000000000000000000 ) ) ;
#1042 = CARTESIAN_POINT ( 'NONE',  ( -108.5000000000000000, 368.0000000000000000, 98.50000000000000000 ) ) ;
#1043 = LINE ( 'NONE', #188, #837 ) ;
#1044 = EDGE_CURVE ( 'NONE', #137, #1135, #156, .T. ) ;
#1045 = LINE ( 'NONE', #22, #1085 ) ;
#1046 = ADVANCED_FACE ( 'NONE', ( #638 ), #1029, .F. ) ;
#1047 = CARTESIAN_POINT ( 'NONE',  ( -13.00000000000000711, 332.0000000000000000, 72.50000000000000000 ) ) ;
#1048 = CARTESIAN_POINT ( 'NONE',  ( 3.000000000000000000, 368.0000000000000000, 0.000000000000000000 ) ) ;
#1049 = ORIENTED_EDGE ( 'NONE', *, *, #153, .T. ) ;
#1050 = LINE ( 'NONE', #1230, #128 ) ;
#1051 = CARTESIAN_POINT ( 'NONE',  ( 3.000000000000000000, 365.0000000000000000, 1.500000000000000000 ) ) ;
#1052 = ORIENTED_EDGE ( 'NONE', *, *, #431, .T. ) ;
#1053 = CARTESIAN_POINT ( 'NONE',  ( -108.5000000000000000, 368.0000000000000000, 98.50000000000000000 ) ) ;
#1054 = CARTESIAN_POINT ( 'NONE',  ( -108.5000000000000000, 368.0000000000000000, 1.500000000000000666 ) ) ;
#1055 = CARTESIAN_POINT ( 'NONE',  ( -25.00000000000008171, 365.0000000000000000, 97.00000000000000000 ) ) ;
#1056 = EDGE_LOOP ( 'NONE', ( #347, #800, #534, #1049, #525, #152, #1195, #134 ) ) ;
#1057 = EDGE_CURVE ( 'NONE', #1099, #532, #1026, .T. ) ;
#1058 = ORIENTED_EDGE ( 'NONE', *, *, #77, .T. ) ;
#1059 = CARTESIAN_POINT ( 'NONE',  ( 3.000000000000000000, 368.0000000000000000, 100.0000000000000000 ) ) ;
#1060 = VECTOR ( 'NONE', #187, 1000.000000000000000 ) ;
#1061 = EDGE_CURVE ( 'NONE', #192, #447, #774, .T. ) ;
#1062 = DIRECTION ( 'NONE',  ( -1.000000000000000000, 0.000000000000000000, 0.000000000000000000 ) ) ;
#1063 = TOROIDAL_SURFACE ( 'NONE', #1104, 14.00000000000007105, 4.000000000000000000 ) ;
#1064 = CARTESIAN_POINT ( 'NONE',  ( 0.000000000000000000, 339.9999999999998863, 97.00000000000000000 ) ) ;
#1065 = LINE ( 'NONE', #1169, #305 ) ;
#1066 = VECTOR ( 'NONE', #1010, 1000.000000000000000 ) ;
#1067 = VECTOR ( 'NONE', #1139, 1000.000000000000000 ) ;
#1068 = ORIENTED_EDGE ( 'NONE', *, *, #329, .F. ) ;
#1069 = ORIENTED_EDGE ( 'NONE', *, *, #2, .F. ) ;
#1070 = DIRECTION ( 'NONE',  ( -1.000000000000000000, 0.000000000000000000, -1.156482317317871725E-16 ) ) ;
#1071 = FACE_OUTER_BOUND ( 'NONE', #810, .T. ) ;
#1072 = CARTESIAN_POINT ( 'NONE',  ( -110.0000000000000000, 354.0000000000000000, 0.000000000000000000 ) ) ;
#1073 = DIRECTION ( 'NONE',  ( 1.000000000000000000, 0.000000000000000000, 0.000000000000000000 ) ) ;
#1074 = VERTEX_POINT ( 'NONE', #1033 ) ;
#1075 = DIRECTION ( 'NONE',  ( -1.000000000000000000, 0.000000000000000000, 0.000000000000000000 ) ) ;
#1076 = VERTEX_POINT ( 'NONE', #170 ) ;
#1077 = DIRECTION ( 'NONE',  ( -0.000000000000000000, 1.000000000000000000, -0.000000000000000000 ) ) ;
#1078 = CARTESIAN_POINT ( 'NONE',  ( -13.00000000000000888, 340.0000000000000000, 12.49999999999999645 ) ) ;
#1079 = ORIENTED_EDGE ( 'NONE', *, *, #789, .T. ) ;
#1080 = APPLICATION_PROTOCOL_DEFINITION ( 'draft international standard', 'automotive_design', 1998, #946 ) ;
#1081 = CARTESIAN_POINT ( 'NONE',  ( -13.00000000000000888, 332.0000000000000000, 27.49999999999999645 ) ) ;
#1082 = EDGE_CURVE ( 'NONE', #972, #336, #228, .T. ) ;
#1083 = AXIS2_PLACEMENT_3D ( 'NONE', #1081, #127, #894 ) ;
#1084 = VERTEX_POINT ( 'NONE', #178 ) ;
#1085 = VECTOR ( 'NONE', #853, 1000.000000000000000 ) ;
#1086 = PLANE ( 'NONE',  #52 ) ;
#1087 = PLANE ( 'NONE',  #143 ) ;
#1088 = VECTOR ( 'NONE', #244, 1000.000000000000000 ) ;
#1089 = ADVANCED_FACE ( 'NONE', ( #1129 ), #268, .T. ) ;
#1090 = EDGE_LOOP ( 'NONE', ( #904, #1068, #296, #582 ) ) ;
#1091 = LINE ( 'NONE', #729, #614 ) ;
#1092 = DIRECTION ( 'NONE',  ( -0.000000000000000000, 0.000000000000000000, -1.000000000000000000 ) ) ;
#1093 = ORIENTED_EDGE ( 'NONE', *, *, #903, .T. ) ;
#1094 = ORIENTED_EDGE ( 'NONE', *, *, #599, .F. ) ;
#1095 = SURFACE_STYLE_USAGE ( .BOTH. , #47 ) ;
#1096 = FACE_OUTER_BOUND ( 'NONE', #828, .T. ) ;
#1097 = ORIENTED_EDGE ( 'NONE', *, *, #1057, .T. ) ;
#1098 = LINE ( 'NONE', #531, #264 ) ;
#1099 = VERTEX_POINT ( 'NONE', #645 ) ;
#1100 = EDGE_CURVE ( 'NONE', #1154, #1002, #839, .T. ) ;
#1101 = FACE_OUTER_BOUND ( 'NONE', #965, .T. ) ;
#1102 = ORIENTED_EDGE ( 'NONE', *, *, #994, .F. ) ;
#1103 = VECTOR ( 'NONE', #617, 1000.000000000000000 ) ;
#1104 = AXIS2_PLACEMENT_3D ( 'NONE', #1164, #1037, #304 ) ;
#1105 = VERTEX_POINT ( 'NONE', #540 ) ;
#1106 = LINE ( 'NONE', #358, #943 ) ;
#1107 = STYLED_ITEM ( 'NONE', ( #445 ), #1108 ) ;
#1108 = MANIFOLD_SOLID_BREP ( 'Boss-Extrude1', #779 ) ;
#1109 = CARTESIAN_POINT ( 'NONE',  ( 0.000000000000000000, 365.0000000000000000, 97.00000000000000000 ) ) ;
#1110 =( NAMED_UNIT ( * ) SI_UNIT ( $, .STERADIAN. ) SOLID_ANGLE_UNIT ( ) );
#1111 = ORIENTED_EDGE ( 'NONE', *, *, #431, .F. ) ;
#1112 = CARTESIAN_POINT ( 'NONE',  ( -25.00000000000008171, 339.9999999999998863, 100.0000000000000000 ) ) ;
#1113 = VERTEX_POINT ( 'NONE', #849 ) ;
#1114 = CARTESIAN_POINT ( 'NONE',  ( -107.0000000000000000, 339.9999999999998863, 97.00000000000000000 ) ) ;
#1115 = DIRECTION ( 'NONE',  ( -1.000000000000000000, 0.000000000000000000, 0.000000000000000000 ) ) ;
#1116 = ORIENTED_EDGE ( 'NONE', *, *, #456, .F. ) ;
#1117 = ORIENTED_EDGE ( 'NONE', *, *, #506, .T. ) ;
#1118 = EDGE_CURVE ( 'NONE', #568, #238, #723, .T. ) ;
#1119 = DIRECTION ( 'NONE',  ( 0.000000000000000000, 0.000000000000000000, 1.000000000000000000 ) ) ;
#1120 = CARTESIAN_POINT ( 'NONE',  ( -110.0000000000000000, 354.0000000000000000, 100.0000000000000000 ) ) ;
#1121 = CARTESIAN_POINT ( 'NONE',  ( -25.00000000000008171, 365.0000000000000000, 3.000000000000000000 ) ) ;
#1122 = ORIENTED_EDGE ( 'NONE', *, *, #293, .F. ) ;
#1123 = AXIS2_PLACEMENT_3D ( 'NONE', #655, #1030, #858 ) ;
#1124 = VECTOR ( 'NONE', #251, 1000.000000000000000 ) ;
#1125 = CYLINDRICAL_SURFACE ( 'NONE', #71, 4.000000000000003553 ) ;
#1126 = PLANE ( 'NONE',  #575 ) ;
#1127 = AXIS2_PLACEMENT_3D ( 'NONE', #505, #794, #419 ) ;
#1128 = EDGE_CURVE ( 'NONE', #421, #192, #560, .T. ) ;
#1129 = FACE_OUTER_BOUND ( 'NONE', #461, .T. ) ;
#1130 = DIRECTION ( 'NONE',  ( -0.000000000000000000, -0.000000000000000000, -1.000000000000000000 ) ) ;
#1131 = ORIENTED_EDGE ( 'NONE', *, *, #1143, .F. ) ;
#1132 = CARTESIAN_POINT ( 'NONE',  ( -13.00000000000000888, 332.0000000000000000, 87.50000000000000000 ) ) ;
#1133 = DIRECTION ( 'NONE',  ( -0.000000000000000000, -0.000000000000000000, -1.000000000000000000 ) ) ;
#1134 = LINE ( 'NONE', #735, #698 ) ;
#1135 = VERTEX_POINT ( 'NONE', #92 ) ;
#1136 = DIRECTION ( 'NONE',  ( 1.013475744154521634E-19, 1.000000000000000000, 0.000000000000000000 ) ) ;
#1137 = LINE ( 'NONE', #91, #538 ) ;
#1138 = ADVANCED_FACE ( 'NONE', ( #198 ), #1, .F. ) ;
#1139 = DIRECTION ( 'NONE',  ( -0.000000000000000000, -0.000000000000000000, -1.000000000000000000 ) ) ;
#1140 = ADVANCED_FACE ( 'NONE', ( #1071 ), #1152, .T. ) ;
#1141 = CARTESIAN_POINT ( 'NONE',  ( -106.0000000000000000, 350.0000000000000000, 100.0000000000000000 ) ) ;
#1142 = CARTESIAN_POINT ( 'NONE',  ( -13.00000000000000711, 340.0000000000000000, 42.49999999999999289 ) ) ;
#1143 = EDGE_CURVE ( 'NONE', #845, #1113, #190, .T. ) ;
#1144 = DIRECTION ( 'NONE',  ( -1.156482317317871725E-16, 0.000000000000000000, 1.000000000000000000 ) ) ;
#1145 = VECTOR ( 'NONE', #1174, 1000.000000000000000 ) ;
#1146 = AXIS2_PLACEMENT_3D ( 'NONE', #648, #859, #297 ) ;
#1147 = LINE ( 'NONE', #371, #54 ) ;
#1148 = DIRECTION ( 'NONE',  ( -1.000000000000000000, 0.000000000000000000, 0.000000000000000000 ) ) ;
#1149 = DIRECTION ( 'NONE',  ( 0.000000000000000000, 1.000000000000000000, 0.000000000000000000 ) ) ;
#1150 = ORIENTED_EDGE ( 'NONE', *, *, #234, .F. ) ;
#1151 = CARTESIAN_POINT ( 'NONE',  ( -14.00000000000000888, 340.0000000000000000, 27.49999999999999645 ) ) ;
#1152 = PLANE ( 'NONE',  #325 ) ;
#1153 = CARTESIAN_POINT ( 'NONE',  ( -25.00000000000008171, 339.9999999999998863, 96.00000000000000000 ) ) ;
#1154 = VERTEX_POINT ( 'NONE', #944 ) ;
#1155 = DIRECTION ( 'NONE',  ( 1.000000000000000000, -1.013475744154521634E-19, 0.000000000000000000 ) ) ;
#1156 = ADVANCED_FACE ( 'NONE', ( #24 ), #206, .F. ) ;
#1157 = ORIENTED_EDGE ( 'NONE', *, *, #969, .T. ) ;
#1158 = DIRECTION ( 'NONE',  ( 1.000000000000000000, -6.530723674265633089E-16, 0.000000000000000000 ) ) ;
#1159 =( LENGTH_UNIT ( ) NAMED_UNIT ( * ) SI_UNIT ( .MILLI., .METRE. ) );
#1160 = CARTESIAN_POINT ( 'NONE',  ( -108.5000000000000000, 365.0000000000000000, 98.50000000000000000 ) ) ;
#1161 = VERTEX_POINT ( 'NONE', #565 ) ;
#1162 = ORIENTED_EDGE ( 'NONE', *, *, #785, .F. ) ;
#1163 = ORIENTED_EDGE ( 'NONE', *, *, #161, .T. ) ;
#1164 = CARTESIAN_POINT ( 'NONE',  ( -25.00000000000008171, 339.9999999999998863, 4.000000000000003553 ) ) ;
#1165 = PRODUCT_DEFINITION_FORMATION_WITH_SPECIFIED_SOURCE ( 'ANY', '', #563, .NOT_KNOWN. ) ;
#1166 = PLANE ( 'NONE',  #363 ) ;
#1167 = VECTOR ( 'NONE', #271, 1000.000000000000000 ) ;
#1168 = LINE ( 'NONE', #308, #183 ) ;
#1169 = CARTESIAN_POINT ( 'NONE',  ( -14.00000000000000711, 332.0000000000000000, 72.50000000000000000 ) ) ;
#1170 = VECTOR ( 'NONE', #348, 1000.000000000000000 ) ;
#1171 = VERTEX_POINT ( 'NONE', #488 ) ;
#1172 = ORIENTED_EDGE ( 'NONE', *, *, #1210, .F. ) ;
#1173 = EDGE_CURVE ( 'NONE', #1175, #1084, #949, .T. ) ;
#1174 = DIRECTION ( 'NONE',  ( -0.000000000000000000, 1.000000000000000000, -0.000000000000000000 ) ) ;
#1175 = VERTEX_POINT ( 'NONE', #377 ) ;
#1176 = CARTESIAN_POINT ( 'NONE',  ( -110.0000000000000000, 365.0000000000000000, 100.0000000000000000 ) ) ;
#1177 = ORIENTED_EDGE ( 'NONE', *, *, #420, .T. ) ;
#1178 = ORIENTED_EDGE ( 'NONE', *, *, #329, .T. ) ;
#1179 = DIRECTION ( 'NONE',  ( -0.000000000000000000, 0.000000000000000000, 1.000000000000000000 ) ) ;
#1180 = CARTESIAN_POINT ( 'NONE',  ( -25.00000000000008171, 353.9999999999999432, 0.000000000000000000 ) ) ;
#1181 = ORIENTED_EDGE ( 'NONE', *, *, #1118, .T. ) ;
#1182 = EDGE_CURVE ( 'NONE', #137, #938, #1147, .T. ) ;
#1183 = ORIENTED_EDGE ( 'NONE', *, *, #893, .T. ) ;
#1184 = VECTOR ( 'NONE', #945, 1000.000000000000000 ) ;
#1185 = DIRECTION ( 'NONE',  ( 0.000000000000000000, -1.000000000000000000, 0.000000000000000000 ) ) ;
#1186 = CARTESIAN_POINT ( 'NONE',  ( -25.00000000000007816, 353.9999999999999432, 4.000000000000003553 ) ) ;
#1187 = VECTOR ( 'NONE', #276, 1000.000000000000000 ) ;
#1188 = ORIENTED_EDGE ( 'NONE', *, *, #173, .T. ) ;
#1189 = VECTOR ( 'NONE', #112, 1000.000000000000000 ) ;
#1190 = FACE_OUTER_BOUND ( 'NONE', #1056, .T. ) ;
#1191 = DIRECTION ( 'NONE',  ( 0.000000000000000000, -0.000000000000000000, -1.000000000000000000 ) ) ;
#1192 = EDGE_LOOP ( 'NONE', ( #1163, #793, #68, #55, #647, #624, #352, #1058 ) ) ;
#1193 = DIRECTION ( 'NONE',  ( 6.530723674265633089E-16, 1.000000000000000000, -0.000000000000000000 ) ) ;
#1194 = FACE_OUTER_BOUND ( 'NONE', #119, .T. ) ;
#1195 = ORIENTED_EDGE ( 'NONE', *, *, #159, .F. ) ;
#1196 = ADVANCED_FACE ( 'NONE', ( #396 ), #1166, .F. ) ;
#1197 = ORIENTED_EDGE ( 'NONE', *, *, #39, .T. ) ;
#1198 = DIRECTION ( 'NONE',  ( 1.000000000000000000, 0.000000000000000000, 0.000000000000000000 ) ) ;
#1199 = ORIENTED_EDGE ( 'NONE', *, *, #903, .F. ) ;
#1200 = ORIENTED_EDGE ( 'NONE', *, *, #376, .F. ) ;
#1201 = LINE ( 'NONE', #1208, #1170 ) ;
#1202 = DIRECTION ( 'NONE',  ( -1.013475744154521634E-19, -1.000000000000000000, -0.000000000000000000 ) ) ;
#1203 = FILL_AREA_STYLE_COLOUR ( '', #242 ) ;
#1204 = DIRECTION ( 'NONE',  ( -1.000000000000000000, 6.530723674265633089E-16, 0.000000000000000000 ) ) ;
#1205 = VECTOR ( 'NONE', #474, 1000.000000000000000 ) ;
#1206 = ORIENTED_EDGE ( 'NONE', *, *, #23, .T. ) ;
#1207 = VECTOR ( 'NONE', #1209, 1000.000000000000000 ) ;
#1208 = CARTESIAN_POINT ( 'NONE',  ( -25.00000000000007105, 353.9999999999999432, 100.0000000000000000 ) ) ;
#1209 = DIRECTION ( 'NONE',  ( -0.000000000000000000, 1.000000000000000000, -0.000000000000000000 ) ) ;
#1210 = EDGE_CURVE ( 'NONE', #813, #1076, #89, .T. ) ;
#1211 = DIRECTION ( 'NONE',  ( -1.000000000000000000, 0.000000000000000000, 0.000000000000000000 ) ) ;
#1212 = CARTESIAN_POINT ( 'NONE',  ( -108.5000000000000000, 368.0000000000000000, 98.50000000000000000 ) ) ;
#1213 = EDGE_CURVE ( 'NONE', #201, #338, #749, .T. ) ;
#1214 = EDGE_LOOP ( 'NONE', ( #440, #584, #956, #710 ) ) ;
#1215 = EDGE_LOOP ( 'NONE', ( #209, #373, #40, #280, #708, #1197 ) ) ;
#1216 = ADVANCED_FACE ( 'NONE', ( #683 ), #6, .F. ) ;
#1217 = DIRECTION ( 'NONE',  ( 1.000000000000000000, 0.000000000000000000, -0.000000000000000000 ) ) ;
#1218 = CARTESIAN_POINT ( 'NONE',  ( -14.00000000000000888, 332.0000000000000000, 27.49999999999999645 ) ) ;
#1219 = CARTESIAN_POINT ( 'NONE',  ( -106.0000000000000000, 350.0000000000000000, 96.00000000000000000 ) ) ;
#1220 = DIRECTION ( 'NONE',  ( 0.000000000000000000, -1.000000000000000000, 0.000000000000000000 ) ) ;
#1221 = LINE ( 'NONE', #753, #404 ) ;
#1222 = VECTOR ( 'NONE', #162, 1000.000000000000000 ) ;
#1223 = FACE_OUTER_BOUND ( 'NONE', #1014, .T. ) ;
#1224 = AXIS2_PLACEMENT_3D ( 'NONE', #69, #542, #94 ) ;
#1225 = VECTOR ( 'NONE', #545, 1000.000000000000000 ) ;
#1226 = APPLICATION_CONTEXT ( 'automotive_design' ) ;
#1227 = DIRECTION ( 'NONE',  ( 0.000000000000000000, -0.000000000000000000, -1.000000000000000000 ) ) ;
#1228 = CARTESIAN_POINT ( 'NONE',  ( -25.00000000000008171, 339.9999976677415248, 3.000000000000000000 ) ) ;
#1229 = ORIENTED_EDGE ( 'NONE', *, *, #799, .T. ) ;
#1230 = CARTESIAN_POINT ( 'NONE',  ( -14.00000000000000711, 332.0000000000000000, 12.49999999999999645 ) ) ;
#1231 = LINE ( 'NONE', #672, #102 ) ;
ENDSEC;
END-ISO-10303-21;
