ISO-10303-21;
HEADER;
FILE_DESCRIPTION (( 'STEP AP214' ),
    '1' );
FILE_NAME ('Dhakkan 2.STEP',
    '2026-04-26T13:39:14',
    ( '' ),
    ( '' ),
    'SwSTEP 2.0',
    'SolidWorks 2022',
    '' );
FILE_SCHEMA (( 'AUTOMOTIVE_DESIGN' ));
ENDSEC;

DATA;
#1 = VERTEX_POINT ( 'NONE', #609 ) ;
#2 = EDGE_CURVE ( 'NONE', #580, #440, #131, .T. ) ;
#3 = ADVANCED_FACE ( 'NONE', ( #259 ), #556, .T. ) ;
#4 = CARTESIAN_POINT ( 'NONE',  ( -43.60000000000000853, 209.8000000000000114, -44.69999999999985363 ) ) ;
#5 =( BOUNDED_CURVE ( )  B_SPLINE_CURVE ( 3, ( #380, #270, #112, #511 ),
 .UNSPECIFIED., .F., .T. ) 
 B_SPLINE_CURVE_WITH_KNOTS ( ( 4, 4 ),
 ( 5.387520513321721438, 5.579557404438448387 ),
 .UNSPECIFIED. ) 
 CURVE ( )  GEOMETRIC_REPRESENTATION_ITEM ( )  RATIONAL_B_SPLINE_CURVE ( ( 1.000000000000000000, 0.9969291797551544931, 0.9969291797551544931, 1.000000000000000000 ) ) 
 REPRESENTATION_ITEM ( '' )  );
#6 = VECTOR ( 'NONE', #206, 1000.000000000000000 ) ;
#7 =( LENGTH_UNIT ( ) NAMED_UNIT ( * ) SI_UNIT ( .MILLI., .METRE. ) );
#8 = DIRECTION ( 'NONE',  ( 1.000000000000000000, 0.000000000000000000, -4.565061778886335030E-16 ) ) ;
#9 = PLANE ( 'NONE',  #121 ) ;
#10 = DIRECTION ( 'NONE',  ( 0.5881716976750478443, 0.000000000000000000, -0.8087360843031874413 ) ) ;
#11 = EDGE_CURVE ( 'NONE', #691, #162, #666, .T. ) ;
#12 = ADVANCED_FACE ( 'NONE', ( #693 ), #189, .F. ) ;
#13 = CARTESIAN_POINT ( 'NONE',  ( 42.00000000000000711, 1.069092280555380858, -43.90000000000015490 ) ) ;
#14 = CARTESIAN_POINT ( 'NONE',  ( -42.80000000000001137, 6.244997998398399197, -45.79999999999986215 ) ) ;
#15 = PRODUCT_DEFINITION ( 'UNKNOWN', '', #31, #526 ) ;
#16 = DIRECTION ( 'NONE',  ( -3.627006610403822198E-15, 0.000000000000000000, -1.000000000000000000 ) ) ;
#17 = VERTEX_POINT ( 'NONE', #14 ) ;
#18 = CARTESIAN_POINT ( 'NONE',  ( -43.60000000000000853, 2.196541502398961399, -44.69999999999985363 ) ) ;
#19 = LINE ( 'NONE', #758, #496 ) ;
#20 = EDGE_LOOP ( 'NONE', ( #180, #379, #76, #193 ) ) ;
#21 = APPLICATION_CONTEXT ( 'automotive_design' ) ;
#22 = AXIS2_PLACEMENT_3D ( 'NONE', #726, #660, #721 ) ;
#23 = EDGE_CURVE ( 'NONE', #320, #670, #209, .T. ) ;
#24 = ORIENTED_EDGE ( 'NONE', *, *, #711, .T. ) ;
#25 = LINE ( 'NONE', #448, #378 ) ;
#26 = ORIENTED_EDGE ( 'NONE', *, *, #592, .F. ) ;
#27 = DIRECTION ( 'NONE',  ( 0.000000000000000000, 1.000000000000000000, 0.000000000000000000 ) ) ;
#28 = CARTESIAN_POINT ( 'NONE',  ( -43.59999999999999432, 6.244997998398399197, -37.79999999999986215 ) ) ;
#29 = ORIENTED_EDGE ( 'NONE', *, *, #79, .T. ) ;
#30 = ORIENTED_EDGE ( 'NONE', *, *, #466, .T. ) ;
#31 = PRODUCT_DEFINITION_FORMATION_WITH_SPECIFIED_SOURCE ( 'ANY', '', #194, .NOT_KNOWN. ) ;
#32 = EDGE_CURVE ( 'NONE', #585, #675, #97, .T. ) ;
#33 = CARTESIAN_POINT ( 'NONE',  ( -18.20000000000001350, 101.7999999999999972, -44.79999999999986926 ) ) ;
#34 = EDGE_LOOP ( 'NONE', ( #410, #24, #78, #506 ) ) ;
#35 = CARTESIAN_POINT ( 'NONE',  ( -33.40000000000001279, 110.0000000000000000, -44.79999999999987637 ) ) ;
#36 = PLANE ( 'NONE',  #679 ) ;
#37 = ORIENTED_EDGE ( 'NONE', *, *, #476, .F. ) ;
#38 = ORIENTED_EDGE ( 'NONE', *, *, #651, .T. ) ;
#39 = PLANE ( 'NONE',  #240 ) ;
#40 = VERTEX_POINT ( 'NONE', #548 ) ;
#41 = LINE ( 'NONE', #277, #234 ) ;
#42 = LINE ( 'NONE', #486, #712 ) ;
#43 = VERTEX_POINT ( 'NONE', #563 ) ;
#44 = FACE_OUTER_BOUND ( 'NONE', #136, .T. ) ;
#45 = ORIENTED_EDGE ( 'NONE', *, *, #185, .F. ) ;
#46 = DIRECTION ( 'NONE',  ( -0.000000000000000000, 0.000000000000000000, -1.000000000000000000 ) ) ;
#47 = PRODUCT_DEFINITION_SHAPE ( 'NONE', 'NONE',  #15 ) ;
#48 = EDGE_CURVE ( 'NONE', #1, #215, #629, .T. ) ;
#49 = LINE ( 'NONE', #263, #74 ) ;
#50 = CARTESIAN_POINT ( 'NONE',  ( 42.00000000000000000, 209.8000000000000114, -44.70000000000015916 ) ) ;
#51 = FACE_OUTER_BOUND ( 'NONE', #20, .T. ) ;
#52 = ORIENTED_EDGE ( 'NONE', *, *, #651, .F. ) ;
#53 = LINE ( 'NONE', #749, #409 ) ;
#54 = EDGE_CURVE ( 'NONE', #440, #320, #488, .T. ) ;
#55 = DIRECTION ( 'NONE',  ( 0.000000000000000000, 0.000000000000000000, 1.000000000000000000 ) ) ;
#56 = ORIENTED_EDGE ( 'NONE', *, *, #128, .T. ) ;
#57 = EDGE_LOOP ( 'NONE', ( #329, #733, #275, #493, #148, #618, #490, #727 ) ) ;
#58 = MECHANICAL_DESIGN_GEOMETRIC_PRESENTATION_REPRESENTATION (  '', ( #230 ), #68 ) ;
#59 = DIRECTION ( 'NONE',  ( -7.228014483236698528E-16, -0.000000000000000000, -1.000000000000000000 ) ) ;
#60 = AXIS2_PLACEMENT_3D ( 'NONE', #210, #674, #247 ) ;
#61 = UNCERTAINTY_MEASURE_WITH_UNIT (LENGTH_MEASURE( 1.000000000000000082E-05 ), #7, 'distance_accuracy_value', 'NONE');
#62 = ORIENTED_EDGE ( 'NONE', *, *, #578, .F. ) ;
#63 = VECTOR ( 'NONE', #59, 1000.000000000000000 ) ;
#64 = EDGE_CURVE ( 'NONE', #621, #469, #243, .T. ) ;
#65 = SHAPE_DEFINITION_REPRESENTATION ( #47, #746 ) ;
#66 = EDGE_CURVE ( 'NONE', #17, #307, #766, .T. ) ;
#67 = DIRECTION ( 'NONE',  ( 1.000000000000000000, 0.000000000000000000, 4.565061778886335030E-16 ) ) ;
#68 =( GEOMETRIC_REPRESENTATION_CONTEXT ( 3 ) GLOBAL_UNCERTAINTY_ASSIGNED_CONTEXT ( ( #61 ) ) GLOBAL_UNIT_ASSIGNED_CONTEXT ( ( #7, #190, #357 ) ) REPRESENTATION_CONTEXT ( 'NONE', 'WORKASPACE' ) );
#69 = FACE_OUTER_BOUND ( 'NONE', #371, .T. ) ;
#70 = FACE_OUTER_BOUND ( 'NONE', #497, .T. ) ;
#71 = AXIS2_PLACEMENT_3D ( 'NONE', #661, #27, #255 ) ;
#72 = EDGE_CURVE ( 'NONE', #614, #621, #173, .T. ) ;
#73 = CARTESIAN_POINT ( 'NONE',  ( -42.80000000000001137, 110.0000000000000000, -45.79999999999985505 ) ) ;
#74 = VECTOR ( 'NONE', #696, 1000.000000000000000 ) ;
#75 = FACE_BOUND ( 'NONE', #91, .T. ) ;
#76 = ORIENTED_EDGE ( 'NONE', *, *, #72, .F. ) ;
#77 = DIRECTION ( 'NONE',  ( 0.8087360843031874413, 0.000000000000000000, 0.5881716976750478443 ) ) ;
#78 = ORIENTED_EDGE ( 'NONE', *, *, #66, .T. ) ;
#79 = EDGE_CURVE ( 'NONE', #741, #204, #523, .T. ) ;
#80 = DIRECTION ( 'NONE',  ( -4.565061778886335030E-16, 0.000000000000000000, 1.000000000000000000 ) ) ;
#81 = DIRECTION ( 'NONE',  ( -0.000000000000000000, 1.000000000000000000, -0.000000000000000000 ) ) ;
#82 = ORIENTED_EDGE ( 'NONE', *, *, #760, .F. ) ;
#83 = CARTESIAN_POINT ( 'NONE',  ( 41.19999999999999574, 4.813189705070592517, -45.80000000000015348 ) ) ;
#84 = CARTESIAN_POINT ( 'NONE',  ( 31.79999999999998650, 101.7999999999999972, -43.80000000000013927 ) ) ;
#85 = ORIENTED_EDGE ( 'NONE', *, *, #653, .T. ) ;
#86 = CLOSED_SHELL ( 'NONE', ( #468, #317, #529, #630, #524, #536, #245, #663, #3, #348, #111, #520, #426, #294, #291, #306, #692, #591, #12, #337, #164, #656, #115, #372, #284 ) ) ;
#87 = FACE_OUTER_BOUND ( 'NONE', #57, .T. ) ;
#88 = CARTESIAN_POINT ( 'NONE',  ( 16.59999999999999076, 101.7999999999999972, -43.80000000000014637 ) ) ;
#89 = ORIENTED_EDGE ( 'NONE', *, *, #513, .T. ) ;
#90 = AXIS2_PLACEMENT_3D ( 'NONE', #713, #129, #293 ) ;
#91 = EDGE_LOOP ( 'NONE', ( #652, #251, #400, #452 ) ) ;
#92 = LINE ( 'NONE', #557, #522 ) ;
#93 = ORIENTED_EDGE ( 'NONE', *, *, #179, .F. ) ;
#94 = DIRECTION ( 'NONE',  ( 1.000000000000000000, 0.000000000000000000, -3.491481338843133355E-15 ) ) ;
#95 = DIRECTION ( 'NONE',  ( -0.000000000000000000, 1.000000000000000000, -0.000000000000000000 ) ) ;
#96 = ORIENTED_EDGE ( 'NONE', *, *, #583, .F. ) ;
#97 = LINE ( 'NONE', #195, #109 ) ;
#98 = CARTESIAN_POINT ( 'NONE',  ( 41.20000000000000995, 209.8000000000000114, -42.80000000000015348 ) ) ;
#99 = VERTEX_POINT ( 'NONE', #706 ) ;
#100 = LINE ( 'NONE', #166, #183 ) ;
#101 = CARTESIAN_POINT ( 'NONE',  ( 42.00000000000000000, 209.8000000000000114, -44.70000000000015916 ) ) ;
#102 = ORIENTED_EDGE ( 'NONE', *, *, #711, .F. ) ;
#103 = ORIENTED_EDGE ( 'NONE', *, *, #23, .F. ) ;
#104 = ORIENTED_EDGE ( 'NONE', *, *, #302, .T. ) ;
#105 = DIRECTION ( 'NONE',  ( -3.491481338843133355E-15, 0.000000000000000000, -1.000000000000000000 ) ) ;
#106 = EDGE_CURVE ( 'NONE', #487, #386, #341, .T. ) ;
#107 = FACE_OUTER_BOUND ( 'NONE', #672, .T. ) ;
#108 = DIRECTION ( 'NONE',  ( -1.000000000000000000, 0.000000000000000000, -0.000000000000000000 ) ) ;
#109 = VECTOR ( 'NONE', #324, 1000.000000000000000 ) ;
#110 = CARTESIAN_POINT ( 'NONE',  ( -33.40000000000001279, 101.7999999999999972, -44.79999999999987637 ) ) ;
#111 = ADVANCED_FACE ( 'NONE', ( #51 ), #514, .F. ) ;
#112 = CARTESIAN_POINT ( 'NONE',  ( 41.75866782623362639, 0.6780160674614124083, -43.56816826107138496 ) ) ;
#113 = CARTESIAN_POINT ( 'NONE',  ( -43.07303512853194150, 3.431476155394195704, -45.42457669826846001 ) ) ;
#114 = VECTOR ( 'NONE', #186, 1000.000000000000000 ) ;
#115 = ADVANCED_FACE ( 'NONE', ( #44 ), #222, .F. ) ;
#116 = LINE ( 'NONE', #229, #63 ) ;
#117 = CIRCLE ( 'NONE', #143, 8.000000000000000000 ) ;
#118 = SURFACE_STYLE_USAGE ( .BOTH. , #464 ) ;
#119 = EDGE_CURVE ( 'NONE', #340, #217, #116, .T. ) ;
#120 = ORIENTED_EDGE ( 'NONE', *, *, #740, .F. ) ;
#121 = AXIS2_PLACEMENT_3D ( 'NONE', #354, #364, #422 ) ;
#122 = VECTOR ( 'NONE', #572, 1000.000000000000000 ) ;
#123 = EDGE_CURVE ( 'NONE', #670, #1, #671, .T. ) ;
#124 = VECTOR ( 'NONE', #67, 1000.000000000000000 ) ;
#125 = PLANE ( 'NONE',  #343 ) ;
#126 = LINE ( 'NONE', #130, #643 ) ;
#127 = CARTESIAN_POINT ( 'NONE',  ( 6.799999999999985612, 110.0000000000000000, -44.79999999999986215 ) ) ;
#128 = EDGE_CURVE ( 'NONE', #43, #99, #648, .T. ) ;
#129 = DIRECTION ( 'NONE',  ( -1.000000000000000000, 0.000000000000000000, 3.627006610403821410E-15 ) ) ;
#130 = CARTESIAN_POINT ( 'NONE',  ( 41.20000000000000995, 110.0000000000000000, -42.80000000000015348 ) ) ;
#131 = LINE ( 'NONE', #144, #521 ) ;
#132 = DIRECTION ( 'NONE',  ( 0.000000000000000000, -1.000000000000000000, 0.000000000000000000 ) ) ;
#133 = ORIENTED_EDGE ( 'NONE', *, *, #119, .F. ) ;
#134 = DIRECTION ( 'NONE',  ( 0.000000000000000000, 0.000000000000000000, 1.000000000000000000 ) ) ;
#135 = DIRECTION ( 'NONE',  ( 0.8087360843031833335, 0.000000000000000000, -0.5881716976750532844 ) ) ;
#136 = EDGE_LOOP ( 'NONE', ( #421, #150, #316, #751 ) ) ;
#137 = ORIENTED_EDGE ( 'NONE', *, *, #454, .T. ) ;
#138 = CARTESIAN_POINT ( 'NONE',  ( 6.799999999999985612, 101.7999999999999972, -44.79999999999986215 ) ) ;
#139 = ORIENTED_EDGE ( 'NONE', *, *, #719, .T. ) ;
#140 = DIRECTION ( 'NONE',  ( 0.000000000000000000, 1.000000000000000000, 0.000000000000000000 ) ) ;
#141 = DIRECTION ( 'NONE',  ( -0.8087360843031855540, 0.000000000000000000, 0.5881716976750502868 ) ) ;
#142 = EDGE_LOOP ( 'NONE', ( #625, #207, #439, #85 ) ) ;
#143 = AXIS2_PLACEMENT_3D ( 'NONE', #28, #545, #154 ) ;
#144 = CARTESIAN_POINT ( 'NONE',  ( -43.60000000000000853, 110.0000000000000000, -44.69999999999985363 ) ) ;
#145 = LINE ( 'NONE', #377, #351 ) ;
#146 = ORIENTED_EDGE ( 'NONE', *, *, #604, .T. ) ;
#147 = CARTESIAN_POINT ( 'NONE',  ( -33.40000000000001279, 101.7999999999999972, -44.79999999999987637 ) ) ;
#148 = ORIENTED_EDGE ( 'NONE', *, *, #106, .T. ) ;
#149 = VECTOR ( 'NONE', #570, 1000.000000000000000 ) ;
#150 = ORIENTED_EDGE ( 'NONE', *, *, #466, .F. ) ;
#151 = LINE ( 'NONE', #33, #705 ) ;
#152 = VERTEX_POINT ( 'NONE', #508 ) ;
#153 = CARTESIAN_POINT ( 'NONE',  ( -8.400000000000012790, 101.7999999999999972, -44.79999999999986215 ) ) ;
#154 = DIRECTION ( 'NONE',  ( -3.469446951953614189E-15, 0.000000000000000000, -1.000000000000000000 ) ) ;
#155 = EDGE_LOOP ( 'NONE', ( #688, #170, #615, #223, #551, #725, #202, #200 ) ) ;
#156 = CARTESIAN_POINT ( 'NONE',  ( -43.60000000000000853, 209.8000000000000114, -43.89999999999985647 ) ) ;
#157 = DIRECTION ( 'NONE',  ( 1.000000000000000000, 0.000000000000000000, -0.000000000000000000 ) ) ;
#158 = ORIENTED_EDGE ( 'NONE', *, *, #64, .T. ) ;
#159 = DIRECTION ( 'NONE',  ( -3.491481338843133355E-15, 0.000000000000000000, -1.000000000000000000 ) ) ;
#160 = PLANE ( 'NONE',  #470 ) ;
#161 = ORIENTED_EDGE ( 'NONE', *, *, #476, .T. ) ;
#162 = VERTEX_POINT ( 'NONE', #754 ) ;
#163 = LINE ( 'NONE', #110, #622 ) ;
#164 = ADVANCED_FACE ( 'NONE', ( #453 ), #762, .F. ) ;
#165 = EDGE_CURVE ( 'NONE', #469, #43, #584, .T. ) ;
#166 = CARTESIAN_POINT ( 'NONE',  ( -33.40000000000001279, 101.7999999999999972, -43.59999999999985931 ) ) ;
#167 =( NAMED_UNIT ( * ) PLANE_ANGLE_UNIT ( ) SI_UNIT ( $, .RADIAN. ) );
#168 = VECTOR ( 'NONE', #390, 1000.000000000000000 ) ;
#169 = CARTESIAN_POINT ( 'NONE',  ( -42.79999999999999716, 0.000000000000000000, -42.79999999999986215 ) ) ;
#170 = ORIENTED_EDGE ( 'NONE', *, *, #48, .F. ) ;
#171 = EDGE_CURVE ( 'NONE', #741, #555, #163, .T. ) ;
#172 = ORIENTED_EDGE ( 'NONE', *, *, #459, .T. ) ;
#173 = LINE ( 'NONE', #645, #350 ) ;
#174 =( GEOMETRIC_REPRESENTATION_CONTEXT ( 3 ) GLOBAL_UNCERTAINTY_ASSIGNED_CONTEXT ( ( #262 ) ) GLOBAL_UNIT_ASSIGNED_CONTEXT ( ( #761, #167, #577 ) ) REPRESENTATION_CONTEXT ( 'NONE', 'WORKASPACE' ) );
#175 = EDGE_CURVE ( 'NONE', #608, #503, #225, .T. ) ;
#176 = CARTESIAN_POINT ( 'NONE',  ( -18.20000000000001350, 101.7999999999999972, -44.79999999999986926 ) ) ;
#177 = EDGE_LOOP ( 'NONE', ( #455, #104, #248, #279 ) ) ;
#178 = EDGE_CURVE ( 'NONE', #266, #152, #701, .T. ) ;
#179 = EDGE_CURVE ( 'NONE', #217, #608, #53, .T. ) ;
#180 = ORIENTED_EDGE ( 'NONE', *, *, #178, .T. ) ;
#181 = FACE_OUTER_BOUND ( 'NONE', #34, .T. ) ;
#182 = VECTOR ( 'NONE', #132, 1000.000000000000000 ) ;
#183 = VECTOR ( 'NONE', #518, 1000.000000000000000 ) ;
#184 = FILL_AREA_STYLE_COLOUR ( '', #549 ) ;
#185 = EDGE_CURVE ( 'NONE', #588, #269, #49, .T. ) ;
#186 = DIRECTION ( 'NONE',  ( -1.000000000000000000, -0.000000000000000000, -4.565061778886335030E-16 ) ) ;
#187 = DIRECTION ( 'NONE',  ( 1.000000000000000000, 0.000000000000000000, -7.228014483236698528E-16 ) ) ;
#188 = FACE_OUTER_BOUND ( 'NONE', #177, .T. ) ;
#189 = PLANE ( 'NONE',  #763 ) ;
#190 =( NAMED_UNIT ( * ) PLANE_ANGLE_UNIT ( ) SI_UNIT ( $, .RADIAN. ) );
#191 = ORIENTED_EDGE ( 'NONE', *, *, #221, .T. ) ;
#192 = FACE_OUTER_BOUND ( 'NONE', #318, .T. ) ;
#193 = ORIENTED_EDGE ( 'NONE', *, *, #599, .T. ) ;
#194 = PRODUCT ( 'Dhakkan 2', 'Dhakkan 2', '', ( #346 ) ) ;
#195 = CARTESIAN_POINT ( 'NONE',  ( -18.20000000000001350, 110.0000000000000000, -44.79999999999986926 ) ) ;
#196 = CARTESIAN_POINT ( 'NONE',  ( -8.400000000000012790, 101.7999999999999972, -43.59999999999985931 ) ) ;
#197 = ORIENTED_EDGE ( 'NONE', *, *, #175, .T. ) ;
#198 = PLANE ( 'NONE',  #299 ) ;
#199 = CARTESIAN_POINT ( 'NONE',  ( -8.400000000000012790, 101.7999999999999972, -44.79999999999986215 ) ) ;
#200 = ORIENTED_EDGE ( 'NONE', *, *, #407, .F. ) ;
#201 = VECTOR ( 'NONE', #418, 1000.000000000000000 ) ;
#202 = ORIENTED_EDGE ( 'NONE', *, *, #11, .F. ) ;
#203 = CARTESIAN_POINT ( 'NONE',  ( -8.400000000000012790, 110.0000000000000000, -43.59999999999985931 ) ) ;
#204 = VERTEX_POINT ( 'NONE', #212 ) ;
#205 = FACE_OUTER_BOUND ( 'NONE', #737, .T. ) ;
#206 = DIRECTION ( 'NONE',  ( -0.000000000000000000, -0.000000000000000000, -1.000000000000000000 ) ) ;
#207 = ORIENTED_EDGE ( 'NONE', *, *, #599, .F. ) ;
#208 = VECTOR ( 'NONE', #95, 1000.000000000000000 ) ;
#209 = LINE ( 'NONE', #156, #168 ) ;
#210 = CARTESIAN_POINT ( 'NONE',  ( 16.59999999999999076, 101.7999999999999972, -45.00000000000014921 ) ) ;
#211 = ORIENTED_EDGE ( 'NONE', *, *, #235, .F. ) ;
#212 = CARTESIAN_POINT ( 'NONE',  ( -33.40000000000001279, 101.7999999999999972, -43.59999999999985931 ) ) ;
#213 = DIRECTION ( 'NONE',  ( 0.000000000000000000, -1.000000000000000000, 0.000000000000000000 ) ) ;
#214 = VERTEX_POINT ( 'NONE', #689 ) ;
#215 = VERTEX_POINT ( 'NONE', #443 ) ;
#216 = PLANE ( 'NONE',  #413 ) ;
#217 = VERTEX_POINT ( 'NONE', #218 ) ;
#218 = CARTESIAN_POINT ( 'NONE',  ( 6.799999999999985612, 101.7999999999999972, -44.79999999999986215 ) ) ;
#219 = CARTESIAN_POINT ( 'NONE',  ( -43.60000000000000853, 1.069092280555378194, -43.89999999999985647 ) ) ;
#220 = EDGE_LOOP ( 'NONE', ( #56, #425, #52, #363 ) ) ;
#221 = EDGE_CURVE ( 'NONE', #204, #515, #100, .T. ) ;
#222 = PLANE ( 'NONE',  #347 ) ;
#223 = ORIENTED_EDGE ( 'NONE', *, *, #673, .F. ) ;
#224 = FACE_OUTER_BOUND ( 'NONE', #500, .T. ) ;
#225 = LINE ( 'NONE', #153, #122 ) ;
#226 = CARTESIAN_POINT ( 'NONE',  ( -43.60000000000000853, 1.069092280555378194, -43.89999999999985647 ) ) ;
#227 = EDGE_CURVE ( 'NONE', #478, #614, #457, .T. ) ;
#228 = ORIENTED_EDGE ( 'NONE', *, *, #32, .F. ) ;
#229 = CARTESIAN_POINT ( 'NONE',  ( 6.799999999999985612, 101.7999999999999972, -44.79999999999986215 ) ) ;
#230 = STYLED_ITEM ( 'NONE', ( #534 ), #597 ) ;
#231 = EDGE_LOOP ( 'NONE', ( #375, #158, #38, #261 ) ) ;
#232 = CARTESIAN_POINT ( 'NONE',  ( -42.80000000000001137, 6.244997998398399197, -45.79999999999986215 ) ) ;
#233 = APPLICATION_PROTOCOL_DEFINITION ( 'draft international standard', 'automotive_design', 1998, #21 ) ;
#234 = VECTOR ( 'NONE', #387, 1000.000000000000000 ) ;
#235 = EDGE_CURVE ( 'NONE', #515, #585, #560, .T. ) ;
#236 = EDGE_CURVE ( 'NONE', #384, #366, #41, .T. ) ;
#237 = AXIS2_PLACEMENT_3D ( 'NONE', #423, #135, #553 ) ;
#238 = LINE ( 'NONE', #427, #587 ) ;
#239 = EDGE_CURVE ( 'NONE', #555, #272, #742, .T. ) ;
#240 = AXIS2_PLACEMENT_3D ( 'NONE', #502, #157, #46 ) ;
#241 = CARTESIAN_POINT ( 'NONE',  ( -33.40000000000001279, 101.7999999999999972, -43.59999999999985931 ) ) ;
#242 = LINE ( 'NONE', #491, #507 ) ;
#243 = LINE ( 'NONE', #731, #292 ) ;
#244 = CARTESIAN_POINT ( 'NONE',  ( 42.00000000000002842, 6.244997998398399197, -37.80000000000015348 ) ) ;
#245 = ADVANCED_FACE ( 'NONE', ( #626 ), #639, .F. ) ;
#246 = CARTESIAN_POINT ( 'NONE',  ( -43.60000000000000853, 110.0000000000000000, -43.89999999999985647 ) ) ;
#247 = DIRECTION ( 'NONE',  ( -1.000000000000000000, 0.000000000000000000, -0.000000000000000000 ) ) ;
#248 = ORIENTED_EDGE ( 'NONE', *, *, #119, .T. ) ;
#249 = PLANE ( 'NONE',  #345 ) ;
#250 = DIRECTION ( 'NONE',  ( -0.000000000000000000, -0.000000000000000000, -1.000000000000000000 ) ) ;
#251 = ORIENTED_EDGE ( 'NONE', *, *, #412, .F. ) ;
#252 = CARTESIAN_POINT ( 'NONE',  ( 41.20000000000000995, 0.000000000000000000, -42.80000000000015348 ) ) ;
#253 = CARTESIAN_POINT ( 'NONE',  ( -42.79999999999999716, 110.0000000000000000, -42.79999999999986215 ) ) ;
#254 = EDGE_LOOP ( 'NONE', ( #744, #554, #681, #120 ) ) ;
#255 = DIRECTION ( 'NONE',  ( 0.000000000000000000, -0.000000000000000000, 1.000000000000000000 ) ) ;
#256 = LINE ( 'NONE', #50, #533 ) ;
#257 = MECHANICAL_DESIGN_GEOMETRIC_PRESENTATION_REPRESENTATION (  '', ( #558 ), #174 ) ;
#258 = ORIENTED_EDGE ( 'NONE', *, *, #638, .T. ) ;
#259 = FACE_OUTER_BOUND ( 'NONE', #155, .T. ) ;
#260 = CARTESIAN_POINT ( 'NONE',  ( -18.20000000000001350, 101.7999999999999972, -43.59999999999986642 ) ) ;
#261 = ORIENTED_EDGE ( 'NONE', *, *, #227, .T. ) ;
#262 = UNCERTAINTY_MEASURE_WITH_UNIT (LENGTH_MEASURE( 1.000000000000000082E-05 ), #761, 'distance_accuracy_value', 'NONE');
#263 = CARTESIAN_POINT ( 'NONE',  ( -8.400000000000012790, 101.7999999999999972, -43.59999999999985931 ) ) ;
#264 = LINE ( 'NONE', #278, #295 ) ;
#265 = ORIENTED_EDGE ( 'NONE', *, *, #236, .F. ) ;
#266 = VERTEX_POINT ( 'NONE', #498 ) ;
#267 = CARTESIAN_POINT ( 'NONE',  ( -42.79999999999999716, 110.0000000000000000, -42.79999999999986215 ) ) ;
#268 = EDGE_CURVE ( 'NONE', #215, #399, #5, .T. ) ;
#269 = VERTEX_POINT ( 'NONE', #321 ) ;
#270 = CARTESIAN_POINT ( 'NONE',  ( 41.49117975177266260, 0.3205542730278460595, -43.20037215868754288 ) ) ;
#271 = DIRECTION ( 'NONE',  ( -1.000000000000000000, -0.000000000000000000, -4.565061778886335030E-16 ) ) ;
#272 = VERTEX_POINT ( 'NONE', #327 ) ;
#273 = CARTESIAN_POINT ( 'NONE',  ( 31.79999999999998650, 110.0000000000000000, -45.00000000000014921 ) ) ;
#274 = AXIS2_PLACEMENT_3D ( 'NONE', #757, #94, #159 ) ;
#275 = ORIENTED_EDGE ( 'NONE', *, *, #361, .T. ) ;
#276 = DIRECTION ( 'NONE',  ( 1.000000000000000000, 0.000000000000000000, 0.000000000000000000 ) ) ;
#277 = CARTESIAN_POINT ( 'NONE',  ( 6.799999999999985612, 110.0000000000000000, -44.79999999999986215 ) ) ;
#278 = CARTESIAN_POINT ( 'NONE',  ( -42.80000000000001137, 209.8000000000000114, -45.79999999999985505 ) ) ;
#279 = ORIENTED_EDGE ( 'NONE', *, *, #179, .T. ) ;
#280 = ORIENTED_EDGE ( 'NONE', *, *, #48, .T. ) ;
#281 = DIRECTION ( 'NONE',  ( -1.000000000000000000, -0.000000000000000000, -0.000000000000000000 ) ) ;
#282 = DIRECTION ( 'NONE',  ( 1.000000000000000000, 0.000000000000000000, 0.000000000000000000 ) ) ;
#283 = CARTESIAN_POINT ( 'NONE',  ( 31.79999999999998650, 101.7999999999999972, -43.80000000000013927 ) ) ;
#284 = ADVANCED_FACE ( 'NONE', ( #107 ), #392, .T. ) ;
#285 = AXIS2_PLACEMENT_3D ( 'NONE', #101, #141, #620 ) ;
#286 = ORIENTED_EDGE ( 'NONE', *, *, #239, .T. ) ;
#287 = ORIENTED_EDGE ( 'NONE', *, *, #361, .F. ) ;
#288 = CARTESIAN_POINT ( 'NONE',  ( -43.35866782623362781, 0.6780160674614091887, -43.56816826107109364 ) ) ;
#289 = AXIS2_PLACEMENT_3D ( 'NONE', #244, #434, #510 ) ;
#290 = VECTOR ( 'NONE', #682, 1000.000000000000000 ) ;
#291 = ADVANCED_FACE ( 'NONE', ( #480 ), #9, .T. ) ;
#292 = VECTOR ( 'NONE', #662, 1000.000000000000000 ) ;
#293 = DIRECTION ( 'NONE',  ( 3.627006610403821410E-15, 0.000000000000000000, 1.000000000000000000 ) ) ;
#294 = ADVANCED_FACE ( 'NONE', ( #192 ), #198, .F. ) ;
#295 = VECTOR ( 'NONE', #492, 1000.000000000000000 ) ;
#296 = FACE_OUTER_BOUND ( 'NONE', #755, .T. ) ;
#297 = PLANE ( 'NONE',  #428 ) ;
#298 = PLANE ( 'NONE',  #472 ) ;
#299 = AXIS2_PLACEMENT_3D ( 'NONE', #668, #80, #308 ) ;
#300 = CARTESIAN_POINT ( 'NONE',  ( 0.000000000000000000, 101.7999999999999972, 0.000000000000000000 ) ) ;
#301 = LINE ( 'NONE', #388, #738 ) ;
#302 = EDGE_CURVE ( 'NONE', #588, #340, #676, .T. ) ;
#303 = CARTESIAN_POINT ( 'NONE',  ( 41.19999999999999574, 110.0000000000000000, -45.80000000000015348 ) ) ;
#304 = CARTESIAN_POINT ( 'NONE',  ( -8.400000000000012790, 101.7999999999999972, -43.59999999999985931 ) ) ;
#305 = CARTESIAN_POINT ( 'NONE',  ( -33.40000000000001279, 110.0000000000000000, -44.79999999999987637 ) ) ;
#306 = ADVANCED_FACE ( 'NONE', ( #70 ), #659, .F. ) ;
#307 = VERTEX_POINT ( 'NONE', #18 ) ;
#308 = DIRECTION ( 'NONE',  ( 1.000000000000000000, 0.000000000000000000, 4.565061778886335030E-16 ) ) ;
#309 = ORIENTED_EDGE ( 'NONE', *, *, #171, .T. ) ;
#310 = DIRECTION ( 'NONE',  ( -0.5881716976750478443, 0.000000000000000000, 0.8087360843031874413 ) ) ;
#311 = DIRECTION ( 'NONE',  ( -0.000000000000000000, 1.000000000000000000, -0.000000000000000000 ) ) ;
#312 = VECTOR ( 'NONE', #276, 1000.000000000000000 ) ;
#313 = ORIENTED_EDGE ( 'NONE', *, *, #239, .F. ) ;
#314 = PLANE ( 'NONE',  #71 ) ;
#315 = FACE_OUTER_BOUND ( 'NONE', #334, .T. ) ;
#316 = ORIENTED_EDGE ( 'NONE', *, *, #719, .F. ) ;
#317 = ADVANCED_FACE ( 'NONE', ( #205 ), #249, .F. ) ;
#318 = EDGE_LOOP ( 'NONE', ( #382, #634, #509, #395 ) ) ;
#319 = CARTESIAN_POINT ( 'NONE',  ( 41.20000000000000995, 209.8000000000000114, -42.80000000000015348 ) ) ;
#320 = VERTEX_POINT ( 'NONE', #537 ) ;
#321 = CARTESIAN_POINT ( 'NONE',  ( -8.400000000000012790, 110.0000000000000000, -43.59999999999985931 ) ) ;
#322 = CARTESIAN_POINT ( 'NONE',  ( -18.20000000000001350, 110.0000000000000000, -44.79999999999986926 ) ) ;
#323 = ORIENTED_EDGE ( 'NONE', *, *, #547, .T. ) ;
#324 = DIRECTION ( 'NONE',  ( -0.000000000000000000, -0.000000000000000000, -1.000000000000000000 ) ) ;
#325 = DIRECTION ( 'NONE',  ( 0.000000000000000000, -1.000000000000000000, 0.000000000000000000 ) ) ;
#326 = ORIENTED_EDGE ( 'NONE', *, *, #673, .T. ) ;
#327 = CARTESIAN_POINT ( 'NONE',  ( -33.40000000000001279, 110.0000000000000000, -43.59999999999985931 ) ) ;
#328 = CARTESIAN_POINT ( 'NONE',  ( -33.40000000000001279, 110.0000000000000000, -44.79999999999987637 ) ) ;
#329 = ORIENTED_EDGE ( 'NONE', *, *, #481, .T. ) ;
#330 = DIRECTION ( 'NONE',  ( 1.000000000000000000, 0.000000000000000000, -3.491481338843133750E-15 ) ) ;
#331 = LINE ( 'NONE', #203, #312 ) ;
#332 = DIRECTION ( 'NONE',  ( -0.000000000000000000, 1.000000000000000000, 0.000000000000000000 ) ) ;
#333 = CARTESIAN_POINT ( 'NONE',  ( 31.79999999999998650, 101.7999999999999972, -45.00000000000014921 ) ) ;
#334 = EDGE_LOOP ( 'NONE', ( #442, #445, #710, #411 ) ) ;
#335 = DIRECTION ( 'NONE',  ( -0.000000000000000000, 1.000000000000000000, -0.000000000000000000 ) ) ;
#336 = AXIS2_PLACEMENT_3D ( 'NONE', #606, #544, #134 ) ;
#337 = ADVANCED_FACE ( 'NONE', ( #188 ), #430, .T. ) ;
#338 = DIRECTION ( 'NONE',  ( 0.000000000000000000, -0.000000000000000000, 1.000000000000000000 ) ) ;
#339 = DIRECTION ( 'NONE',  ( 0.000000000000000000, 0.000000000000000000, 1.000000000000000000 ) ) ;
#340 = VERTEX_POINT ( 'NONE', #723 ) ;
#341 = LINE ( 'NONE', #702, #703 ) ;
#342 = VECTOR ( 'NONE', #250, 1000.000000000000000 ) ;
#343 = AXIS2_PLACEMENT_3D ( 'NONE', #4, #77, #10 ) ;
#344 = ORIENTED_EDGE ( 'NONE', *, *, #704, .F. ) ;
#345 = AXIS2_PLACEMENT_3D ( 'NONE', #485, #728, #552 ) ;
#346 = PRODUCT_CONTEXT ( 'NONE', #21, 'mechanical' ) ;
#347 = AXIS2_PLACEMENT_3D ( 'NONE', #176, #404, #519 ) ;
#348 = ADVANCED_FACE ( 'NONE', ( #373, #612, #75, #87 ), #314, .T. ) ;
#349 = EDGE_CURVE ( 'NONE', #386, #580, #242, .T. ) ;
#350 = VECTOR ( 'NONE', #55, 1000.000000000000000 ) ;
#351 = VECTOR ( 'NONE', #617, 1000.000000000000000 ) ;
#352 = AXIS2_PLACEMENT_3D ( 'NONE', #586, #527, #282 ) ;
#353 = PLANE ( 'NONE',  #22 ) ;
#354 = CARTESIAN_POINT ( 'NONE',  ( 0.000000000000000000, 101.7999999999999972, 0.000000000000000000 ) ) ;
#355 = CARTESIAN_POINT ( 'NONE',  ( -18.20000000000001350, 110.0000000000000000, -43.59999999999986642 ) ) ;
#356 = CARTESIAN_POINT ( 'NONE',  ( -33.40000000000001279, 110.0000000000000000, -43.59999999999985931 ) ) ;
#357 =( NAMED_UNIT ( * ) SI_UNIT ( $, .STERADIAN. ) SOLID_ANGLE_UNIT ( ) );
#358 = CARTESIAN_POINT ( 'NONE',  ( 6.799999999999986500, 110.0000000000000000, -43.59999999999985931 ) ) ;
#359 = EDGE_LOOP ( 'NONE', ( #695, #546, #93, #161 ) ) ;
#360 = EDGE_CURVE ( 'NONE', #503, #269, #437, .T. ) ;
#361 = EDGE_CURVE ( 'NONE', #214, #40, #126, .T. ) ;
#362 = CARTESIAN_POINT ( 'NONE',  ( 16.59999999999999076, 110.0000000000000000, -43.80000000000014637 ) ) ;
#363 = ORIENTED_EDGE ( 'NONE', *, *, #165, .T. ) ;
#364 = DIRECTION ( 'NONE',  ( 0.000000000000000000, 1.000000000000000000, 0.000000000000000000 ) ) ;
#365 = FACE_OUTER_BOUND ( 'NONE', #254, .T. ) ;
#366 = VERTEX_POINT ( 'NONE', #127 ) ;
#367 = PRODUCT_RELATED_PRODUCT_CATEGORY ( 'part', '', ( #194 ) ) ;
#368 = ORIENTED_EDGE ( 'NONE', *, *, #236, .T. ) ;
#369 = DIRECTION ( 'NONE',  ( -7.228014483236698528E-16, 0.000000000000000000, -1.000000000000000000 ) ) ;
#370 = PRESENTATION_LAYER_ASSIGNMENT (  '', '', ( #230 ) ) ;
#371 = EDGE_LOOP ( 'NONE', ( #748, #211, #764, #89 ) ) ;
#372 = ADVANCED_FACE ( 'NONE', ( #69 ), #297, .F. ) ;
#373 = FACE_BOUND ( 'NONE', #752, .T. ) ;
#374 = LINE ( 'NONE', #328, #582 ) ;
#375 = ORIENTED_EDGE ( 'NONE', *, *, #72, .T. ) ;
#376 = ORIENTED_EDGE ( 'NONE', *, *, #760, .T. ) ;
#377 = CARTESIAN_POINT ( 'NONE',  ( -33.40000000000001279, 101.7999999999999972, -43.59999999999985931 ) ) ;
#378 = VECTOR ( 'NONE', #311, 1000.000000000000000 ) ;
#379 = ORIENTED_EDGE ( 'NONE', *, *, #724, .F. ) ;
#380 = CARTESIAN_POINT ( 'NONE',  ( 41.20000000000000995, 0.000000000000000000, -42.80000000000015348 ) ) ;
#381 = CARTESIAN_POINT ( 'NONE',  ( 16.59999999999999076, 101.7999999999999972, -45.00000000000014921 ) ) ;
#382 = ORIENTED_EDGE ( 'NONE', *, *, #594, .T. ) ;
#383 = EDGE_CURVE ( 'NONE', #646, #741, #716, .T. ) ;
#384 = VERTEX_POINT ( 'NONE', #358 ) ;
#385 = LINE ( 'NONE', #319, #654 ) ;
#386 = VERTEX_POINT ( 'NONE', #303 ) ;
#387 = DIRECTION ( 'NONE',  ( -7.228014483236698528E-16, -0.000000000000000000, -1.000000000000000000 ) ) ;
#388 = CARTESIAN_POINT ( 'NONE',  ( 16.59999999999999076, 101.7999999999999972, -45.00000000000014921 ) ) ;
#389 = ORIENTED_EDGE ( 'NONE', *, *, #79, .F. ) ;
#390 = DIRECTION ( 'NONE',  ( 0.000000000000000000, -1.000000000000000000, 0.000000000000000000 ) ) ;
#391 = CARTESIAN_POINT ( 'NONE',  ( 42.00000000000000711, 209.8000000000000114, -43.90000000000015490 ) ) ;
#392 = PLANE ( 'NONE',  #664 ) ;
#393 = CARTESIAN_POINT ( 'NONE',  ( -18.20000000000001350, 101.7999999999999972, -44.79999999999986926 ) ) ;
#394 = CARTESIAN_POINT ( 'NONE',  ( -33.40000000000001279, 101.7999999999999972, -44.79999999999987637 ) ) ;
#395 = ORIENTED_EDGE ( 'NONE', *, *, #724, .T. ) ;
#396 = EDGE_CURVE ( 'NONE', #272, #585, #417, .T. ) ;
#397 = DIRECTION ( 'NONE',  ( -0.000000000000000000, 1.000000000000000000, -0.000000000000000000 ) ) ;
#398 = CARTESIAN_POINT ( 'NONE',  ( -33.40000000000001279, 101.7999999999999972, -44.79999999999987637 ) ) ;
#399 = VERTEX_POINT ( 'NONE', #13 ) ;
#400 = ORIENTED_EDGE ( 'NONE', *, *, #128, .F. ) ;
#401 = DIRECTION ( 'NONE',  ( -1.000000000000000000, 0.000000000000000000, 0.000000000000000000 ) ) ;
#402 = VECTOR ( 'NONE', #540, 1000.000000000000000 ) ;
#403 = ORIENTED_EDGE ( 'NONE', *, *, #513, .F. ) ;
#404 = DIRECTION ( 'NONE',  ( 1.000000000000000000, 0.000000000000000000, -0.000000000000000000 ) ) ;
#405 = VECTOR ( 'NONE', #567, 1000.000000000000000 ) ;
#406 =( NAMED_UNIT ( * ) PLANE_ANGLE_UNIT ( ) SI_UNIT ( $, .RADIAN. ) );
#407 = EDGE_CURVE ( 'NONE', #399, #691, #531, .T. ) ;
#408 = AXIS2_PLACEMENT_3D ( 'NONE', #300, #140, #601 ) ;
#409 = VECTOR ( 'NONE', #281, 1000.000000000000000 ) ;
#410 = ORIENTED_EDGE ( 'NONE', *, *, #2, .F. ) ;
#411 = ORIENTED_EDGE ( 'NONE', *, *, #435, .F. ) ;
#412 = EDGE_CURVE ( 'NONE', #99, #266, #92, .T. ) ;
#413 = AXIS2_PLACEMENT_3D ( 'NONE', #98, #105, #624 ) ;
#414 = LINE ( 'NONE', #717, #460 ) ;
#415 = VECTOR ( 'NONE', #397, 1000.000000000000000 ) ;
#416 = SURFACE_STYLE_FILL_AREA ( #542 ) ;
#417 = LINE ( 'NONE', #356, #402 ) ;
#418 = DIRECTION ( 'NONE',  ( 0.000000000000000000, 0.000000000000000000, 1.000000000000000000 ) ) ;
#419 = DIRECTION ( 'NONE',  ( -0.000000000000000000, 0.000000000000000000, 1.000000000000000000 ) ) ;
#420 = FACE_OUTER_BOUND ( 'NONE', #565, .T. ) ;
#421 = ORIENTED_EDGE ( 'NONE', *, *, #32, .T. ) ;
#422 = DIRECTION ( 'NONE',  ( 0.000000000000000000, -0.000000000000000000, 1.000000000000000000 ) ) ;
#423 = CARTESIAN_POINT ( 'NONE',  ( -42.79999999999999716, 209.8000000000000114, -42.79999999999986215 ) ) ;
#424 = ORIENTED_EDGE ( 'NONE', *, *, #360, .T. ) ;
#425 = ORIENTED_EDGE ( 'NONE', *, *, #653, .F. ) ;
#426 = ADVANCED_FACE ( 'NONE', ( #747 ), #39, .F. ) ;
#427 = CARTESIAN_POINT ( 'NONE',  ( 41.20000000000000995, 110.0000000000000000, -42.80000000000015348 ) ) ;
#428 = AXIS2_PLACEMENT_3D ( 'NONE', #241, #535, #8 ) ;
#429 = EDGE_LOOP ( 'NONE', ( #258, #482, #543, #30 ) ) ;
#430 = PLANE ( 'NONE',  #408 ) ;
#431 = PLANE ( 'NONE',  #285 ) ;
#432 = ORIENTED_EDGE ( 'NONE', *, *, #302, .F. ) ;
#433 = EDGE_LOOP ( 'NONE', ( #172, #82, #432, #462 ) ) ;
#434 = DIRECTION ( 'NONE',  ( 1.000000000000000000, -0.000000000000000000, -3.627006610403822198E-15 ) ) ;
#435 = EDGE_CURVE ( 'NONE', #436, #1, #756, .T. ) ;
#436 = VERTEX_POINT ( 'NONE', #267 ) ;
#437 = LINE ( 'NONE', #718, #201 ) ;
#438 = FACE_OUTER_BOUND ( 'NONE', #359, .T. ) ;
#439 = ORIENTED_EDGE ( 'NONE', *, *, #227, .F. ) ;
#440 = VERTEX_POINT ( 'NONE', #700 ) ;
#441 = CARTESIAN_POINT ( 'NONE',  ( -42.79999999999999716, 209.8000000000000114, -42.79999999999986215 ) ) ;
#442 = ORIENTED_EDGE ( 'NONE', *, *, #481, .F. ) ;
#443 = CARTESIAN_POINT ( 'NONE',  ( 41.20000000000000995, 0.000000000000000000, -42.80000000000015348 ) ) ;
#444 = CARTESIAN_POINT ( 'NONE',  ( -33.40000000000001279, 101.7999999999999972, -44.79999999999987637 ) ) ;
#445 = ORIENTED_EDGE ( 'NONE', *, *, #23, .T. ) ;
#446 = DIRECTION ( 'NONE',  ( -3.469446951953614189E-15, 0.000000000000000000, -1.000000000000000000 ) ) ;
#447 = AXIS2_PLACEMENT_3D ( 'NONE', #398, #641, #339 ) ;
#448 = CARTESIAN_POINT ( 'NONE',  ( 6.799999999999985612, 101.7999999999999972, -44.79999999999986215 ) ) ;
#449 = EDGE_LOOP ( 'NONE', ( #286, #403, #389, #309 ) ) ;
#450 = CARTESIAN_POINT ( 'NONE',  ( 16.59999999999999076, 110.0000000000000000, -45.00000000000014921 ) ) ;
#451 = CARTESIAN_POINT ( 'NONE',  ( 42.00000000000000000, 2.196541502398952073, -44.70000000000015916 ) ) ;
#452 = ORIENTED_EDGE ( 'NONE', *, *, #594, .F. ) ;
#453 = FACE_OUTER_BOUND ( 'NONE', #449, .T. ) ;
#454 = EDGE_CURVE ( 'NONE', #214, #215, #385, .T. ) ;
#455 = ORIENTED_EDGE ( 'NONE', *, *, #583, .T. ) ;
#456 = DIRECTION ( 'NONE',  ( 0.000000000000000000, -1.000000000000000000, 0.000000000000000000 ) ) ;
#457 = LINE ( 'NONE', #576, #290 ) ;
#458 = CARTESIAN_POINT ( 'NONE',  ( -43.60000000000000853, 2.196541502398961399, -44.69999999999985363 ) ) ;
#459 = EDGE_CURVE ( 'NONE', #269, #384, #331, .T. ) ;
#460 = VECTOR ( 'NONE', #16, 1000.000000000000000 ) ;
#461 = CARTESIAN_POINT ( 'NONE',  ( -43.09117975177264270, 0.3205542730278456709, -43.20037215868724445 ) ) ;
#462 = ORIENTED_EDGE ( 'NONE', *, *, #185, .T. ) ;
#463 = EDGE_CURVE ( 'NONE', #40, #399, #687, .T. ) ;
#464 = SURFACE_SIDE_STYLE ('',( #581 ) ) ;
#465 = DIRECTION ( 'NONE',  ( -0.5881716976750502868, 0.000000000000000000, -0.8087360843031855540 ) ) ;
#466 = EDGE_CURVE ( 'NONE', #646, #675, #151, .T. ) ;
#467 = FILL_AREA_STYLE_COLOUR ( '', #530 ) ;
#468 = ADVANCED_FACE ( 'NONE', ( #224 ), #216, .F. ) ;
#469 = VERTEX_POINT ( 'NONE', #84 ) ;
#470 = AXIS2_PLACEMENT_3D ( 'NONE', #444, #613, #505 ) ;
#471 = SURFACE_SIDE_STYLE ('',( #416 ) ) ;
#472 = AXIS2_PLACEMENT_3D ( 'NONE', #138, #187, #369 ) ;
#473 = LINE ( 'NONE', #483, #616 ) ;
#474 = CARTESIAN_POINT ( 'NONE',  ( -33.40000000000001279, 101.7999999999999972, -44.79999999999987637 ) ) ;
#475 = CARTESIAN_POINT ( 'NONE',  ( -43.60000000000000853, 209.8000000000000114, -44.69999999999985363 ) ) ;
#476 = EDGE_CURVE ( 'NONE', #217, #366, #25, .T. ) ;
#477 = CARTESIAN_POINT ( 'NONE',  ( -8.400000000000012790, 101.7999999999999972, -43.59999999999985931 ) ) ;
#478 = VERTEX_POINT ( 'NONE', #550 ) ;
#479 = PLANE ( 'NONE',  #90 ) ;
#480 = FACE_OUTER_BOUND ( 'NONE', #231, .T. ) ;
#481 = EDGE_CURVE ( 'NONE', #320, #436, #732, .T. ) ;
#482 = ORIENTED_EDGE ( 'NONE', *, *, #171, .F. ) ;
#483 = CARTESIAN_POINT ( 'NONE',  ( -8.400000000000012790, 101.7999999999999972, -44.79999999999986215 ) ) ;
#484 = ORIENTED_EDGE ( 'NONE', *, *, #638, .F. ) ;
#485 = CARTESIAN_POINT ( 'NONE',  ( 41.20000000000000995, 209.8000000000000114, -42.80000000000015348 ) ) ;
#486 = CARTESIAN_POINT ( 'NONE',  ( 41.19999999999999574, 6.244997998398393868, -45.80000000000015348 ) ) ;
#487 = VERTEX_POINT ( 'NONE', #680 ) ;
#488 = LINE ( 'NONE', #246, #637 ) ;
#489 = DIRECTION ( 'NONE',  ( 0.5881716976750532844, -0.000000000000000000, 0.8087360843031833335 ) ) ;
#490 = ORIENTED_EDGE ( 'NONE', *, *, #2, .T. ) ;
#491 = CARTESIAN_POINT ( 'NONE',  ( 41.19999999999999574, 110.0000000000000000, -45.80000000000015348 ) ) ;
#492 = DIRECTION ( 'NONE',  ( 0.000000000000000000, -1.000000000000000000, 0.000000000000000000 ) ) ;
#493 = ORIENTED_EDGE ( 'NONE', *, *, #571, .T. ) ;
#494 = CARTESIAN_POINT ( 'NONE',  ( 41.20000000000003126, 6.244997998398399197, -37.80000000000015348 ) ) ;
#495 = FACE_OUTER_BOUND ( 'NONE', #142, .T. ) ;
#496 = VECTOR ( 'NONE', #213, 1000.000000000000000 ) ;
#497 = EDGE_LOOP ( 'NONE', ( #424, #45, #96, #197 ) ) ;
#498 = CARTESIAN_POINT ( 'NONE',  ( 16.59999999999999076, 110.0000000000000000, -45.00000000000014921 ) ) ;
#499 = FACE_OUTER_BOUND ( 'NONE', #429, .T. ) ;
#500 = EDGE_LOOP ( 'NONE', ( #62, #559, #280, #501 ) ) ;
#501 = ORIENTED_EDGE ( 'NONE', *, *, #454, .F. ) ;
#502 = CARTESIAN_POINT ( 'NONE',  ( 31.79999999999998650, 101.7999999999999972, -45.00000000000014921 ) ) ;
#503 = VERTEX_POINT ( 'NONE', #564 ) ;
#504 = DIRECTION ( 'NONE',  ( 0.000000000000000000, 0.000000000000000000, 1.000000000000000000 ) ) ;
#505 = DIRECTION ( 'NONE',  ( -1.000000000000000000, 0.000000000000000000, -4.565061778886335030E-16 ) ) ;
#506 = ORIENTED_EDGE ( 'NONE', *, *, #547, .F. ) ;
#507 = VECTOR ( 'NONE', #734, 1000.000000000000000 ) ;
#508 = CARTESIAN_POINT ( 'NONE',  ( 16.59999999999999076, 110.0000000000000000, -43.80000000000014637 ) ) ;
#509 = ORIENTED_EDGE ( 'NONE', *, *, #64, .F. ) ;
#510 = DIRECTION ( 'NONE',  ( 3.469446951953614189E-15, 0.000000000000000000, 1.000000000000000000 ) ) ;
#511 = CARTESIAN_POINT ( 'NONE',  ( 42.00000000000000711, 1.069092280555380858, -43.90000000000015490 ) ) ;
#512 = LINE ( 'NONE', #561, #208 ) ;
#513 = EDGE_CURVE ( 'NONE', #204, #272, #145, .T. ) ;
#514 = PLANE ( 'NONE',  #753 ) ;
#515 = VERTEX_POINT ( 'NONE', #260 ) ;
#516 = APPLICATION_CONTEXT ( 'automotive_design' ) ;
#517 = UNCERTAINTY_MEASURE_WITH_UNIT (LENGTH_MEASURE( 1.000000000000000082E-05 ), #708, 'distance_accuracy_value', 'NONE');
#518 = DIRECTION ( 'NONE',  ( 1.000000000000000000, 0.000000000000000000, -4.565061778886335030E-16 ) ) ;
#519 = DIRECTION ( 'NONE',  ( -0.000000000000000000, 0.000000000000000000, -1.000000000000000000 ) ) ;
#520 = ADVANCED_FACE ( 'NONE', ( #495 ), #739, .F. ) ;
#521 = VECTOR ( 'NONE', #310, 999.9999999999998863 ) ;
#522 = VECTOR ( 'NONE', #694, 1000.000000000000000 ) ;
#523 = LINE ( 'NONE', #394, #722 ) ;
#524 = ADVANCED_FACE ( 'NONE', ( #420 ), #353, .F. ) ;
#525 = VECTOR ( 'NONE', #699, 1000.000000000000000 ) ;
#526 = PRODUCT_DEFINITION_CONTEXT ( 'detailed design', #516, 'design' ) ;
#527 = DIRECTION ( 'NONE',  ( 0.000000000000000000, 0.000000000000000000, 1.000000000000000000 ) ) ;
#528 = VECTOR ( 'NONE', #330, 1000.000000000000000 ) ;
#529 = ADVANCED_FACE ( 'NONE', ( #296 ), #479, .F. ) ;
#530 = COLOUR_RGB ( '',0.7921568627450980005, 0.8196078431372548767, 0.9333333333333333481 ) ;
#531 = CIRCLE ( 'NONE', #289, 8.000000000000000000 ) ;
#532 = LINE ( 'NONE', #362, #124 ) ;
#533 = VECTOR ( 'NONE', #607, 1000.000000000000000 ) ;
#534 = PRESENTATION_STYLE_ASSIGNMENT (( #596 ) ) ;
#535 = DIRECTION ( 'NONE',  ( 4.565061778886335030E-16, 0.000000000000000000, 1.000000000000000000 ) ) ;
#536 = ADVANCED_FACE ( 'NONE', ( #181 ), #125, .F. ) ;
#537 = CARTESIAN_POINT ( 'NONE',  ( -43.60000000000000853, 110.0000000000000000, -43.89999999999985647 ) ) ;
#538 = VECTOR ( 'NONE', #504, 1000.000000000000000 ) ;
#539 = DIRECTION ( 'NONE',  ( 0.000000000000000000, 0.000000000000000000, 1.000000000000000000 ) ) ;
#540 = DIRECTION ( 'NONE',  ( 1.000000000000000000, 0.000000000000000000, -4.565061778886335030E-16 ) ) ;
#541 = DIRECTION ( 'NONE',  ( 1.000000000000000000, 0.000000000000000000, 0.000000000000000000 ) ) ;
#542 = FILL_AREA_STYLE ('',( #184 ) ) ;
#543 = ORIENTED_EDGE ( 'NONE', *, *, #383, .F. ) ;
#544 = DIRECTION ( 'NONE',  ( -1.000000000000000000, 0.000000000000000000, 0.000000000000000000 ) ) ;
#545 = DIRECTION ( 'NONE',  ( -1.000000000000000000, -0.000000000000000000, 3.491481338843133355E-15 ) ) ;
#546 = ORIENTED_EDGE ( 'NONE', *, *, #175, .F. ) ;
#547 = EDGE_CURVE ( 'NONE', #440, #307, #715, .T. ) ;
#548 = CARTESIAN_POINT ( 'NONE',  ( 42.00000000000000711, 110.0000000000000000, -43.90000000000015490 ) ) ;
#549 = COLOUR_RGB ( '',0.7921568627450980005, 0.8196078431372548767, 0.9333333333333333481 ) ;
#550 = CARTESIAN_POINT ( 'NONE',  ( 31.79999999999998650, 101.7999999999999972, -45.00000000000014921 ) ) ;
#551 = ORIENTED_EDGE ( 'NONE', *, *, #66, .F. ) ;
#552 = DIRECTION ( 'NONE',  ( -0.5881716976750446246, 0.000000000000000000, 0.8087360843031896618 ) ) ;
#553 = DIRECTION ( 'NONE',  ( -0.5881716976750532844, 0.000000000000000000, -0.8087360843031833335 ) ) ;
#554 = ORIENTED_EDGE ( 'NONE', *, *, #704, .T. ) ;
#555 = VERTEX_POINT ( 'NONE', #305 ) ;
#556 = CYLINDRICAL_SURFACE ( 'NONE', #593, 8.000000000000000000 ) ;
#557 = CARTESIAN_POINT ( 'NONE',  ( 16.59999999999999076, 110.0000000000000000, -45.00000000000014921 ) ) ;
#558 = STYLED_ITEM ( 'NONE', ( #590 ), #746 ) ;
#559 = ORIENTED_EDGE ( 'NONE', *, *, #435, .T. ) ;
#560 = LINE ( 'NONE', #619, #415 ) ;
#561 = CARTESIAN_POINT ( 'NONE',  ( 16.59999999999999076, 101.7999999999999972, -43.80000000000014637 ) ) ;
#562 = ORIENTED_EDGE ( 'NONE', *, *, #407, .T. ) ;
#563 = CARTESIAN_POINT ( 'NONE',  ( 31.79999999999998650, 110.0000000000000000, -43.80000000000013927 ) ) ;
#564 = CARTESIAN_POINT ( 'NONE',  ( -8.400000000000012790, 110.0000000000000000, -44.79999999999986215 ) ) ;
#565 = EDGE_LOOP ( 'NONE', ( #628, #678, #146, #102 ) ) ;
#566 = DIRECTION ( 'NONE',  ( 0.000000000000000000, 0.000000000000000000, 1.000000000000000000 ) ) ;
#567 = DIRECTION ( 'NONE',  ( -0.000000000000000000, 1.000000000000000000, -0.000000000000000000 ) ) ;
#568 = ORIENTED_EDGE ( 'NONE', *, *, #54, .F. ) ;
#569 = DIRECTION ( 'NONE',  ( 3.491481338843133355E-15, -0.000000000000000000, 1.000000000000000000 ) ) ;
#570 = DIRECTION ( 'NONE',  ( 0.000000000000000000, -1.000000000000000000, 0.000000000000000000 ) ) ;
#571 = EDGE_CURVE ( 'NONE', #40, #487, #414, .T. ) ;
#572 = DIRECTION ( 'NONE',  ( -0.000000000000000000, 1.000000000000000000, -0.000000000000000000 ) ) ;
#573 = DIRECTION ( 'NONE',  ( 0.000000000000000000, 0.000000000000000000, -1.000000000000000000 ) ) ;
#574 = VECTOR ( 'NONE', #566, 1000.000000000000000 ) ;
#575 = DIRECTION ( 'NONE',  ( 0.000000000000000000, 0.000000000000000000, 1.000000000000000000 ) ) ;
#576 = CARTESIAN_POINT ( 'NONE',  ( 16.59999999999999076, 101.7999999999999972, -45.00000000000014921 ) ) ;
#577 =( NAMED_UNIT ( * ) SI_UNIT ( $, .STERADIAN. ) SOLID_ANGLE_UNIT ( ) );
#578 = EDGE_CURVE ( 'NONE', #436, #214, #238, .T. ) ;
#579 = CARTESIAN_POINT ( 'NONE',  ( 16.59999999999999076, 101.7999999999999972, -45.00000000000014921 ) ) ;
#580 = VERTEX_POINT ( 'NONE', #73 ) ;
#581 = SURFACE_STYLE_FILL_AREA ( #650 ) ;
#582 = VECTOR ( 'NONE', #271, 1000.000000000000000 ) ;
#583 = EDGE_CURVE ( 'NONE', #608, #588, #473, .T. ) ;
#584 = LINE ( 'NONE', #283, #525 ) ;
#585 = VERTEX_POINT ( 'NONE', #355 ) ;
#586 = CARTESIAN_POINT ( 'NONE',  ( 0.000000000000000000, 0.000000000000000000, 0.000000000000000000 ) ) ;
#587 = VECTOR ( 'NONE', #665, 1000.000000000000000 ) ;
#588 = VERTEX_POINT ( 'NONE', #196 ) ;
#589 = VECTOR ( 'NONE', #635, 1000.000000000000000 ) ;
#590 = PRESENTATION_STYLE_ASSIGNMENT (( #118 ) ) ;
#591 = ADVANCED_FACE ( 'NONE', ( #603 ), #298, .F. ) ;
#592 = EDGE_CURVE ( 'NONE', #366, #503, #658, .T. ) ;
#593 = AXIS2_PLACEMENT_3D ( 'NONE', #494, #745, #446 ) ;
#594 = EDGE_CURVE ( 'NONE', #152, #43, #532, .T. ) ;
#595 = PRESENTATION_LAYER_ASSIGNMENT (  '', '', ( #558 ) ) ;
#596 = SURFACE_STYLE_USAGE ( .BOTH. , #471 ) ;
#597 = MANIFOLD_SOLID_BREP ( 'Cut-Extrude1', #86 ) ;
#598 = DIRECTION ( 'NONE',  ( 0.5881716976750446246, 0.000000000000000000, -0.8087360843031896618 ) ) ;
#599 = EDGE_CURVE ( 'NONE', #614, #266, #301, .T. ) ;
#600 = DIRECTION ( 'NONE',  ( 1.000000000000000000, 0.000000000000000000, 0.000000000000000000 ) ) ;
#601 = DIRECTION ( 'NONE',  ( 0.000000000000000000, -0.000000000000000000, 1.000000000000000000 ) ) ;
#602 = CARTESIAN_POINT ( 'NONE',  ( 41.47303512853192586, 3.431476155394186378, -45.42457669826875133 ) ) ;
#603 = FACE_OUTER_BOUND ( 'NONE', #684, .T. ) ;
#604 = EDGE_CURVE ( 'NONE', #162, #17, #42, .T. ) ;
#605 = EDGE_LOOP ( 'NONE', ( #568, #323, #326, #103 ) ) ;
#606 = CARTESIAN_POINT ( 'NONE',  ( -8.400000000000012790, 101.7999999999999972, -44.79999999999986215 ) ) ;
#607 = DIRECTION ( 'NONE',  ( 0.000000000000000000, -1.000000000000000000, 0.000000000000000000 ) ) ;
#608 = VERTEX_POINT ( 'NONE', #199 ) ;
#609 = CARTESIAN_POINT ( 'NONE',  ( -42.79999999999999716, 0.000000000000000000, -42.79999999999986215 ) ) ;
#610 = DIRECTION ( 'NONE',  ( -1.000000000000000000, -0.000000000000000000, -0.000000000000000000 ) ) ;
#611 = ORIENTED_EDGE ( 'NONE', *, *, #463, .F. ) ;
#612 = FACE_BOUND ( 'NONE', #736, .T. ) ;
#613 = DIRECTION ( 'NONE',  ( 4.565061778886335030E-16, 0.000000000000000000, -1.000000000000000000 ) ) ;
#614 = VERTEX_POINT ( 'NONE', #381 ) ;
#615 = ORIENTED_EDGE ( 'NONE', *, *, #123, .F. ) ;
#616 = VECTOR ( 'NONE', #539, 1000.000000000000000 ) ;
#617 = DIRECTION ( 'NONE',  ( -0.000000000000000000, 1.000000000000000000, -0.000000000000000000 ) ) ;
#618 = ORIENTED_EDGE ( 'NONE', *, *, #349, .T. ) ;
#619 = CARTESIAN_POINT ( 'NONE',  ( -18.20000000000001350, 101.7999999999999972, -43.59999999999986642 ) ) ;
#620 = DIRECTION ( 'NONE',  ( 0.5881716976750502868, 0.000000000000000000, 0.8087360843031855540 ) ) ;
#621 = VERTEX_POINT ( 'NONE', #88 ) ;
#622 = VECTOR ( 'NONE', #335, 1000.000000000000000 ) ;
#623 = ORIENTED_EDGE ( 'NONE', *, *, #383, .T. ) ;
#624 = DIRECTION ( 'NONE',  ( -1.000000000000000000, 0.000000000000000000, 3.491481338843133355E-15 ) ) ;
#625 = ORIENTED_EDGE ( 'NONE', *, *, #412, .T. ) ;
#626 = FACE_OUTER_BOUND ( 'NONE', #605, .T. ) ;
#627 = DIRECTION ( 'NONE',  ( -0.000000000000000000, 1.000000000000000000, -0.000000000000000000 ) ) ;
#628 = ORIENTED_EDGE ( 'NONE', *, *, #349, .F. ) ;
#629 = LINE ( 'NONE', #252, #528 ) ;
#630 = ADVANCED_FACE ( 'NONE', ( #365 ), #431, .F. ) ;
#631 = DIRECTION ( 'NONE',  ( -0.000000000000000000, 1.000000000000000000, -0.000000000000000000 ) ) ;
#632 = CARTESIAN_POINT ( 'NONE',  ( 0.000000000000000000, 101.7999999999999972, 0.000000000000000000 ) ) ;
#633 = CARTESIAN_POINT ( 'NONE',  ( 31.79999999999998650, 101.7999999999999972, -45.00000000000014921 ) ) ;
#634 = ORIENTED_EDGE ( 'NONE', *, *, #165, .F. ) ;
#635 = DIRECTION ( 'NONE',  ( -0.000000000000000000, -0.000000000000000000, -1.000000000000000000 ) ) ;
#636 = ORIENTED_EDGE ( 'NONE', *, *, #459, .F. ) ;
#637 = VECTOR ( 'NONE', #569, 1000.000000000000000 ) ;
#638 = EDGE_CURVE ( 'NONE', #675, #555, #374, .T. ) ;
#639 = PLANE ( 'NONE',  #274 ) ;
#640 = APPLICATION_PROTOCOL_DEFINITION ( 'draft international standard', 'automotive_design', 1998, #516 ) ;
#641 = DIRECTION ( 'NONE',  ( -1.000000000000000000, 0.000000000000000000, 0.000000000000000000 ) ) ;
#642 = ORIENTED_EDGE ( 'NONE', *, *, #396, .F. ) ;
#643 = VECTOR ( 'NONE', #598, 1000.000000000000114 ) ;
#644 =( NAMED_UNIT ( * ) SI_UNIT ( $, .STERADIAN. ) SOLID_ANGLE_UNIT ( ) );
#645 = CARTESIAN_POINT ( 'NONE',  ( 16.59999999999999076, 101.7999999999999972, -45.00000000000014921 ) ) ;
#646 = VERTEX_POINT ( 'NONE', #393 ) ;
#647 = VECTOR ( 'NONE', #81, 1000.000000000000000 ) ;
#648 = LINE ( 'NONE', #273, #589 ) ;
#649 = ORIENTED_EDGE ( 'NONE', *, *, #571, .F. ) ;
#650 = FILL_AREA_STYLE ('',( #467 ) ) ;
#651 = EDGE_CURVE ( 'NONE', #469, #478, #729, .T. ) ;
#652 = ORIENTED_EDGE ( 'NONE', *, *, #178, .F. ) ;
#653 = EDGE_CURVE ( 'NONE', #478, #99, #697, .T. ) ;
#654 = VECTOR ( 'NONE', #325, 1000.000000000000000 ) ;
#655 = CARTESIAN_POINT ( 'NONE',  ( -8.400000000000012790, 110.0000000000000000, -44.79999999999986215 ) ) ;
#656 = ADVANCED_FACE ( 'NONE', ( #499 ), #160, .F. ) ;
#657 =( GEOMETRIC_REPRESENTATION_CONTEXT ( 3 ) GLOBAL_UNCERTAINTY_ASSIGNED_CONTEXT ( ( #517 ) ) GLOBAL_UNIT_ASSIGNED_CONTEXT ( ( #708, #406, #644 ) ) REPRESENTATION_CONTEXT ( 'NONE', 'WORKASPACE' ) );
#658 = LINE ( 'NONE', #655, #686 ) ;
#659 = PLANE ( 'NONE',  #336 ) ;
#660 = DIRECTION ( 'NONE',  ( 3.491481338843133355E-15, 0.000000000000000000, 1.000000000000000000 ) ) ;
#661 = CARTESIAN_POINT ( 'NONE',  ( 0.000000000000000000, 110.0000000000000000, 0.000000000000000000 ) ) ;
#662 = DIRECTION ( 'NONE',  ( 1.000000000000000000, 0.000000000000000000, 4.565061778886335030E-16 ) ) ;
#663 = ADVANCED_FACE ( 'NONE', ( #315 ), #750, .F. ) ;
#664 = AXIS2_PLACEMENT_3D ( 'NONE', #632, #332, #338 ) ;
#665 = DIRECTION ( 'NONE',  ( 1.000000000000000000, 0.000000000000000000, -3.491481338843133750E-15 ) ) ;
#666 =( BOUNDED_CURVE ( )  B_SPLINE_CURVE ( 3, ( #685, #602, #83, #720 ),
 .UNSPECIFIED., .F., .T. ) 
 B_SPLINE_CURVE_WITH_KNOTS ( ( 4, 4 ),
 ( 2.610985549164212660, 3.141592653589793116 ),
 .UNSPECIFIED. ) 
 CURVE ( )  GEOMETRIC_REPRESENTATION_ITEM ( )  RATIONAL_B_SPLINE_CURVE ( ( 1.000000000000000000, 0.9766753021872924823, 0.9766753021872924823, 1.000000000000000000 ) ) 
 REPRESENTATION_ITEM ( '' )  );
#667 = ORIENTED_EDGE ( 'NONE', *, *, #360, .F. ) ;
#668 = CARTESIAN_POINT ( 'NONE',  ( 16.59999999999999076, 101.7999999999999972, -43.80000000000014637 ) ) ;
#669 = CARTESIAN_POINT ( 'NONE',  ( -8.400000000000012790, 101.7999999999999972, -44.79999999999986215 ) ) ;
#670 = VERTEX_POINT ( 'NONE', #219 ) ;
#671 =( BOUNDED_CURVE ( )  B_SPLINE_CURVE ( 3, ( #226, #288, #461, #169 ),
 .UNSPECIFIED., .F., .T. ) 
 B_SPLINE_CURVE_WITH_KNOTS ( ( 4, 4 ),
 ( 3.845220556330932293, 4.037257447447657910 ),
 .UNSPECIFIED. ) 
 CURVE ( )  GEOMETRIC_REPRESENTATION_ITEM ( )  RATIONAL_B_SPLINE_CURVE ( ( 1.000000000000000000, 0.9969291797551544931, 0.9969291797551544931, 1.000000000000000000 ) ) 
 REPRESENTATION_ITEM ( '' )  );
#672 = EDGE_LOOP ( 'NONE', ( #29, #191, #139, #623 ) ) ;
#673 = EDGE_CURVE ( 'NONE', #307, #670, #117, .T. ) ;
#674 = DIRECTION ( 'NONE',  ( 0.000000000000000000, 0.000000000000000000, -1.000000000000000000 ) ) ;
#675 = VERTEX_POINT ( 'NONE', #322 ) ;
#676 = LINE ( 'NONE', #477, #709 ) ;
#677 = DIRECTION ( 'NONE',  ( -1.000000000000000000, -0.000000000000000000, 3.491481338843133355E-15 ) ) ;
#678 = ORIENTED_EDGE ( 'NONE', *, *, #740, .T. ) ;
#679 = AXIS2_PLACEMENT_3D ( 'NONE', #669, #573, #108 ) ;
#680 = CARTESIAN_POINT ( 'NONE',  ( 42.00000000000000000, 110.0000000000000000, -44.70000000000015916 ) ) ;
#681 = ORIENTED_EDGE ( 'NONE', *, *, #11, .T. ) ;
#682 = DIRECTION ( 'NONE',  ( -1.000000000000000000, -0.000000000000000000, -0.000000000000000000 ) ) ;
#683 = LINE ( 'NONE', #690, #647 ) ;
#684 = EDGE_LOOP ( 'NONE', ( #368, #37, #133, #376 ) ) ;
#685 = CARTESIAN_POINT ( 'NONE',  ( 42.00000000000000000, 2.196541502398952073, -44.70000000000015916 ) ) ;
#686 = VECTOR ( 'NONE', #610, 1000.000000000000000 ) ;
#687 = LINE ( 'NONE', #391, #149 ) ;
#688 = ORIENTED_EDGE ( 'NONE', *, *, #268, .F. ) ;
#689 = CARTESIAN_POINT ( 'NONE',  ( 41.20000000000000995, 110.0000000000000000, -42.80000000000015348 ) ) ;
#690 = CARTESIAN_POINT ( 'NONE',  ( 6.799999999999986500, 101.7999999999999972, -43.59999999999985931 ) ) ;
#691 = VERTEX_POINT ( 'NONE', #451 ) ;
#692 = ADVANCED_FACE ( 'NONE', ( #438 ), #36, .F. ) ;
#693 = FACE_OUTER_BOUND ( 'NONE', #433, .T. ) ;
#694 = DIRECTION ( 'NONE',  ( -1.000000000000000000, -0.000000000000000000, -0.000000000000000000 ) ) ;
#695 = ORIENTED_EDGE ( 'NONE', *, *, #592, .T. ) ;
#696 = DIRECTION ( 'NONE',  ( -0.000000000000000000, 1.000000000000000000, -0.000000000000000000 ) ) ;
#697 = LINE ( 'NONE', #333, #405 ) ;
#698 = ORIENTED_EDGE ( 'NONE', *, *, #268, .T. ) ;
#699 = DIRECTION ( 'NONE',  ( -0.000000000000000000, 1.000000000000000000, -0.000000000000000000 ) ) ;
#700 = CARTESIAN_POINT ( 'NONE',  ( -43.60000000000000853, 110.0000000000000000, -44.69999999999985363 ) ) ;
#701 = LINE ( 'NONE', #450, #538 ) ;
#702 = CARTESIAN_POINT ( 'NONE',  ( 42.00000000000000000, 110.0000000000000000, -44.70000000000015916 ) ) ;
#703 = VECTOR ( 'NONE', #465, 1000.000000000000000 ) ;
#704 = EDGE_CURVE ( 'NONE', #487, #691, #256, .T. ) ;
#705 = VECTOR ( 'NONE', #631, 1000.000000000000000 ) ;
#706 = CARTESIAN_POINT ( 'NONE',  ( 31.79999999999998650, 110.0000000000000000, -45.00000000000014921 ) ) ;
#707 = DIRECTION ( 'NONE',  ( 0.000000000000000000, 0.000000000000000000, 1.000000000000000000 ) ) ;
#708 =( LENGTH_UNIT ( ) NAMED_UNIT ( * ) SI_UNIT ( .MILLI., .METRE. ) );
#709 = VECTOR ( 'NONE', #600, 1000.000000000000000 ) ;
#710 = ORIENTED_EDGE ( 'NONE', *, *, #123, .T. ) ;
#711 = EDGE_CURVE ( 'NONE', #580, #17, #264, .T. ) ;
#712 = VECTOR ( 'NONE', #677, 1000.000000000000000 ) ;
#713 = CARTESIAN_POINT ( 'NONE',  ( 42.00000000000000711, 209.8000000000000114, -43.90000000000015490 ) ) ;
#714 = VECTOR ( 'NONE', #456, 1000.000000000000000 ) ;
#715 = LINE ( 'NONE', #475, #182 ) ;
#716 = LINE ( 'NONE', #474, #114 ) ;
#717 = CARTESIAN_POINT ( 'NONE',  ( 42.00000000000000711, 110.0000000000000000, -43.90000000000015490 ) ) ;
#718 = CARTESIAN_POINT ( 'NONE',  ( -8.400000000000012790, 110.0000000000000000, -44.79999999999986215 ) ) ;
#719 = EDGE_CURVE ( 'NONE', #515, #646, #735, .T. ) ;
#720 = CARTESIAN_POINT ( 'NONE',  ( 41.19999999999999574, 6.244997998398399197, -45.80000000000015348 ) ) ;
#721 = DIRECTION ( 'NONE',  ( 1.000000000000000000, 0.000000000000000000, -3.491481338843133355E-15 ) ) ;
#722 = VECTOR ( 'NONE', #707, 1000.000000000000000 ) ;
#723 = CARTESIAN_POINT ( 'NONE',  ( 6.799999999999986500, 101.7999999999999972, -43.59999999999985931 ) ) ;
#724 = EDGE_CURVE ( 'NONE', #621, #152, #512, .T. ) ;
#725 = ORIENTED_EDGE ( 'NONE', *, *, #604, .F. ) ;
#726 = CARTESIAN_POINT ( 'NONE',  ( 41.19999999999999574, 209.8000000000000114, -45.80000000000015348 ) ) ;
#727 = ORIENTED_EDGE ( 'NONE', *, *, #54, .T. ) ;
#728 = DIRECTION ( 'NONE',  ( -0.8087360843031896618, 0.000000000000000000, -0.5881716976750446246 ) ) ;
#729 = LINE ( 'NONE', #633, #342 ) ;
#730 = ORIENTED_EDGE ( 'NONE', *, *, #463, .T. ) ;
#731 = CARTESIAN_POINT ( 'NONE',  ( 16.59999999999999076, 101.7999999999999972, -43.80000000000014637 ) ) ;
#732 = LINE ( 'NONE', #253, #765 ) ;
#733 = ORIENTED_EDGE ( 'NONE', *, *, #578, .T. ) ;
#734 = DIRECTION ( 'NONE',  ( -1.000000000000000000, 0.000000000000000000, 3.491481338843133750E-15 ) ) ;
#735 = LINE ( 'NONE', #743, #6 ) ;
#736 = EDGE_LOOP ( 'NONE', ( #667, #26, #265, #636 ) ) ;
#737 = EDGE_LOOP ( 'NONE', ( #287, #137, #698, #611 ) ) ;
#738 = VECTOR ( 'NONE', #627, 1000.000000000000000 ) ;
#739 = PLANE ( 'NONE',  #60 ) ;
#740 = EDGE_CURVE ( 'NONE', #386, #162, #19, .T. ) ;
#741 = VERTEX_POINT ( 'NONE', #147 ) ;
#742 = LINE ( 'NONE', #35, #574 ) ;
#743 = CARTESIAN_POINT ( 'NONE',  ( -18.20000000000001350, 101.7999999999999972, -44.79999999999986926 ) ) ;
#744 = ORIENTED_EDGE ( 'NONE', *, *, #106, .F. ) ;
#745 = DIRECTION ( 'NONE',  ( 1.000000000000000000, 0.000000000000000000, -3.491481338843133355E-15 ) ) ;
#746 = ADVANCED_BREP_SHAPE_REPRESENTATION ( 'Dhakkan 2', ( #597, #352 ), #657 ) ;
#747 = FACE_OUTER_BOUND ( 'NONE', #220, .T. ) ;
#748 = ORIENTED_EDGE ( 'NONE', *, *, #396, .T. ) ;
#749 = CARTESIAN_POINT ( 'NONE',  ( -8.400000000000012790, 101.7999999999999972, -44.79999999999986215 ) ) ;
#750 = PLANE ( 'NONE',  #237 ) ;
#751 = ORIENTED_EDGE ( 'NONE', *, *, #235, .T. ) ;
#752 = EDGE_LOOP ( 'NONE', ( #313, #484, #228, #642 ) ) ;
#753 = AXIS2_PLACEMENT_3D ( 'NONE', #579, #401, #575 ) ;
#754 = CARTESIAN_POINT ( 'NONE',  ( 41.19999999999999574, 6.244997998398399197, -45.80000000000015348 ) ) ;
#755 = EDGE_LOOP ( 'NONE', ( #649, #730, #562, #344 ) ) ;
#756 = LINE ( 'NONE', #441, #714 ) ;
#757 = CARTESIAN_POINT ( 'NONE',  ( -43.60000000000000853, 209.8000000000000114, -43.89999999999985647 ) ) ;
#758 = CARTESIAN_POINT ( 'NONE',  ( 41.19999999999999574, 209.8000000000000114, -45.80000000000015348 ) ) ;
#759 = CARTESIAN_POINT ( 'NONE',  ( -42.80000000000001847, 4.813189705070597846, -45.79999999999986215 ) ) ;
#760 = EDGE_CURVE ( 'NONE', #340, #384, #683, .T. ) ;
#761 =( LENGTH_UNIT ( ) NAMED_UNIT ( * ) SI_UNIT ( .MILLI., .METRE. ) );
#762 = PLANE ( 'NONE',  #447 ) ;
#763 = AXIS2_PLACEMENT_3D ( 'NONE', #304, #419, #541 ) ;
#764 = ORIENTED_EDGE ( 'NONE', *, *, #221, .F. ) ;
#765 = VECTOR ( 'NONE', #489, 1000.000000000000000 ) ;
#766 =( BOUNDED_CURVE ( )  B_SPLINE_CURVE ( 3, ( #232, #759, #113, #458 ),
 .UNSPECIFIED., .F., .T. ) 
 B_SPLINE_CURVE_WITH_KNOTS ( ( 4, 4 ),
 ( 0.000000000000000000, 0.5306071044255791236 ),
 .UNSPECIFIED. ) 
 CURVE ( )  GEOMETRIC_REPRESENTATION_ITEM ( )  RATIONAL_B_SPLINE_CURVE ( ( 1.000000000000000000, 0.9766753021872928153, 0.9766753021872928153, 1.000000000000000000 ) ) 
 REPRESENTATION_ITEM ( '' )  );
ENDSEC;
END-ISO-10303-21;
