ISO-10303-21;
HEADER;
FILE_DESCRIPTION (( 'STEP AP214' ),
    '1' );
FILE_NAME ('Partition.STEP',
    '2026-04-26T13:26:21',
    ( '' ),
    ( '' ),
    'SwSTEP 2.0',
    'SolidWorks 2022',
    '' );
FILE_SCHEMA (( 'AUTOMOTIVE_DESIGN' ));
ENDSEC;

DATA;
#1 = VECTOR ( 'NONE', #132, 1000.000000000000000 ) ;
#2 = EDGE_CURVE ( 'NONE', #73, #470, #81, .T. ) ;
#3 = VERTEX_POINT ( 'NONE', #442 ) ;
#4 = AXIS2_PLACEMENT_3D ( 'NONE', #1034, #272, #718 ) ;
#5 = ORIENTED_EDGE ( 'NONE', *, *, #115, .T. ) ;
#6 = CARTESIAN_POINT ( 'NONE',  ( 33.04915760214223752, 9.800000000000000711, 0.000000000000000000 ) ) ;
#7 = DIRECTION ( 'NONE',  ( 1.000000000000000000, 0.000000000000000000, 0.000000000000000000 ) ) ;
#8 = DIRECTION ( 'NONE',  ( 0.000000000000000000, 0.000000000000000000, 1.000000000000000000 ) ) ;
#9 = ORIENTED_EDGE ( 'NONE', *, *, #248, .F. ) ;
#10 = DIRECTION ( 'NONE',  ( -0.000000000000000000, -0.000000000000000000, 1.000000000000000000 ) ) ;
#11 = EDGE_LOOP ( 'NONE', ( #316, #318, #157, #102 ) ) ;
#12 = CARTESIAN_POINT ( 'NONE',  ( 0.000000000000000000, 26.80000000000000071, 1.199999999999999956 ) ) ;
#13 = ORIENTED_EDGE ( 'NONE', *, *, #206, .T. ) ;
#14 = VERTEX_POINT ( 'NONE', #265 ) ;
#15 = FILL_AREA_STYLE_COLOUR ( '', #271 ) ;
#16 = VERTEX_POINT ( 'NONE', #190 ) ;
#17 = VECTOR ( 'NONE', #150, 1000.000000000000000 ) ;
#18 = AXIS2_PLACEMENT_3D ( 'NONE', #372, #278, #890 ) ;
#19 = ORIENTED_EDGE ( 'NONE', *, *, #953, .F. ) ;
#20 = CARTESIAN_POINT ( 'NONE',  ( 39.04915760214223752, 19.80000000000000071, 0.000000000000000000 ) ) ;
#21 = EDGE_LOOP ( 'NONE', ( #195, #772, #303, #367 ) ) ;
#22 = DIRECTION ( 'NONE',  ( 0.000000000000000000, 1.000000000000000000, 0.000000000000000000 ) ) ;
#23 = ORIENTED_EDGE ( 'NONE', *, *, #38, .F. ) ;
#24 = EDGE_CURVE ( 'NONE', #818, #978, #261, .T. ) ;
#25 =( NAMED_UNIT ( * ) SI_UNIT ( $, .STERADIAN. ) SOLID_ANGLE_UNIT ( ) );
#26 = LINE ( 'NONE', #247, #257 ) ;
#27 = SURFACE_STYLE_FILL_AREA ( #839 ) ;
#28 = VERTEX_POINT ( 'NONE', #867 ) ;
#29 = CARTESIAN_POINT ( 'NONE',  ( 29.04915760214223752, 19.80000000000000071, 0.000000000000000000 ) ) ;
#30 = LINE ( 'NONE', #931, #288 ) ;
#31 = EDGE_CURVE ( 'NONE', #14, #237, #720, .T. ) ;
#32 = VECTOR ( 'NONE', #130, 1000.000000000000000 ) ;
#33 = ORIENTED_EDGE ( 'NONE', *, *, #579, .F. ) ;
#34 = CARTESIAN_POINT ( 'NONE',  ( 0.000000000000000000, 23.80000000000000071, 1.199999999999999956 ) ) ;
#35 = AXIS2_PLACEMENT_3D ( 'NONE', #338, #1011, #103 ) ;
#36 = AXIS2_PLACEMENT_3D ( 'NONE', #387, #377, #1056 ) ;
#37 = CIRCLE ( 'NONE', #596, 2.999999999999995559 ) ;
#38 = EDGE_CURVE ( 'NONE', #854, #856, #764, .T. ) ;
#39 = CARTESIAN_POINT ( 'NONE',  ( 26.04915760214223752, 19.80000000000000071, 0.000000000000000000 ) ) ;
#40 = ORIENTED_EDGE ( 'NONE', *, *, #987, .T. ) ;
#41 = CARTESIAN_POINT ( 'NONE',  ( 46.04915760214223752, 19.80000000000000071, 0.000000000000000000 ) ) ;
#42 = ORIENTED_EDGE ( 'NONE', *, *, #1012, .F. ) ;
#43 = ADVANCED_FACE ( 'NONE', ( #516 ), #771, .F. ) ;
#44 = CARTESIAN_POINT ( 'NONE',  ( 19.04915760214223752, 19.80000000000000071, 0.000000000000000000 ) ) ;
#45 = VERTEX_POINT ( 'NONE', #180 ) ;
#46 = CIRCLE ( 'NONE', #781, 3.000000000000002665 ) ;
#47 =( GEOMETRIC_REPRESENTATION_CONTEXT ( 3 ) GLOBAL_UNCERTAINTY_ASSIGNED_CONTEXT ( ( #361 ) ) GLOBAL_UNIT_ASSIGNED_CONTEXT ( ( #905, #661, #733 ) ) REPRESENTATION_CONTEXT ( 'NONE', 'WORKASPACE' ) );
#48 = AXIS2_PLACEMENT_3D ( 'NONE', #454, #71, #1044 ) ;
#49 = FACE_BOUND ( 'NONE', #306, .T. ) ;
#50 = FACE_OUTER_BOUND ( 'NONE', #222, .T. ) ;
#51 = EDGE_LOOP ( 'NONE', ( #439, #1004 ) ) ;
#52 = EDGE_CURVE ( 'NONE', #901, #826, #185, .T. ) ;
#53 = DIRECTION ( 'NONE',  ( 0.000000000000000000, 0.000000000000000000, 1.000000000000000000 ) ) ;
#54 = DIRECTION ( 'NONE',  ( -0.000000000000000000, -0.000000000000000000, 1.000000000000000000 ) ) ;
#55 = DIRECTION ( 'NONE',  ( 1.000000000000000000, 0.000000000000000000, 0.000000000000000000 ) ) ;
#56 = ORIENTED_EDGE ( 'NONE', *, *, #555, .T. ) ;
#57 = DIRECTION ( 'NONE',  ( -0.000000000000000000, -0.000000000000000000, 1.000000000000000000 ) ) ;
#58 = EDGE_CURVE ( 'NONE', #926, #948, #858, .T. ) ;
#59 = CYLINDRICAL_SURFACE ( 'NONE', #401, 2.999999999999995559 ) ;
#60 = DIRECTION ( 'NONE',  ( 0.000000000000000000, 0.000000000000000000, 1.000000000000000000 ) ) ;
#61 = ORIENTED_EDGE ( 'NONE', *, *, #929, .T. ) ;
#62 = CARTESIAN_POINT ( 'NONE',  ( 0.000000000000000000, 0.000000000000000000, 0.000000000000000000 ) ) ;
#63 = CARTESIAN_POINT ( 'NONE',  ( 43.04915760214223752, 9.800000000000000711, 0.000000000000000000 ) ) ;
#64 = DIRECTION ( 'NONE',  ( 0.000000000000000000, 0.000000000000000000, 1.000000000000000000 ) ) ;
#65 = CIRCLE ( 'NONE', #111, 2.999999999999999112 ) ;
#66 = EDGE_CURVE ( 'NONE', #901, #16, #205, .T. ) ;
#67 = DIRECTION ( 'NONE',  ( 1.000000000000000000, 0.000000000000000000, 0.000000000000000000 ) ) ;
#68 = AXIS2_PLACEMENT_3D ( 'NONE', #284, #621, #263 ) ;
#69 = DIRECTION ( 'NONE',  ( 1.000000000000000000, 0.000000000000000000, 0.000000000000000000 ) ) ;
#70 = ORIENTED_EDGE ( 'NONE', *, *, #2, .F. ) ;
#71 = DIRECTION ( 'NONE',  ( 0.000000000000000000, 0.000000000000000000, 1.000000000000000000 ) ) ;
#72 = CARTESIAN_POINT ( 'NONE',  ( 13.04915760214224285, 19.80000000000000071, 0.000000000000000000 ) ) ;
#73 = VERTEX_POINT ( 'NONE', #354 ) ;
#74 = DIRECTION ( 'NONE',  ( -0.000000000000000000, -0.000000000000000000, 1.000000000000000000 ) ) ;
#75 = EDGE_CURVE ( 'NONE', #3, #14, #689, .T. ) ;
#76 = DIRECTION ( 'NONE',  ( -1.000000000000000000, 0.000000000000000000, 0.000000000000000000 ) ) ;
#77 = CARTESIAN_POINT ( 'NONE',  ( 19.04915760214223752, 9.800000000000000711, 0.000000000000000000 ) ) ;
#78 = EDGE_LOOP ( 'NONE', ( #241, #539, #167, #857 ) ) ;
#79 = ORIENTED_EDGE ( 'NONE', *, *, #791, .F. ) ;
#80 = EDGE_CURVE ( 'NONE', #615, #45, #834, .T. ) ;
#81 = CIRCLE ( 'NONE', #627, 3.000000000000002665 ) ;
#82 = DIRECTION ( 'NONE',  ( -0.000000000000000000, -0.000000000000000000, 1.000000000000000000 ) ) ;
#83 = CIRCLE ( 'NONE', #831, 3.000000000000002665 ) ;
#84 = SURFACE_SIDE_STYLE ('',( #657 ) ) ;
#85 = ORIENTED_EDGE ( 'NONE', *, *, #344, .T. ) ;
#86 = AXIS2_PLACEMENT_3D ( 'NONE', #667, #832, #87 ) ;
#87 = DIRECTION ( 'NONE',  ( 0.000000000000000000, -0.000000000000000000, 1.000000000000000000 ) ) ;
#88 = EDGE_LOOP ( 'NONE', ( #917, #181, #413, #139 ) ) ;
#89 = PLANE ( 'NONE',  #124 ) ;
#90 = ORIENTED_EDGE ( 'NONE', *, *, #825, .F. ) ;
#91 = EDGE_CURVE ( 'NONE', #591, #28, #26, .T. ) ;
#92 = ORIENTED_EDGE ( 'NONE', *, *, #2, .T. ) ;
#93 = ORIENTED_EDGE ( 'NONE', *, *, #38, .T. ) ;
#94 = VERTEX_POINT ( 'NONE', #527 ) ;
#95 = EDGE_CURVE ( 'NONE', #410, #110, #252, .T. ) ;
#96 = ORIENTED_EDGE ( 'NONE', *, *, #1013, .F. ) ;
#97 = VECTOR ( 'NONE', #312, 1000.000000000000000 ) ;
#98 = AXIS2_PLACEMENT_3D ( 'NONE', #860, #1041, #448 ) ;
#99 = DIRECTION ( 'NONE',  ( -0.000000000000000000, -0.000000000000000000, 1.000000000000000000 ) ) ;
#100 = ORIENTED_EDGE ( 'NONE', *, *, #882, .F. ) ;
#101 = CARTESIAN_POINT ( 'NONE',  ( 0.000000000000000000, 0.000000000000000000, 1.199999999999999956 ) ) ;
#102 = ORIENTED_EDGE ( 'NONE', *, *, #1025, .T. ) ;
#103 = DIRECTION ( 'NONE',  ( 1.000000000000000000, 0.000000000000000000, 0.000000000000000000 ) ) ;
#104 = ADVANCED_FACE ( 'NONE', ( #786 ), #1028, .F. ) ;
#105 = DIRECTION ( 'NONE',  ( -0.000000000000000000, -0.000000000000000000, 1.000000000000000000 ) ) ;
#106 = EDGE_LOOP ( 'NONE', ( #42, #937 ) ) ;
#107 = ADVANCED_FACE ( 'NONE', ( #678 ), #594, .F. ) ;
#108 = DIRECTION ( 'NONE',  ( 1.000000000000000000, 0.000000000000000000, 0.000000000000000000 ) ) ;
#109 = CIRCLE ( 'NONE', #434, 2.999999999999999112 ) ;
#110 = VERTEX_POINT ( 'NONE', #704 ) ;
#111 = AXIS2_PLACEMENT_3D ( 'NONE', #281, #623, #549 ) ;
#112 = DIRECTION ( 'NONE',  ( -0.000000000000000000, -0.000000000000000000, 1.000000000000000000 ) ) ;
#113 = VERTEX_POINT ( 'NONE', #1060 ) ;
#114 = CARTESIAN_POINT ( 'NONE',  ( 36.04915760214223752, 9.800000000000000711, 0.000000000000000000 ) ) ;
#115 = EDGE_CURVE ( 'NONE', #315, #221, #536, .T. ) ;
#116 = VERTEX_POINT ( 'NONE', #44 ) ;
#117 = FACE_BOUND ( 'NONE', #307, .T. ) ;
#118 = LINE ( 'NONE', #447, #836 ) ;
#119 = CARTESIAN_POINT ( 'NONE',  ( 6.049157602142238410, 9.800000000000000711, 1.199999999999999956 ) ) ;
#120 = ADVANCED_FACE ( 'NONE', ( #283 ), #59, .F. ) ;
#121 = EDGE_LOOP ( 'NONE', ( #169, #128, #859, #5 ) ) ;
#122 = CLOSED_SHELL ( 'NONE', ( #874, #509, #104, #428, #120, #992, #186, #773, #107, #334, #296, #956, #616, #717, #945, #870, #451, #472, #220, #692, #1030, #193, #531, #891, #43, #440, #446, #431, #805, #462 ) ) ;
#123 = VECTOR ( 'NONE', #376, 1000.000000000000000 ) ;
#124 = AXIS2_PLACEMENT_3D ( 'NONE', #408, #333, #245 ) ;
#125 = DIRECTION ( 'NONE',  ( 1.000000000000000000, 0.000000000000000000, 0.000000000000000000 ) ) ;
#126 = LINE ( 'NONE', #617, #250 ) ;
#127 = DIRECTION ( 'NONE',  ( 0.000000000000000000, 0.000000000000000000, 1.000000000000000000 ) ) ;
#128 = ORIENTED_EDGE ( 'NONE', *, *, #918, .F. ) ;
#129 = LINE ( 'NONE', #534, #1073 ) ;
#130 = DIRECTION ( 'NONE',  ( 1.000000000000000000, 0.000000000000000000, 0.000000000000000000 ) ) ;
#131 = PRODUCT ( 'Partition', 'Partition', '', ( #576 ) ) ;
#132 = DIRECTION ( 'NONE',  ( -0.000000000000000000, -0.000000000000000000, -1.000000000000000000 ) ) ;
#133 = LINE ( 'NONE', #705, #495 ) ;
#134 = ORIENTED_EDGE ( 'NONE', *, *, #308, .T. ) ;
#135 = EDGE_CURVE ( 'NONE', #116, #489, #386, .T. ) ;
#136 = CARTESIAN_POINT ( 'NONE',  ( 0.000000000000000000, 0.000000000000000000, 1.199999999999999956 ) ) ;
#137 = FACE_BOUND ( 'NONE', #505, .T. ) ;
#138 = PLANE ( 'NONE',  #362 ) ;
#139 = ORIENTED_EDGE ( 'NONE', *, *, #211, .F. ) ;
#140 = FACE_OUTER_BOUND ( 'NONE', #210, .T. ) ;
#141 = CYLINDRICAL_SURFACE ( 'NONE', #798, 2.999999999999999112 ) ;
#142 = CIRCLE ( 'NONE', #897, 3.000000000000002665 ) ;
#143 = AXIS2_PLACEMENT_3D ( 'NONE', #751, #322, #156 ) ;
#144 = CYLINDRICAL_SURFACE ( 'NONE', #311, 2.999999999999995559 ) ;
#145 = LINE ( 'NONE', #302, #561 ) ;
#146 = ORIENTED_EDGE ( 'NONE', *, *, #162, .F. ) ;
#147 = DIRECTION ( 'NONE',  ( 0.000000000000000000, 0.000000000000000000, 1.000000000000000000 ) ) ;
#148 = DIRECTION ( 'NONE',  ( 0.000000000000000000, 0.000000000000000000, 1.000000000000000000 ) ) ;
#149 = DIRECTION ( 'NONE',  ( 1.000000000000000000, 0.000000000000000000, 0.000000000000000000 ) ) ;
#150 = DIRECTION ( 'NONE',  ( -0.000000000000000000, -0.000000000000000000, -1.000000000000000000 ) ) ;
#151 = EDGE_LOOP ( 'NONE', ( #578, #342 ) ) ;
#152 = FACE_OUTER_BOUND ( 'NONE', #909, .T. ) ;
#153 = CARTESIAN_POINT ( 'NONE',  ( 43.04915760214223752, 19.80000000000000071, 0.000000000000000000 ) ) ;
#154 = DIRECTION ( 'NONE',  ( 1.000000000000000000, 0.000000000000000000, 0.000000000000000000 ) ) ;
#155 = LINE ( 'NONE', #230, #783 ) ;
#156 = DIRECTION ( 'NONE',  ( 1.000000000000000000, 0.000000000000000000, 0.000000000000000000 ) ) ;
#157 = ORIENTED_EDGE ( 'NONE', *, *, #1045, .T. ) ;
#158 = EDGE_CURVE ( 'NONE', #482, #936, #438, .T. ) ;
#159 = ORIENTED_EDGE ( 'NONE', *, *, #369, .T. ) ;
#160 = FACE_OUTER_BOUND ( 'NONE', #1049, .T. ) ;
#161 = CIRCLE ( 'NONE', #224, 2.999999999999999112 ) ;
#162 = EDGE_CURVE ( 'NONE', #348, #3, #1055, .T. ) ;
#163 = VERTEX_POINT ( 'NONE', #698 ) ;
#164 = CIRCLE ( 'NONE', #599, 2.999999999999999112 ) ;
#165 = ORIENTED_EDGE ( 'NONE', *, *, #486, .T. ) ;
#166 = ORIENTED_EDGE ( 'NONE', *, *, #229, .T. ) ;
#167 = ORIENTED_EDGE ( 'NONE', *, *, #382, .T. ) ;
#168 = EDGE_CURVE ( 'NONE', #3, #348, #164, .T. ) ;
#169 = ORIENTED_EDGE ( 'NONE', *, *, #566, .F. ) ;
#170 = ORIENTED_EDGE ( 'NONE', *, *, #264, .T. ) ;
#171 = CARTESIAN_POINT ( 'NONE',  ( 16.04915760214224107, 19.80000000000000071, 0.000000000000000000 ) ) ;
#172 = CIRCLE ( 'NONE', #794, 3.000000000000002665 ) ;
#173 = EDGE_LOOP ( 'NONE', ( #23, #165, #92, #273 ) ) ;
#174 = AXIS2_PLACEMENT_3D ( 'NONE', #478, #716, #820 ) ;
#175 = EDGE_CURVE ( 'NONE', #936, #615, #532, .T. ) ;
#176 = FACE_OUTER_BOUND ( 'NONE', #723, .T. ) ;
#177 = DIRECTION ( 'NONE',  ( 0.000000000000000000, 0.000000000000000000, 1.000000000000000000 ) ) ;
#178 = EDGE_CURVE ( 'NONE', #258, #116, #852, .T. ) ;
#179 = EDGE_LOOP ( 'NONE', ( #701, #687, #502, #166 ) ) ;
#180 = CARTESIAN_POINT ( 'NONE',  ( 9.049157602142237522, 19.80000000000000071, 1.199999999999999956 ) ) ;
#181 = ORIENTED_EDGE ( 'NONE', *, *, #953, .T. ) ;
#182 = CYLINDRICAL_SURFACE ( 'NONE', #36, 2.999999999999999112 ) ;
#183 = DIRECTION ( 'NONE',  ( -0.000000000000000000, -0.000000000000000000, 1.000000000000000000 ) ) ;
#184 = APPLICATION_CONTEXT ( 'automotive_design' ) ;
#185 = LINE ( 'NONE', #29, #226 ) ;
#186 = ADVANCED_FACE ( 'NONE', ( #877 ), #957, .F. ) ;
#187 = VECTOR ( 'NONE', #1059, 1000.000000000000000 ) ;
#188 = EDGE_LOOP ( 'NONE', ( #572, #865, #485, #262 ) ) ;
#189 = CARTESIAN_POINT ( 'NONE',  ( 46.04915760214223752, 9.800000000000000711, 1.199999999999999956 ) ) ;
#190 = CARTESIAN_POINT ( 'NONE',  ( 23.04915760214224107, 19.80000000000000071, 0.000000000000000000 ) ) ;
#191 = ORIENTED_EDGE ( 'NONE', *, *, #420, .F. ) ;
#192 = DIRECTION ( 'NONE',  ( 1.000000000000000000, 0.000000000000000000, 0.000000000000000000 ) ) ;
#193 = ADVANCED_FACE ( 'NONE', ( #1053 ), #144, .F. ) ;
#194 = CARTESIAN_POINT ( 'NONE',  ( 33.04915760214223752, 19.80000000000000071, 1.199999999999999956 ) ) ;
#195 = ORIENTED_EDGE ( 'NONE', *, *, #344, .F. ) ;
#196 = PRODUCT_DEFINITION_CONTEXT ( 'detailed design', #184, 'design' ) ;
#197 = DIRECTION ( 'NONE',  ( 0.000000000000000000, 0.000000000000000000, 1.000000000000000000 ) ) ;
#198 = CARTESIAN_POINT ( 'NONE',  ( 13.04915760214224285, 19.80000000000000071, 0.000000000000000000 ) ) ;
#199 = DIRECTION ( 'NONE',  ( -0.000000000000000000, -0.000000000000000000, 1.000000000000000000 ) ) ;
#200 = DIRECTION ( 'NONE',  ( 1.000000000000000000, 0.000000000000000000, 0.000000000000000000 ) ) ;
#201 = VERTEX_POINT ( 'NONE', #194 ) ;
#202 = AXIS2_PLACEMENT_3D ( 'NONE', #364, #551, #889 ) ;
#203 = VECTOR ( 'NONE', #714, 1000.000000000000000 ) ;
#204 = CARTESIAN_POINT ( 'NONE',  ( 41.50000000000000000, 0.000000000000000000, 1.199999999999999956 ) ) ;
#205 = CIRCLE ( 'NONE', #741, 2.999999999999999112 ) ;
#206 = EDGE_CURVE ( 'NONE', #923, #1062, #126, .T. ) ;
#207 = VECTOR ( 'NONE', #10, 1000.000000000000000 ) ;
#208 = FACE_BOUND ( 'NONE', #270, .T. ) ;
#209 = CARTESIAN_POINT ( 'NONE',  ( 0.000000000000000000, 0.000000000000000000, 1.199999999999999956 ) ) ;
#210 = EDGE_LOOP ( 'NONE', ( #398, #959, #360, #96, #286, #559, #1022, #411 ) ) ;
#211 = EDGE_CURVE ( 'NONE', #900, #589, #118, .T. ) ;
#212 = CARTESIAN_POINT ( 'NONE',  ( 26.04915760214223752, 9.800000000000000711, 0.000000000000000000 ) ) ;
#213 = LINE ( 'NONE', #727, #17 ) ;
#214 = PLANE ( 'NONE',  #202 ) ;
#215 = FACE_OUTER_BOUND ( 'NONE', #804, .T. ) ;
#216 = ORIENTED_EDGE ( 'NONE', *, *, #369, .F. ) ;
#217 = LINE ( 'NONE', #204, #653 ) ;
#218 = CARTESIAN_POINT ( 'NONE',  ( 11.50000000000000355, 26.80000000000000071, 1.199999999999999956 ) ) ;
#219 = DIRECTION ( 'NONE',  ( -1.000000000000000000, 0.000000000000000000, 0.000000000000000000 ) ) ;
#220 = ADVANCED_FACE ( 'NONE', ( #208, #371, #545, #795, #884, #49, #292, #137, #637, #971, #468 ), #214, .T. ) ;
#221 = VERTEX_POINT ( 'NONE', #565 ) ;
#222 = EDGE_LOOP ( 'NONE', ( #679, #602, #944, #604 ) ) ;
#223 = FACE_OUTER_BOUND ( 'NONE', #476, .T. ) ;
#224 = AXIS2_PLACEMENT_3D ( 'NONE', #240, #745, #7 ) ;
#225 = AXIS2_PLACEMENT_3D ( 'NONE', #119, #643, #55 ) ;
#226 = VECTOR ( 'NONE', #518, 1000.000000000000000 ) ;
#227 = CARTESIAN_POINT ( 'NONE',  ( 49.04915760214224463, 19.80000000000000071, 0.000000000000000000 ) ) ;
#228 = ORIENTED_EDGE ( 'NONE', *, *, #770, .T. ) ;
#229 = EDGE_CURVE ( 'NONE', #163, #693, #310, .T. ) ;
#230 = CARTESIAN_POINT ( 'NONE',  ( 11.50000000000000355, 0.000000000000000000, 0.000000000000000000 ) ) ;
#231 = ORIENTED_EDGE ( 'NONE', *, *, #819, .F. ) ;
#232 = CARTESIAN_POINT ( 'NONE',  ( 9.049157602142237522, 19.80000000000000071, 0.000000000000000000 ) ) ;
#233 = ORIENTED_EDGE ( 'NONE', *, *, #529, .T. ) ;
#234 = APPLICATION_PROTOCOL_DEFINITION ( 'draft international standard', 'automotive_design', 1998, #374 ) ;
#235 = VERTEX_POINT ( 'NONE', #227 ) ;
#236 = CARTESIAN_POINT ( 'NONE',  ( 26.04915760214223752, 19.80000000000000071, 0.000000000000000000 ) ) ;
#237 = VERTEX_POINT ( 'NONE', #487 ) ;
#238 = CARTESIAN_POINT ( 'NONE',  ( 36.04915760214223752, 9.800000000000000711, 1.199999999999999956 ) ) ;
#239 = AXIS2_PLACEMENT_3D ( 'NONE', #299, #895, #391 ) ;
#240 = CARTESIAN_POINT ( 'NONE',  ( 6.049157602142238410, 9.800000000000000711, 0.000000000000000000 ) ) ;
#241 = ORIENTED_EDGE ( 'NONE', *, *, #1050, .F. ) ;
#242 = ORIENTED_EDGE ( 'NONE', *, *, #394, .F. ) ;
#243 = ORIENTED_EDGE ( 'NONE', *, *, #584, .F. ) ;
#244 = ORIENTED_EDGE ( 'NONE', *, *, #544, .T. ) ;
#245 = DIRECTION ( 'NONE',  ( 0.000000000000000000, -0.000000000000000000, 1.000000000000000000 ) ) ;
#246 = EDGE_CURVE ( 'NONE', #833, #506, #402, .T. ) ;
#247 = CARTESIAN_POINT ( 'NONE',  ( 9.049157602142237522, 9.800000000000000711, 0.000000000000000000 ) ) ;
#248 = EDGE_CURVE ( 'NONE', #113, #826, #109, .T. ) ;
#249 = ORIENTED_EDGE ( 'NONE', *, *, #168, .F. ) ;
#250 = VECTOR ( 'NONE', #869, 1000.000000000000000 ) ;
#251 = CYLINDRICAL_SURFACE ( 'NONE', #933, 2.999999999999999112 ) ;
#252 = LINE ( 'NONE', #101, #983 ) ;
#253 = CIRCLE ( 'NONE', #1002, 2.999999999999999112 ) ;
#254 = DIRECTION ( 'NONE',  ( -0.000000000000000000, -0.000000000000000000, -1.000000000000000000 ) ) ;
#255 = VECTOR ( 'NONE', #350, 1000.000000000000000 ) ;
#256 = CYLINDRICAL_SURFACE ( 'NONE', #626, 3.000000000000002665 ) ;
#257 = VECTOR ( 'NONE', #112, 1000.000000000000000 ) ;
#258 = VERTEX_POINT ( 'NONE', #72 ) ;
#259 = VECTOR ( 'NONE', #986, 1000.000000000000000 ) ;
#260 = CARTESIAN_POINT ( 'NONE',  ( 49.04915760214224463, 9.800000000000000711, 0.000000000000000000 ) ) ;
#261 = LINE ( 'NONE', #784, #1071 ) ;
#262 = ORIENTED_EDGE ( 'NONE', *, *, #654, .T. ) ;
#263 = DIRECTION ( 'NONE',  ( 1.000000000000000000, 0.000000000000000000, 0.000000000000000000 ) ) ;
#264 = EDGE_CURVE ( 'NONE', #868, #337, #904, .T. ) ;
#265 = CARTESIAN_POINT ( 'NONE',  ( 29.04915760214223752, 9.800000000000000711, 1.199999999999999956 ) ) ;
#266 = CARTESIAN_POINT ( 'NONE',  ( 46.04915760214223752, 9.800000000000000711, 0.000000000000000000 ) ) ;
#267 = ORIENTED_EDGE ( 'NONE', *, *, #987, .F. ) ;
#268 = DIRECTION ( 'NONE',  ( -0.000000000000000000, -0.000000000000000000, 1.000000000000000000 ) ) ;
#269 =( GEOMETRIC_REPRESENTATION_CONTEXT ( 3 ) GLOBAL_UNCERTAINTY_ASSIGNED_CONTEXT ( ( #540 ) ) GLOBAL_UNIT_ASSIGNED_CONTEXT ( ( #320, #603, #25 ) ) REPRESENTATION_CONTEXT ( 'NONE', 'WORKASPACE' ) );
#270 = EDGE_LOOP ( 'NONE', ( #267, #600 ) ) ;
#271 = COLOUR_RGB ( '',0.7921568627450980005, 0.8196078431372548767, 0.9333333333333333481 ) ;
#272 = DIRECTION ( 'NONE',  ( 0.000000000000000000, 0.000000000000000000, 1.000000000000000000 ) ) ;
#273 = ORIENTED_EDGE ( 'NONE', *, *, #423, .F. ) ;
#274 = DIRECTION ( 'NONE',  ( -0.000000000000000000, -0.000000000000000000, 1.000000000000000000 ) ) ;
#275 = EDGE_CURVE ( 'NONE', #221, #337, #155, .T. ) ;
#276 = CARTESIAN_POINT ( 'NONE',  ( 26.04915760214223752, 9.800000000000000711, 0.000000000000000000 ) ) ;
#277 = SURFACE_STYLE_USAGE ( .BOTH. , #775 ) ;
#278 = DIRECTION ( 'NONE',  ( -0.000000000000000000, -0.000000000000000000, 1.000000000000000000 ) ) ;
#279 = ORIENTED_EDGE ( 'NONE', *, *, #571, .T. ) ;
#280 = PRODUCT_DEFINITION ( 'UNKNOWN', '', #796, #196 ) ;
#281 = CARTESIAN_POINT ( 'NONE',  ( 26.04915760214223752, 19.80000000000000071, 1.199999999999999956 ) ) ;
#282 = DIRECTION ( 'NONE',  ( 0.000000000000000000, 0.000000000000000000, 1.000000000000000000 ) ) ;
#283 = FACE_OUTER_BOUND ( 'NONE', #21, .T. ) ;
#284 = CARTESIAN_POINT ( 'NONE',  ( 6.049157602142238410, 19.80000000000000071, 1.199999999999999956 ) ) ;
#285 = DIRECTION ( 'NONE',  ( 0.000000000000000000, 0.000000000000000000, 1.000000000000000000 ) ) ;
#286 = ORIENTED_EDGE ( 'NONE', *, *, #58, .T. ) ;
#287 = AXIS2_PLACEMENT_3D ( 'NONE', #810, #1058, #883 ) ;
#288 = VECTOR ( 'NONE', #254, 1000.000000000000000 ) ;
#289 = CYLINDRICAL_SURFACE ( 'NONE', #743, 2.999999999999995559 ) ;
#290 = AXIS2_PLACEMENT_3D ( 'NONE', #481, #665, #823 ) ;
#291 = CIRCLE ( 'NONE', #966, 3.000000000000002665 ) ;
#292 = FACE_BOUND ( 'NONE', #324, .T. ) ;
#293 = LINE ( 'NONE', #942, #863 ) ;
#294 = DIRECTION ( 'NONE',  ( 1.000000000000000000, 0.000000000000000000, 0.000000000000000000 ) ) ;
#295 = EDGE_LOOP ( 'NONE', ( #525, #85 ) ) ;
#296 = ADVANCED_FACE ( 'NONE', ( #744 ), #981, .T. ) ;
#297 = DIRECTION ( 'NONE',  ( 1.000000000000000000, 0.000000000000000000, -0.000000000000000000 ) ) ;
#298 = DIRECTION ( 'NONE',  ( 0.000000000000000000, 1.000000000000000000, -0.000000000000000000 ) ) ;
#299 = CARTESIAN_POINT ( 'NONE',  ( 6.049157602142238410, 19.80000000000000071, 0.000000000000000000 ) ) ;
#300 = DIRECTION ( 'NONE',  ( -0.000000000000000000, -0.000000000000000000, 1.000000000000000000 ) ) ;
#301 = DIRECTION ( 'NONE',  ( -0.000000000000000000, -0.000000000000000000, 1.000000000000000000 ) ) ;
#302 = CARTESIAN_POINT ( 'NONE',  ( 43.04915760214223752, 9.800000000000000711, 0.000000000000000000 ) ) ;
#303 = ORIENTED_EDGE ( 'NONE', *, *, #409, .T. ) ;
#304 = DIRECTION ( 'NONE',  ( -0.000000000000000000, -0.000000000000000000, 1.000000000000000000 ) ) ;
#305 = LINE ( 'NONE', #646, #349 ) ;
#306 = EDGE_LOOP ( 'NONE', ( #414, #100 ) ) ;
#307 = EDGE_LOOP ( 'NONE', ( #500, #332 ) ) ;
#308 = EDGE_CURVE ( 'NONE', #410, #1008, #395, .T. ) ;
#309 = PLANE ( 'NONE',  #541 ) ;
#310 = LINE ( 'NONE', #908, #1070 ) ;
#311 = AXIS2_PLACEMENT_3D ( 'NONE', #474, #54, #358 ) ;
#312 = DIRECTION ( 'NONE',  ( 1.000000000000000000, 0.000000000000000000, 0.000000000000000000 ) ) ;
#313 = CARTESIAN_POINT ( 'NONE',  ( 53.00000000000000000, 0.000000000000000000, 0.000000000000000000 ) ) ;
#314 = ORIENTED_EDGE ( 'NONE', *, *, #355, .F. ) ;
#315 = VERTEX_POINT ( 'NONE', #732 ) ;
#316 = ORIENTED_EDGE ( 'NONE', *, *, #246, .F. ) ;
#317 = CARTESIAN_POINT ( 'NONE',  ( 19.04915760214223752, 19.80000000000000071, 1.199999999999999956 ) ) ;
#318 = ORIENTED_EDGE ( 'NONE', *, *, #970, .F. ) ;
#319 = FACE_OUTER_BOUND ( 'NONE', #997, .T. ) ;
#320 =( LENGTH_UNIT ( ) NAMED_UNIT ( * ) SI_UNIT ( .MILLI., .METRE. ) );
#321 = LINE ( 'NONE', #12, #97 ) ;
#322 = DIRECTION ( 'NONE',  ( 0.000000000000000000, 0.000000000000000000, 1.000000000000000000 ) ) ;
#323 = EDGE_CURVE ( 'NONE', #482, #45, #305, .T. ) ;
#324 = EDGE_LOOP ( 'NONE', ( #514, #881 ) ) ;
#325 = PLANE ( 'NONE',  #86 ) ;
#326 = ORIENTED_EDGE ( 'NONE', *, *, #31, .T. ) ;
#327 = FACE_OUTER_BOUND ( 'NONE', #740, .T. ) ;
#328 = CIRCLE ( 'NONE', #347, 2.999999999999995559 ) ;
#329 = AXIS2_PLACEMENT_3D ( 'NONE', #808, #60, #200 ) ;
#330 = CARTESIAN_POINT ( 'NONE',  ( 49.04915760214224463, 9.800000000000000711, 1.199999999999999956 ) ) ;
#331 = ORIENTED_EDGE ( 'NONE', *, *, #178, .T. ) ;
#332 = ORIENTED_EDGE ( 'NONE', *, *, #825, .T. ) ;
#333 = DIRECTION ( 'NONE',  ( 0.000000000000000000, 1.000000000000000000, 0.000000000000000000 ) ) ;
#334 = ADVANCED_FACE ( 'NONE', ( #816 ), #535, .F. ) ;
#335 = DIRECTION ( 'NONE',  ( 1.000000000000000000, 0.000000000000000000, 0.000000000000000000 ) ) ;
#336 = DIRECTION ( 'NONE',  ( 1.000000000000000000, 0.000000000000000000, 0.000000000000000000 ) ) ;
#337 = VERTEX_POINT ( 'NONE', #873 ) ;
#338 = CARTESIAN_POINT ( 'NONE',  ( 6.049157602142238410, 9.800000000000000711, 0.000000000000000000 ) ) ;
#339 = CARTESIAN_POINT ( 'NONE',  ( 3.049157602142239298, 19.80000000000000071, 1.199999999999999956 ) ) ;
#340 = DIRECTION ( 'NONE',  ( 0.000000000000000000, 0.000000000000000000, 1.000000000000000000 ) ) ;
#341 = DIRECTION ( 'NONE',  ( -0.000000000000000000, -0.000000000000000000, 1.000000000000000000 ) ) ;
#342 = ORIENTED_EDGE ( 'NONE', *, *, #649, .F. ) ;
#343 = PRODUCT_DEFINITION_SHAPE ( 'NONE', 'NONE',  #280 ) ;
#344 = EDGE_CURVE ( 'NONE', #425, #923, #861, .T. ) ;
#345 = CIRCLE ( 'NONE', #48, 2.999999999999995559 ) ;
#346 = DIRECTION ( 'NONE',  ( 0.000000000000000000, 0.000000000000000000, 1.000000000000000000 ) ) ;
#347 = AXIS2_PLACEMENT_3D ( 'NONE', #902, #735, #1068 ) ;
#348 = VERTEX_POINT ( 'NONE', #724 ) ;
#349 = VECTOR ( 'NONE', #703, 1000.000000000000000 ) ;
#350 = DIRECTION ( 'NONE',  ( 0.000000000000000000, 1.000000000000000000, -0.000000000000000000 ) ) ;
#351 = EDGE_CURVE ( 'NONE', #682, #900, #379, .T. ) ;
#352 = DIRECTION ( 'NONE',  ( 1.000000000000000000, 0.000000000000000000, 0.000000000000000000 ) ) ;
#353 = ORIENTED_EDGE ( 'NONE', *, *, #929, .F. ) ;
#354 = CARTESIAN_POINT ( 'NONE',  ( 33.04915760214223752, 9.800000000000000711, 1.199999999999999956 ) ) ;
#355 = EDGE_CURVE ( 'NONE', #868, #843, #384, .T. ) ;
#356 = EDGE_LOOP ( 'NONE', ( #668, #93 ) ) ;
#357 = DIRECTION ( 'NONE',  ( 1.000000000000000000, 0.000000000000000000, 0.000000000000000000 ) ) ;
#358 = DIRECTION ( 'NONE',  ( 1.000000000000000000, 0.000000000000000000, 0.000000000000000000 ) ) ;
#359 = AXIS2_PLACEMENT_3D ( 'NONE', #765, #340, #488 ) ;
#360 = ORIENTED_EDGE ( 'NONE', *, *, #938, .F. ) ;
#361 = UNCERTAINTY_MEASURE_WITH_UNIT (LENGTH_MEASURE( 1.000000000000000082E-05 ), #905, 'distance_accuracy_value', 'NONE');
#362 = AXIS2_PLACEMENT_3D ( 'NONE', #209, #219, #127 ) ;
#363 = VECTOR ( 'NONE', #609, 1000.000000000000000 ) ;
#364 = CARTESIAN_POINT ( 'NONE',  ( 0.000000000000000000, 0.000000000000000000, 1.199999999999999956 ) ) ;
#365 = EDGE_CURVE ( 'NONE', #728, #693, #370, .T. ) ;
#366 = DIRECTION ( 'NONE',  ( -0.000000000000000000, -0.000000000000000000, 1.000000000000000000 ) ) ;
#367 = ORIENTED_EDGE ( 'NONE', *, *, #206, .F. ) ;
#368 = PLANE ( 'NONE',  #697 ) ;
#369 = EDGE_CURVE ( 'NONE', #258, #94, #459, .T. ) ;
#370 = LINE ( 'NONE', #730, #875 ) ;
#371 = FACE_BOUND ( 'NONE', #151, .T. ) ;
#372 = CARTESIAN_POINT ( 'NONE',  ( 46.04915760214223752, 19.80000000000000071, 0.000000000000000000 ) ) ;
#373 = ORIENTED_EDGE ( 'NONE', *, *, #355, .T. ) ;
#374 = APPLICATION_CONTEXT ( 'automotive_design' ) ;
#375 = FACE_OUTER_BOUND ( 'NONE', #388, .T. ) ;
#376 = DIRECTION ( 'NONE',  ( -0.000000000000000000, -0.000000000000000000, 1.000000000000000000 ) ) ;
#377 = DIRECTION ( 'NONE',  ( -0.000000000000000000, -0.000000000000000000, 1.000000000000000000 ) ) ;
#378 = ORIENTED_EDGE ( 'NONE', *, *, #702, .F. ) ;
#379 = CIRCLE ( 'NONE', #922, 3.000000000000002665 ) ;
#380 = AXIS2_PLACEMENT_3D ( 'NONE', #554, #632, #192 ) ;
#381 = DIRECTION ( 'NONE',  ( 1.000000000000000000, 0.000000000000000000, 0.000000000000000000 ) ) ;
#382 = EDGE_CURVE ( 'NONE', #201, #630, #633, .T. ) ;
#383 = FACE_BOUND ( 'NONE', #1057, .T. ) ;
#384 = LINE ( 'NONE', #960, #32 ) ;
#385 = AXIS2_PLACEMENT_3D ( 'NONE', #498, #8, #672 ) ;
#386 = LINE ( 'NONE', #1040, #496 ) ;
#387 = CARTESIAN_POINT ( 'NONE',  ( 6.049157602142238410, 19.80000000000000071, 0.000000000000000000 ) ) ;
#388 = EDGE_LOOP ( 'NONE', ( #939, #242, #792, #553 ) ) ;
#389 = FACE_OUTER_BOUND ( 'NONE', #886, .T. ) ;
#390 = CARTESIAN_POINT ( 'NONE',  ( 36.04915760214223752, 9.800000000000000711, 0.000000000000000000 ) ) ;
#391 = DIRECTION ( 'NONE',  ( 1.000000000000000000, 0.000000000000000000, 0.000000000000000000 ) ) ;
#392 = DIRECTION ( 'NONE',  ( 0.000000000000000000, 1.000000000000000000, -0.000000000000000000 ) ) ;
#393 = ORIENTED_EDGE ( 'NONE', *, *, #1063, .T. ) ;
#394 = EDGE_CURVE ( 'NONE', #856, #854, #291, .T. ) ;
#395 = LINE ( 'NONE', #817, #511 ) ;
#396 = CARTESIAN_POINT ( 'NONE',  ( 19.04915760214223752, 9.800000000000000711, 1.199999999999999956 ) ) ;
#397 = EDGE_LOOP ( 'NONE', ( #19, #967, #973, #228 ) ) ;
#398 = ORIENTED_EDGE ( 'NONE', *, *, #365, .T. ) ;
#399 = CARTESIAN_POINT ( 'NONE',  ( 41.50000000000000000, 23.80000000000000071, 1.199999999999999956 ) ) ;
#400 = CIRCLE ( 'NONE', #68, 2.999999999999999112 ) ;
#401 = AXIS2_PLACEMENT_3D ( 'NONE', #710, #1047, #455 ) ;
#402 = LINE ( 'NONE', #656, #492 ) ;
#403 = AXIS2_PLACEMENT_3D ( 'NONE', #212, #550, #888 ) ;
#404 = EDGE_CURVE ( 'NONE', #94, #489, #914, .T. ) ;
#405 = ORIENTED_EDGE ( 'NONE', *, *, #731, .F. ) ;
#406 = DIRECTION ( 'NONE',  ( 1.000000000000000000, 0.000000000000000000, 0.000000000000000000 ) ) ;
#407 = ORIENTED_EDGE ( 'NONE', *, *, #970, .T. ) ;
#408 = CARTESIAN_POINT ( 'NONE',  ( 0.000000000000000000, 0.000000000000000000, 1.199999999999999956 ) ) ;
#409 = EDGE_CURVE ( 'NONE', #577, #1062, #345, .T. ) ;
#410 = VERTEX_POINT ( 'NONE', #136 ) ;
#411 = ORIENTED_EDGE ( 'NONE', *, *, #1017, .T. ) ;
#412 = LINE ( 'NONE', #1074, #1052 ) ;
#413 = ORIENTED_EDGE ( 'NONE', *, *, #649, .T. ) ;
#414 = ORIENTED_EDGE ( 'NONE', *, *, #1025, .F. ) ;
#415 = CARTESIAN_POINT ( 'NONE',  ( 53.00000000000000000, 0.000000000000000000, 1.199999999999999956 ) ) ;
#416 = VECTOR ( 'NONE', #968, 1000.000000000000000 ) ;
#417 = DIRECTION ( 'NONE',  ( -0.000000000000000000, -0.000000000000000000, 1.000000000000000000 ) ) ;
#418 = LINE ( 'NONE', #647, #982 ) ;
#419 = ORIENTED_EDGE ( 'NONE', *, *, #654, .F. ) ;
#420 = EDGE_CURVE ( 'NONE', #843, #163, #217, .T. ) ;
#421 = CARTESIAN_POINT ( 'NONE',  ( 41.50000000000000000, 23.80000000000000071, 0.000000000000000000 ) ) ;
#422 = EDGE_LOOP ( 'NONE', ( #712, #824 ) ) ;
#423 = EDGE_CURVE ( 'NONE', #856, #470, #894, .T. ) ;
#424 = DIRECTION ( 'NONE',  ( 0.000000000000000000, 0.000000000000000000, 1.000000000000000000 ) ) ;
#425 = VERTEX_POINT ( 'NONE', #974 ) ;
#426 = EDGE_LOOP ( 'NONE', ( #231, #984, #443, #829 ) ) ;
#427 = ORIENTED_EDGE ( 'NONE', *, *, #24, .F. ) ;
#428 = ADVANCED_FACE ( 'NONE', ( #223 ), #141, .F. ) ;
#429 = CARTESIAN_POINT ( 'NONE',  ( 46.04915760214223752, 9.800000000000000711, 0.000000000000000000 ) ) ;
#430 = ORIENTED_EDGE ( 'NONE', *, *, #229, .F. ) ;
#431 = ADVANCED_FACE ( 'NONE', ( #375 ), #1051, .F. ) ;
#432 = CARTESIAN_POINT ( 'NONE',  ( 29.04915760214223752, 19.80000000000000071, 0.000000000000000000 ) ) ;
#433 = FACE_BOUND ( 'NONE', #356, .T. ) ;
#434 = AXIS2_PLACEMENT_3D ( 'NONE', #1072, #148, #827 ) ;
#435 = DIRECTION ( 'NONE',  ( -0.000000000000000000, -0.000000000000000000, 1.000000000000000000 ) ) ;
#436 = ORIENTED_EDGE ( 'NONE', *, *, #115, .F. ) ;
#437 = AXIS2_PLACEMENT_3D ( 'NONE', #266, #285, #294 ) ;
#438 = CIRCLE ( 'NONE', #582, 2.999999999999999112 ) ;
#439 = ORIENTED_EDGE ( 'NONE', *, *, #491, .F. ) ;
#440 = ADVANCED_FACE ( 'NONE', ( #955 ), #289, .F. ) ;
#441 = DIRECTION ( 'NONE',  ( 1.000000000000000000, 0.000000000000000000, 0.000000000000000000 ) ) ;
#442 = CARTESIAN_POINT ( 'NONE',  ( 29.04915760214223752, 9.800000000000000711, 0.000000000000000000 ) ) ;
#443 = ORIENTED_EDGE ( 'NONE', *, *, #742, .T. ) ;
#444 = ORIENTED_EDGE ( 'NONE', *, *, #95, .F. ) ;
#445 = ORIENTED_EDGE ( 'NONE', *, *, #555, .F. ) ;
#446 = ADVANCED_FACE ( 'NONE', ( #635 ), #969, .F. ) ;
#447 = CARTESIAN_POINT ( 'NONE',  ( 49.04915760214224463, 9.800000000000000711, 0.000000000000000000 ) ) ;
#448 = DIRECTION ( 'NONE',  ( 1.000000000000000000, 0.000000000000000000, 0.000000000000000000 ) ) ;
#449 = CIRCLE ( 'NONE', #239, 2.999999999999999112 ) ;
#450 = VERTEX_POINT ( 'NONE', #467 ) ;
#451 = ADVANCED_FACE ( 'NONE', ( #319 ), #309, .F. ) ;
#452 = VECTOR ( 'NONE', #726, 1000.000000000000000 ) ;
#453 = AXIS2_PLACEMENT_3D ( 'NONE', #620, #460, #963 ) ;
#454 = CARTESIAN_POINT ( 'NONE',  ( 16.04915760214224107, 9.800000000000000711, 1.199999999999999956 ) ) ;
#455 = DIRECTION ( 'NONE',  ( 1.000000000000000000, 0.000000000000000000, 0.000000000000000000 ) ) ;
#456 = DIRECTION ( 'NONE',  ( -0.000000000000000000, -0.000000000000000000, 1.000000000000000000 ) ) ;
#457 = EDGE_LOOP ( 'NONE', ( #191, #314, #999, #243, #777, #1042, #768, #892 ) ) ;
#458 = DIRECTION ( 'NONE',  ( 1.000000000000000000, 0.000000000000000000, 0.000000000000000000 ) ) ;
#459 = LINE ( 'NONE', #198, #1018 ) ;
#460 = DIRECTION ( 'NONE',  ( -0.000000000000000000, -0.000000000000000000, 1.000000000000000000 ) ) ;
#461 = CARTESIAN_POINT ( 'NONE',  ( 36.04915760214223752, 19.80000000000000071, 1.199999999999999956 ) ) ;
#462 = ADVANCED_FACE ( 'NONE', ( #327 ), #493, .F. ) ;
#463 = ORIENTED_EDGE ( 'NONE', *, *, #1017, .F. ) ;
#464 = DIRECTION ( 'NONE',  ( 0.000000000000000000, 0.000000000000000000, 1.000000000000000000 ) ) ;
#465 = CARTESIAN_POINT ( 'NONE',  ( 41.50000000000000000, 23.80000000000000071, 1.199999999999999956 ) ) ;
#466 = CARTESIAN_POINT ( 'NONE',  ( 46.04915760214223752, 9.800000000000000711, 1.199999999999999956 ) ) ;
#467 = CARTESIAN_POINT ( 'NONE',  ( 49.04915760214224463, 19.80000000000000071, 1.199999999999999956 ) ) ;
#468 = FACE_OUTER_BOUND ( 'NONE', #457, .T. ) ;
#469 = CARTESIAN_POINT ( 'NONE',  ( 0.000000000000000000, 26.80000000000000071, 1.199999999999999956 ) ) ;
#470 = VERTEX_POINT ( 'NONE', #907 ) ;
#471 = DIRECTION ( 'NONE',  ( 1.000000000000000000, 0.000000000000000000, 0.000000000000000000 ) ) ;
#472 = ADVANCED_FACE ( 'NONE', ( #152 ), #325, .T. ) ;
#473 = DIRECTION ( 'NONE',  ( 0.000000000000000000, 0.000000000000000000, 1.000000000000000000 ) ) ;
#474 = CARTESIAN_POINT ( 'NONE',  ( 16.04915760214224107, 19.80000000000000071, 0.000000000000000000 ) ) ;
#475 = SURFACE_STYLE_USAGE ( .BOTH. , #84 ) ;
#476 = EDGE_LOOP ( 'NONE', ( #146, #244, #519, #1021 ) ) ;
#477 = DIRECTION ( 'NONE',  ( -0.000000000000000000, 0.000000000000000000, 1.000000000000000000 ) ) ;
#478 = CARTESIAN_POINT ( 'NONE',  ( 36.04915760214223752, 9.800000000000000711, 0.000000000000000000 ) ) ;
#479 = DIRECTION ( 'NONE',  ( 1.000000000000000000, 0.000000000000000000, 0.000000000000000000 ) ) ;
#480 = DIRECTION ( 'NONE',  ( 0.000000000000000000, -1.000000000000000000, 0.000000000000000000 ) ) ;
#481 = CARTESIAN_POINT ( 'NONE',  ( 36.04915760214223752, 19.80000000000000071, 0.000000000000000000 ) ) ;
#482 = VERTEX_POINT ( 'NONE', #232 ) ;
#483 = EDGE_CURVE ( 'NONE', #833, #235, #685, .T. ) ;
#484 = CARTESIAN_POINT ( 'NONE',  ( 46.04915760214223752, 19.80000000000000071, 0.000000000000000000 ) ) ;
#485 = ORIENTED_EDGE ( 'NONE', *, *, #52, .T. ) ;
#486 = EDGE_CURVE ( 'NONE', #854, #73, #573, .T. ) ;
#487 = CARTESIAN_POINT ( 'NONE',  ( 23.04915760214224107, 9.800000000000000711, 1.199999999999999956 ) ) ;
#488 = DIRECTION ( 'NONE',  ( 1.000000000000000000, 0.000000000000000000, 0.000000000000000000 ) ) ;
#489 = VERTEX_POINT ( 'NONE', #317 ) ;
#490 = ORIENTED_EDGE ( 'NONE', *, *, #162, .T. ) ;
#491 = EDGE_CURVE ( 'NONE', #1062, #577, #37, .T. ) ;
#492 = VECTOR ( 'NONE', #82, 1000.000000000000000 ) ;
#493 = CYLINDRICAL_SURFACE ( 'NONE', #537, 2.999999999999999112 ) ;
#494 = AXIS2_PLACEMENT_3D ( 'NONE', #835, #754, #998 ) ;
#495 = VECTOR ( 'NONE', #958, 1000.000000000000000 ) ;
#496 = VECTOR ( 'NONE', #301, 1000.000000000000000 ) ;
#497 = AXIS2_PLACEMENT_3D ( 'NONE', #484, #1007, #406 ) ;
#498 = CARTESIAN_POINT ( 'NONE',  ( 0.000000000000000000, 0.000000000000000000, 0.000000000000000000 ) ) ;
#499 = ORIENTED_EDGE ( 'NONE', *, *, #135, .F. ) ;
#500 = ORIENTED_EDGE ( 'NONE', *, *, #158, .T. ) ;
#501 = DIRECTION ( 'NONE',  ( 0.000000000000000000, 0.000000000000000000, 1.000000000000000000 ) ) ;
#502 = ORIENTED_EDGE ( 'NONE', *, *, #420, .T. ) ;
#503 = EDGE_LOOP ( 'NONE', ( #547, #353, #134, #847 ) ) ;
#504 = CARTESIAN_POINT ( 'NONE',  ( 16.04915760214224107, 19.80000000000000071, 1.199999999999999956 ) ) ;
#505 = EDGE_LOOP ( 'NONE', ( #419, #9 ) ) ;
#506 = VERTEX_POINT ( 'NONE', #924 ) ;
#507 = VECTOR ( 'NONE', #763, 1000.000000000000000 ) ;
#508 = PRESENTATION_LAYER_ASSIGNMENT (  '', '', ( #598 ) ) ;
#509 = ADVANCED_FACE ( 'NONE', ( #916 ), #256, .F. ) ;
#510 = CARTESIAN_POINT ( 'NONE',  ( 23.04915760214224107, 9.800000000000000711, 0.000000000000000000 ) ) ;
#511 = VECTOR ( 'NONE', #392, 1000.000000000000000 ) ;
#512 = CARTESIAN_POINT ( 'NONE',  ( 0.000000000000000000, 0.000000000000000000, 0.000000000000000000 ) ) ;
#513 = FILL_AREA_STYLE_COLOUR ( '', #739 ) ;
#514 = ORIENTED_EDGE ( 'NONE', *, *, #995, .F. ) ;
#515 = CARTESIAN_POINT ( 'NONE',  ( 46.04915760214223752, 19.80000000000000071, 1.199999999999999956 ) ) ;
#516 = FACE_OUTER_BOUND ( 'NONE', #11, .T. ) ;
#517 = EDGE_LOOP ( 'NONE', ( #79, #787 ) ) ;
#518 = DIRECTION ( 'NONE',  ( -0.000000000000000000, -0.000000000000000000, 1.000000000000000000 ) ) ;
#519 = ORIENTED_EDGE ( 'NONE', *, *, #749, .T. ) ;
#520 = CARTESIAN_POINT ( 'NONE',  ( 6.049157602142238410, 9.800000000000000711, 1.199999999999999956 ) ) ;
#521 = CARTESIAN_POINT ( 'NONE',  ( 3.049157602142239298, 19.80000000000000071, 0.000000000000000000 ) ) ;
#522 = EDGE_CURVE ( 'NONE', #900, #682, #961, .T. ) ;
#523 = AXIS2_PLACEMENT_3D ( 'NONE', #504, #846, #655 ) ;
#524 = DIRECTION ( 'NONE',  ( 0.000000000000000000, 0.000000000000000000, 1.000000000000000000 ) ) ;
#525 = ORIENTED_EDGE ( 'NONE', *, *, #702, .T. ) ;
#526 = FACE_BOUND ( 'NONE', #760, .T. ) ;
#527 = CARTESIAN_POINT ( 'NONE',  ( 13.04915760214224285, 19.80000000000000071, 1.199999999999999956 ) ) ;
#528 = ORIENTED_EDGE ( 'NONE', *, *, #75, .T. ) ;
#529 = EDGE_CURVE ( 'NONE', #16, #901, #1032, .T. ) ;
#530 = CYLINDRICAL_SURFACE ( 'NONE', #612, 3.000000000000002665 ) ;
#531 = ADVANCED_FACE ( 'NONE', ( #842 ), #251, .F. ) ;
#532 = LINE ( 'NONE', #625, #123 ) ;
#533 = ORIENTED_EDGE ( 'NONE', *, *, #91, .F. ) ;
#534 = CARTESIAN_POINT ( 'NONE',  ( 13.04915760214224285, 9.800000000000000711, 0.000000000000000000 ) ) ;
#535 = CYLINDRICAL_SURFACE ( 'NONE', #780, 2.999999999999999112 ) ;
#536 = LINE ( 'NONE', #218, #1 ) ;
#537 = AXIS2_PLACEMENT_3D ( 'NONE', #779, #183, #675 ) ;
#538 = CARTESIAN_POINT ( 'NONE',  ( 53.00000000000000000, 0.000000000000000000, 0.000000000000000000 ) ) ;
#539 = ORIENTED_EDGE ( 'NONE', *, *, #819, .T. ) ;
#540 = UNCERTAINTY_MEASURE_WITH_UNIT (LENGTH_MEASURE( 1.000000000000000082E-05 ), #320, 'distance_accuracy_value', 'NONE');
#541 = AXIS2_PLACEMENT_3D ( 'NONE', #921, #911, #501 ) ;
#542 = LINE ( 'NONE', #465, #203 ) ;
#543 = CARTESIAN_POINT ( 'NONE',  ( 39.04915760214223752, 9.800000000000000711, 0.000000000000000000 ) ) ;
#544 = EDGE_CURVE ( 'NONE', #348, #237, #766, .T. ) ;
#545 = FACE_BOUND ( 'NONE', #767, .T. ) ;
#546 = CARTESIAN_POINT ( 'NONE',  ( 53.00000000000000000, 26.80000000000000071, 0.000000000000000000 ) ) ;
#547 = ORIENTED_EDGE ( 'NONE', *, *, #58, .F. ) ;
#548 = CYLINDRICAL_SURFACE ( 'NONE', #380, 3.000000000000002665 ) ;
#549 = DIRECTION ( 'NONE',  ( 1.000000000000000000, 0.000000000000000000, 0.000000000000000000 ) ) ;
#550 = DIRECTION ( 'NONE',  ( -0.000000000000000000, -0.000000000000000000, 1.000000000000000000 ) ) ;
#551 = DIRECTION ( 'NONE',  ( -0.000000000000000000, 0.000000000000000000, 1.000000000000000000 ) ) ;
#552 = CARTESIAN_POINT ( 'NONE',  ( 49.04915760214224463, 19.80000000000000071, 0.000000000000000000 ) ) ;
#553 = ORIENTED_EDGE ( 'NONE', *, *, #927, .T. ) ;
#554 = CARTESIAN_POINT ( 'NONE',  ( 46.04915760214223752, 9.800000000000000711, 0.000000000000000000 ) ) ;
#555 = EDGE_CURVE ( 'NONE', #591, #818, #915, .T. ) ;
#556 = DIRECTION ( 'NONE',  ( 1.000000000000000000, 0.000000000000000000, 0.000000000000000000 ) ) ;
#557 = DIRECTION ( 'NONE',  ( 0.000000000000000000, 0.000000000000000000, 1.000000000000000000 ) ) ;
#558 = DIRECTION ( 'NONE',  ( -0.000000000000000000, -0.000000000000000000, -1.000000000000000000 ) ) ;
#559 = ORIENTED_EDGE ( 'NONE', *, *, #566, .T. ) ;
#560 = ORIENTED_EDGE ( 'NONE', *, *, #938, .T. ) ;
#561 = VECTOR ( 'NONE', #456, 1000.000000000000000 ) ;
#562 = FACE_BOUND ( 'NONE', #838, .T. ) ;
#563 = CARTESIAN_POINT ( 'NONE',  ( 26.04915760214223752, 9.800000000000000711, 0.000000000000000000 ) ) ;
#564 = CARTESIAN_POINT ( 'NONE',  ( 0.000000000000000000, 0.000000000000000000, 0.000000000000000000 ) ) ;
#565 = CARTESIAN_POINT ( 'NONE',  ( 11.50000000000000355, 26.80000000000000071, 0.000000000000000000 ) ) ;
#566 = EDGE_CURVE ( 'NONE', #948, #221, #418, .T. ) ;
#567 = ORIENTED_EDGE ( 'NONE', *, *, #24, .T. ) ;
#568 = EDGE_CURVE ( 'NONE', #693, #996, #412, .T. ) ;
#569 = CARTESIAN_POINT ( 'NONE',  ( 29.04915760214223752, 19.80000000000000071, 1.199999999999999956 ) ) ;
#570 = CARTESIAN_POINT ( 'NONE',  ( 41.50000000000000000, 0.000000000000000000, 1.199999999999999956 ) ) ;
#571 = EDGE_CURVE ( 'NONE', #163, #932, #321, .T. ) ;
#572 = ORIENTED_EDGE ( 'NONE', *, *, #935, .F. ) ;
#573 = LINE ( 'NONE', #748, #207 ) ;
#574 = ORIENTED_EDGE ( 'NONE', *, *, #483, .T. ) ;
#575 = CARTESIAN_POINT ( 'NONE',  ( 39.04915760214223752, 9.800000000000000711, 0.000000000000000000 ) ) ;
#576 = PRODUCT_CONTEXT ( 'NONE', #374, 'mechanical' ) ;
#577 = VERTEX_POINT ( 'NONE', #583 ) ;
#578 = ORIENTED_EDGE ( 'NONE', *, *, #770, .F. ) ;
#579 = EDGE_CURVE ( 'NONE', #818, #591, #161, .T. ) ;
#580 = AXIS2_PLACEMENT_3D ( 'NONE', #709, #282, #125 ) ;
#581 = AXIS2_PLACEMENT_3D ( 'NONE', #236, #588, #776 ) ;
#582 = AXIS2_PLACEMENT_3D ( 'NONE', #725, #557, #801 ) ;
#583 = CARTESIAN_POINT ( 'NONE',  ( 13.04915760214224285, 9.800000000000000711, 1.199999999999999956 ) ) ;
#584 = EDGE_CURVE ( 'NONE', #1008, #315, #660, .T. ) ;
#585 =( NAMED_UNIT ( * ) PLANE_ANGLE_UNIT ( ) SI_UNIT ( $, .RADIAN. ) );
#586 = ORIENTED_EDGE ( 'NONE', *, *, #491, .T. ) ;
#587 = DIRECTION ( 'NONE',  ( 1.000000000000000000, 0.000000000000000000, 0.000000000000000000 ) ) ;
#588 = DIRECTION ( 'NONE',  ( 0.000000000000000000, 0.000000000000000000, 1.000000000000000000 ) ) ;
#589 = VERTEX_POINT ( 'NONE', #330 ) ;
#590 = SHAPE_DEFINITION_REPRESENTATION ( #343, #788 ) ;
#591 = VERTEX_POINT ( 'NONE', #755 ) ;
#592 = ORIENTED_EDGE ( 'NONE', *, *, #323, .F. ) ;
#593 = FACE_BOUND ( 'NONE', #925, .T. ) ;
#594 = CYLINDRICAL_SURFACE ( 'NONE', #920, 2.999999999999995559 ) ;
#595 = VERTEX_POINT ( 'NONE', #691 ) ;
#596 = AXIS2_PLACEMENT_3D ( 'NONE', #1003, #663, #587 ) ;
#597 = AXIS2_PLACEMENT_3D ( 'NONE', #62, #477, #381 ) ;
#598 = STYLED_ITEM ( 'NONE', ( #648 ), #788 ) ;
#599 = AXIS2_PLACEMENT_3D ( 'NONE', #975, #807, #896 ) ;
#600 = ORIENTED_EDGE ( 'NONE', *, *, #713, .F. ) ;
#601 = LINE ( 'NONE', #700, #962 ) ;
#602 = ORIENTED_EDGE ( 'NONE', *, *, #246, .T. ) ;
#603 =( NAMED_UNIT ( * ) PLANE_ANGLE_UNIT ( ) SI_UNIT ( $, .RADIAN. ) );
#604 = ORIENTED_EDGE ( 'NONE', *, *, #1045, .F. ) ;
#605 = EDGE_CURVE ( 'NONE', #110, #932, #1027, .T. ) ;
#606 = VERTEX_POINT ( 'NONE', #20 ) ;
#607 = CARTESIAN_POINT ( 'NONE',  ( 53.00000000000000000, 0.000000000000000000, 1.199999999999999956 ) ) ;
#608 = FACE_OUTER_BOUND ( 'NONE', #1029, .T. ) ;
#609 = DIRECTION ( 'NONE',  ( -0.000000000000000000, -0.000000000000000000, 1.000000000000000000 ) ) ;
#610 = EDGE_LOOP ( 'NONE', ( #407, #574 ) ) ;
#611 = ORIENTED_EDGE ( 'NONE', *, *, #681, .T. ) ;
#612 = AXIS2_PLACEMENT_3D ( 'NONE', #695, #1039, #1019 ) ;
#613 = DIRECTION ( 'NONE',  ( 0.000000000000000000, 0.000000000000000000, 1.000000000000000000 ) ) ;
#614 =( GEOMETRIC_REPRESENTATION_CONTEXT ( 3 ) GLOBAL_UNCERTAINTY_ASSIGNED_CONTEXT ( ( #707 ) ) GLOBAL_UNIT_ASSIGNED_CONTEXT ( ( #988, #585, #994 ) ) REPRESENTATION_CONTEXT ( 'NONE', 'WORKASPACE' ) );
#615 = VERTEX_POINT ( 'NONE', #339 ) ;
#616 = ADVANCED_FACE ( 'NONE', ( #176 ), #368, .T. ) ;
#617 = CARTESIAN_POINT ( 'NONE',  ( 19.04915760214223752, 9.800000000000000711, 0.000000000000000000 ) ) ;
#618 = EDGE_LOOP ( 'NONE', ( #662, #639 ) ) ;
#619 = DIRECTION ( 'NONE',  ( 1.000000000000000000, 0.000000000000000000, 0.000000000000000000 ) ) ;
#620 = CARTESIAN_POINT ( 'NONE',  ( 36.04915760214223752, 19.80000000000000071, 0.000000000000000000 ) ) ;
#621 = DIRECTION ( 'NONE',  ( 0.000000000000000000, 0.000000000000000000, 1.000000000000000000 ) ) ;
#622 = ORIENTED_EDGE ( 'NONE', *, *, #927, .F. ) ;
#623 = DIRECTION ( 'NONE',  ( 0.000000000000000000, 0.000000000000000000, 1.000000000000000000 ) ) ;
#624 = DIRECTION ( 'NONE',  ( -0.000000000000000000, -0.000000000000000000, 1.000000000000000000 ) ) ;
#625 = CARTESIAN_POINT ( 'NONE',  ( 3.049157602142239298, 19.80000000000000071, 0.000000000000000000 ) ) ;
#626 = AXIS2_PLACEMENT_3D ( 'NONE', #429, #99, #336 ) ;
#627 = AXIS2_PLACEMENT_3D ( 'NONE', #930, #177, #1009 ) ;
#628 = LINE ( 'NONE', #711, #652 ) ;
#629 = AXIS2_PLACEMENT_3D ( 'NONE', #990, #22, #674 ) ;
#630 = VERTEX_POINT ( 'NONE', #954 ) ;
#631 = AXIS2_PLACEMENT_3D ( 'NONE', #943, #524, #864 ) ;
#632 = DIRECTION ( 'NONE',  ( -0.000000000000000000, -0.000000000000000000, 1.000000000000000000 ) ) ;
#633 = CIRCLE ( 'NONE', #830, 3.000000000000002665 ) ;
#634 = CARTESIAN_POINT ( 'NONE',  ( 11.50000000000000355, 0.000000000000000000, 1.199999999999999956 ) ) ;
#635 = FACE_OUTER_BOUND ( 'NONE', #673, .T. ) ;
#636 = PRESENTATION_STYLE_ASSIGNMENT (( #277 ) ) ;
#637 = FACE_BOUND ( 'NONE', #517, .T. ) ;
#638 = DIRECTION ( 'NONE',  ( -0.000000000000000000, -0.000000000000000000, -1.000000000000000000 ) ) ;
#639 = ORIENTED_EDGE ( 'NONE', *, *, #1050, .T. ) ;
#640 = EDGE_CURVE ( 'NONE', #425, #577, #129, .T. ) ;
#641 = DIRECTION ( 'NONE',  ( 1.000000000000000000, 0.000000000000000000, 0.000000000000000000 ) ) ;
#642 = DIRECTION ( 'NONE',  ( 1.000000000000000000, 0.000000000000000000, 0.000000000000000000 ) ) ;
#643 = DIRECTION ( 'NONE',  ( 0.000000000000000000, 0.000000000000000000, 1.000000000000000000 ) ) ;
#644 = ORIENTED_EDGE ( 'NONE', *, *, #677, .T. ) ;
#645 = CARTESIAN_POINT ( 'NONE',  ( 46.04915760214223752, 9.800000000000000711, 0.000000000000000000 ) ) ;
#646 = CARTESIAN_POINT ( 'NONE',  ( 9.049157602142237522, 19.80000000000000071, 0.000000000000000000 ) ) ;
#647 = CARTESIAN_POINT ( 'NONE',  ( -0.000000000000000000, 26.80000000000000071, 0.000000000000000000 ) ) ;
#648 = PRESENTATION_STYLE_ASSIGNMENT (( #475 ) ) ;
#649 = EDGE_CURVE ( 'NONE', #758, #589, #46, .T. ) ;
#650 = ORIENTED_EDGE ( 'NONE', *, *, #91, .T. ) ;
#651 = CIRCLE ( 'NONE', #669, 2.999999999999999112 ) ;
#652 = VECTOR ( 'NONE', #366, 1000.000000000000000 ) ;
#653 = VECTOR ( 'NONE', #980, 1000.000000000000000 ) ;
#654 = EDGE_CURVE ( 'NONE', #826, #113, #65, .T. ) ;
#655 = DIRECTION ( 'NONE',  ( 1.000000000000000000, 0.000000000000000000, 0.000000000000000000 ) ) ;
#656 = CARTESIAN_POINT ( 'NONE',  ( 43.04915760214223752, 19.80000000000000071, 0.000000000000000000 ) ) ;
#657 = SURFACE_STYLE_FILL_AREA ( #757 ) ;
#658 = ORIENTED_EDGE ( 'NONE', *, *, #713, .T. ) ;
#659 = ORIENTED_EDGE ( 'NONE', *, *, #66, .T. ) ;
#660 = LINE ( 'NONE', #993, #1000 ) ;
#661 =( NAMED_UNIT ( * ) PLANE_ANGLE_UNIT ( ) SI_UNIT ( $, .RADIAN. ) );
#662 = ORIENTED_EDGE ( 'NONE', *, *, #802, .T. ) ;
#663 = DIRECTION ( 'NONE',  ( 0.000000000000000000, 0.000000000000000000, 1.000000000000000000 ) ) ;
#664 = ORIENTED_EDGE ( 'NONE', *, *, #605, .F. ) ;
#665 = DIRECTION ( 'NONE',  ( 0.000000000000000000, 0.000000000000000000, 1.000000000000000000 ) ) ;
#666 = EDGE_LOOP ( 'NONE', ( #463, #1026, #373, #644 ) ) ;
#667 = CARTESIAN_POINT ( 'NONE',  ( 0.000000000000000000, 26.80000000000000071, 1.199999999999999956 ) ) ;
#668 = ORIENTED_EDGE ( 'NONE', *, *, #394, .T. ) ;
#669 = AXIS2_PLACEMENT_3D ( 'NONE', #985, #424, #458 ) ;
#670 = CIRCLE ( 'NONE', #782, 3.000000000000002665 ) ;
#671 = AXIS2_PLACEMENT_3D ( 'NONE', #853, #346, #352 ) ;
#672 = DIRECTION ( 'NONE',  ( 1.000000000000000000, 0.000000000000000000, 0.000000000000000000 ) ) ;
#673 = EDGE_LOOP ( 'NONE', ( #676, #249, #528, #326 ) ) ;
#674 = DIRECTION ( 'NONE',  ( 0.000000000000000000, -0.000000000000000000, 1.000000000000000000 ) ) ;
#675 = DIRECTION ( 'NONE',  ( 1.000000000000000000, 0.000000000000000000, 0.000000000000000000 ) ) ;
#676 = ORIENTED_EDGE ( 'NONE', *, *, #544, .F. ) ;
#677 = EDGE_CURVE ( 'NONE', #843, #728, #542, .T. ) ;
#678 = FACE_OUTER_BOUND ( 'NONE', #694, .T. ) ;
#679 = ORIENTED_EDGE ( 'NONE', *, *, #483, .F. ) ;
#680 = DIRECTION ( 'NONE',  ( 1.000000000000000000, 0.000000000000000000, 0.000000000000000000 ) ) ;
#681 = EDGE_CURVE ( 'NONE', #315, #868, #887, .T. ) ;
#682 = VERTEX_POINT ( 'NONE', #63 ) ;
#683 = VECTOR ( 'NONE', #74, 1000.000000000000000 ) ;
#684 = CIRCLE ( 'NONE', #494, 3.000000000000002665 ) ;
#685 = CIRCLE ( 'NONE', #497, 3.000000000000002665 ) ;
#686 = DIRECTION ( 'NONE',  ( 0.000000000000000000, 1.000000000000000000, -0.000000000000000000 ) ) ;
#687 = ORIENTED_EDGE ( 'NONE', *, *, #677, .F. ) ;
#688 = DIRECTION ( 'NONE',  ( 0.000000000000000000, -0.000000000000000000, 1.000000000000000000 ) ) ;
#689 = LINE ( 'NONE', #1024, #363 ) ;
#690 = EDGE_LOOP ( 'NONE', ( #216, #906, #928, #799 ) ) ;
#691 = CARTESIAN_POINT ( 'NONE',  ( 33.04915760214223752, 19.80000000000000071, 0.000000000000000000 ) ) ;
#692 = ADVANCED_FACE ( 'NONE', ( #383, #526, #433, #593, #946, #979, #696, #949, #562, #117, #140 ), #793, .F. ) ;
#693 = VERTEX_POINT ( 'NONE', #815 ) ;
#694 = EDGE_LOOP ( 'NONE', ( #785, #159, #746, #499 ) ) ;
#695 = CARTESIAN_POINT ( 'NONE',  ( 36.04915760214223752, 19.80000000000000071, 0.000000000000000000 ) ) ;
#696 = FACE_BOUND ( 'NONE', #618, .T. ) ;
#697 = AXIS2_PLACEMENT_3D ( 'NONE', #1037, #297, #708 ) ;
#698 = CARTESIAN_POINT ( 'NONE',  ( 41.50000000000000000, 26.80000000000000071, 1.199999999999999956 ) ) ;
#699 = CIRCLE ( 'NONE', #143, 2.999999999999995559 ) ;
#700 = CARTESIAN_POINT ( 'NONE',  ( 39.04915760214223752, 19.80000000000000071, 0.000000000000000000 ) ) ;
#701 = ORIENTED_EDGE ( 'NONE', *, *, #365, .F. ) ;
#702 = EDGE_CURVE ( 'NONE', #923, #425, #328, .T. ) ;
#703 = DIRECTION ( 'NONE',  ( -0.000000000000000000, -0.000000000000000000, 1.000000000000000000 ) ) ;
#704 = CARTESIAN_POINT ( 'NONE',  ( 53.00000000000000000, 0.000000000000000000, 1.199999999999999956 ) ) ;
#705 = CARTESIAN_POINT ( 'NONE',  ( 0.000000000000000000, 0.000000000000000000, 0.000000000000000000 ) ) ;
#706 = ORIENTED_EDGE ( 'NONE', *, *, #731, .T. ) ;
#707 = UNCERTAINTY_MEASURE_WITH_UNIT (LENGTH_MEASURE( 1.000000000000000082E-05 ), #988, 'distance_accuracy_value', 'NONE');
#708 = DIRECTION ( 'NONE',  ( -0.000000000000000000, 0.000000000000000000, -1.000000000000000000 ) ) ;
#709 = CARTESIAN_POINT ( 'NONE',  ( 16.04915760214224107, 19.80000000000000071, 1.199999999999999956 ) ) ;
#710 = CARTESIAN_POINT ( 'NONE',  ( 16.04915760214224107, 9.800000000000000711, 0.000000000000000000 ) ) ;
#711 = CARTESIAN_POINT ( 'NONE',  ( 23.04915760214224107, 19.80000000000000071, 0.000000000000000000 ) ) ;
#712 = ORIENTED_EDGE ( 'NONE', *, *, #31, .F. ) ;
#713 = EDGE_CURVE ( 'NONE', #978, #28, #253, .T. ) ;
#714 = DIRECTION ( 'NONE',  ( -0.000000000000000000, -0.000000000000000000, -1.000000000000000000 ) ) ;
#715 = DIRECTION ( 'NONE',  ( 1.000000000000000000, 0.000000000000000000, 0.000000000000000000 ) ) ;
#716 = DIRECTION ( 'NONE',  ( -0.000000000000000000, -0.000000000000000000, 1.000000000000000000 ) ) ;
#717 = ADVANCED_FACE ( 'NONE', ( #747 ), #759, .T. ) ;
#718 = DIRECTION ( 'NONE',  ( 1.000000000000000000, 0.000000000000000000, 0.000000000000000000 ) ) ;
#719 = AXIS2_PLACEMENT_3D ( 'NONE', #276, #950, #642 ) ;
#720 = CIRCLE ( 'NONE', #1001, 2.999999999999999112 ) ;
#721 = CYLINDRICAL_SURFACE ( 'NONE', #18, 3.000000000000002665 ) ;
#722 = AXIS2_PLACEMENT_3D ( 'NONE', #1046, #300, #154 ) ;
#723 = EDGE_LOOP ( 'NONE', ( #753, #436, #611, #170 ) ) ;
#724 = CARTESIAN_POINT ( 'NONE',  ( 23.04915760214224107, 9.800000000000000711, 0.000000000000000000 ) ) ;
#725 = CARTESIAN_POINT ( 'NONE',  ( 6.049157602142238410, 19.80000000000000071, 0.000000000000000000 ) ) ;
#726 = DIRECTION ( 'NONE',  ( -0.000000000000000000, -0.000000000000000000, 1.000000000000000000 ) ) ;
#727 = CARTESIAN_POINT ( 'NONE',  ( 0.000000000000000000, 26.80000000000000071, 1.199999999999999956 ) ) ;
#728 = VERTEX_POINT ( 'NONE', #421 ) ;
#729 = DIRECTION ( 'NONE',  ( 1.000000000000000000, 0.000000000000000000, 0.000000000000000000 ) ) ;
#730 = CARTESIAN_POINT ( 'NONE',  ( 41.50000000000000000, 0.000000000000000000, 0.000000000000000000 ) ) ;
#731 = EDGE_CURVE ( 'NONE', #932, #996, #30, .T. ) ;
#732 = CARTESIAN_POINT ( 'NONE',  ( 11.50000000000000355, 26.80000000000000071, 1.199999999999999956 ) ) ;
#733 =( NAMED_UNIT ( * ) SI_UNIT ( $, .STERADIAN. ) SOLID_ANGLE_UNIT ( ) );
#734 = ORIENTED_EDGE ( 'NONE', *, *, #52, .F. ) ;
#735 = DIRECTION ( 'NONE',  ( 0.000000000000000000, 0.000000000000000000, 1.000000000000000000 ) ) ;
#736 = CARTESIAN_POINT ( 'NONE',  ( 33.04915760214223752, 19.80000000000000071, 0.000000000000000000 ) ) ;
#737 = DIRECTION ( 'NONE',  ( -0.000000000000000000, -0.000000000000000000, -1.000000000000000000 ) ) ;
#738 = ORIENTED_EDGE ( 'NONE', *, *, #248, .T. ) ;
#739 = COLOUR_RGB ( '',0.7921568627450980005, 0.8196078431372548767, 0.9333333333333333481 ) ;
#740 = EDGE_LOOP ( 'NONE', ( #427, #445, #650, #40 ) ) ;
#741 = AXIS2_PLACEMENT_3D ( 'NONE', #39, #947, #108 ) ;
#742 = EDGE_CURVE ( 'NONE', #606, #630, #601, .T. ) ;
#743 = AXIS2_PLACEMENT_3D ( 'NONE', #1038, #274, #619 ) ;
#744 = FACE_OUTER_BOUND ( 'NONE', #179, .T. ) ;
#745 = DIRECTION ( 'NONE',  ( 0.000000000000000000, 0.000000000000000000, 1.000000000000000000 ) ) ;
#746 = ORIENTED_EDGE ( 'NONE', *, *, #404, .T. ) ;
#747 = FACE_OUTER_BOUND ( 'NONE', #121, .T. ) ;
#748 = CARTESIAN_POINT ( 'NONE',  ( 33.04915760214223752, 9.800000000000000711, 0.000000000000000000 ) ) ;
#749 = EDGE_CURVE ( 'NONE', #237, #14, #651, .T. ) ;
#750 = ORIENTED_EDGE ( 'NONE', *, *, #941, .T. ) ;
#751 = CARTESIAN_POINT ( 'NONE',  ( 16.04915760214224107, 19.80000000000000071, 0.000000000000000000 ) ) ;
#752 = ORIENTED_EDGE ( 'NONE', *, *, #80, .T. ) ;
#753 = ORIENTED_EDGE ( 'NONE', *, *, #275, .F. ) ;
#754 = DIRECTION ( 'NONE',  ( 0.000000000000000000, 0.000000000000000000, 1.000000000000000000 ) ) ;
#755 = CARTESIAN_POINT ( 'NONE',  ( 9.049157602142237522, 9.800000000000000711, 0.000000000000000000 ) ) ;
#756 = DIRECTION ( 'NONE',  ( 1.000000000000000000, 0.000000000000000000, 0.000000000000000000 ) ) ;
#757 = FILL_AREA_STYLE ('',( #15 ) ) ;
#758 = VERTEX_POINT ( 'NONE', #1069 ) ;
#759 = PLANE ( 'NONE',  #629 ) ;
#760 = EDGE_LOOP ( 'NONE', ( #913, #1015 ) ) ;
#761 = CIRCLE ( 'NONE', #523, 2.999999999999995559 ) ;
#762 = CIRCLE ( 'NONE', #329, 3.000000000000002665 ) ;
#763 = DIRECTION ( 'NONE',  ( 0.000000000000000000, 1.000000000000000000, -0.000000000000000000 ) ) ;
#764 = CIRCLE ( 'NONE', #671, 3.000000000000002665 ) ;
#765 = CARTESIAN_POINT ( 'NONE',  ( 6.049157602142238410, 9.800000000000000711, 0.000000000000000000 ) ) ;
#766 = LINE ( 'NONE', #510, #849 ) ;
#767 = EDGE_LOOP ( 'NONE', ( #622, #70 ) ) ;
#768 = ORIENTED_EDGE ( 'NONE', *, *, #605, .T. ) ;
#769 = CYLINDRICAL_SURFACE ( 'NONE', #35, 2.999999999999999112 ) ;
#770 = EDGE_CURVE ( 'NONE', #589, #758, #172, .T. ) ;
#771 = CYLINDRICAL_SURFACE ( 'NONE', #1033, 3.000000000000002665 ) ;
#772 = ORIENTED_EDGE ( 'NONE', *, *, #640, .T. ) ;
#773 = ADVANCED_FACE ( 'NONE', ( #389 ), #821, .F. ) ;
#774 = DIRECTION ( 'NONE',  ( 1.000000000000000000, 0.000000000000000000, 0.000000000000000000 ) ) ;
#775 = SURFACE_SIDE_STYLE ('',( #27 ) ) ;
#776 = DIRECTION ( 'NONE',  ( 1.000000000000000000, 0.000000000000000000, 0.000000000000000000 ) ) ;
#777 = ORIENTED_EDGE ( 'NONE', *, *, #308, .F. ) ;
#778 = PLANE ( 'NONE',  #1005 ) ;
#779 = CARTESIAN_POINT ( 'NONE',  ( 6.049157602142238410, 9.800000000000000711, 0.000000000000000000 ) ) ;
#780 = AXIS2_PLACEMENT_3D ( 'NONE', #903, #304, #471 ) ;
#781 = AXIS2_PLACEMENT_3D ( 'NONE', #189, #789, #1043 ) ;
#782 = AXIS2_PLACEMENT_3D ( 'NONE', #461, #1048, #885 ) ;
#783 = VECTOR ( 'NONE', #480, 1000.000000000000000 ) ;
#784 = CARTESIAN_POINT ( 'NONE',  ( 3.049157602142239298, 9.800000000000000711, 0.000000000000000000 ) ) ;
#785 = ORIENTED_EDGE ( 'NONE', *, *, #178, .F. ) ;
#786 = FACE_OUTER_BOUND ( 'NONE', #173, .T. ) ;
#787 = ORIENTED_EDGE ( 'NONE', *, *, #404, .F. ) ;
#788 = ADVANCED_BREP_SHAPE_REPRESENTATION ( 'Partition', ( #878, #385 ), #47 ) ;
#789 = DIRECTION ( 'NONE',  ( 0.000000000000000000, 0.000000000000000000, 1.000000000000000000 ) ) ;
#790 = CARTESIAN_POINT ( 'NONE',  ( 26.04915760214223752, 9.800000000000000711, 1.199999999999999956 ) ) ;
#791 = EDGE_CURVE ( 'NONE', #489, #94, #761, .T. ) ;
#792 = ORIENTED_EDGE ( 'NONE', *, *, #423, .T. ) ;
#793 = PLANE ( 'NONE',  #597 ) ;
#794 = AXIS2_PLACEMENT_3D ( 'NONE', #466, #197, #715 ) ;
#795 = FACE_BOUND ( 'NONE', #422, .T. ) ;
#796 = PRODUCT_DEFINITION_FORMATION_WITH_SPECIFIED_SOURCE ( 'ANY', '', #131, .NOT_KNOWN. ) ;
#797 = LINE ( 'NONE', #607, #1054 ) ;
#798 = AXIS2_PLACEMENT_3D ( 'NONE', #563, #57, #800 ) ;
#799 = ORIENTED_EDGE ( 'NONE', *, *, #791, .T. ) ;
#800 = DIRECTION ( 'NONE',  ( 1.000000000000000000, 0.000000000000000000, 0.000000000000000000 ) ) ;
#801 = DIRECTION ( 'NONE',  ( 1.000000000000000000, 0.000000000000000000, 0.000000000000000000 ) ) ;
#802 = EDGE_CURVE ( 'NONE', #606, #595, #684, .T. ) ;
#803 = DIRECTION ( 'NONE',  ( 0.000000000000000000, 1.000000000000000000, 0.000000000000000000 ) ) ;
#804 = EDGE_LOOP ( 'NONE', ( #952, #940, #814, #840 ) ) ;
#805 = ADVANCED_FACE ( 'NONE', ( #845 ), #548, .F. ) ;
#806 = CARTESIAN_POINT ( 'NONE',  ( 36.04915760214223752, 19.80000000000000071, 1.199999999999999956 ) ) ;
#807 = DIRECTION ( 'NONE',  ( 0.000000000000000000, 0.000000000000000000, 1.000000000000000000 ) ) ;
#808 = CARTESIAN_POINT ( 'NONE',  ( 46.04915760214223752, 19.80000000000000071, 1.199999999999999956 ) ) ;
#809 = ORIENTED_EDGE ( 'NONE', *, *, #168, .T. ) ;
#810 = CARTESIAN_POINT ( 'NONE',  ( 16.04915760214224107, 9.800000000000000711, 0.000000000000000000 ) ) ;
#811 = DIRECTION ( 'NONE',  ( -0.000000000000000000, -0.000000000000000000, 1.000000000000000000 ) ) ;
#812 = CARTESIAN_POINT ( 'NONE',  ( 0.000000000000000000, 0.000000000000000000, 1.199999999999999956 ) ) ;
#813 = CIRCLE ( 'NONE', #225, 2.999999999999999112 ) ;
#814 = ORIENTED_EDGE ( 'NONE', *, *, #323, .T. ) ;
#815 = CARTESIAN_POINT ( 'NONE',  ( 41.50000000000000000, 26.80000000000000071, 0.000000000000000000 ) ) ;
#816 = FACE_OUTER_BOUND ( 'NONE', #977, .T. ) ;
#817 = CARTESIAN_POINT ( 'NONE',  ( 0.000000000000000000, 0.000000000000000000, 1.199999999999999956 ) ) ;
#818 = VERTEX_POINT ( 'NONE', #893 ) ;
#819 = EDGE_CURVE ( 'NONE', #595, #201, #1036, .T. ) ;
#820 = DIRECTION ( 'NONE',  ( 1.000000000000000000, 0.000000000000000000, 0.000000000000000000 ) ) ;
#821 = CYLINDRICAL_SURFACE ( 'NONE', #722, 2.999999999999999112 ) ;
#822 = DIRECTION ( 'NONE',  ( 0.000000000000000000, 0.000000000000000000, 1.000000000000000000 ) ) ;
#823 = DIRECTION ( 'NONE',  ( 1.000000000000000000, 0.000000000000000000, 0.000000000000000000 ) ) ;
#824 = ORIENTED_EDGE ( 'NONE', *, *, #749, .F. ) ;
#825 = EDGE_CURVE ( 'NONE', #936, #482, #449, .T. ) ;
#826 = VERTEX_POINT ( 'NONE', #569 ) ;
#827 = DIRECTION ( 'NONE',  ( 1.000000000000000000, 0.000000000000000000, 0.000000000000000000 ) ) ;
#828 = PRODUCT_RELATED_PRODUCT_CATEGORY ( 'part', '', ( #131 ) ) ;
#829 = ORIENTED_EDGE ( 'NONE', *, *, #995, .T. ) ;
#830 = AXIS2_PLACEMENT_3D ( 'NONE', #806, #147, #641 ) ;
#831 = AXIS2_PLACEMENT_3D ( 'NONE', #515, #866, #357 ) ;
#832 = DIRECTION ( 'NONE',  ( 0.000000000000000000, 1.000000000000000000, 0.000000000000000000 ) ) ;
#833 = VERTEX_POINT ( 'NONE', #153 ) ;
#834 = CIRCLE ( 'NONE', #631, 2.999999999999999112 ) ;
#835 = CARTESIAN_POINT ( 'NONE',  ( 36.04915760214223752, 19.80000000000000071, 0.000000000000000000 ) ) ;
#836 = VECTOR ( 'NONE', #811, 1000.000000000000000 ) ;
#837 = DIRECTION ( 'NONE',  ( 1.000000000000000000, 0.000000000000000000, 0.000000000000000000 ) ) ;
#838 = EDGE_LOOP ( 'NONE', ( #393, #331 ) ) ;
#839 = FILL_AREA_STYLE ('',( #513 ) ) ;
#840 = ORIENTED_EDGE ( 'NONE', *, *, #1012, .T. ) ;
#841 = APPLICATION_PROTOCOL_DEFINITION ( 'draft international standard', 'automotive_design', 1998, #184 ) ;
#842 = FACE_OUTER_BOUND ( 'NONE', #188, .T. ) ;
#843 = VERTEX_POINT ( 'NONE', #399 ) ;
#844 = EDGE_LOOP ( 'NONE', ( #848, #378, #13, #586 ) ) ;
#845 = FACE_OUTER_BOUND ( 'NONE', #397, .T. ) ;
#846 = DIRECTION ( 'NONE',  ( 0.000000000000000000, 0.000000000000000000, 1.000000000000000000 ) ) ;
#847 = ORIENTED_EDGE ( 'NONE', *, *, #918, .T. ) ;
#848 = ORIENTED_EDGE ( 'NONE', *, *, #640, .F. ) ;
#849 = VECTOR ( 'NONE', #417, 1000.000000000000000 ) ;
#850 = CIRCLE ( 'NONE', #98, 3.000000000000002665 ) ;
#851 = VECTOR ( 'NONE', #686, 1000.000000000000000 ) ;
#852 = CIRCLE ( 'NONE', #4, 2.999999999999995559 ) ;
#853 = CARTESIAN_POINT ( 'NONE',  ( 36.04915760214223752, 9.800000000000000711, 0.000000000000000000 ) ) ;
#854 = VERTEX_POINT ( 'NONE', #6 ) ;
#855 = FACE_OUTER_BOUND ( 'NONE', #426, .T. ) ;
#856 = VERTEX_POINT ( 'NONE', #575 ) ;
#857 = ORIENTED_EDGE ( 'NONE', *, *, #742, .F. ) ;
#858 = LINE ( 'NONE', #512, #851 ) ;
#859 = ORIENTED_EDGE ( 'NONE', *, *, #584, .T. ) ;
#860 = CARTESIAN_POINT ( 'NONE',  ( 46.04915760214223752, 19.80000000000000071, 0.000000000000000000 ) ) ;
#861 = CIRCLE ( 'NONE', #287, 2.999999999999995559 ) ;
#862 = PRESENTATION_LAYER_ASSIGNMENT (  '', '', ( #876 ) ) ;
#863 = VECTOR ( 'NONE', #69, 1000.000000000000000 ) ;
#864 = DIRECTION ( 'NONE',  ( 1.000000000000000000, 0.000000000000000000, 0.000000000000000000 ) ) ;
#865 = ORIENTED_EDGE ( 'NONE', *, *, #66, .F. ) ;
#866 = DIRECTION ( 'NONE',  ( 0.000000000000000000, 0.000000000000000000, 1.000000000000000000 ) ) ;
#867 = CARTESIAN_POINT ( 'NONE',  ( 9.049157602142237522, 9.800000000000000711, 1.199999999999999956 ) ) ;
#868 = VERTEX_POINT ( 'NONE', #912 ) ;
#869 = DIRECTION ( 'NONE',  ( -0.000000000000000000, -0.000000000000000000, 1.000000000000000000 ) ) ;
#870 = ADVANCED_FACE ( 'NONE', ( #160 ), #89, .F. ) ;
#871 = ORIENTED_EDGE ( 'NONE', *, *, #568, .F. ) ;
#872 = DIRECTION ( 'NONE',  ( -0.000000000000000000, -0.000000000000000000, 1.000000000000000000 ) ) ;
#873 = CARTESIAN_POINT ( 'NONE',  ( 11.50000000000000355, 23.80000000000000071, 0.000000000000000000 ) ) ;
#874 = ADVANCED_FACE ( 'NONE', ( #608 ), #769, .F. ) ;
#875 = VECTOR ( 'NONE', #298, 1000.000000000000000 ) ;
#876 = STYLED_ITEM ( 'NONE', ( #636 ), #878 ) ;
#877 = FACE_OUTER_BOUND ( 'NONE', #78, .T. ) ;
#878 = MANIFOLD_SOLID_BREP ( 'Cut-Extrude1', #122 ) ;
#879 = FACE_OUTER_BOUND ( 'NONE', #503, .T. ) ;
#880 = AXIS2_PLACEMENT_3D ( 'NONE', #570, #76, #822 ) ;
#881 = ORIENTED_EDGE ( 'NONE', *, *, #382, .F. ) ;
#882 = EDGE_CURVE ( 'NONE', #506, #450, #83, .T. ) ;
#883 = DIRECTION ( 'NONE',  ( 1.000000000000000000, 0.000000000000000000, 0.000000000000000000 ) ) ;
#884 = FACE_BOUND ( 'NONE', #51, .T. ) ;
#885 = DIRECTION ( 'NONE',  ( 1.000000000000000000, 0.000000000000000000, 0.000000000000000000 ) ) ;
#886 = EDGE_LOOP ( 'NONE', ( #910, #1010, #738, #734 ) ) ;
#887 = LINE ( 'NONE', #634, #416 ) ;
#888 = DIRECTION ( 'NONE',  ( 1.000000000000000000, 0.000000000000000000, 0.000000000000000000 ) ) ;
#889 = DIRECTION ( 'NONE',  ( 1.000000000000000000, 0.000000000000000000, 0.000000000000000000 ) ) ;
#890 = DIRECTION ( 'NONE',  ( 1.000000000000000000, 0.000000000000000000, 0.000000000000000000 ) ) ;
#891 = ADVANCED_FACE ( 'NONE', ( #855 ), #530, .F. ) ;
#892 = ORIENTED_EDGE ( 'NONE', *, *, #571, .F. ) ;
#893 = CARTESIAN_POINT ( 'NONE',  ( 3.049157602142239298, 9.800000000000000711, 0.000000000000000000 ) ) ;
#894 = LINE ( 'NONE', #543, #683 ) ;
#895 = DIRECTION ( 'NONE',  ( 0.000000000000000000, 0.000000000000000000, 1.000000000000000000 ) ) ;
#896 = DIRECTION ( 'NONE',  ( 1.000000000000000000, 0.000000000000000000, 0.000000000000000000 ) ) ;
#897 = AXIS2_PLACEMENT_3D ( 'NONE', #238, #473, #479 ) ;
#898 = CARTESIAN_POINT ( 'NONE',  ( 53.00000000000000000, 26.80000000000000071, 1.199999999999999956 ) ) ;
#899 = MECHANICAL_DESIGN_GEOMETRIC_PRESENTATION_REPRESENTATION (  '', ( #598 ), #614 ) ;
#900 = VERTEX_POINT ( 'NONE', #260 ) ;
#901 = VERTEX_POINT ( 'NONE', #432 ) ;
#902 = CARTESIAN_POINT ( 'NONE',  ( 16.04915760214224107, 9.800000000000000711, 0.000000000000000000 ) ) ;
#903 = CARTESIAN_POINT ( 'NONE',  ( 6.049157602142238410, 19.80000000000000071, 0.000000000000000000 ) ) ;
#904 = LINE ( 'NONE', #1065, #259 ) ;
#905 =( LENGTH_UNIT ( ) NAMED_UNIT ( * ) SI_UNIT ( .MILLI., .METRE. ) );
#906 = ORIENTED_EDGE ( 'NONE', *, *, #1063, .F. ) ;
#907 = CARTESIAN_POINT ( 'NONE',  ( 39.04915760214223752, 9.800000000000000711, 1.199999999999999956 ) ) ;
#908 = CARTESIAN_POINT ( 'NONE',  ( 41.50000000000000000, 26.80000000000000071, 1.199999999999999956 ) ) ;
#909 = EDGE_LOOP ( 'NONE', ( #871, #430, #279, #706 ) ) ;
#910 = ORIENTED_EDGE ( 'NONE', *, *, #529, .F. ) ;
#911 = DIRECTION ( 'NONE',  ( -1.000000000000000000, 0.000000000000000000, 0.000000000000000000 ) ) ;
#912 = CARTESIAN_POINT ( 'NONE',  ( 11.50000000000000355, 23.80000000000000071, 1.199999999999999956 ) ) ;
#913 = ORIENTED_EDGE ( 'NONE', *, *, #522, .T. ) ;
#914 = CIRCLE ( 'NONE', #580, 2.999999999999995559 ) ;
#915 = CIRCLE ( 'NONE', #359, 2.999999999999999112 ) ;
#916 = FACE_OUTER_BOUND ( 'NONE', #88, .T. ) ;
#917 = ORIENTED_EDGE ( 'NONE', *, *, #351, .F. ) ;
#918 = EDGE_CURVE ( 'NONE', #1008, #948, #213, .T. ) ;
#919 = CIRCLE ( 'NONE', #290, 3.000000000000002665 ) ;
#920 = AXIS2_PLACEMENT_3D ( 'NONE', #171, #199, #67 ) ;
#921 = CARTESIAN_POINT ( 'NONE',  ( 53.00000000000000000, 0.000000000000000000, 1.199999999999999956 ) ) ;
#922 = AXIS2_PLACEMENT_3D ( 'NONE', #645, #64, #1064 ) ;
#923 = VERTEX_POINT ( 'NONE', #77 ) ;
#924 = CARTESIAN_POINT ( 'NONE',  ( 43.04915760214223752, 19.80000000000000071, 1.199999999999999956 ) ) ;
#925 = EDGE_LOOP ( 'NONE', ( #809, #490 ) ) ;
#926 = VERTEX_POINT ( 'NONE', #564 ) ;
#927 = EDGE_CURVE ( 'NONE', #470, #73, #142, .T. ) ;
#928 = ORIENTED_EDGE ( 'NONE', *, *, #135, .T. ) ;
#929 = EDGE_CURVE ( 'NONE', #410, #926, #1031, .T. ) ;
#930 = CARTESIAN_POINT ( 'NONE',  ( 36.04915760214223752, 9.800000000000000711, 1.199999999999999956 ) ) ;
#931 = CARTESIAN_POINT ( 'NONE',  ( 53.00000000000000000, 26.80000000000000071, 1.199999999999999956 ) ) ;
#932 = VERTEX_POINT ( 'NONE', #898 ) ;
#933 = AXIS2_PLACEMENT_3D ( 'NONE', #1020, #435, #441 ) ;
#934 = AXIS2_PLACEMENT_3D ( 'NONE', #114, #268, #335 ) ;
#935 = EDGE_CURVE ( 'NONE', #16, #113, #628, .T. ) ;
#936 = VERTEX_POINT ( 'NONE', #521 ) ;
#937 = ORIENTED_EDGE ( 'NONE', *, *, #80, .F. ) ;
#938 = EDGE_CURVE ( 'NONE', #1067, #996, #976, .T. ) ;
#939 = ORIENTED_EDGE ( 'NONE', *, *, #486, .F. ) ;
#940 = ORIENTED_EDGE ( 'NONE', *, *, #158, .F. ) ;
#941 = EDGE_CURVE ( 'NONE', #110, #1067, #797, .T. ) ;
#942 = CARTESIAN_POINT ( 'NONE',  ( -0.000000000000000000, 23.80000000000000071, 0.000000000000000000 ) ) ;
#943 = CARTESIAN_POINT ( 'NONE',  ( 6.049157602142238410, 19.80000000000000071, 1.199999999999999956 ) ) ;
#944 = ORIENTED_EDGE ( 'NONE', *, *, #882, .T. ) ;
#945 = ADVANCED_FACE ( 'NONE', ( #879 ), #138, .T. ) ;
#946 = FACE_BOUND ( 'NONE', #295, .T. ) ;
#947 = DIRECTION ( 'NONE',  ( 0.000000000000000000, 0.000000000000000000, 1.000000000000000000 ) ) ;
#948 = VERTEX_POINT ( 'NONE', #1061 ) ;
#949 = FACE_BOUND ( 'NONE', #991, .T. ) ;
#950 = DIRECTION ( 'NONE',  ( 0.000000000000000000, 0.000000000000000000, 1.000000000000000000 ) ) ;
#951 = DIRECTION ( 'NONE',  ( -0.000000000000000000, -0.000000000000000000, 1.000000000000000000 ) ) ;
#952 = ORIENTED_EDGE ( 'NONE', *, *, #175, .F. ) ;
#953 = EDGE_CURVE ( 'NONE', #682, #758, #145, .T. ) ;
#954 = CARTESIAN_POINT ( 'NONE',  ( 39.04915760214223752, 19.80000000000000071, 1.199999999999999956 ) ) ;
#955 = FACE_OUTER_BOUND ( 'NONE', #844, .T. ) ;
#956 = ADVANCED_FACE ( 'NONE', ( #965 ), #778, .T. ) ;
#957 = CYLINDRICAL_SURFACE ( 'NONE', #453, 3.000000000000002665 ) ;
#958 = DIRECTION ( 'NONE',  ( 1.000000000000000000, 0.000000000000000000, 0.000000000000000000 ) ) ;
#959 = ORIENTED_EDGE ( 'NONE', *, *, #568, .T. ) ;
#960 = CARTESIAN_POINT ( 'NONE',  ( 0.000000000000000000, 23.80000000000000071, 1.199999999999999956 ) ) ;
#961 = CIRCLE ( 'NONE', #437, 3.000000000000002665 ) ;
#962 = VECTOR ( 'NONE', #951, 1000.000000000000000 ) ;
#963 = DIRECTION ( 'NONE',  ( 1.000000000000000000, 0.000000000000000000, 0.000000000000000000 ) ) ;
#964 = VECTOR ( 'NONE', #558, 1000.000000000000000 ) ;
#965 = FACE_OUTER_BOUND ( 'NONE', #666, .T. ) ;
#966 = AXIS2_PLACEMENT_3D ( 'NONE', #390, #53, #556 ) ;
#967 = ORIENTED_EDGE ( 'NONE', *, *, #522, .F. ) ;
#968 = DIRECTION ( 'NONE',  ( 0.000000000000000000, -1.000000000000000000, 0.000000000000000000 ) ) ;
#969 = CYLINDRICAL_SURFACE ( 'NONE', #403, 2.999999999999999112 ) ;
#970 = EDGE_CURVE ( 'NONE', #235, #833, #850, .T. ) ;
#971 = FACE_BOUND ( 'NONE', #106, .T. ) ;
#972 = LINE ( 'NONE', #552, #452 ) ;
#973 = ORIENTED_EDGE ( 'NONE', *, *, #211, .T. ) ;
#974 = CARTESIAN_POINT ( 'NONE',  ( 13.04915760214224285, 9.800000000000000711, 0.000000000000000000 ) ) ;
#975 = CARTESIAN_POINT ( 'NONE',  ( 26.04915760214223752, 9.800000000000000711, 0.000000000000000000 ) ) ;
#976 = LINE ( 'NONE', #538, #255 ) ;
#977 = EDGE_LOOP ( 'NONE', ( #90, #1006, #752, #592 ) ) ;
#978 = VERTEX_POINT ( 'NONE', #1023 ) ;
#979 = FACE_BOUND ( 'NONE', #610, .T. ) ;
#980 = DIRECTION ( 'NONE',  ( 0.000000000000000000, 1.000000000000000000, -0.000000000000000000 ) ) ;
#981 = PLANE ( 'NONE',  #880 ) ;
#982 = VECTOR ( 'NONE', #149, 1000.000000000000000 ) ;
#983 = VECTOR ( 'NONE', #680, 1000.000000000000000 ) ;
#984 = ORIENTED_EDGE ( 'NONE', *, *, #802, .F. ) ;
#985 = CARTESIAN_POINT ( 'NONE',  ( 26.04915760214223752, 9.800000000000000711, 1.199999999999999956 ) ) ;
#986 = DIRECTION ( 'NONE',  ( -0.000000000000000000, -0.000000000000000000, -1.000000000000000000 ) ) ;
#987 = EDGE_CURVE ( 'NONE', #28, #978, #813, .T. ) ;
#988 =( LENGTH_UNIT ( ) NAMED_UNIT ( * ) SI_UNIT ( .MILLI., .METRE. ) );
#989 = ORIENTED_EDGE ( 'NONE', *, *, #1013, .T. ) ;
#990 = CARTESIAN_POINT ( 'NONE',  ( 0.000000000000000000, 26.80000000000000071, 1.199999999999999956 ) ) ;
#991 = EDGE_LOOP ( 'NONE', ( #659, #233 ) ) ;
#992 = ADVANCED_FACE ( 'NONE', ( #50 ), #721, .F. ) ;
#993 = CARTESIAN_POINT ( 'NONE',  ( 0.000000000000000000, 26.80000000000000071, 1.199999999999999956 ) ) ;
#994 =( NAMED_UNIT ( * ) SI_UNIT ( $, .STERADIAN. ) SOLID_ANGLE_UNIT ( ) );
#995 = EDGE_CURVE ( 'NONE', #630, #201, #670, .T. ) ;
#996 = VERTEX_POINT ( 'NONE', #546 ) ;
#997 = EDGE_LOOP ( 'NONE', ( #560, #405, #664, #750 ) ) ;
#998 = DIRECTION ( 'NONE',  ( 1.000000000000000000, 0.000000000000000000, 0.000000000000000000 ) ) ;
#999 = ORIENTED_EDGE ( 'NONE', *, *, #681, .F. ) ;
#1000 = VECTOR ( 'NONE', #837, 1000.000000000000000 ) ;
#1001 = AXIS2_PLACEMENT_3D ( 'NONE', #790, #613, #774 ) ;
#1002 = AXIS2_PLACEMENT_3D ( 'NONE', #520, #464, #729 ) ;
#1003 = CARTESIAN_POINT ( 'NONE',  ( 16.04915760214224107, 9.800000000000000711, 1.199999999999999956 ) ) ;
#1004 = ORIENTED_EDGE ( 'NONE', *, *, #409, .F. ) ;
#1005 = AXIS2_PLACEMENT_3D ( 'NONE', #34, #803, #688 ) ;
#1006 = ORIENTED_EDGE ( 'NONE', *, *, #175, .T. ) ;
#1007 = DIRECTION ( 'NONE',  ( 0.000000000000000000, 0.000000000000000000, 1.000000000000000000 ) ) ;
#1008 = VERTEX_POINT ( 'NONE', #469 ) ;
#1009 = DIRECTION ( 'NONE',  ( 1.000000000000000000, 0.000000000000000000, 0.000000000000000000 ) ) ;
#1010 = ORIENTED_EDGE ( 'NONE', *, *, #935, .T. ) ;
#1011 = DIRECTION ( 'NONE',  ( -0.000000000000000000, -0.000000000000000000, 1.000000000000000000 ) ) ;
#1012 = EDGE_CURVE ( 'NONE', #45, #615, #400, .T. ) ;
#1013 = EDGE_CURVE ( 'NONE', #926, #1067, #133, .T. ) ;
#1014 = DIRECTION ( 'NONE',  ( 1.000000000000000000, 0.000000000000000000, 0.000000000000000000 ) ) ;
#1015 = ORIENTED_EDGE ( 'NONE', *, *, #351, .T. ) ;
#1016 = MECHANICAL_DESIGN_GEOMETRIC_PRESENTATION_REPRESENTATION (  '', ( #876 ), #269 ) ;
#1017 = EDGE_CURVE ( 'NONE', #337, #728, #293, .T. ) ;
#1018 = VECTOR ( 'NONE', #624, 1000.000000000000000 ) ;
#1019 = DIRECTION ( 'NONE',  ( 1.000000000000000000, 0.000000000000000000, 0.000000000000000000 ) ) ;
#1020 = CARTESIAN_POINT ( 'NONE',  ( 26.04915760214223752, 19.80000000000000071, 0.000000000000000000 ) ) ;
#1021 = ORIENTED_EDGE ( 'NONE', *, *, #75, .F. ) ;
#1022 = ORIENTED_EDGE ( 'NONE', *, *, #275, .T. ) ;
#1023 = CARTESIAN_POINT ( 'NONE',  ( 3.049157602142239298, 9.800000000000000711, 1.199999999999999956 ) ) ;
#1024 = CARTESIAN_POINT ( 'NONE',  ( 29.04915760214223752, 9.800000000000000711, 0.000000000000000000 ) ) ;
#1025 = EDGE_CURVE ( 'NONE', #450, #506, #762, .T. ) ;
#1026 = ORIENTED_EDGE ( 'NONE', *, *, #264, .F. ) ;
#1027 = LINE ( 'NONE', #415, #507 ) ;
#1028 = CYLINDRICAL_SURFACE ( 'NONE', #934, 3.000000000000002665 ) ;
#1029 = EDGE_LOOP ( 'NONE', ( #33, #567, #658, #533 ) ) ;
#1030 = ADVANCED_FACE ( 'NONE', ( #215 ), #182, .F. ) ;
#1031 = LINE ( 'NONE', #812, #964 ) ;
#1032 = CIRCLE ( 'NONE', #581, 2.999999999999999112 ) ;
#1033 = AXIS2_PLACEMENT_3D ( 'NONE', #41, #341, #1014 ) ;
#1034 = CARTESIAN_POINT ( 'NONE',  ( 16.04915760214224107, 19.80000000000000071, 0.000000000000000000 ) ) ;
#1035 = ORIENTED_EDGE ( 'NONE', *, *, #941, .F. ) ;
#1036 = LINE ( 'NONE', #736, #187 ) ;
#1037 = CARTESIAN_POINT ( 'NONE',  ( 11.50000000000000355, 0.000000000000000000, 1.199999999999999956 ) ) ;
#1038 = CARTESIAN_POINT ( 'NONE',  ( 16.04915760214224107, 9.800000000000000711, 0.000000000000000000 ) ) ;
#1039 = DIRECTION ( 'NONE',  ( -0.000000000000000000, -0.000000000000000000, 1.000000000000000000 ) ) ;
#1040 = CARTESIAN_POINT ( 'NONE',  ( 19.04915760214223752, 19.80000000000000071, 0.000000000000000000 ) ) ;
#1041 = DIRECTION ( 'NONE',  ( 0.000000000000000000, 0.000000000000000000, 1.000000000000000000 ) ) ;
#1042 = ORIENTED_EDGE ( 'NONE', *, *, #95, .T. ) ;
#1043 = DIRECTION ( 'NONE',  ( 1.000000000000000000, 0.000000000000000000, 0.000000000000000000 ) ) ;
#1044 = DIRECTION ( 'NONE',  ( 1.000000000000000000, 0.000000000000000000, 0.000000000000000000 ) ) ;
#1045 = EDGE_CURVE ( 'NONE', #235, #450, #972, .T. ) ;
#1046 = CARTESIAN_POINT ( 'NONE',  ( 26.04915760214223752, 19.80000000000000071, 0.000000000000000000 ) ) ;
#1047 = DIRECTION ( 'NONE',  ( -0.000000000000000000, -0.000000000000000000, 1.000000000000000000 ) ) ;
#1048 = DIRECTION ( 'NONE',  ( 0.000000000000000000, 0.000000000000000000, 1.000000000000000000 ) ) ;
#1049 = EDGE_LOOP ( 'NONE', ( #989, #1035, #444, #61 ) ) ;
#1050 = EDGE_CURVE ( 'NONE', #595, #606, #919, .T. ) ;
#1051 = CYLINDRICAL_SURFACE ( 'NONE', #174, 3.000000000000002665 ) ;
#1052 = VECTOR ( 'NONE', #756, 1000.000000000000000 ) ;
#1053 = FACE_OUTER_BOUND ( 'NONE', #690, .T. ) ;
#1054 = VECTOR ( 'NONE', #638, 1000.000000000000000 ) ;
#1055 = CIRCLE ( 'NONE', #719, 2.999999999999999112 ) ;
#1056 = DIRECTION ( 'NONE',  ( 1.000000000000000000, 0.000000000000000000, 0.000000000000000000 ) ) ;
#1057 = EDGE_LOOP ( 'NONE', ( #56, #1066 ) ) ;
#1058 = DIRECTION ( 'NONE',  ( 0.000000000000000000, 0.000000000000000000, 1.000000000000000000 ) ) ;
#1059 = DIRECTION ( 'NONE',  ( -0.000000000000000000, -0.000000000000000000, 1.000000000000000000 ) ) ;
#1060 = CARTESIAN_POINT ( 'NONE',  ( 23.04915760214224107, 19.80000000000000071, 1.199999999999999956 ) ) ;
#1061 = CARTESIAN_POINT ( 'NONE',  ( 0.000000000000000000, 26.80000000000000071, 0.000000000000000000 ) ) ;
#1062 = VERTEX_POINT ( 'NONE', #396 ) ;
#1063 = EDGE_CURVE ( 'NONE', #116, #258, #699, .T. ) ;
#1064 = DIRECTION ( 'NONE',  ( 1.000000000000000000, 0.000000000000000000, 0.000000000000000000 ) ) ;
#1065 = CARTESIAN_POINT ( 'NONE',  ( 11.50000000000000355, 23.80000000000000071, 1.199999999999999956 ) ) ;
#1066 = ORIENTED_EDGE ( 'NONE', *, *, #579, .T. ) ;
#1067 = VERTEX_POINT ( 'NONE', #313 ) ;
#1068 = DIRECTION ( 'NONE',  ( 1.000000000000000000, 0.000000000000000000, 0.000000000000000000 ) ) ;
#1069 = CARTESIAN_POINT ( 'NONE',  ( 43.04915760214223752, 9.800000000000000711, 1.199999999999999956 ) ) ;
#1070 = VECTOR ( 'NONE', #737, 1000.000000000000000 ) ;
#1071 = VECTOR ( 'NONE', #105, 1000.000000000000000 ) ;
#1072 = CARTESIAN_POINT ( 'NONE',  ( 26.04915760214223752, 19.80000000000000071, 1.199999999999999956 ) ) ;
#1073 = VECTOR ( 'NONE', #872, 1000.000000000000000 ) ;
#1074 = CARTESIAN_POINT ( 'NONE',  ( -0.000000000000000000, 26.80000000000000071, 0.000000000000000000 ) ) ;
ENDSEC;
END-ISO-10303-21;
