ISO-10303-21;
HEADER;
FILE_DESCRIPTION (( 'STEP AP214' ),
    '1' );
FILE_NAME ('plate cover.STEP',
    '2026-04-26T13:26:50',
    ( '' ),
    ( '' ),
    'SwSTEP 2.0',
    'SolidWorks 2022',
    '' );
FILE_SCHEMA (( 'AUTOMOTIVE_DESIGN' ));
ENDSEC;

DATA;
#1 = ORIENTED_EDGE ( 'NONE', *, *, #56, .F. ) ;
#2 = ADVANCED_FACE ( 'NONE', ( #266 ), #204, .F. ) ;
#3 = ORIENTED_EDGE ( 'NONE', *, *, #388, .T. ) ;
#4 = VERTEX_POINT ( 'NONE', #293 ) ;
#5 = ORIENTED_EDGE ( 'NONE', *, *, #111, .T. ) ;
#6 = VECTOR ( 'NONE', #398, 1000.000000000000000 ) ;
#7 = EDGE_CURVE ( 'NONE', #4, #137, #48, .T. ) ;
#8 = VERTEX_POINT ( 'NONE', #76 ) ;
#9 = LINE ( 'NONE', #268, #141 ) ;
#10 = CARTESIAN_POINT ( 'NONE',  ( -25.60000000000051301, 0.000000000000000000, -27.19999999998423590 ) ) ;
#11 = EDGE_CURVE ( 'NONE', #382, #63, #324, .T. ) ;
#12 = VECTOR ( 'NONE', #406, 1000.000000000000000 ) ;
#13 =( NAMED_UNIT ( * ) PLANE_ANGLE_UNIT ( ) SI_UNIT ( $, .RADIAN. ) );
#14 = CARTESIAN_POINT ( 'NONE',  ( -25.59999999999955733, 119.5999999999999943, -25.59999999998423448 ) ) ;
#15 = AXIS2_PLACEMENT_3D ( 'NONE', #389, #174, #297 ) ;
#16 = AXIS2_PLACEMENT_3D ( 'NONE', #65, #39, #228 ) ;
#17 = LINE ( 'NONE', #244, #260 ) ;
#18 = EDGE_CURVE ( 'NONE', #230, #316, #77, .T. ) ;
#19 = VERTEX_POINT ( 'NONE', #75 ) ;
#20 = PRODUCT ( 'plate cover', 'plate cover', '', ( #317 ) ) ;
#21 = CARTESIAN_POINT ( 'NONE',  ( -25.59999999999955733, 0.000000000000000000, -25.59999999998423448 ) ) ;
#22 = EDGE_LOOP ( 'NONE', ( #284, #190, #295, #129 ) ) ;
#23 = DIRECTION ( 'NONE',  ( 0.000000000000000000, 1.000000000000000000, 0.000000000000000000 ) ) ;
#24 = ORIENTED_EDGE ( 'NONE', *, *, #243, .F. ) ;
#25 = CARTESIAN_POINT ( 'NONE',  ( 6.584728499291196968, 71.13806785861181936, -27.30000000000345395 ) ) ;
#26 = STYLED_ITEM ( 'NONE', ( #294 ), #64 ) ;
#27 =( GEOMETRIC_REPRESENTATION_CONTEXT ( 3 ) GLOBAL_UNCERTAINTY_ASSIGNED_CONTEXT ( ( #340 ) ) GLOBAL_UNIT_ASSIGNED_CONTEXT ( ( #301, #126, #353 ) ) REPRESENTATION_CONTEXT ( 'NONE', 'WORKASPACE' ) );
#28 = PLANE ( 'NONE',  #358 ) ;
#29 = AXIS2_PLACEMENT_3D ( 'NONE', #334, #369, #87 ) ;
#30 = ORIENTED_EDGE ( 'NONE', *, *, #305, .T. ) ;
#31 = DIRECTION ( 'NONE',  ( 1.000000000000000000, 0.000000000000000000, -5.971136880088597381E-13 ) ) ;
#32 = CARTESIAN_POINT ( 'NONE',  ( -25.59999999999955733, 0.000000000000000000, -25.59999999998423448 ) ) ;
#33 = UNCERTAINTY_MEASURE_WITH_UNIT (LENGTH_MEASURE( 1.000000000000000082E-05 ), #219, 'distance_accuracy_value', 'NONE');
#34 = FACE_BOUND ( 'NONE', #123, .T. ) ;
#35 = LINE ( 'NONE', #37, #74 ) ;
#36 = EDGE_LOOP ( 'NONE', ( #396, #229, #182, #380 ) ) ;
#37 = CARTESIAN_POINT ( 'NONE',  ( -25.60000000000051301, 119.5999999999999943, -27.19999999998423590 ) ) ;
#38 = VERTEX_POINT ( 'NONE', #136 ) ;
#39 = DIRECTION ( 'NONE',  ( 0.000000000000000000, 0.000000000000000000, 1.000000000000000000 ) ) ;
#40 = ORIENTED_EDGE ( 'NONE', *, *, #290, .F. ) ;
#41 = VERTEX_POINT ( 'NONE', #10 ) ;
#42 = VERTEX_POINT ( 'NONE', #237 ) ;
#43 = AXIS2_PLACEMENT_3D ( 'NONE', #106, #329, #135 ) ;
#44 = CARTESIAN_POINT ( 'NONE',  ( 6.584728499291259141, 71.13806785861181936, -27.20000000000345253 ) ) ;
#45 = SURFACE_STYLE_FILL_AREA ( #173 ) ;
#46 = EDGE_CURVE ( 'NONE', #85, #230, #109, .T. ) ;
#47 = SURFACE_SIDE_STYLE ('',( #45 ) ) ;
#48 = CIRCLE ( 'NONE', #43, 7.867230759036781151 ) ;
#49 = DIRECTION ( 'NONE',  ( 1.000000000000000000, 0.000000000000000000, -5.970432481738896513E-13 ) ) ;
#50 = PLANE ( 'NONE',  #15 ) ;
#51 = CARTESIAN_POINT ( 'NONE',  ( 1.399999999999429479, 119.5999999999999943, -27.30000000000035598 ) ) ;
#52 = APPLICATION_PROTOCOL_DEFINITION ( 'draft international standard', 'automotive_design', 1998, #242 ) ;
#53 = COLOUR_RGB ( '',0.7921568627450980005, 0.8196078431372548767, 0.9333333333333333481 ) ;
#54 = DIRECTION ( 'NONE',  ( -5.970432481738896513E-13, 0.000000000000000000, -1.000000000000000000 ) ) ;
#55 = FACE_OUTER_BOUND ( 'NONE', #275, .T. ) ;
#56 = EDGE_CURVE ( 'NONE', #71, #8, #331, .T. ) ;
#57 = PLANE ( 'NONE',  #206 ) ;
#58 = CARTESIAN_POINT ( 'NONE',  ( -25.59999999999955733, 119.5999999999999943, -25.59999999998423448 ) ) ;
#59 = PLANE ( 'NONE',  #186 ) ;
#60 = CARTESIAN_POINT ( 'NONE',  ( -25.59999999999955733, 0.000000000000000000, -25.59999999998423448 ) ) ;
#61 = FILL_AREA_STYLE_COLOUR ( '', #53 ) ;
#62 = LINE ( 'NONE', #315, #12 ) ;
#63 = VERTEX_POINT ( 'NONE', #171 ) ;
#64 = MANIFOLD_SOLID_BREP ( 'Body-Move/Copy1', #240 ) ;
#65 = CARTESIAN_POINT ( 'NONE',  ( 0.000000000000000000, 0.000000000000000000, 0.000000000000000000 ) ) ;
#66 = DIRECTION ( 'NONE',  ( 0.000000000000000000, -1.000000000000000000, 0.000000000000000000 ) ) ;
#67 = EDGE_CURVE ( 'NONE', #72, #137, #392, .T. ) ;
#68 = VERTEX_POINT ( 'NONE', #110 ) ;
#69 = VECTOR ( 'NONE', #208, 1000.000000000000000 ) ;
#70 = ORIENTED_EDGE ( 'NONE', *, *, #11, .T. ) ;
#71 = VERTEX_POINT ( 'NONE', #238 ) ;
#72 = VERTEX_POINT ( 'NONE', #44 ) ;
#73 = VECTOR ( 'NONE', #23, 1000.000000000000000 ) ;
#74 = VECTOR ( 'NONE', #311, 1000.000000000000000 ) ;
#75 = CARTESIAN_POINT ( 'NONE',  ( 6.584728499292216597, 50.77582354110486307, -25.60000000000345466 ) ) ;
#76 = CARTESIAN_POINT ( 'NONE',  ( 22.31919001736482144, 50.77582354110486307, -27.20000000001284590 ) ) ;
#77 = LINE ( 'NONE', #108, #327 ) ;
#78 = VECTOR ( 'NONE', #98, 1000.000000000000000 ) ;
#79 = FACE_OUTER_BOUND ( 'NONE', #291, .T. ) ;
#80 = ADVANCED_FACE ( 'NONE', ( #79 ), #50, .F. ) ;
#81 = CARTESIAN_POINT ( 'NONE',  ( 6.584728499291259141, 0.000000000000000000, -27.20000000000345253 ) ) ;
#82 = CARTESIAN_POINT ( 'NONE',  ( 27.20000000000044693, 119.5999999999999943, -25.60000000001575771 ) ) ;
#83 = APPLICATION_CONTEXT ( 'automotive_design' ) ;
#84 = CARTESIAN_POINT ( 'NONE',  ( 1.399999999999491873, 84.59999999999999432, -27.20000000000035456 ) ) ;
#85 = VERTEX_POINT ( 'NONE', #262 ) ;
#86 = CARTESIAN_POINT ( 'NONE',  ( 14.45195925832797812, 50.77582354110486307, -27.30000000000815064 ) ) ;
#87 = DIRECTION ( 'NONE',  ( -5.970432481738896513E-13, 0.000000000000000000, -1.000000000000000000 ) ) ;
#88 = EDGE_CURVE ( 'NONE', #378, #38, #9, .T. ) ;
#89 = CARTESIAN_POINT ( 'NONE',  ( 14.45195925832797812, 71.13806785861181936, -27.30000000000815064 ) ) ;
#90 = DIRECTION ( 'NONE',  ( 0.000000000000000000, 1.000000000000000000, 0.000000000000000000 ) ) ;
#91 = DIRECTION ( 'NONE',  ( -1.000000000000000000, 0.000000000000000000, 5.970432481738896513E-13 ) ) ;
#92 = ORIENTED_EDGE ( 'NONE', *, *, #296, .T. ) ;
#93 = LINE ( 'NONE', #333, #318 ) ;
#94 = PRESENTATION_LAYER_ASSIGNMENT (  '', '', ( #26 ) ) ;
#95 = VECTOR ( 'NONE', #271, 1000.000000000000000 ) ;
#96 = CARTESIAN_POINT ( 'NONE',  ( 22.31919001736475749, 71.13806785861181936, -27.30000000001284377 ) ) ;
#97 = ORIENTED_EDGE ( 'NONE', *, *, #88, .F. ) ;
#98 = DIRECTION ( 'NONE',  ( -5.970432481738896513E-13, -0.000000000000000000, -1.000000000000000000 ) ) ;
#99 = ORIENTED_EDGE ( 'NONE', *, *, #111, .F. ) ;
#100 = ORIENTED_EDGE ( 'NONE', *, *, #198, .T. ) ;
#101 = VECTOR ( 'NONE', #49, 1000.000000000000000 ) ;
#102 = EDGE_CURVE ( 'NONE', #378, #68, #241, .T. ) ;
#103 = AXIS2_PLACEMENT_3D ( 'NONE', #86, #118, #183 ) ;
#104 = ORIENTED_EDGE ( 'NONE', *, *, #67, .T. ) ;
#105 = ORIENTED_EDGE ( 'NONE', *, *, #290, .T. ) ;
#106 = CARTESIAN_POINT ( 'NONE',  ( 14.45195925832899775, 71.13806785861181936, -25.60000000000815135 ) ) ;
#107 = CARTESIAN_POINT ( 'NONE',  ( 1.399999999999498979, 2.676430505792788934E-15, -27.20000000000035456 ) ) ;
#108 = CARTESIAN_POINT ( 'NONE',  ( -25.60000000000051301, 84.59999999999999432, -27.19999999998423590 ) ) ;
#109 = LINE ( 'NONE', #107, #205 ) ;
#110 = CARTESIAN_POINT ( 'NONE',  ( 1.400000000000442668, 119.5999999999999943, -25.60000000000036025 ) ) ;
#111 = EDGE_CURVE ( 'NONE', #230, #63, #338, .T. ) ;
#112 = DIRECTION ( 'NONE',  ( -5.970432481738896513E-13, -0.000000000000000000, -1.000000000000000000 ) ) ;
#113 = FACE_OUTER_BOUND ( 'NONE', #197, .T. ) ;
#114 = LINE ( 'NONE', #81, #69 ) ;
#115 = DIRECTION ( 'NONE',  ( 5.970432481738896513E-13, 0.000000000000000000, 1.000000000000000000 ) ) ;
#116 = EDGE_CURVE ( 'NONE', #121, #38, #251, .T. ) ;
#117 = LINE ( 'NONE', #60, #95 ) ;
#118 = DIRECTION ( 'NONE',  ( 5.970432481738896513E-13, 0.000000000000000000, 1.000000000000000000 ) ) ;
#119 = STYLED_ITEM ( 'NONE', ( #394 ), #139 ) ;
#120 = PLANE ( 'NONE',  #343 ) ;
#121 = VERTEX_POINT ( 'NONE', #365 ) ;
#122 = FACE_BOUND ( 'NONE', #257, .T. ) ;
#123 = EDGE_LOOP ( 'NONE', ( #356, #254, #130, #1 ) ) ;
#124 = LINE ( 'NONE', #256, #323 ) ;
#125 = VERTEX_POINT ( 'NONE', #184 ) ;
#126 =( NAMED_UNIT ( * ) PLANE_ANGLE_UNIT ( ) SI_UNIT ( $, .RADIAN. ) );
#127 = VECTOR ( 'NONE', #150, 1000.000000000000000 ) ;
#128 = LINE ( 'NONE', #96, #167 ) ;
#129 = ORIENTED_EDGE ( 'NONE', *, *, #88, .T. ) ;
#130 = ORIENTED_EDGE ( 'NONE', *, *, #388, .F. ) ;
#131 = EDGE_CURVE ( 'NONE', #383, #378, #246, .T. ) ;
#132 = ORIENTED_EDGE ( 'NONE', *, *, #243, .T. ) ;
#133 = AXIS2_PLACEMENT_3D ( 'NONE', #189, #379, #158 ) ;
#134 = ORIENTED_EDGE ( 'NONE', *, *, #11, .F. ) ;
#135 = DIRECTION ( 'NONE',  ( 1.000000000000000000, 0.000000000000000000, -5.971136880088597381E-13 ) ) ;
#136 = CARTESIAN_POINT ( 'NONE',  ( 27.19999999999948770, 119.5999999999999943, -27.20000000001575913 ) ) ;
#137 = VERTEX_POINT ( 'NONE', #249 ) ;
#138 = EDGE_CURVE ( 'NONE', #8, #125, #309, .T. ) ;
#139 = ADVANCED_BREP_SHAPE_REPRESENTATION ( 'plate cover', ( #64, #16 ), #328 ) ;
#140 = DIRECTION ( 'NONE',  ( 0.000000000000000000, -1.000000000000000000, 0.000000000000000000 ) ) ;
#141 = VECTOR ( 'NONE', #112, 1000.000000000000000 ) ;
#142 = AXIS2_PLACEMENT_3D ( 'NONE', #201, #169, #359 ) ;
#143 = LINE ( 'NONE', #21, #127 ) ;
#144 = EDGE_LOOP ( 'NONE', ( #289, #104, #217, #357 ) ) ;
#145 = EDGE_CURVE ( 'NONE', #382, #321, #143, .T. ) ;
#146 = CARTESIAN_POINT ( 'NONE',  ( -25.59999999999955733, 0.000000000000000000, -25.59999999998423448 ) ) ;
#147 = PLANE ( 'NONE',  #176 ) ;
#148 = ORIENTED_EDGE ( 'NONE', *, *, #7, .F. ) ;
#149 = CARTESIAN_POINT ( 'NONE',  ( 14.45195925832804029, 50.77582354110486307, -27.20000000000814921 ) ) ;
#150 = DIRECTION ( 'NONE',  ( 0.000000000000000000, -1.000000000000000000, -0.000000000000000000 ) ) ;
#151 = FACE_OUTER_BOUND ( 'NONE', #258, .T. ) ;
#152 = MECHANICAL_DESIGN_GEOMETRIC_PRESENTATION_REPRESENTATION (  '', ( #119 ), #27 ) ;
#153 = DIRECTION ( 'NONE',  ( 0.000000000000000000, 1.000000000000000000, 0.000000000000000000 ) ) ;
#154 = ORIENTED_EDGE ( 'NONE', *, *, #116, .T. ) ;
#155 = DIRECTION ( 'NONE',  ( -1.000000000000000000, 0.000000000000000000, 5.970432481738896513E-13 ) ) ;
#156 = DIRECTION ( 'NONE',  ( 5.970432481738896513E-13, 0.000000000000000000, 1.000000000000000000 ) ) ;
#157 = ADVANCED_FACE ( 'NONE', ( #404 ), #28, .F. ) ;
#158 = DIRECTION ( 'NONE',  ( -1.000000000000000000, 0.000000000000000000, 5.971136880088597381E-13 ) ) ;
#159 = ORIENTED_EDGE ( 'NONE', *, *, #67, .F. ) ;
#160 = CIRCLE ( 'NONE', #133, 7.867230759036781151 ) ;
#161 = LINE ( 'NONE', #287, #194 ) ;
#162 = ORIENTED_EDGE ( 'NONE', *, *, #46, .F. ) ;
#163 = APPLICATION_PROTOCOL_DEFINITION ( 'draft international standard', 'automotive_design', 1998, #83 ) ;
#164 = ADVANCED_FACE ( 'NONE', ( #122, #55 ), #147, .F. ) ;
#165 = ORIENTED_EDGE ( 'NONE', *, *, #285, .F. ) ;
#166 = ORIENTED_EDGE ( 'NONE', *, *, #138, .F. ) ;
#167 = VECTOR ( 'NONE', #156, 1000.000000000000000 ) ;
#168 = EDGE_LOOP ( 'NONE', ( #366, #231, #105, #24 ) ) ;
#169 = DIRECTION ( 'NONE',  ( 1.000000000000000000, 0.000000000000000000, -5.970432481738896513E-13 ) ) ;
#170 = ORIENTED_EDGE ( 'NONE', *, *, #374, .T. ) ;
#171 = CARTESIAN_POINT ( 'NONE',  ( 1.400000000000445999, 84.59999999999999432, -25.60000000000036025 ) ) ;
#172 = EDGE_CURVE ( 'NONE', #63, #68, #181, .T. ) ;
#173 = FILL_AREA_STYLE ('',( #387 ) ) ;
#174 = DIRECTION ( 'NONE',  ( -1.000000000000000000, 0.000000000000000000, 5.970432481738896513E-13 ) ) ;
#175 = DIRECTION ( 'NONE',  ( -1.000000000000000000, 0.000000000000000000, 5.970432481738896513E-13 ) ) ;
#176 = AXIS2_PLACEMENT_3D ( 'NONE', #277, #54, #175 ) ;
#177 = EDGE_LOOP ( 'NONE', ( #261, #224, #70, #99 ) ) ;
#178 = AXIS2_PLACEMENT_3D ( 'NONE', #149, #403, #210 ) ;
#179 = DIRECTION ( 'NONE',  ( 1.000000000000000000, 0.000000000000000000, -5.971136880088597381E-13 ) ) ;
#180 = EDGE_CURVE ( 'NONE', #321, #383, #117, .T. ) ;
#181 = LINE ( 'NONE', #373, #6 ) ;
#182 = ORIENTED_EDGE ( 'NONE', *, *, #180, .F. ) ;
#183 = DIRECTION ( 'NONE',  ( 1.000000000000000000, 0.000000000000000000, -5.971136880088597381E-13 ) ) ;
#184 = CARTESIAN_POINT ( 'NONE',  ( 22.31919001736577712, 50.77582354110486307, -25.60000000001284448 ) ) ;
#185 = MECHANICAL_DESIGN_GEOMETRIC_PRESENTATION_REPRESENTATION (  '', ( #26 ), #221 ) ;
#186 = AXIS2_PLACEMENT_3D ( 'NONE', #248, #273, #155 ) ;
#187 = DIRECTION ( 'NONE',  ( 5.970432481738896513E-13, 0.000000000000000000, 1.000000000000000000 ) ) ;
#188 = SURFACE_SIDE_STYLE ('',( #344 ) ) ;
#189 = CARTESIAN_POINT ( 'NONE',  ( 14.45195925832804029, 71.13806785861181936, -27.20000000000814921 ) ) ;
#190 = ORIENTED_EDGE ( 'NONE', *, *, #218, .T. ) ;
#191 = PLANE ( 'NONE',  #402 ) ;
#192 = ADVANCED_FACE ( 'NONE', ( #307 ), #401, .F. ) ;
#193 = ORIENTED_EDGE ( 'NONE', *, *, #276, .F. ) ;
#194 = VECTOR ( 'NONE', #346, 1000.000000000000000 ) ;
#195 = ORIENTED_EDGE ( 'NONE', *, *, #269, .F. ) ;
#196 = ORIENTED_EDGE ( 'NONE', *, *, #172, .T. ) ;
#197 = EDGE_LOOP ( 'NONE', ( #92, #132, #292, #159 ) ) ;
#198 = EDGE_CURVE ( 'NONE', #19, #125, #385, .T. ) ;
#199 = VECTOR ( 'NONE', #336, 1000.000000000000000 ) ;
#200 = ORIENTED_EDGE ( 'NONE', *, *, #145, .F. ) ;
#201 = CARTESIAN_POINT ( 'NONE',  ( 22.31919001736475749, 71.13806785861181936, -27.30000000001284377 ) ) ;
#202 = CARTESIAN_POINT ( 'NONE',  ( 22.31919001736482144, 0.000000000000000000, -27.20000000001284590 ) ) ;
#203 = ADVANCED_FACE ( 'NONE', ( #214 ), #120, .F. ) ;
#204 = PLANE ( 'NONE',  #142 ) ;
#205 = VECTOR ( 'NONE', #234, 1000.000000000000000 ) ;
#206 = AXIS2_PLACEMENT_3D ( 'NONE', #25, #252, #115 ) ;
#207 = SURFACE_STYLE_USAGE ( .BOTH. , #47 ) ;
#208 = DIRECTION ( 'NONE',  ( 0.000000000000000000, 1.000000000000000000, 0.000000000000000000 ) ) ;
#209 = EDGE_LOOP ( 'NONE', ( #200, #399, #320, #349 ) ) ;
#210 = DIRECTION ( 'NONE',  ( -1.000000000000000000, 0.000000000000000000, 5.971136880088597381E-13 ) ) ;
#211 = EDGE_CURVE ( 'NONE', #42, #72, #114, .T. ) ;
#212 = LINE ( 'NONE', #32, #78 ) ;
#213 = CYLINDRICAL_SURFACE ( 'NONE', #103, 7.867230759036781151 ) ;
#214 = FACE_OUTER_BOUND ( 'NONE', #22, .T. ) ;
#215 = CYLINDRICAL_SURFACE ( 'NONE', #286, 7.867230759036781151 ) ;
#216 = DIRECTION ( 'NONE',  ( 1.000000000000000000, 0.000000000000000000, -5.970432481738896513E-13 ) ) ;
#217 = ORIENTED_EDGE ( 'NONE', *, *, #325, .T. ) ;
#218 = EDGE_CURVE ( 'NONE', #85, #68, #332, .T. ) ;
#219 =( LENGTH_UNIT ( ) NAMED_UNIT ( * ) SI_UNIT ( .MILLI., .METRE. ) );
#220 = CARTESIAN_POINT ( 'NONE',  ( 27.19999999999948770, 0.000000000000000000, -27.20000000001575913 ) ) ;
#221 =( GEOMETRIC_REPRESENTATION_CONTEXT ( 3 ) GLOBAL_UNCERTAINTY_ASSIGNED_CONTEXT ( ( #272 ) ) GLOBAL_UNIT_ASSIGNED_CONTEXT ( ( #360, #13, #267 ) ) REPRESENTATION_CONTEXT ( 'NONE', 'WORKASPACE' ) );
#222 = FILL_AREA_STYLE ('',( #61 ) ) ;
#223 = DIRECTION ( 'NONE',  ( 1.000000000000000000, 0.000000000000000000, -5.970432481738896513E-13 ) ) ;
#224 = ORIENTED_EDGE ( 'NONE', *, *, #225, .T. ) ;
#225 = EDGE_CURVE ( 'NONE', #316, #382, #17, .T. ) ;
#226 = CARTESIAN_POINT ( 'NONE',  ( -25.60000000000056630, 84.59999999999999432, -27.29999999998423732 ) ) ;
#227 = ORIENTED_EDGE ( 'NONE', *, *, #198, .F. ) ;
#228 = DIRECTION ( 'NONE',  ( 1.000000000000000000, 0.000000000000000000, 0.000000000000000000 ) ) ;
#229 = ORIENTED_EDGE ( 'NONE', *, *, #305, .F. ) ;
#230 = VERTEX_POINT ( 'NONE', #84 ) ;
#231 = ORIENTED_EDGE ( 'NONE', *, *, #138, .T. ) ;
#232 = EDGE_CURVE ( 'NONE', #321, #41, #212, .T. ) ;
#233 = CARTESIAN_POINT ( 'NONE',  ( 6.584728499291196968, 71.13806785861181936, -27.30000000000345395 ) ) ;
#234 = DIRECTION ( 'NONE',  ( 9.912705577010325549E-17, -1.000000000000000000, -5.918313935889675271E-29 ) ) ;
#235 = PRODUCT_DEFINITION_SHAPE ( 'NONE', 'NONE',  #361 ) ;
#236 = ADVANCED_FACE ( 'NONE', ( #376 ), #191, .F. ) ;
#237 = CARTESIAN_POINT ( 'NONE',  ( 6.584728499291259141, 50.77582354110486307, -27.20000000000345253 ) ) ;
#238 = CARTESIAN_POINT ( 'NONE',  ( 22.31919001736482144, 71.13806785861181936, -27.20000000001284590 ) ) ;
#239 = VECTOR ( 'NONE', #397, 1000.000000000000000 ) ;
#240 = CLOSED_SHELL ( 'NONE', ( #192, #157, #80, #203, #164, #345, #350, #2, #330, #381, #236, #264 ) ) ;
#241 = LINE ( 'NONE', #58, #377 ) ;
#242 = APPLICATION_CONTEXT ( 'automotive_design' ) ;
#243 = EDGE_CURVE ( 'NONE', #71, #4, #128, .T. ) ;
#244 = CARTESIAN_POINT ( 'NONE',  ( -25.60000000000056630, 84.59999999999999432, -27.29999999998423732 ) ) ;
#245 = CARTESIAN_POINT ( 'NONE',  ( -25.60000000000050946, 84.59999999999999432, -27.19999999998423590 ) ) ;
#246 = LINE ( 'NONE', #372, #73 ) ;
#247 = CIRCLE ( 'NONE', #178, 7.867230759036781151 ) ;
#248 = CARTESIAN_POINT ( 'NONE',  ( -25.60000000000051301, 0.000000000000000000, -27.19999999998423590 ) ) ;
#249 = CARTESIAN_POINT ( 'NONE',  ( 6.584728499292216597, 71.13806785861181936, -25.60000000000345466 ) ) ;
#250 = DIRECTION ( 'NONE',  ( 5.970432481738896513E-13, 0.000000000000000000, 1.000000000000000000 ) ) ;
#251 = LINE ( 'NONE', #220, #255 ) ;
#252 = DIRECTION ( 'NONE',  ( -1.000000000000000000, 0.000000000000000000, 5.970432481738896513E-13 ) ) ;
#253 = CARTESIAN_POINT ( 'NONE',  ( 1.399999999999429479, 119.5999999999999943, -27.30000000000035598 ) ) ;
#254 = ORIENTED_EDGE ( 'NONE', *, *, #211, .F. ) ;
#255 = VECTOR ( 'NONE', #153, 1000.000000000000000 ) ;
#256 = CARTESIAN_POINT ( 'NONE',  ( -25.60000000000051301, 0.000000000000000000, -27.19999999998423590 ) ) ;
#257 = EDGE_LOOP ( 'NONE', ( #347, #148, #40, #227 ) ) ;
#258 = EDGE_LOOP ( 'NONE', ( #3, #170, #100, #166 ) ) ;
#259 = ORIENTED_EDGE ( 'NONE', *, *, #18, .F. ) ;
#260 = VECTOR ( 'NONE', #368, 1000.000000000000000 ) ;
#261 = ORIENTED_EDGE ( 'NONE', *, *, #18, .T. ) ;
#262 = CARTESIAN_POINT ( 'NONE',  ( 1.399999999999488542, 119.5999999999999943, -27.20000000000035456 ) ) ;
#263 = DIRECTION ( 'NONE',  ( 5.970432481738896513E-13, 0.000000000000000000, 1.000000000000000000 ) ) ;
#264 = ADVANCED_FACE ( 'NONE', ( #408 ), #348, .F. ) ;
#265 = DIRECTION ( 'NONE',  ( -1.000000000000000000, 0.000000000000000000, 5.970432481738896513E-13 ) ) ;
#266 = FACE_OUTER_BOUND ( 'NONE', #168, .T. ) ;
#267 =( NAMED_UNIT ( * ) SI_UNIT ( $, .STERADIAN. ) SOLID_ANGLE_UNIT ( ) );
#268 = CARTESIAN_POINT ( 'NONE',  ( 27.20000000000044693, 119.5999999999999943, -25.60000000001575771 ) ) ;
#269 = EDGE_CURVE ( 'NONE', #316, #41, #62, .T. ) ;
#270 = SURFACE_STYLE_USAGE ( .BOTH. , #188 ) ;
#271 = DIRECTION ( 'NONE',  ( 1.000000000000000000, 0.000000000000000000, -5.970432481738896513E-13 ) ) ;
#272 = UNCERTAINTY_MEASURE_WITH_UNIT (LENGTH_MEASURE( 1.000000000000000082E-05 ), #360, 'distance_accuracy_value', 'NONE');
#273 = DIRECTION ( 'NONE',  ( -5.970432481738896513E-13, 0.000000000000000000, -1.000000000000000000 ) ) ;
#274 = DIRECTION ( 'NONE',  ( 5.970432481738896513E-13, 0.000000000000000000, 1.000000000000000000 ) ) ;
#275 = EDGE_LOOP ( 'NONE', ( #386, #351, #134, #364, #314, #407 ) ) ;
#276 = EDGE_CURVE ( 'NONE', #38, #85, #35, .T. ) ;
#277 = CARTESIAN_POINT ( 'NONE',  ( -25.59999999999955733, 0.000000000000000000, -25.59999999998423448 ) ) ;
#278 = AXIS2_PLACEMENT_3D ( 'NONE', #395, #187, #179 ) ;
#279 = CARTESIAN_POINT ( 'NONE',  ( 27.20000000000044693, 0.000000000000000000, -25.60000000001575771 ) ) ;
#280 = DIRECTION ( 'NONE',  ( -1.000000000000000000, 0.000000000000000000, 5.970432481738896513E-13 ) ) ;
#281 = EDGE_LOOP ( 'NONE', ( #162, #193, #304, #165, #195, #259 ) ) ;
#282 = DIRECTION ( 'NONE',  ( 1.000000000000000000, 9.912705577010325549E-17, -5.970432481738896513E-13 ) ) ;
#283 = DIRECTION ( 'NONE',  ( 1.000000000000000000, 0.000000000000000000, -5.970432481738896513E-13 ) ) ;
#284 = ORIENTED_EDGE ( 'NONE', *, *, #276, .T. ) ;
#285 = EDGE_CURVE ( 'NONE', #41, #121, #124, .T. ) ;
#286 = AXIS2_PLACEMENT_3D ( 'NONE', #89, #250, #31 ) ;
#287 = CARTESIAN_POINT ( 'NONE',  ( 22.31919001736577712, 71.13806785861181936, -25.60000000001284448 ) ) ;
#288 = EDGE_LOOP ( 'NONE', ( #354, #5, #196, #339 ) ) ;
#289 = ORIENTED_EDGE ( 'NONE', *, *, #211, .T. ) ;
#290 = EDGE_CURVE ( 'NONE', #125, #4, #161, .T. ) ;
#291 = EDGE_LOOP ( 'NONE', ( #154, #97, #319, #30 ) ) ;
#292 = ORIENTED_EDGE ( 'NONE', *, *, #7, .T. ) ;
#293 = CARTESIAN_POINT ( 'NONE',  ( 22.31919001736577712, 71.13806785861181936, -25.60000000001284448 ) ) ;
#294 = PRESENTATION_STYLE_ASSIGNMENT (( #207 ) ) ;
#295 = ORIENTED_EDGE ( 'NONE', *, *, #102, .F. ) ;
#296 = EDGE_CURVE ( 'NONE', #72, #71, #160, .T. ) ;
#297 = DIRECTION ( 'NONE',  ( 5.970432481738896513E-13, 0.000000000000000000, 1.000000000000000000 ) ) ;
#298 = VECTOR ( 'NONE', #274, 1000.000000000000000 ) ;
#299 = DIRECTION ( 'NONE',  ( 5.970432481738896513E-13, 0.000000000000000000, 1.000000000000000000 ) ) ;
#300 = PRODUCT_DEFINITION_FORMATION_WITH_SPECIFIED_SOURCE ( 'ANY', '', #20, .NOT_KNOWN. ) ;
#301 =( LENGTH_UNIT ( ) NAMED_UNIT ( * ) SI_UNIT ( .MILLI., .METRE. ) );
#302 = PRODUCT_DEFINITION_CONTEXT ( 'detailed design', #83, 'design' ) ;
#303 = CARTESIAN_POINT ( 'NONE',  ( 22.31919001736475749, 50.77582354110486307, -27.30000000001284377 ) ) ;
#304 = ORIENTED_EDGE ( 'NONE', *, *, #116, .F. ) ;
#305 = EDGE_CURVE ( 'NONE', #383, #121, #93, .T. ) ;
#306 =( NAMED_UNIT ( * ) SI_UNIT ( $, .STERADIAN. ) SOLID_ANGLE_UNIT ( ) );
#307 = FACE_OUTER_BOUND ( 'NONE', #209, .T. ) ;
#308 = DIRECTION ( 'NONE',  ( -5.970432481738896513E-13, -0.000000000000000000, -1.000000000000000000 ) ) ;
#309 = LINE ( 'NONE', #303, #298 ) ;
#310 = AXIS2_PLACEMENT_3D ( 'NONE', #226, #66, #283 ) ;
#311 = DIRECTION ( 'NONE',  ( -1.000000000000000000, 0.000000000000000000, 5.970432481738896513E-13 ) ) ;
#312 = CARTESIAN_POINT ( 'NONE',  ( -25.59999999999955023, 84.59999999999999432, -25.59999999998423448 ) ) ;
#313 = DIRECTION ( 'NONE',  ( -9.912705577010325549E-17, 1.000000000000000000, 5.918313935889675271E-29 ) ) ;
#314 = ORIENTED_EDGE ( 'NONE', *, *, #180, .T. ) ;
#315 = CARTESIAN_POINT ( 'NONE',  ( -25.60000000000051301, 0.000000000000000000, -27.19999999998423590 ) ) ;
#316 = VERTEX_POINT ( 'NONE', #245 ) ;
#317 = PRODUCT_CONTEXT ( 'NONE', #242, 'mechanical' ) ;
#318 = VECTOR ( 'NONE', #308, 1000.000000000000000 ) ;
#319 = ORIENTED_EDGE ( 'NONE', *, *, #131, .F. ) ;
#320 = ORIENTED_EDGE ( 'NONE', *, *, #269, .T. ) ;
#321 = VERTEX_POINT ( 'NONE', #146 ) ;
#322 = VECTOR ( 'NONE', #263, 1000.000000000000000 ) ;
#323 = VECTOR ( 'NONE', #223, 1000.000000000000000 ) ;
#324 = LINE ( 'NONE', #390, #101 ) ;
#325 = EDGE_CURVE ( 'NONE', #137, #19, #341, .T. ) ;
#326 = DIRECTION ( 'NONE',  ( 0.000000000000000000, -1.000000000000000000, 0.000000000000000000 ) ) ;
#327 = VECTOR ( 'NONE', #265, 1000.000000000000000 ) ;
#328 =( GEOMETRIC_REPRESENTATION_CONTEXT ( 3 ) GLOBAL_UNCERTAINTY_ASSIGNED_CONTEXT ( ( #33 ) ) GLOBAL_UNIT_ASSIGNED_CONTEXT ( ( #219, #375, #306 ) ) REPRESENTATION_CONTEXT ( 'NONE', 'WORKASPACE' ) );
#329 = DIRECTION ( 'NONE',  ( 5.970432481738896513E-13, 0.000000000000000000, 1.000000000000000000 ) ) ;
#330 = ADVANCED_FACE ( 'NONE', ( #151 ), #213, .F. ) ;
#331 = LINE ( 'NONE', #202, #384 ) ;
#332 = LINE ( 'NONE', #51, #370 ) ;
#333 = CARTESIAN_POINT ( 'NONE',  ( 27.20000000000044693, 0.000000000000000000, -25.60000000001575771 ) ) ;
#334 = CARTESIAN_POINT ( 'NONE',  ( -25.59999999999955733, 0.000000000000000000, -25.59999999998423448 ) ) ;
#335 = FACE_OUTER_BOUND ( 'NONE', #281, .T. ) ;
#336 = DIRECTION ( 'NONE',  ( 5.970432481738896513E-13, 0.000000000000000000, 1.000000000000000000 ) ) ;
#337 = CARTESIAN_POINT ( 'NONE',  ( 6.584728499291196968, 50.77582354110486307, -27.30000000000345395 ) ) ;
#338 = LINE ( 'NONE', #393, #199 ) ;
#339 = ORIENTED_EDGE ( 'NONE', *, *, #218, .F. ) ;
#340 = UNCERTAINTY_MEASURE_WITH_UNIT (LENGTH_MEASURE( 1.000000000000000082E-05 ), #301, 'distance_accuracy_value', 'NONE');
#341 = LINE ( 'NONE', #400, #363 ) ;
#342 = CARTESIAN_POINT ( 'NONE',  ( -25.59999999999955733, 0.000000000000000000, -25.59999999998423448 ) ) ;
#343 = AXIS2_PLACEMENT_3D ( 'NONE', #14, #140, #216 ) ;
#344 = SURFACE_STYLE_FILL_AREA ( #222 ) ;
#345 = ADVANCED_FACE ( 'NONE', ( #335, #34 ), #59, .T. ) ;
#346 = DIRECTION ( 'NONE',  ( 0.000000000000000000, 1.000000000000000000, 0.000000000000000000 ) ) ;
#347 = ORIENTED_EDGE ( 'NONE', *, *, #325, .F. ) ;
#348 = PLANE ( 'NONE',  #310 ) ;
#349 = ORIENTED_EDGE ( 'NONE', *, *, #232, .F. ) ;
#350 = ADVANCED_FACE ( 'NONE', ( #113 ), #215, .F. ) ;
#351 = ORIENTED_EDGE ( 'NONE', *, *, #172, .F. ) ;
#352 = PRESENTATION_LAYER_ASSIGNMENT (  '', '', ( #119 ) ) ;
#353 =( NAMED_UNIT ( * ) SI_UNIT ( $, .STERADIAN. ) SOLID_ANGLE_UNIT ( ) );
#354 = ORIENTED_EDGE ( 'NONE', *, *, #46, .T. ) ;
#355 = SHAPE_DEFINITION_REPRESENTATION ( #235, #139 ) ;
#356 = ORIENTED_EDGE ( 'NONE', *, *, #296, .F. ) ;
#357 = ORIENTED_EDGE ( 'NONE', *, *, #374, .F. ) ;
#358 = AXIS2_PLACEMENT_3D ( 'NONE', #342, #90, #280 ) ;
#359 = DIRECTION ( 'NONE',  ( -5.970432481738896513E-13, 0.000000000000000000, -1.000000000000000000 ) ) ;
#360 =( LENGTH_UNIT ( ) NAMED_UNIT ( * ) SI_UNIT ( .MILLI., .METRE. ) );
#361 = PRODUCT_DEFINITION ( 'UNKNOWN', '', #300, #302 ) ;
#362 = COLOUR_RGB ( '',0.7921568627450980005, 0.8196078431372548767, 0.9333333333333333481 ) ;
#363 = VECTOR ( 'NONE', #371, 1000.000000000000000 ) ;
#364 = ORIENTED_EDGE ( 'NONE', *, *, #145, .T. ) ;
#365 = CARTESIAN_POINT ( 'NONE',  ( 27.19999999999948770, 0.000000000000000000, -27.20000000001575913 ) ) ;
#366 = ORIENTED_EDGE ( 'NONE', *, *, #56, .T. ) ;
#367 = LINE ( 'NONE', #337, #239 ) ;
#368 = DIRECTION ( 'NONE',  ( 5.970432481738896513E-13, 0.000000000000000000, 1.000000000000000000 ) ) ;
#369 = DIRECTION ( 'NONE',  ( 1.000000000000000000, 0.000000000000000000, -5.970432481738896513E-13 ) ) ;
#370 = VECTOR ( 'NONE', #299, 1000.000000000000000 ) ;
#371 = DIRECTION ( 'NONE',  ( 0.000000000000000000, -1.000000000000000000, 0.000000000000000000 ) ) ;
#372 = CARTESIAN_POINT ( 'NONE',  ( 27.20000000000044693, 0.000000000000000000, -25.60000000001575771 ) ) ;
#373 = CARTESIAN_POINT ( 'NONE',  ( 1.400000000000442668, 119.5999999999999943, -25.60000000000036025 ) ) ;
#374 = EDGE_CURVE ( 'NONE', #42, #19, #367, .T. ) ;
#375 =( NAMED_UNIT ( * ) PLANE_ANGLE_UNIT ( ) SI_UNIT ( $, .RADIAN. ) );
#376 = FACE_OUTER_BOUND ( 'NONE', #288, .T. ) ;
#377 = VECTOR ( 'NONE', #91, 1000.000000000000000 ) ;
#378 = VERTEX_POINT ( 'NONE', #82 ) ;
#379 = DIRECTION ( 'NONE',  ( -5.970432481738896513E-13, 0.000000000000000000, -1.000000000000000000 ) ) ;
#380 = ORIENTED_EDGE ( 'NONE', *, *, #232, .T. ) ;
#381 = ADVANCED_FACE ( 'NONE', ( #405 ), #57, .F. ) ;
#382 = VERTEX_POINT ( 'NONE', #312 ) ;
#383 = VERTEX_POINT ( 'NONE', #279 ) ;
#384 = VECTOR ( 'NONE', #326, 1000.000000000000000 ) ;
#385 = CIRCLE ( 'NONE', #278, 7.867230759036781151 ) ;
#386 = ORIENTED_EDGE ( 'NONE', *, *, #102, .T. ) ;
#387 = FILL_AREA_STYLE_COLOUR ( '', #362 ) ;
#388 = EDGE_CURVE ( 'NONE', #8, #42, #247, .T. ) ;
#389 = CARTESIAN_POINT ( 'NONE',  ( 27.20000000000044693, 0.000000000000000000, -25.60000000001575771 ) ) ;
#390 = CARTESIAN_POINT ( 'NONE',  ( -25.59999999999955023, 84.59999999999999432, -25.59999999998423448 ) ) ;
#391 = PRODUCT_RELATED_PRODUCT_CATEGORY ( 'part', '', ( #20 ) ) ;
#392 = LINE ( 'NONE', #233, #322 ) ;
#393 = CARTESIAN_POINT ( 'NONE',  ( 1.399999999999433031, 84.59999999999999432, -27.30000000000035598 ) ) ;
#394 = PRESENTATION_STYLE_ASSIGNMENT (( #270 ) ) ;
#395 = CARTESIAN_POINT ( 'NONE',  ( 14.45195925832899775, 50.77582354110486307, -25.60000000000815135 ) ) ;
#396 = ORIENTED_EDGE ( 'NONE', *, *, #285, .T. ) ;
#397 = DIRECTION ( 'NONE',  ( 5.970432481738896513E-13, 0.000000000000000000, 1.000000000000000000 ) ) ;
#398 = DIRECTION ( 'NONE',  ( -9.912705577010325549E-17, 1.000000000000000000, 5.918313935889675271E-29 ) ) ;
#399 = ORIENTED_EDGE ( 'NONE', *, *, #225, .F. ) ;
#400 = CARTESIAN_POINT ( 'NONE',  ( 6.584728499292216597, 71.13806785861181936, -25.60000000000345466 ) ) ;
#401 = PLANE ( 'NONE',  #29 ) ;
#402 = AXIS2_PLACEMENT_3D ( 'NONE', #253, #282, #313 ) ;
#403 = DIRECTION ( 'NONE',  ( -5.970432481738896513E-13, 0.000000000000000000, -1.000000000000000000 ) ) ;
#404 = FACE_OUTER_BOUND ( 'NONE', #36, .T. ) ;
#405 = FACE_OUTER_BOUND ( 'NONE', #144, .T. ) ;
#406 = DIRECTION ( 'NONE',  ( 0.000000000000000000, -1.000000000000000000, -0.000000000000000000 ) ) ;
#407 = ORIENTED_EDGE ( 'NONE', *, *, #131, .T. ) ;
#408 = FACE_OUTER_BOUND ( 'NONE', #177, .T. ) ;
ENDSEC;
END-ISO-10303-21;
