ISO-10303-21;
HEADER;
FILE_DESCRIPTION (( 'STEP AP214' ),
    '1' );
FILE_NAME ('TOP Cover 3.STEP',
    '2026-04-26T13:51:01',
    ( '' ),
    ( '' ),
    'SwSTEP 2.0',
    'SolidWorks 2022',
    '' );
FILE_SCHEMA (( 'AUTOMOTIVE_DESIGN' ));
ENDSEC;

DATA;
#1 = ORIENTED_EDGE ( 'NONE', *, *, #618, .T. ) ;
#2 = CARTESIAN_POINT ( 'NONE',  ( -109.5000000000609504, 3.000000000000000000, -9.499999999952047247 ) ) ;
#3 = FACE_OUTER_BOUND ( 'NONE', #561, .T. ) ;
#4 =( NAMED_UNIT ( * ) PLANE_ANGLE_UNIT ( ) SI_UNIT ( $, .RADIAN. ) );
#5 = VERTEX_POINT ( 'NONE', #431 ) ;
#6 = DIRECTION ( 'NONE',  ( 1.000000000000000000, 8.583267198843579070E-16, -1.021770197386547605E-12 ) ) ;
#7 = CARTESIAN_POINT ( 'NONE',  ( -16.50000000006153655, 0.3339394440353971039, -10.10000000004707488 ) ) ;
#8 = EDGE_CURVE ( 'NONE', #566, #150, #548, .T. ) ;
#9 = LINE ( 'NONE', #337, #746 ) ;
#10 = EDGE_CURVE ( 'NONE', #24, #584, #642, .T. ) ;
#11 = DIRECTION ( 'NONE',  ( 1.000000000000000000, 0.000000000000000000, -1.021800699607666527E-12 ) ) ;
#12 = VERTEX_POINT ( 'NONE', #338 ) ;
#13 = DIRECTION ( 'NONE',  ( 1.000000000000000000, 8.601934591620529637E-16, -1.021800699607666527E-12 ) ) ;
#14 = ADVANCED_FACE ( 'NONE', ( #562 ), #854, .F. ) ;
#15 = DIRECTION ( 'NONE',  ( -3.336006684570783101E-16, -0.000000000000000000, -1.000000000000000000 ) ) ;
#16 = DIRECTION ( 'NONE',  ( -0.000000000000000000, 0.000000000000000000, -1.000000000000000000 ) ) ;
#17 = VECTOR ( 'NONE', #241, 1000.000000000000000 ) ;
#18 = DIRECTION ( 'NONE',  ( 1.021800699607666527E-12, 0.000000000000000000, 1.000000000000000000 ) ) ;
#19 = DIRECTION ( 'NONE',  ( 1.000000000000000000, 0.000000000000000000, 0.000000000000000000 ) ) ;
#20 = ORIENTED_EDGE ( 'NONE', *, *, #720, .F. ) ;
#21 = CARTESIAN_POINT ( 'NONE',  ( -14.70000000006092300, 170.0000000000000000, -7.600000000049548454 ) ) ;
#22 = LINE ( 'NONE', #437, #225 ) ;
#23 = CARTESIAN_POINT ( 'NONE',  ( 0.000000000000000000, 0.000000000000000000, 0.000000000000000000 ) ) ;
#24 = VERTEX_POINT ( 'NONE', #1064 ) ;
#25 = DIRECTION ( 'NONE',  ( -0.000000000000000000, 0.000000000000000000, 1.000000000000000000 ) ) ;
#26 = EDGE_LOOP ( 'NONE', ( #1, #451, #582, #267 ) ) ;
#27 = ADVANCED_FACE ( 'NONE', ( #542 ), #227, .F. ) ;
#28 = DIRECTION ( 'NONE',  ( 0.000000000000000000, 1.000000000000000000, 0.000000000000000000 ) ) ;
#29 = DIRECTION ( 'NONE',  ( 0.000000000000000000, 0.000000000000000000, -1.000000000000000000 ) ) ;
#30 = VECTOR ( 'NONE', #1160, 1000.000000000000000 ) ;
#31 = EDGE_CURVE ( 'NONE', #466, #1308, #50, .T. ) ;
#32 = VERTEX_POINT ( 'NONE', #44 ) ;
#33 = EDGE_CURVE ( 'NONE', #361, #139, #332, .T. ) ;
#34 = CARTESIAN_POINT ( 'NONE',  ( -109.5000000000538023, 170.0000000000000000, -2.499999999952045915 ) ) ;
#35 = VERTEX_POINT ( 'NONE', #849 ) ;
#36 = VERTEX_POINT ( 'NONE', #869 ) ;
#37 = EDGE_CURVE ( 'NONE', #5, #145, #971, .T. ) ;
#38 = DIRECTION ( 'NONE',  ( 0.000000000000000000, 1.000000000000000000, 0.000000000000000000 ) ) ;
#39 = ORIENTED_EDGE ( 'NONE', *, *, #484, .T. ) ;
#40 = CARTESIAN_POINT ( 'NONE',  ( -111.7000000000599300, 161.8000000000000114, -7.599999999949004881 ) ) ;
#41 = DIRECTION ( 'NONE',  ( 1.021752127350339177E-12, 0.000000000000000000, 1.000000000000000000 ) ) ;
#42 = VERTEX_POINT ( 'NONE', #745 ) ;
#43 = ORIENTED_EDGE ( 'NONE', *, *, #654, .F. ) ;
#44 = CARTESIAN_POINT ( 'NONE',  ( -34.81010095593644849, 1.600000000000059597, 2.499999999971590725 ) ) ;
#45 = CIRCLE ( 'NONE', #395, 9.599999999999997868 ) ;
#46 = AXIS2_PLACEMENT_3D ( 'NONE', #1305, #804, #1209 ) ;
#47 = ORIENTED_EDGE ( 'NONE', *, *, #1163, .F. ) ;
#48 = CARTESIAN_POINT ( 'NONE',  ( -109.5000000000487006, 365.0000000000000000, 2.500000000047954973 ) ) ;
#49 = VERTEX_POINT ( 'NONE', #862 ) ;
#50 = CIRCLE ( 'NONE', #811, 9.600000000000004974 ) ;
#51 = LINE ( 'NONE', #21, #710 ) ;
#52 = ORIENTED_EDGE ( 'NONE', *, *, #279, .F. ) ;
#53 = VECTOR ( 'NONE', #1025, 1000.000000000000000 ) ;
#54 = ORIENTED_EDGE ( 'NONE', *, *, #963, .F. ) ;
#55 = CARTESIAN_POINT ( 'NONE',  ( -111.7000000000599300, 161.8000000000000114, -2.399999999949005591 ) ) ;
#56 = AXIS2_PLACEMENT_3D ( 'NONE', #589, #897, #581 ) ;
#57 = EDGE_CURVE ( 'NONE', #948, #1298, #572, .T. ) ;
#58 = ORIENTED_EDGE ( 'NONE', *, *, #1104, .T. ) ;
#59 = CARTESIAN_POINT ( 'NONE',  ( -14.10000000005172360, 170.0000000000000000, -0.5000000000495684604 ) ) ;
#60 = ORIENTED_EDGE ( 'NONE', *, *, #235, .T. ) ;
#61 = DIRECTION ( 'NONE',  ( -1.021800699607666527E-12, 1.235693434942383514E-16, -1.000000000000000000 ) ) ;
#62 = ORIENTED_EDGE ( 'NONE', *, *, #613, .F. ) ;
#63 = EDGE_CURVE ( 'NONE', #886, #67, #352, .T. ) ;
#64 = ORIENTED_EDGE ( 'NONE', *, *, #279, .T. ) ;
#65 = AXIS2_PLACEMENT_3D ( 'NONE', #762, #25, #859 ) ;
#66 = PLANE ( 'NONE',  #603 ) ;
#67 = VERTEX_POINT ( 'NONE', #126 ) ;
#68 = CARTESIAN_POINT ( 'NONE',  ( -110.5000000000599272, 161.8000000000000114, -7.599999999949004881 ) ) ;
#69 = LINE ( 'NONE', #483, #400 ) ;
#70 = AXIS2_PLACEMENT_3D ( 'NONE', #698, #594, #1012 ) ;
#71 = CARTESIAN_POINT ( 'NONE',  ( -91.34469867302559010, 3.514504704576388553E-16, -0.4999999999706402631 ) ) ;
#72 = ORIENTED_EDGE ( 'NONE', *, *, #736, .T. ) ;
#73 = CARTESIAN_POINT ( 'NONE',  ( -12.50000000006398793, 170.0000000000000000, -12.50000000005116263 ) ) ;
#74 = ORIENTED_EDGE ( 'NONE', *, *, #250, .F. ) ;
#75 = FACE_OUTER_BOUND ( 'NONE', #441, .T. ) ;
#76 = DIRECTION ( 'NONE',  ( 1.214069631081469458E-28, 1.000000000000000000, 1.188166764367676588E-16 ) ) ;
#77 = EDGE_CURVE ( 'NONE', #1289, #756, #22, .T. ) ;
#78 = CARTESIAN_POINT ( 'NONE',  ( -110.9000000000517616, 1.599999999999994760, -0.4999999999506579695 ) ) ;
#79 = DIRECTION ( 'NONE',  ( 0.9701425001450841856, 0.000000000000000000, -0.2425356250373233435 ) ) ;
#80 = AXIS2_PLACEMENT_3D ( 'NONE', #1244, #207, #411 ) ;
#81 = LINE ( 'NONE', #504, #53 ) ;
#82 = DIRECTION ( 'NONE',  ( 1.000000000000000000, 0.000000000000000000, -1.021800699607666527E-12 ) ) ;
#83 = CARTESIAN_POINT ( 'NONE',  ( -33.65530132707790756, -6.999999999999999112, -0.5000000000295878877 ) ) ;
#84 = APPLICATION_CONTEXT ( 'automotive_design' ) ;
#85 = AXIS2_PLACEMENT_3D ( 'NONE', #248, #775, #447 ) ;
#86 = CARTESIAN_POINT ( 'NONE',  ( -105.3000000000623828, 212.0000000000000000, -10.89999999995634639 ) ) ;
#87 = LINE ( 'NONE', #505, #1137 ) ;
#88 = AXIS2_PLACEMENT_3D ( 'NONE', #294, #1252, #620 ) ;
#89 = LINE ( 'NONE', #1113, #458 ) ;
#90 = AXIS2_PLACEMENT_3D ( 'NONE', #932, #407, #298 ) ;
#91 = VERTEX_POINT ( 'NONE', #765 ) ;
#92 = CARTESIAN_POINT ( 'NONE',  ( -19.70000000006237428, 170.0000000000000000, -10.90000000004380531 ) ) ;
#93 = LINE ( 'NONE', #305, #491 ) ;
#94 = CARTESIAN_POINT ( 'NONE',  ( -12.50000000004866685, 170.0000000000000000, 2.499999999948815610 ) ) ;
#95 = EDGE_LOOP ( 'NONE', ( #573, #243, #1174, #1284, #508, #1279, #1081, #414 ) ) ;
#96 = PRESENTATION_LAYER_ASSIGNMENT (  '', '', ( #815 ) ) ;
#97 = LINE ( 'NONE', #826, #290 ) ;
#98 = EDGE_CURVE ( 'NONE', #893, #5, #1251, .T. ) ;
#99 = LINE ( 'NONE', #624, #724 ) ;
#100 = DIRECTION ( 'NONE',  ( 1.000000000000000000, 0.000000000000000000, -1.021770197386547605E-12 ) ) ;
#101 = ORIENTED_EDGE ( 'NONE', *, *, #783, .T. ) ;
#102 = DIRECTION ( 'NONE',  ( 0.000000000000000000, 1.000000000000000000, 0.000000000000000000 ) ) ;
#103 = CARTESIAN_POINT ( 'NONE',  ( -12.50000000004866685, 365.0000000000000000, 2.499999999948840035 ) ) ;
#104 = CARTESIAN_POINT ( 'NONE',  ( -12.50000000004866685, 0.000000000000000000, 2.499999999948794738 ) ) ;
#105 = APPLICATION_CONTEXT ( 'automotive_design' ) ;
#106 = SURFACE_SIDE_STYLE ('',( #426 ) ) ;
#107 = ORIENTED_EDGE ( 'NONE', *, *, #1337, .F. ) ;
#108 = CARTESIAN_POINT ( 'NONE',  ( -16.50000000006153655, 170.0000000000000000, -10.10000000004707488 ) ) ;
#109 = DIRECTION ( 'NONE',  ( -1.262632416324728146E-28, -1.000000000000000000, -1.235693434942383514E-16 ) ) ;
#110 = AXIS2_PLACEMENT_3D ( 'NONE', #292, #1102, #76 ) ;
#111 = ADVANCED_FACE ( 'NONE', ( #749 ), #325, .F. ) ;
#112 = DIRECTION ( 'NONE',  ( 1.021800699607666527E-12, -0.000000000000000000, 1.000000000000000000 ) ) ;
#113 = LINE ( 'NONE', #729, #847 ) ;
#114 = EDGE_CURVE ( 'NONE', #379, #35, #140, .T. ) ;
#115 = VERTEX_POINT ( 'NONE', #444 ) ;
#116 = LINE ( 'NONE', #428, #264 ) ;
#117 = DIRECTION ( 'NONE',  ( 1.262632416324728146E-28, 1.000000000000000000, 1.235693434942383514E-16 ) ) ;
#118 = CARTESIAN_POINT ( 'NONE',  ( -112.5000000000517559, 3.514504704576388553E-16, -0.4999999999490238878 ) ) ;
#119 = DIRECTION ( 'NONE',  ( 0.000000000000000000, 1.000000000000000000, 0.000000000000000000 ) ) ;
#120 =( LENGTH_UNIT ( ) NAMED_UNIT ( * ) SI_UNIT ( .MILLI., .METRE. ) );
#121 = ORIENTED_EDGE ( 'NONE', *, *, #1132, .T. ) ;
#122 = LINE ( 'NONE', #34, #1057 ) ;
#123 =( LENGTH_UNIT ( ) NAMED_UNIT ( * ) SI_UNIT ( .MILLI., .METRE. ) );
#124 = VECTOR ( 'NONE', #778, 1000.000000000000000 ) ;
#125 = CIRCLE ( 'NONE', #896, 9.600000000000004974 ) ;
#126 = CARTESIAN_POINT ( 'NONE',  ( -110.9000000000486921, 1.599999999999994316, 2.500000000049341420 ) ) ;
#127 = UNCERTAINTY_MEASURE_WITH_UNIT (LENGTH_MEASURE( 1.000000000000000082E-05 ), #120, 'distance_accuracy_value', 'NONE');
#128 = FILL_AREA_STYLE_COLOUR ( '', #899 ) ;
#129 = VERTEX_POINT ( 'NONE', #1271 ) ;
#130 = CARTESIAN_POINT ( 'NONE',  ( 0.000000000000000000, 161.8000000000000114, 0.000000000000000000 ) ) ;
#131 = VERTEX_POINT ( 'NONE', #759 ) ;
#132 = CARTESIAN_POINT ( 'NONE',  ( -19.70000000006319496, 1.600000000000001643, -11.70000000004380603 ) ) ;
#133 = EDGE_CURVE ( 'NONE', #257, #49, #1069, .T. ) ;
#134 = DIRECTION ( 'NONE',  ( 1.000000000000000000, 8.583267198843572168E-16, -1.021770197386546999E-12 ) ) ;
#135 = ADVANCED_FACE ( 'NONE', ( #476 ), #782, .F. ) ;
#136 = VERTEX_POINT ( 'NONE', #263 ) ;
#137 = DIRECTION ( 'NONE',  ( 0.000000000000000000, 0.000000000000000000, 1.000000000000000000 ) ) ;
#138 = EDGE_LOOP ( 'NONE', ( #462, #237, #121, #1178 ) ) ;
#139 = VERTEX_POINT ( 'NONE', #772 ) ;
#140 = LINE ( 'NONE', #1151, #580 ) ;
#141 = VECTOR ( 'NONE', #191, 1000.000000000000000 ) ;
#142 = ORIENTED_EDGE ( 'NONE', *, *, #1001, .F. ) ;
#143 = CARTESIAN_POINT ( 'NONE',  ( -110.5000000000599272, 161.8000000000000114, -2.399999999949005591 ) ) ;
#144 = DIRECTION ( 'NONE',  ( 1.021800699607666527E-12, -0.000000000000000000, 1.000000000000000000 ) ) ;
#145 = VERTEX_POINT ( 'NONE', #281 ) ;
#146 = ORIENTED_EDGE ( 'NONE', *, *, #1159, .T. ) ;
#147 = CARTESIAN_POINT ( 'NONE',  ( -110.9000000000486921, 1.599999999999994316, 2.500000000049341420 ) ) ;
#148 = VERTEX_POINT ( 'NONE', #905 ) ;
#149 = CARTESIAN_POINT ( 'NONE',  ( -110.5000000000599272, 161.8000000000000114, -2.399999999949005591 ) ) ;
#150 = VERTEX_POINT ( 'NONE', #1103 ) ;
#151 = LINE ( 'NONE', #550, #823 ) ;
#152 = VERTEX_POINT ( 'NONE', #997 ) ;
#153 = VERTEX_POINT ( 'NONE', #173 ) ;
#154 = EDGE_CURVE ( 'NONE', #643, #5, #254, .T. ) ;
#155 = DIRECTION ( 'NONE',  ( -1.021800699607666527E-12, 0.000000000000000000, -1.000000000000000000 ) ) ;
#156 = AXIS2_PLACEMENT_3D ( 'NONE', #1049, #949, #13 ) ;
#157 = ORIENTED_EDGE ( 'NONE', *, *, #412, .T. ) ;
#158 = CARTESIAN_POINT ( 'NONE',  ( -17.63650798616430393, 0.4579426315171483131, -10.38412699657153659 ) ) ;
#159 = VERTEX_POINT ( 'NONE', #1307 ) ;
#160 = ADVANCED_FACE ( 'NONE', ( #1186 ), #376, .F. ) ;
#161 = PLANE ( 'NONE',  #1168 ) ;
#162 = ORIENTED_EDGE ( 'NONE', *, *, #1239, .F. ) ;
#163 = AXIS2_PLACEMENT_3D ( 'NONE', #381, #187, #383 ) ;
#164 = ORIENTED_EDGE ( 'NONE', *, *, #77, .T. ) ;
#165 = CARTESIAN_POINT ( 'NONE',  ( -102.2047619792155189, 0.4579426315171447603, -10.38412699648511683 ) ) ;
#166 = VECTOR ( 'NONE', #230, 1000.000000000000000 ) ;
#167 = EDGE_LOOP ( 'NONE', ( #199, #1006, #793, #1171 ) ) ;
#168 = CARTESIAN_POINT ( 'NONE',  ( -108.5000000000599272, 170.0000000000000000, -8.499999999953068652 ) ) ;
#169 = ORIENTED_EDGE ( 'NONE', *, *, #436, .F. ) ;
#170 = PLANE ( 'NONE',  #333 ) ;
#171 = ORIENTED_EDGE ( 'NONE', *, *, #1009, .F. ) ;
#172 = DIRECTION ( 'NONE',  ( 0.000000000000000000, 0.000000000000000000, 1.000000000000000000 ) ) ;
#173 = CARTESIAN_POINT ( 'NONE',  ( -14.70000000006092300, 170.0000000000000000, -2.400000000049548277 ) ) ;
#174 = VERTEX_POINT ( 'NONE', #71 ) ;
#175 = VECTOR ( 'NONE', #440, 1000.000000000000000 ) ;
#176 = LINE ( 'NONE', #801, #302 ) ;
#177 = ORIENTED_EDGE ( 'NONE', *, *, #777, .F. ) ;
#178 = LINE ( 'NONE', #910, #926 ) ;
#179 = EDGE_CURVE ( 'NONE', #24, #560, #790, .T. ) ;
#180 = CARTESIAN_POINT ( 'NONE',  ( -19.70000000006319496, 1.600000000000001643, -11.70000000004380603 ) ) ;
#181 = DIRECTION ( 'NONE',  ( 1.000000000000000000, 0.000000000000000000, -1.021800699607666527E-12 ) ) ;
#182 = EDGE_CURVE ( 'NONE', #1332, #1067, #672, .T. ) ;
#183 = DIRECTION ( 'NONE',  ( -1.000000000000000000, 0.000000000000000000, 1.021800699607666527E-12 ) ) ;
#184 = DIRECTION ( 'NONE',  ( 1.000000000000000000, 0.000000000000000000, -1.021770197386547605E-12 ) ) ;
#185 = ADVANCED_FACE ( 'NONE', ( #367 ), #485, .F. ) ;
#186 = EDGE_CURVE ( 'NONE', #1289, #379, #571, .T. ) ;
#187 = DIRECTION ( 'NONE',  ( -0.000000000000000000, 0.000000000000000000, 1.000000000000000000 ) ) ;
#188 = CARTESIAN_POINT ( 'NONE',  ( -12.50000000005989342, 0.000000000000000000, -8.500000000051160853 ) ) ;
#189 = CARTESIAN_POINT ( 'NONE',  ( -16.50000000006399148, 4.000000000000003553, -12.50000000004707523 ) ) ;
#190 = PLANE ( 'NONE',  #1282 ) ;
#191 = DIRECTION ( 'NONE',  ( 0.000000000000000000, -1.000000000000000000, 0.000000000000000000 ) ) ;
#192 = CARTESIAN_POINT ( 'NONE',  ( -99.60000000004674803, -7.000000000000000000, 4.400000000037794123 ) ) ;
#193 = ORIENTED_EDGE ( 'NONE', *, *, #232, .F. ) ;
#194 = AXIS2_PLACEMENT_3D ( 'NONE', #533, #950, #1292 ) ;
#195 = EDGE_CURVE ( 'NONE', #42, #265, #303, .T. ) ;
#196 = CARTESIAN_POINT ( 'NONE',  ( -112.5000000000517559, -1.430799676093869988E-15, -0.4999999999490238878 ) ) ;
#197 = DIRECTION ( 'NONE',  ( 1.000000000000000000, 0.000000000000000000, -1.021800699607666527E-12 ) ) ;
#198 = DIRECTION ( 'NONE',  ( -5.966990492368453989E-18, 1.000000000000000000, 1.193398098498139908E-16 ) ) ;
#199 = ORIENTED_EDGE ( 'NONE', *, *, #858, .F. ) ;
#200 = CYLINDRICAL_SURFACE ( 'NONE', #1219, 4.000000000000003553 ) ;
#201 = CARTESIAN_POINT ( 'NONE',  ( -108.5000000000640199, 170.0000000000000000, -12.49999999995306865 ) ) ;
#202 = LINE ( 'NONE', #94, #570 ) ;
#203 = ORIENTED_EDGE ( 'NONE', *, *, #1044, .T. ) ;
#204 = AXIS2_PLACEMENT_3D ( 'NONE', #951, #1055, #16 ) ;
#205 = LINE ( 'NONE', #1231, #874 ) ;
#206 = MANIFOLD_SOLID_BREP ( 'Cut-Extrude1', #630 ) ;
#207 = DIRECTION ( 'NONE',  ( 0.000000000000000000, 1.000000000000000000, 0.000000000000000000 ) ) ;
#208 = DIRECTION ( 'NONE',  ( -1.021800699607666527E-12, 0.000000000000000000, -1.000000000000000000 ) ) ;
#209 = EDGE_CURVE ( 'NONE', #174, #1308, #861, .T. ) ;
#210 = EDGE_LOOP ( 'NONE', ( #334, #694, #685, #966 ) ) ;
#211 = EDGE_CURVE ( 'NONE', #91, #1172, #9, .T. ) ;
#212 = DIRECTION ( 'NONE',  ( -8.601934591619332540E-16, 1.000000000000000000, 1.171501568200919154E-16 ) ) ;
#213 = LINE ( 'NONE', #40, #502 ) ;
#214 = DIRECTION ( 'NONE',  ( -1.262632416324728146E-28, -1.000000000000000000, -1.235693434942383514E-16 ) ) ;
#215 = LINE ( 'NONE', #1344, #957 ) ;
#216 = DIRECTION ( 'NONE',  ( 0.000000000000000000, 0.000000000000000000, 1.000000000000000000 ) ) ;
#217 = ORIENTED_EDGE ( 'NONE', *, *, #1278, .F. ) ;
#218 = PLANE ( 'NONE',  #156 ) ;
#219 = CARTESIAN_POINT ( 'NONE',  ( -100.5000000000615614, 170.0000000000000000, -10.09999999996125197 ) ) ;
#220 = CARTESIAN_POINT ( 'NONE',  ( -13.50000000006092371, 170.0000000000000000, -2.400000000049548277 ) ) ;
#221 = VECTOR ( 'NONE', #239, 1000.000000000000000 ) ;
#222 = DIRECTION ( 'NONE',  ( -0.000000000000000000, 1.000000000000000000, -0.000000000000000000 ) ) ;
#223 = VECTOR ( 'NONE', #795, 1000.000000000000000 ) ;
#224 = ORIENTED_EDGE ( 'NONE', *, *, #1159, .F. ) ;
#225 = VECTOR ( 'NONE', #841, 1000.000000000000000 ) ;
#226 = CARTESIAN_POINT ( 'NONE',  ( -109.0101009559364655, 3.000000000000000000, 2.500000000047408744 ) ) ;
#227 = PLANE ( 'NONE',  #988 ) ;
#228 = VERTEX_POINT ( 'NONE', #220 ) ;
#229 = DIRECTION ( 'NONE',  ( 1.000000000000000000, -0.000000000000000000, -1.020716497435181023E-12 ) ) ;
#230 = DIRECTION ( 'NONE',  ( 1.021800699607666527E-12, -1.171501568192129271E-16, 1.000000000000000000 ) ) ;
#231 = AXIS2_PLACEMENT_3D ( 'NONE', #585, #278, #268 ) ;
#232 = EDGE_CURVE ( 'NONE', #152, #927, #817, .T. ) ;
#233 = DIRECTION ( 'NONE',  ( 1.000000000000000000, 0.000000000000000000, 0.000000000000000000 ) ) ;
#234 = ORIENTED_EDGE ( 'NONE', *, *, #586, .T. ) ;
#235 = EDGE_CURVE ( 'NONE', #115, #1090, #528, .T. ) ;
#236 = FACE_OUTER_BOUND ( 'NONE', #908, .T. ) ;
#237 = ORIENTED_EDGE ( 'NONE', *, *, #10, .T. ) ;
#238 = ORIENTED_EDGE ( 'NONE', *, *, #8, .F. ) ;
#239 = DIRECTION ( 'NONE',  ( 1.021800699607666527E-12, -0.000000000000000000, 1.000000000000000000 ) ) ;
#240 = ORIENTED_EDGE ( 'NONE', *, *, #1272, .T. ) ;
#241 = DIRECTION ( 'NONE',  ( 0.000000000000000000, -1.000000000000000000, 0.000000000000000000 ) ) ;
#242 = PLANE ( 'NONE',  #936 ) ;
#243 = ORIENTED_EDGE ( 'NONE', *, *, #133, .F. ) ;
#244 = ORIENTED_EDGE ( 'NONE', *, *, #98, .F. ) ;
#245 = CARTESIAN_POINT ( 'NONE',  ( -110.9000000000517616, 170.0000000000000000, -0.4999999999506163362 ) ) ;
#246 = AXIS2_PLACEMENT_3D ( 'NONE', #723, #318, #1136 ) ;
#247 = ORIENTED_EDGE ( 'NONE', *, *, #1163, .T. ) ;
#248 = CARTESIAN_POINT ( 'NONE',  ( -112.5000000000517559, -1.430799676093869988E-15, -0.4999999999490238878 ) ) ;
#249 = ORIENTED_EDGE ( 'NONE', *, *, #339, .F. ) ;
#250 = EDGE_CURVE ( 'NONE', #32, #1087, #331, .T. ) ;
#251 = FACE_OUTER_BOUND ( 'NONE', #308, .T. ) ;
#252 = ORIENTED_EDGE ( 'NONE', *, *, #1009, .T. ) ;
#253 = ORIENTED_EDGE ( 'NONE', *, *, #1218, .T. ) ;
#254 = LINE ( 'NONE', #1004, #1225 ) ;
#255 = EDGE_CURVE ( 'NONE', #713, #340, #634, .T. ) ;
#256 = VECTOR ( 'NONE', #1217, 1000.000000000000000 ) ;
#257 = VERTEX_POINT ( 'NONE', #1063 ) ;
#258 = DIRECTION ( 'NONE',  ( 0.000000000000000000, 1.000000000000000000, 0.000000000000000000 ) ) ;
#259 = ORIENTED_EDGE ( 'NONE', *, *, #495, .F. ) ;
#260 = CARTESIAN_POINT ( 'NONE',  ( -13.50000000006092549, 170.0000000000000000, -7.600000000049548454 ) ) ;
#261 = ORIENTED_EDGE ( 'NONE', *, *, #822, .F. ) ;
#262 = ORIENTED_EDGE ( 'NONE', *, *, #57, .F. ) ;
#263 = CARTESIAN_POINT ( 'NONE',  ( -19.70000000006237428, 170.0000000000000000, -10.90000000004380531 ) ) ;
#264 = VECTOR ( 'NONE', #387, 1000.000000000000000 ) ;
#265 = VERTEX_POINT ( 'NONE', #946 ) ;
#266 = CARTESIAN_POINT ( 'NONE',  ( -15.50000000006092371, 3.000000000000000000, -9.500000000048096638 ) ) ;
#267 = ORIENTED_EDGE ( 'NONE', *, *, #499, .T. ) ;
#268 = DIRECTION ( 'NONE',  ( -1.021800699607666527E-12, 0.000000000000000000, -1.000000000000000000 ) ) ;
#269 = ORIENTED_EDGE ( 'NONE', *, *, #618, .F. ) ;
#270 = PLANE ( 'NONE',  #1220 ) ;
#271 = SURFACE_STYLE_FILL_AREA ( #1112 ) ;
#272 =( GEOMETRIC_REPRESENTATION_CONTEXT ( 3 ) GLOBAL_UNCERTAINTY_ASSIGNED_CONTEXT ( ( #346 ) ) GLOBAL_UNIT_ASSIGNED_CONTEXT ( ( #123, #1249, #1264 ) ) REPRESENTATION_CONTEXT ( 'NONE', 'WORKASPACE' ) );
#273 = PRODUCT ( 'TOP Cover 3', 'TOP Cover 3', '', ( #327 ) ) ;
#274 = ORIENTED_EDGE ( 'NONE', *, *, #1255, .T. ) ;
#275 = EDGE_CURVE ( 'NONE', #513, #829, #547, .T. ) ;
#276 = CARTESIAN_POINT ( 'NONE',  ( -99.60000000004674803, 0.000000000000000000, 4.400000000037794123 ) ) ;
#277 = VERTEX_POINT ( 'NONE', #443 ) ;
#278 = DIRECTION ( 'NONE',  ( 1.000000000000000000, 0.000000000000000000, -1.021800699607666527E-12 ) ) ;
#279 = EDGE_CURVE ( 'NONE', #12, #257, #840, .T. ) ;
#280 = FACE_OUTER_BOUND ( 'NONE', #780, .T. ) ;
#281 = CARTESIAN_POINT ( 'NONE',  ( -111.7000000000599300, 170.0000000000000000, -7.599999999949004881 ) ) ;
#282 = ADVANCED_FACE ( 'NONE', ( #735 ), #535, .F. ) ;
#283 = DIRECTION ( 'NONE',  ( 0.000000000000000000, -0.000000000000000000, 1.000000000000000000 ) ) ;
#284 = DIRECTION ( 'NONE',  ( 0.000000000000000000, 0.000000000000000000, 1.000000000000000000 ) ) ;
#285 = ADVANCED_FACE ( 'NONE', ( #430 ), #848, .T. ) ;
#286 = DIRECTION ( 'NONE',  ( -1.021800699607666527E-12, 1.188166764367676588E-16, -1.000000000000000000 ) ) ;
#287 = VECTOR ( 'NONE', #1215, 1000.000000000000000 ) ;
#288 = LINE ( 'NONE', #83, #432 ) ;
#289 = FACE_OUTER_BOUND ( 'NONE', #1058, .T. ) ;
#290 = VECTOR ( 'NONE', #515, 1000.000000000000000 ) ;
#291 = AXIS2_PLACEMENT_3D ( 'NONE', #663, #1162, #134 ) ;
#292 = CARTESIAN_POINT ( 'NONE',  ( -112.5000000000517559, -1.430799676093869988E-15, -0.4999999999490238878 ) ) ;
#293 = FACE_OUTER_BOUND ( 'NONE', #457, .T. ) ;
#294 = CARTESIAN_POINT ( 'NONE',  ( -100.5000000000615614, 212.0000000000000000, -10.09999999996125197 ) ) ;
#295 = ADVANCED_FACE ( 'NONE', ( #293 ), #402, .F. ) ;
#296 = FACE_OUTER_BOUND ( 'NONE', #210, .T. ) ;
#297 = DIRECTION ( 'NONE',  ( -1.219415011955796222E-28, -1.000000000000000000, -1.193398098498079265E-16 ) ) ;
#298 = DIRECTION ( 'NONE',  ( -8.673617379884035472E-16, 0.000000000000000000, 1.000000000000000000 ) ) ;
#299 = EDGE_CURVE ( 'NONE', #1023, #115, #706, .T. ) ;
#300 = AXIS2_PLACEMENT_3D ( 'NONE', #130, #1183, #645 ) ;
#301 = ORIENTED_EDGE ( 'NONE', *, *, #1339, .T. ) ;
#302 = VECTOR ( 'NONE', #258, 1000.000000000000000 ) ;
#303 =( BOUNDED_CURVE ( )  B_SPLINE_CURVE ( 3, ( #990, #165, #384, #469 ),
 .UNSPECIFIED., .F., .T. ) 
 B_SPLINE_CURVE_WITH_KNOTS ( ( 4, 4 ),
 ( 5.123905826452181067, 5.355890089177978375 ),
 .UNSPECIFIED. ) 
 CURVE ( )  GEOMETRIC_REPRESENTATION_ITEM ( )  RATIONAL_B_SPLINE_CURVE ( ( 1.000000000000000000, 0.9955203010887372361, 0.9955203010887372361, 1.000000000000000000 ) ) 
 REPRESENTATION_ITEM ( '' )  );
#304 = CARTESIAN_POINT ( 'NONE',  ( -110.9000000000517616, 1.599999999999994760, -0.4999999999506579695 ) ) ;
#305 = CARTESIAN_POINT ( 'NONE',  ( -14.70000000006092300, 170.0000000000000000, -7.600000000049548454 ) ) ;
#306 = VECTOR ( 'NONE', #599, 1000.000000000000000 ) ;
#307 = LINE ( 'NONE', #602, #1327 ) ;
#308 = EDGE_LOOP ( 'NONE', ( #479, #1254, #764, #234 ) ) ;
#309 = CARTESIAN_POINT ( 'NONE',  ( -34.81010095593644849, 3.000000000000000000, 2.499999999971590725 ) ) ;
#310 = DIRECTION ( 'NONE',  ( 0.000000000000000000, 0.000000000000000000, 1.000000000000000000 ) ) ;
#311 = LINE ( 'NONE', #104, #648 ) ;
#312 = EDGE_CURVE ( 'NONE', #36, #1000, #935, .T. ) ;
#313 = EDGE_LOOP ( 'NONE', ( #162, #1070, #871, #420 ) ) ;
#314 = AXIS2_PLACEMENT_3D ( 'NONE', #388, #1309, #79 ) ;
#315 = CARTESIAN_POINT ( 'NONE',  ( -105.3000000000623828, 212.0000000000000000, -10.89999999995634639 ) ) ;
#316 = DIRECTION ( 'NONE',  ( 1.000000000000000000, 0.000000000000000000, -1.021800699607666527E-12 ) ) ;
#317 = EDGE_CURVE ( 'NONE', #756, #386, #93, .T. ) ;
#318 = DIRECTION ( 'NONE',  ( -8.601934591619332540E-16, 1.000000000000000000, 1.171501568200919154E-16 ) ) ;
#319 = CARTESIAN_POINT ( 'NONE',  ( -12.50000000004866685, 3.000000000000000000, 2.499999999948794738 ) ) ;
#320 = ORIENTED_EDGE ( 'NONE', *, *, #186, .F. ) ;
#321 = DIRECTION ( 'NONE',  ( -0.000000000000000000, 1.000000000000000000, -0.000000000000000000 ) ) ;
#322 = CARTESIAN_POINT ( 'NONE',  ( -16.50000000006399148, 170.0000000000000000, -12.50000000004707523 ) ) ;
#323 = VECTOR ( 'NONE', #699, 1000.000000000000000 ) ;
#324 = DIRECTION ( 'NONE',  ( 1.000000000000000000, 0.000000000000000000, -1.021800699607666527E-12 ) ) ;
#325 = PLANE ( 'NONE',  #1206 ) ;
#326 = CARTESIAN_POINT ( 'NONE',  ( -17.14469867302553752, 1.600000000000035394, -0.5000000000464580596 ) ) ;
#327 = PRODUCT_CONTEXT ( 'NONE', #105, 'mechanical' ) ;
#328 = ORIENTED_EDGE ( 'NONE', *, *, #10, .F. ) ;
#329 = VECTOR ( 'NONE', #198, 1000.000000000000000 ) ;
#330 = CARTESIAN_POINT ( 'NONE',  ( -15.50000000004866862, 170.0000000000000000, 2.499999999951881158 ) ) ;
#331 = LINE ( 'NONE', #853, #335 ) ;
#332 = LINE ( 'NONE', #245, #221 ) ;
#333 = AXIS2_PLACEMENT_3D ( 'NONE', #577, #61, #1208 ) ;
#334 = ORIENTED_EDGE ( 'NONE', *, *, #730, .F. ) ;
#335 = VECTOR ( 'NONE', #646, 1000.000000000000000 ) ;
#336 = DIRECTION ( 'NONE',  ( 1.000000000000000000, 0.000000000000000000, 0.000000000000000000 ) ) ;
#337 = CARTESIAN_POINT ( 'NONE',  ( -12.50000000005377387, 170.0000000000000000, -2.500000000051160853 ) ) ;
#338 = CARTESIAN_POINT ( 'NONE',  ( -112.5000000000517559, 3.514504704576388553E-16, -0.4999999999490238878 ) ) ;
#339 = EDGE_CURVE ( 'NONE', #870, #1090, #1329, .T. ) ;
#340 = VERTEX_POINT ( 'NONE', #201 ) ;
#341 = CARTESIAN_POINT ( 'NONE',  ( -12.50000000005989342, 4.000000000000000000, -8.500000000051160853 ) ) ;
#342 = EDGE_LOOP ( 'NONE', ( #107, #203, #374, #467 ) ) ;
#343 = DIRECTION ( 'NONE',  ( 1.000000000000000000, 0.000000000000000000, -1.021800699607666527E-12 ) ) ;
#344 = VECTOR ( 'NONE', #985, 999.9999999999998863 ) ;
#345 = CARTESIAN_POINT ( 'NONE',  ( -110.5000000000599272, 161.8000000000000114, -7.599999999949004881 ) ) ;
#346 = UNCERTAINTY_MEASURE_WITH_UNIT (LENGTH_MEASURE( 1.000000000000000082E-05 ), #123, 'distance_accuracy_value', 'NONE');
#347 = ORIENTED_EDGE ( 'NONE', *, *, #887, .F. ) ;
#348 = DIRECTION ( 'NONE',  ( 1.000000000000000000, 0.000000000000000000, -1.021800699607666527E-12 ) ) ;
#349 = FACE_OUTER_BOUND ( 'NONE', #1169, .T. ) ;
#350 = VERTEX_POINT ( 'NONE', #601 ) ;
#351 = ORIENTED_EDGE ( 'NONE', *, *, #720, .T. ) ;
#352 = LINE ( 'NONE', #147, #1031 ) ;
#353 = ADVANCED_FACE ( 'NONE', ( #619 ), #1335, .T. ) ;
#354 = ORIENTED_EDGE ( 'NONE', *, *, #1016, .F. ) ;
#355 = PLANE ( 'NONE',  #85 ) ;
#356 = ORIENTED_EDGE ( 'NONE', *, *, #963, .T. ) ;
#357 = DIRECTION ( 'NONE',  ( -1.000000000000000000, 0.000000000000000000, 1.021800699607666527E-12 ) ) ;
#358 = ORIENTED_EDGE ( 'NONE', *, *, #209, .T. ) ;
#359 = ORIENTED_EDGE ( 'NONE', *, *, #1140, .F. ) ;
#360 = CARTESIAN_POINT ( 'NONE',  ( -14.70000000006092300, 161.8000000000000114, -7.600000000049548454 ) ) ;
#361 = VERTEX_POINT ( 'NONE', #1125 ) ;
#362 = CARTESIAN_POINT ( 'NONE',  ( -91.34469867302559010, -6.999999999999999112, -0.4999999999706402631 ) ) ;
#363 = ORIENTED_EDGE ( 'NONE', *, *, #1175, .F. ) ;
#364 = DIRECTION ( 'NONE',  ( -0.9701425001455797892, 0.000000000000000000, -0.2425356250353413179 ) ) ;
#365 = EDGE_LOOP ( 'NONE', ( #54, #252, #938, #786 ) ) ;
#366 = EDGE_LOOP ( 'NONE', ( #1277, #568, #328, #960 ) ) ;
#367 = FACE_OUTER_BOUND ( 'NONE', #477, .T. ) ;
#368 = AXIS2_PLACEMENT_3D ( 'NONE', #1204, #684, #184 ) ;
#369 = ORIENTED_EDGE ( 'NONE', *, *, #586, .F. ) ;
#370 = DIRECTION ( 'NONE',  ( -1.000000000000000000, 0.000000000000000000, 1.021800699607666527E-12 ) ) ;
#371 = ORIENTED_EDGE ( 'NONE', *, *, #1024, .T. ) ;
#372 = CARTESIAN_POINT ( 'NONE',  ( -102.1566767928656532, 2.298516268266255214, -12.22388720115923988 ) ) ;
#373 = AXIS2_PLACEMENT_3D ( 'NONE', #800, #707, #283 ) ;
#374 = ORIENTED_EDGE ( 'NONE', *, *, #436, .T. ) ;
#375 = LINE ( 'NONE', #1120, #525 ) ;
#376 = PLANE ( 'NONE',  #1161 ) ;
#377 = VERTEX_POINT ( 'NONE', #1018 ) ;
#378 = CARTESIAN_POINT ( 'NONE',  ( -12.50000000006229151, 2.602085213965210642E-15, -10.84314575055878116 ) ) ;
#379 = VERTEX_POINT ( 'NONE', #1240 ) ;
#380 = EDGE_CURVE ( 'NONE', #136, #881, #940, .T. ) ;
#381 = CARTESIAN_POINT ( 'NONE',  ( -111.7000000000599300, 161.8000000000000114, -2.399999999949005591 ) ) ;
#382 = EDGE_CURVE ( 'NONE', #1075, #464, #87, .T. ) ;
#383 = DIRECTION ( 'NONE',  ( 1.000000000000000000, 0.000000000000000000, 0.000000000000000000 ) ) ;
#384 = CARTESIAN_POINT ( 'NONE',  ( -103.8119617502804317, 0.6139952187772865777, -10.65199362499424574 ) ) ;
#385 = VECTOR ( 'NONE', #297, 1000.000000000000000 ) ;
#386 = VERTEX_POINT ( 'NONE', #1027 ) ;
#387 = DIRECTION ( 'NONE',  ( -1.000000000000000000, -0.000000000000000000, -0.000000000000000000 ) ) ;
#388 = CARTESIAN_POINT ( 'NONE',  ( -19.70000000006319496, 212.0000000000000000, -11.70000000004380780 ) ) ;
#389 = ORIENTED_EDGE ( 'NONE', *, *, #1101, .T. ) ;
#390 = CARTESIAN_POINT ( 'NONE',  ( -110.8431457505716509, 1.656854249492376585, -12.49999999995067057 ) ) ;
#391 = CARTESIAN_POINT ( 'NONE',  ( -110.9000000000486921, 365.0000000000000000, 2.500000000049384496 ) ) ;
#392 = DIRECTION ( 'NONE',  ( -1.000000000000000000, 0.000000000000000000, 1.021752127350339379E-12 ) ) ;
#393 = DIRECTION ( 'NONE',  ( 1.021800699607666527E-12, -0.000000000000000000, 1.000000000000000000 ) ) ;
#394 = DIRECTION ( 'NONE',  ( -1.021800699607666527E-12, 0.000000000000000000, -1.000000000000000000 ) ) ;
#395 = AXIS2_PLACEMENT_3D ( 'NONE', #1134, #416, #617 ) ;
#396 = CARTESIAN_POINT ( 'NONE',  ( -112.5000000000599272, 0.000000000000000000, -8.499999999948983032 ) ) ;
#397 = ADVANCED_FACE ( 'NONE', ( #728 ), #607, .F. ) ;
#398 = VECTOR ( 'NONE', #1281, 1000.000000000000000 ) ;
#399 = DIRECTION ( 'NONE',  ( 1.020716497435181023E-12, 0.000000000000000000, 1.000000000000000000 ) ) ;
#400 = VECTOR ( 'NONE', #903, 1000.000000000000000 ) ;
#401 = EDGE_CURVE ( 'NONE', #604, #42, #709, .T. ) ;
#402 = CYLINDRICAL_SURFACE ( 'NONE', #967, 9.600000000000004974 ) ;
#403 = DIRECTION ( 'NONE',  ( -0.000000000000000000, -1.000000000000000000, -0.000000000000000000 ) ) ;
#404 = ORIENTED_EDGE ( 'NONE', *, *, #182, .T. ) ;
#405 = LINE ( 'NONE', #1129, #574 ) ;
#406 = DIRECTION ( 'NONE',  ( 0.000000000000000000, 1.000000000000000000, 0.000000000000000000 ) ) ;
#407 = DIRECTION ( 'NONE',  ( -0.000000000000000000, -1.000000000000000000, -0.000000000000000000 ) ) ;
#408 = VECTOR ( 'NONE', #794, 1000.000000000000000 ) ;
#409 = ORIENTED_EDGE ( 'NONE', *, *, #1073, .F. ) ;
#410 = CARTESIAN_POINT ( 'NONE',  ( -19.70000000006319496, 212.0000000000000000, -11.70000000004380780 ) ) ;
#411 = DIRECTION ( 'NONE',  ( 0.000000000000000000, -0.000000000000000000, 1.000000000000000000 ) ) ;
#412 = EDGE_CURVE ( 'NONE', #1298, #466, #1233, .T. ) ;
#413 = CARTESIAN_POINT ( 'NONE',  ( -13.50000000006092549, 161.8000000000000114, -7.600000000049548454 ) ) ;
#414 = ORIENTED_EDGE ( 'NONE', *, *, #556, .F. ) ;
#415 = EDGE_CURVE ( 'NONE', #1182, #24, #1223, .T. ) ;
#416 = DIRECTION ( 'NONE',  ( -8.601934591619336485E-16, 1.000000000000000000, 1.171501568200919154E-16 ) ) ;
#417 = EDGE_CURVE ( 'NONE', #678, #131, #99, .T. ) ;
#418 = CARTESIAN_POINT ( 'NONE',  ( -19.70000000006237428, 212.0000000000000000, -10.90000000004380531 ) ) ;
#419 = ADVANCED_FACE ( 'NONE', ( #827 ), #522, .F. ) ;
#420 = ORIENTED_EDGE ( 'NONE', *, *, #979, .F. ) ;
#421 = CARTESIAN_POINT ( 'NONE',  ( -110.5000000000599272, 161.8000000000000114, -7.599999999949004881 ) ) ;
#422 = CARTESIAN_POINT ( 'NONE',  ( -90.18989904416091008, 3.000000000000000000, 2.500000000028179237 ) ) ;
#423 = CARTESIAN_POINT ( 'NONE',  ( -15.50000000006092371, 0.000000000000000000, -9.500000000048096638 ) ) ;
#424 = LINE ( 'NONE', #937, #1022 ) ;
#425 = PRODUCT_DEFINITION_CONTEXT ( 'detailed design', #84, 'design' ) ;
#426 = SURFACE_STYLE_FILL_AREA ( #740 ) ;
#427 = ORIENTED_EDGE ( 'NONE', *, *, #1020, .F. ) ;
#428 = CARTESIAN_POINT ( 'NONE',  ( -111.7000000000599300, 161.8000000000000114, -7.599999999949004881 ) ) ;
#429 = AXIS2_PLACEMENT_3D ( 'NONE', #168, #494, #284 ) ;
#430 = FACE_OUTER_BOUND ( 'NONE', #1093, .T. ) ;
#431 = CARTESIAN_POINT ( 'NONE',  ( -110.5000000000599272, 170.0000000000000000, -7.599999999949004881 ) ) ;
#432 = VECTOR ( 'NONE', #703, 1000.000000000000000 ) ;
#433 = ADVANCED_FACE ( 'NONE', ( #3 ), #832, .F. ) ;
#434 = EDGE_LOOP ( 'NONE', ( #1267, #868, #358, #673 ) ) ;
#435 = CARTESIAN_POINT ( 'NONE',  ( -112.5000000000538023, 170.0000000000000000, -2.499999999948980367 ) ) ;
#436 = EDGE_CURVE ( 'NONE', #488, #42, #810, .T. ) ;
#437 = CARTESIAN_POINT ( 'NONE',  ( -13.50000000006092549, 161.8000000000000114, -7.600000000049548454 ) ) ;
#438 = ORIENTED_EDGE ( 'NONE', *, *, #686, .F. ) ;
#439 = VECTOR ( 'NONE', #222, 1000.000000000000000 ) ;
#440 = DIRECTION ( 'NONE',  ( 1.214069631081469458E-28, 1.000000000000000000, 1.188166764367676588E-16 ) ) ;
#441 = EDGE_LOOP ( 'NONE', ( #898, #552, #1295, #1202 ) ) ;
#442 = VECTOR ( 'NONE', #1325, 1000.000000000000000 ) ;
#443 = CARTESIAN_POINT ( 'NONE',  ( -33.65530132707790756, 1.600000000000035394, -0.5000000000295878877 ) ) ;
#444 = CARTESIAN_POINT ( 'NONE',  ( -14.10000000005172360, 1.600000000000078026, -0.5000000000495684604 ) ) ;
#445 = APPLICATION_PROTOCOL_DEFINITION ( 'draft international standard', 'automotive_design', 1998, #105 ) ;
#446 = EDGE_LOOP ( 'NONE', ( #564, #1180, #877, #579 ) ) ;
#447 = DIRECTION ( 'NONE',  ( 1.214069631081469458E-28, 1.000000000000000000, 1.188166764367676588E-16 ) ) ;
#448 = CARTESIAN_POINT ( 'NONE',  ( -110.9000000000486921, 1.599999999999994316, 2.500000000049341420 ) ) ;
#449 = ORIENTED_EDGE ( 'NONE', *, *, #976, .T. ) ;
#450 = ORIENTED_EDGE ( 'NONE', *, *, #1203, .F. ) ;
#451 = ORIENTED_EDGE ( 'NONE', *, *, #77, .F. ) ;
#452 = ADVANCED_FACE ( 'NONE', ( #289 ), #785, .F. ) ;
#453 = ORIENTED_EDGE ( 'NONE', *, *, #1272, .F. ) ;
#454 = LINE ( 'NONE', #149, #1190 ) ;
#455 = FACE_OUTER_BOUND ( 'NONE', #138, .T. ) ;
#456 = ORIENTED_EDGE ( 'NONE', *, *, #1239, .T. ) ;
#457 = EDGE_LOOP ( 'NONE', ( #609, #549, #873, #1100, #262, #747, #274, #74 ) ) ;
#458 = VECTOR ( 'NONE', #915, 1000.000000000000000 ) ;
#459 = VECTOR ( 'NONE', #393, 1000.000000000000000 ) ;
#460 = SURFACE_SIDE_STYLE ('',( #271 ) ) ;
#461 = VECTOR ( 'NONE', #233, 1000.000000000000000 ) ;
#462 = ORIENTED_EDGE ( 'NONE', *, *, #415, .T. ) ;
#463 = LINE ( 'NONE', #1142, #17 ) ;
#464 = VERTEX_POINT ( 'NONE', #487 ) ;
#465 = CARTESIAN_POINT ( 'NONE',  ( -108.5000000000640199, 4.000000000000000000, -12.49999999995306865 ) ) ;
#466 = VERTEX_POINT ( 'NONE', #583 ) ;
#467 = ORIENTED_EDGE ( 'NONE', *, *, #401, .F. ) ;
#468 = VECTOR ( 'NONE', #38, 1000.000000000000000 ) ;
#469 = CARTESIAN_POINT ( 'NONE',  ( -105.3000000000623828, 0.8000000000000229150, -10.89999999995634639 ) ) ;
#470 = ORIENTED_EDGE ( 'NONE', *, *, #834, .F. ) ;
#471 = DIRECTION ( 'NONE',  ( 1.000000000000000000, 8.583267198843572168E-16, -1.021770197386546999E-12 ) ) ;
#472 = EDGE_LOOP ( 'NONE', ( #731, #244, #953, #1192 ) ) ;
#473 = CARTESIAN_POINT ( 'NONE',  ( -12.50000000006092016, 170.0000000000000000, -9.500000000051162630 ) ) ;
#474 = VERTEX_POINT ( 'NONE', #478 ) ;
#475 = AXIS2_PLACEMENT_3D ( 'NONE', #1066, #1083, #364 ) ;
#476 = FACE_OUTER_BOUND ( 'NONE', #342, .T. ) ;
#477 = EDGE_LOOP ( 'NONE', ( #1296, #616, #52, #538, #240, #1084, #1241, #996 ) ) ;
#478 = CARTESIAN_POINT ( 'NONE',  ( -109.5000000000487006, 170.0000000000000000, 2.500000000047930993 ) ) ;
#479 = ORIENTED_EDGE ( 'NONE', *, *, #656, .T. ) ;
#480 = ADVANCED_FACE ( 'NONE', ( #1013 ), #1114, .T. ) ;
#481 = CARTESIAN_POINT ( 'NONE',  ( -100.5000000000640199, 4.000000000000000000, -12.49999999996124345 ) ) ;
#482 = MECHANICAL_DESIGN_GEOMETRIC_PRESENTATION_REPRESENTATION (  '', ( #1306 ), #596 ) ;
#483 = CARTESIAN_POINT ( 'NONE',  ( -112.5000000000517559, 365.0000000000000000, -0.4999999999489822544 ) ) ;
#484 = EDGE_CURVE ( 'NONE', #152, #350, #955, .T. ) ;
#485 = PLANE ( 'NONE',  #929 ) ;
#486 = ORIENTED_EDGE ( 'NONE', *, *, #518, .F. ) ;
#487 = CARTESIAN_POINT ( 'NONE',  ( -15.50000000004866862, 3.000000000000000000, 2.499999999951860286 ) ) ;
#488 = VERTEX_POINT ( 'NONE', #806 ) ;
#489 = CARTESIAN_POINT ( 'NONE',  ( -12.50000000006398793, 4.000000000000000000, -12.50000000005116263 ) ) ;
#490 = DIRECTION ( 'NONE',  ( 1.000000000000000000, 5.966990492490394629E-18, -1.021800699607666527E-12 ) ) ;
#491 = VECTOR ( 'NONE', #1038, 1000.000000000000000 ) ;
#492 = DIRECTION ( 'NONE',  ( 1.000000000000000000, 0.000000000000000000, -1.021800699607666527E-12 ) ) ;
#493 = ORIENTED_EDGE ( 'NONE', *, *, #1343, .T. ) ;
#494 = DIRECTION ( 'NONE',  ( -0.000000000000000000, -1.000000000000000000, -0.000000000000000000 ) ) ;
#495 = EDGE_CURVE ( 'NONE', #159, #340, #1059, .T. ) ;
#496 = FACE_OUTER_BOUND ( 'NONE', #1316, .T. ) ;
#497 = PRODUCT_RELATED_PRODUCT_CATEGORY ( 'part', '', ( #273 ) ) ;
#498 = DIRECTION ( 'NONE',  ( -1.021800699607666527E-12, 1.235693434942383514E-16, -1.000000000000000000 ) ) ;
#499 = EDGE_CURVE ( 'NONE', #986, #228, #1118, .T. ) ;
#500 = EDGE_CURVE ( 'NONE', #35, #153, #1323, .T. ) ;
#501 = LINE ( 'NONE', #920, #674 ) ;
#502 = VECTOR ( 'NONE', #1248, 1000.000000000000000 ) ;
#503 = EDGE_CURVE ( 'NONE', #277, #32, #125, .T. ) ;
#504 = CARTESIAN_POINT ( 'NONE',  ( -110.9000000000486921, 1.599999999999994316, 2.500000000049341420 ) ) ;
#505 = CARTESIAN_POINT ( 'NONE',  ( -15.50000000004866862, 365.0000000000000000, 2.499999999951905139 ) ) ;
#506 = VECTOR ( 'NONE', #403, 1000.000000000000000 ) ;
#507 = CARTESIAN_POINT ( 'NONE',  ( -112.5000000000599272, 370.0000000000000000, -8.499999999948983032 ) ) ;
#508 = ORIENTED_EDGE ( 'NONE', *, *, #1101, .F. ) ;
#509 = DIRECTION ( 'NONE',  ( 1.000000000000000000, 0.000000000000000000, 0.000000000000000000 ) ) ;
#510 = CARTESIAN_POINT ( 'NONE',  ( -14.10000000005172360, 1.600000000000078026, -0.5000000000495684604 ) ) ;
#511 = VECTOR ( 'NONE', #155, 1000.000000000000000 ) ;
#512 = CARTESIAN_POINT ( 'NONE',  ( -110.9000000000517616, 365.0000000000000000, -0.4999999999506163362 ) ) ;
#513 = VERTEX_POINT ( 'NONE', #266 ) ;
#514 = EDGE_CURVE ( 'NONE', #678, #1079, #1126, .T. ) ;
#515 = DIRECTION ( 'NONE',  ( -1.021800699607666527E-12, 0.000000000000000000, -1.000000000000000000 ) ) ;
#516 = DIRECTION ( 'NONE',  ( -0.000000000000000000, -1.000000000000000000, -0.000000000000000000 ) ) ;
#517 = CARTESIAN_POINT ( 'NONE',  ( -110.9000000000517616, 1.599999999999994760, -0.4999999999506579695 ) ) ;
#518 = EDGE_CURVE ( 'NONE', #36, #340, #1106, .T. ) ;
#519 = ORIENTED_EDGE ( 'NONE', *, *, #1005, .F. ) ;
#520 = ADVANCED_FACE ( 'NONE', ( #1212 ), #66, .F. ) ;
#521 = DIRECTION ( 'NONE',  ( 1.000000000000000000, 0.000000000000000000, -1.021752127350338571E-12 ) ) ;
#522 = PLANE ( 'NONE',  #246 ) ;
#523 = PLANE ( 'NONE',  #543 ) ;
#524 = ORIENTED_EDGE ( 'NONE', *, *, #195, .F. ) ;
#525 = VECTOR ( 'NONE', #1328, 1000.000000000000000 ) ;
#526 = DIRECTION ( 'NONE',  ( 0.000000000000000000, -1.000000000000000000, 0.000000000000000000 ) ) ;
#527 = CARTESIAN_POINT ( 'NONE',  ( -19.70000000006237428, 0.8000000000000012657, -10.90000000004380531 ) ) ;
#528 = LINE ( 'NONE', #743, #166 ) ;
#529 = DIRECTION ( 'NONE',  ( -1.000000000000000000, 0.000000000000000000, 1.021687116522929912E-12 ) ) ;
#530 = APPLICATION_PROTOCOL_DEFINITION ( 'draft international standard', 'automotive_design', 1998, #84 ) ;
#531 = ORIENTED_EDGE ( 'NONE', *, *, #554, .F. ) ;
#532 = CARTESIAN_POINT ( 'NONE',  ( -108.5000000000599272, 0.000000000000000000, -8.499999999953068652 ) ) ;
#533 = CARTESIAN_POINT ( 'NONE',  ( -19.70000000005991936, 4.000000000000000000, -8.500000000043804960 ) ) ;
#534 = EDGE_CURVE ( 'NONE', #174, #257, #954, .T. ) ;
#535 = PLANE ( 'NONE',  #204 ) ;
#536 = CARTESIAN_POINT ( 'NONE',  ( -111.7000000000599300, 170.0000000000000000, -7.599999999949004881 ) ) ;
#537 = EDGE_CURVE ( 'NONE', #350, #91, #176, .T. ) ;
#538 = ORIENTED_EDGE ( 'NONE', *, *, #1073, .T. ) ;
#539 = CARTESIAN_POINT ( 'NONE',  ( -112.5000000000517559, 170.0000000000000568, -0.4999999999490054026 ) ) ;
#540 = EDGE_CURVE ( 'NONE', #657, #174, #727, .T. ) ;
#541 = AXIS2_PLACEMENT_3D ( 'NONE', #276, #1315, #693 ) ;
#542 = FACE_OUTER_BOUND ( 'NONE', #676, .T. ) ;
#543 = AXIS2_PLACEMENT_3D ( 'NONE', #319, #942, #11 ) ;
#544 = ORIENTED_EDGE ( 'NONE', *, *, #1140, .T. ) ;
#545 = CYLINDRICAL_SURFACE ( 'NONE', #1341, 4.000000000000000888 ) ;
#546 = ORIENTED_EDGE ( 'NONE', *, *, #37, .T. ) ;
#547 = LINE ( 'NONE', #423, #30 ) ;
#548 = LINE ( 'NONE', #958, #1153 ) ;
#549 = ORIENTED_EDGE ( 'NONE', *, *, #1259, .F. ) ;
#550 = CARTESIAN_POINT ( 'NONE',  ( -111.7000000000599300, 170.0000000000000000, -2.399999999949005591 ) ) ;
#551 = ORIENTED_EDGE ( 'NONE', *, *, #1001, .T. ) ;
#552 = ORIENTED_EDGE ( 'NONE', *, *, #629, .T. ) ;
#553 = AXIS2_PLACEMENT_3D ( 'NONE', #103, #498, #923 ) ;
#554 = EDGE_CURVE ( 'NONE', #870, #1023, #1188, .T. ) ;
#555 = CARTESIAN_POINT ( 'NONE',  ( -107.8553013270779388, -6.999999999999999112, -0.4999999999537700912 ) ) ;
#556 = EDGE_CURVE ( 'NONE', #886, #1079, #1080, .T. ) ;
#557 = ORIENTED_EDGE ( 'NONE', *, *, #880, .F. ) ;
#558 = PLANE ( 'NONE',  #1033 ) ;
#559 = CARTESIAN_POINT ( 'NONE',  ( -12.50000000004866685, 3.000000000000000000, 2.499999999948794738 ) ) ;
#560 = VERTEX_POINT ( 'NONE', #831 ) ;
#561 = EDGE_LOOP ( 'NONE', ( #721, #1199, #1269, #851 ) ) ;
#562 = FACE_OUTER_BOUND ( 'NONE', #1310, .T. ) ;
#563 = PRODUCT_DEFINITION_SHAPE ( 'NONE', 'NONE',  #1173 ) ;
#564 = ORIENTED_EDGE ( 'NONE', *, *, #33, .F. ) ;
#565 = DIRECTION ( 'NONE',  ( -1.021800699607666527E-12, 1.235693434942383514E-16, -1.000000000000000000 ) ) ;
#566 = VERTEX_POINT ( 'NONE', #322 ) ;
#567 = DIRECTION ( 'NONE',  ( 0.000000000000000000, 0.000000000000000000, 1.000000000000000000 ) ) ;
#568 = ORIENTED_EDGE ( 'NONE', *, *, #597, .F. ) ;
#569 = EDGE_LOOP ( 'NONE', ( #363, #766, #664, #519 ) ) ;
#570 = VECTOR ( 'NONE', #492, 1000.000000000000000 ) ;
#571 = LINE ( 'NONE', #360, #637 ) ;
#572 = CIRCLE ( 'NONE', #291, 9.600000000000004974 ) ;
#573 = ORIENTED_EDGE ( 'NONE', *, *, #1109, .F. ) ;
#574 = VECTOR ( 'NONE', #820, 1000.000000000000000 ) ;
#575 = CARTESIAN_POINT ( 'NONE',  ( -12.50000000004866685, 170.0000000000000000, 2.499999999948815610 ) ) ;
#576 = ORIENTED_EDGE ( 'NONE', *, *, #1283, .T. ) ;
#577 = CARTESIAN_POINT ( 'NONE',  ( -12.50000000004866685, 365.0000000000000000, 2.499999999948840035 ) ) ;
#578 = ORIENTED_EDGE ( 'NONE', *, *, #1036, .T. ) ;
#579 = ORIENTED_EDGE ( 'NONE', *, *, #1203, .T. ) ;
#580 = VECTOR ( 'NONE', #1179, 1000.000000000000000 ) ;
#581 = DIRECTION ( 'NONE',  ( 1.000000000000000000, 0.000000000000000000, -1.021687116522929912E-12 ) ) ;
#582 = ORIENTED_EDGE ( 'NONE', *, *, #930, .F. ) ;
#583 = CARTESIAN_POINT ( 'NONE',  ( -17.14469867302553752, 3.514504704576388553E-16, -0.5000000000464580596 ) ) ;
#584 = VERTEX_POINT ( 'NONE', #143 ) ;
#585 = CARTESIAN_POINT ( 'NONE',  ( -19.70000000006237428, 212.0000000000000000, -10.90000000004380531 ) ) ;
#586 = EDGE_CURVE ( 'NONE', #1182, #145, #213, .T. ) ;
#587 = LINE ( 'NONE', #92, #459 ) ;
#588 = VECTOR ( 'NONE', #961, 1000.000000000000000 ) ;
#589 = CARTESIAN_POINT ( 'NONE',  ( -16.50000000006153655, 212.0000000000000000, -10.10000000004707488 ) ) ;
#590 = ORIENTED_EDGE ( 'NONE', *, *, #401, .T. ) ;
#591 = ORIENTED_EDGE ( 'NONE', *, *, #500, .T. ) ;
#592 = CARTESIAN_POINT ( 'NONE',  ( -14.10000000004867005, 170.0000000000000000, 2.499999999950450746 ) ) ;
#593 = CARTESIAN_POINT ( 'NONE',  ( -112.5000000000599272, 0.000000000000000000, -8.499999999948983032 ) ) ;
#594 = DIRECTION ( 'NONE',  ( 0.000000000000000000, 1.000000000000000000, 0.000000000000000000 ) ) ;
#595 = DIRECTION ( 'NONE',  ( -3.336006684570783101E-16, 0.000000000000000000, -1.000000000000000000 ) ) ;
#596 =( GEOMETRIC_REPRESENTATION_CONTEXT ( 3 ) GLOBAL_UNCERTAINTY_ASSIGNED_CONTEXT ( ( #127 ) ) GLOBAL_UNIT_ASSIGNED_CONTEXT ( ( #120, #1261, #1145 ) ) REPRESENTATION_CONTEXT ( 'NONE', 'WORKASPACE' ) );
#597 = EDGE_CURVE ( 'NONE', #584, #643, #454, .T. ) ;
#598 = PLANE ( 'NONE',  #1115 ) ;
#599 = DIRECTION ( 'NONE',  ( 1.000000000000000000, -0.000000000000000000, -1.021800699607666527E-12 ) ) ;
#600 = LINE ( 'NONE', #912, #223 ) ;
#601 = CARTESIAN_POINT ( 'NONE',  ( -12.50000000005989342, 0.000000000000000000, -8.500000000051160853 ) ) ;
#602 = CARTESIAN_POINT ( 'NONE',  ( -12.50000000006092016, 3.000000000000000000, -9.500000000051162630 ) ) ;
#603 = AXIS2_PLACEMENT_3D ( 'NONE', #1096, #900, #595 ) ;
#604 = VERTEX_POINT ( 'NONE', #219 ) ;
#605 =( GEOMETRIC_REPRESENTATION_CONTEXT ( 3 ) GLOBAL_UNCERTAINTY_ASSIGNED_CONTEXT ( ( #1078 ) ) GLOBAL_UNIT_ASSIGNED_CONTEXT ( ( #625, #4, #843 ) ) REPRESENTATION_CONTEXT ( 'NONE', 'WORKASPACE' ) );
#606 = FACE_OUTER_BOUND ( 'NONE', #669, .T. ) ;
#607 = PLANE ( 'NONE',  #553 ) ;
#608 = FACE_OUTER_BOUND ( 'NONE', #95, .T. ) ;
#609 = ORIENTED_EDGE ( 'NONE', *, *, #503, .F. ) ;
#610 = CARTESIAN_POINT ( 'NONE',  ( -14.70000000006092300, 161.8000000000000114, -7.600000000049548454 ) ) ;
#611 = EDGE_CURVE ( 'NONE', #927, #881, #1250, .T. ) ;
#612 = DIRECTION ( 'NONE',  ( -0.000000000000000000, -1.000000000000000000, -0.000000000000000000 ) ) ;
#613 = EDGE_CURVE ( 'NONE', #474, #1332, #1089, .T. ) ;
#614 = LINE ( 'NONE', #78, #1026 ) ;
#615 = VECTOR ( 'NONE', #324, 1000.000000000000000 ) ;
#616 = ORIENTED_EDGE ( 'NONE', *, *, #534, .T. ) ;
#617 = DIRECTION ( 'NONE',  ( 1.000000000000000000, 8.583267198843579070E-16, -1.021770197386547605E-12 ) ) ;
#618 = EDGE_CURVE ( 'NONE', #228, #756, #992, .T. ) ;
#619 = FACE_OUTER_BOUND ( 'NONE', #1146, .T. ) ;
#620 = DIRECTION ( 'NONE',  ( 0.9863939238323117253, 0.000000000000000000, 0.1643989873043487648 ) ) ;
#621 = ORIENTED_EDGE ( 'NONE', *, *, #717, .F. ) ;
#622 = DIRECTION ( 'NONE',  ( 1.000000000000000000, 8.601934591620529637E-16, -1.021800699607666527E-12 ) ) ;
#623 = CARTESIAN_POINT ( 'NONE',  ( -13.50000000006092549, 170.0000000000000000, -7.600000000049548454 ) ) ;
#624 = CARTESIAN_POINT ( 'NONE',  ( -90.18989904416092429, -7.000000000000000000, 2.500000000028179237 ) ) ;
#625 =( LENGTH_UNIT ( ) NAMED_UNIT ( * ) SI_UNIT ( .MILLI., .METRE. ) );
#626 = VECTOR ( 'NONE', #824, 1000.000000000000227 ) ;
#627 = EDGE_LOOP ( 'NONE', ( #224, #885, #253, #449, #653, #249 ) ) ;
#628 = VECTOR ( 'NONE', #892, 1000.000000000000000 ) ;
#629 = EDGE_CURVE ( 'NONE', #129, #148, #463, .T. ) ;
#630 = CLOSED_SHELL ( 'NONE', ( #397, #633, #1123, #1216, #863, #285, #185, #295, #1135, #27, #959, #480, #160, #855, #914, #1280, #135, #732, #803, #452, #833, #14, #1119, #1321, #679, #419, #941, #909, #911, #638, #433, #1253, #984, #1040, #520, #700, #353, #755, #111, #282, #904, #774 ) ) ;
#631 = LINE ( 'NONE', #315, #1330 ) ;
#632 = LINE ( 'NONE', #945, #753 ) ;
#633 = ADVANCED_FACE ( 'NONE', ( #1285 ), #355, .F. ) ;
#634 = LINE ( 'NONE', #1270, #1207 ) ;
#635 = AXIS2_PLACEMENT_3D ( 'NONE', #86, #807, #399 ) ;
#636 = DIRECTION ( 'NONE',  ( -1.000000000000000000, 0.000000000000000000, 1.021800699607666527E-12 ) ) ;
#637 = VECTOR ( 'NONE', #1094, 1000.000000000000000 ) ;
#638 = ADVANCED_FACE ( 'NONE', ( #1275 ), #558, .T. ) ;
#639 = ORIENTED_EDGE ( 'NONE', *, *, #514, .F. ) ;
#640 = CARTESIAN_POINT ( 'NONE',  ( -14.10000000004867005, 1.600000000000077582, 2.499999999950430762 ) ) ;
#641 = CARTESIAN_POINT ( 'NONE',  ( -16.50000000006398437, 3.126854664667197525, -12.50000000004707701 ) ) ;
#642 = LINE ( 'NONE', #655, #461 ) ;
#643 = VERTEX_POINT ( 'NONE', #666 ) ;
#644 = AXIS2_PLACEMENT_3D ( 'NONE', #1165, #229, #754 ) ;
#645 = DIRECTION ( 'NONE',  ( 0.000000000000000000, -0.000000000000000000, 1.000000000000000000 ) ) ;
#646 = DIRECTION ( 'NONE',  ( 0.000000000000000000, 1.000000000000000000, 0.000000000000000000 ) ) ;
#647 = ORIENTED_EDGE ( 'NONE', *, *, #98, .T. ) ;
#648 = VECTOR ( 'NONE', #208, 1000.000000000000000 ) ;
#649 = ORIENTED_EDGE ( 'NONE', *, *, #503, .T. ) ;
#650 = EDGE_CURVE ( 'NONE', #466, #1065, #761, .T. ) ;
#651 = CARTESIAN_POINT ( 'NONE',  ( -112.5000000000517559, 170.0000000000000000, -0.4999999999490036817 ) ) ;
#652 = ORIENTED_EDGE ( 'NONE', *, *, #930, .T. ) ;
#653 = ORIENTED_EDGE ( 'NONE', *, *, #978, .F. ) ;
#654 = EDGE_CURVE ( 'NONE', #881, #488, #665, .T. ) ;
#655 = CARTESIAN_POINT ( 'NONE',  ( -111.7000000000599300, 161.8000000000000114, -2.399999999949005591 ) ) ;
#656 = EDGE_CURVE ( 'NONE', #145, #560, #632, .T. ) ;
#657 = VERTEX_POINT ( 'NONE', #1072 ) ;
#658 = CARTESIAN_POINT ( 'NONE',  ( -18.70797450020763719, 0.6139952187772864667, -10.65199362508120551 ) ) ;
#659 = EDGE_CURVE ( 'NONE', #139, #474, #973, .T. ) ;
#660 = PLANE ( 'NONE',  #300 ) ;
#661 = ORIENTED_EDGE ( 'NONE', *, *, #1339, .F. ) ;
#662 = EDGE_LOOP ( 'NONE', ( #1097, #864, #933, #1193 ) ) ;
#663 = CARTESIAN_POINT ( 'NONE',  ( -25.40000000004673097, 1.600000000000067590, 4.399999999961975661 ) ) ;
#664 = ORIENTED_EDGE ( 'NONE', *, *, #255, .F. ) ;
#665 =( BOUNDED_CURVE ( )  B_SPLINE_CURVE ( 3, ( #527, #658, #158, #7 ),
 .UNSPECIFIED., .F., .T. ) 
 B_SPLINE_CURVE_WITH_KNOTS ( ( 4, 4 ),
 ( 0.9272952180016102997, 1.159279480727401834 ),
 .UNSPECIFIED. ) 
 CURVE ( )  GEOMETRIC_REPRESENTATION_ITEM ( )  RATIONAL_B_SPLINE_CURVE ( ( 1.000000000000000000, 0.9955203010887375692, 0.9955203010887375692, 1.000000000000000000 ) ) 
 REPRESENTATION_ITEM ( '' )  );
#666 = CARTESIAN_POINT ( 'NONE',  ( -110.5000000000599272, 170.0000000000000000, -2.399999999949005591 ) ) ;
#667 = EDGE_LOOP ( 'NONE', ( #1008, #889, #1286, #47 ) ) ;
#668 = LINE ( 'NONE', #435, #1232 ) ;
#669 = EDGE_LOOP ( 'NONE', ( #784, #1187, #544, #157, #983, #1105 ) ) ;
#670 = ORIENTED_EDGE ( 'NONE', *, *, #834, .T. ) ;
#671 = VECTOR ( 'NONE', #15, 1000.000000000000000 ) ;
#672 = LINE ( 'NONE', #1086, #511 ) ;
#673 = ORIENTED_EDGE ( 'NONE', *, *, #1259, .T. ) ;
#674 = VECTOR ( 'NONE', #1122, 1000.000000000000114 ) ;
#675 = DIRECTION ( 'NONE',  ( -1.021800699607666527E-12, 0.000000000000000000, -1.000000000000000000 ) ) ;
#676 = EDGE_LOOP ( 'NONE', ( #531, #977, #741, #788 ) ) ;
#677 = CARTESIAN_POINT ( 'NONE',  ( -105.3000000000632070, 170.0000000000000000, -11.69999999995634532 ) ) ;
#678 = VERTEX_POINT ( 'NONE', #422 ) ;
#679 = ADVANCED_FACE ( 'NONE', ( #1181 ), #839, .F. ) ;
#680 = ORIENTED_EDGE ( 'NONE', *, *, #1255, .F. ) ;
#681 = CIRCLE ( 'NONE', #90, 4.000000000000000000 ) ;
#682 = DIRECTION ( 'NONE',  ( -0.000000000000000000, 1.000000000000000000, -0.000000000000000000 ) ) ;
#683 = EDGE_LOOP ( 'NONE', ( #993, #389, #876, #649 ) ) ;
#684 = DIRECTION ( 'NONE',  ( 0.000000000000000000, 1.000000000000000000, 0.000000000000000000 ) ) ;
#685 = ORIENTED_EDGE ( 'NONE', *, *, #822, .T. ) ;
#686 = EDGE_CURVE ( 'NONE', #32, #131, #1074, .T. ) ;
#687 = CARTESIAN_POINT ( 'NONE',  ( -100.5000000000640483, 3.126854664667198858, -12.49999999996124345 ) ) ;
#688 = ORIENTED_EDGE ( 'NONE', *, *, #659, .F. ) ;
#689 = MECHANICAL_DESIGN_GEOMETRIC_PRESENTATION_REPRESENTATION (  '', ( #815 ), #272 ) ;
#690 = LINE ( 'NONE', #1011, #744 ) ;
#691 = PRESENTATION_STYLE_ASSIGNMENT (( #1297 ) ) ;
#692 = ORIENTED_EDGE ( 'NONE', *, *, #1337, .T. ) ;
#693 = DIRECTION ( 'NONE',  ( 1.000000000000000000, 0.000000000000000000, -1.021770197386547605E-12 ) ) ;
#694 = ORIENTED_EDGE ( 'NONE', *, *, #1016, .T. ) ;
#695 = LINE ( 'NONE', #489, #408 ) ;
#696 = AXIS2_PLACEMENT_3D ( 'NONE', #1050, #565, #117 ) ;
#697 = FILL_AREA_STYLE_COLOUR ( '', #1265 ) ;
#698 = CARTESIAN_POINT ( 'NONE',  ( -25.40000000004673097, 3.000000000000000000, 4.399999999961975661 ) ) ;
#699 = DIRECTION ( 'NONE',  ( -1.000000000000000000, 0.000000000000000000, 1.021800699607666527E-12 ) ) ;
#700 = ADVANCED_FACE ( 'NONE', ( #349 ), #1060, .F. ) ;
#701 = CARTESIAN_POINT ( 'NONE',  ( -14.70000000006092300, 161.8000000000000114, -7.600000000049548454 ) ) ;
#702 = AXIS2_PLACEMENT_3D ( 'NONE', #610, #733, #1054 ) ;
#703 = DIRECTION ( 'NONE',  ( 0.000000000000000000, 1.000000000000000000, 0.000000000000000000 ) ) ;
#704 = CARTESIAN_POINT ( 'NONE',  ( -25.40000000004673097, 1.600000000000067590, 4.399999999961975661 ) ) ;
#705 = DIRECTION ( 'NONE',  ( 1.214069631081469458E-28, 1.000000000000000000, 1.188166764367676588E-16 ) ) ;
#706 = LINE ( 'NONE', #510, #442 ) ;
#707 = DIRECTION ( 'NONE',  ( 0.000000000000000000, 1.000000000000000000, 0.000000000000000000 ) ) ;
#708 = PLANE ( 'NONE',  #635 ) ;
#709 = LINE ( 'NONE', #718, #1317 ) ;
#710 = VECTOR ( 'NONE', #137, 1000.000000000000000 ) ;
#711 = CARTESIAN_POINT ( 'NONE',  ( -100.5000000000615614, 170.0000000000000000, -10.09999999996125197 ) ) ;
#712 = VECTOR ( 'NONE', #865, 1000.000000000000000 ) ;
#713 = VERTEX_POINT ( 'NONE', #465 ) ;
#714 = CIRCLE ( 'NONE', #70, 9.600000000000004974 ) ;
#715 = CARTESIAN_POINT ( 'NONE',  ( -99.60000000004674803, 1.600000000000004974, 4.400000000037794123 ) ) ;
#716 = ADVANCED_BREP_SHAPE_REPRESENTATION ( 'TOP Cover 3', ( #206, #1051 ), #605 ) ;
#717 = EDGE_CURVE ( 'NONE', #1065, #1172, #1170, .T. ) ;
#718 = CARTESIAN_POINT ( 'NONE',  ( -100.5000000000615614, 212.0000000000000000, -10.09999999996125197 ) ) ;
#719 = LINE ( 'NONE', #517, #287 ) ;
#720 = EDGE_CURVE ( 'NONE', #779, #361, #884, .T. ) ;
#721 = ORIENTED_EDGE ( 'NONE', *, *, #1343, .F. ) ;
#722 = LINE ( 'NONE', #1238, #1157 ) ;
#723 = CARTESIAN_POINT ( 'NONE',  ( -110.9000000000517616, 1.599999999999994760, -0.4999999999506579695 ) ) ;
#724 = VECTOR ( 'NONE', #516, 1000.000000000000000 ) ;
#725 = ORIENTED_EDGE ( 'NONE', *, *, #613, .T. ) ;
#726 = LINE ( 'NONE', #1037, #1045 ) ;
#727 = LINE ( 'NONE', #362, #1082 ) ;
#728 = FACE_OUTER_BOUND ( 'NONE', #1230, .T. ) ;
#729 = CARTESIAN_POINT ( 'NONE',  ( -109.5000000000609504, 0.000000000000000000, -9.499999999952047247 ) ) ;
#730 = EDGE_CURVE ( 'NONE', #970, #129, #866, .T. ) ;
#731 = ORIENTED_EDGE ( 'NONE', *, *, #154, .T. ) ;
#732 = ADVANCED_FACE ( 'NONE', ( #236 ), #1191, .F. ) ;
#733 = DIRECTION ( 'NONE',  ( 0.000000000000000000, 0.000000000000000000, -1.000000000000000000 ) ) ;
#734 = DIRECTION ( 'NONE',  ( 1.000000000000000000, 0.000000000000000000, -1.021800699607666527E-12 ) ) ;
#735 = FACE_OUTER_BOUND ( 'NONE', #472, .T. ) ;
#736 = EDGE_CURVE ( 'NONE', #386, #153, #51, .T. ) ;
#737 = DIRECTION ( 'NONE',  ( -0.9701425001450841856, 0.000000000000000000, 0.2425356250373233435 ) ) ;
#738 = CARTESIAN_POINT ( 'NONE',  ( -33.65530132707790756, 0.000000000000000000, -0.5000000000295878877 ) ) ;
#739 = CIRCLE ( 'NONE', #808, 9.599999999999997868 ) ;
#740 = FILL_AREA_STYLE ('',( #128 ) ) ;
#741 = ORIENTED_EDGE ( 'NONE', *, *, #235, .F. ) ;
#742 = CARTESIAN_POINT ( 'NONE',  ( -14.10000000005172360, 170.0000000000000000, -0.5000000000495483654 ) ) ;
#743 = CARTESIAN_POINT ( 'NONE',  ( -14.10000000005172360, 1.600000000000078026, -0.5000000000495684604 ) ) ;
#744 = VECTOR ( 'NONE', #789, 1000.000000000000000 ) ;
#745 = CARTESIAN_POINT ( 'NONE',  ( -100.5000000000615614, 0.3339394440353415927, -10.09999999996125197 ) ) ;
#746 = VECTOR ( 'NONE', #112, 1000.000000000000000 ) ;
#747 = ORIENTED_EDGE ( 'NONE', *, *, #976, .F. ) ;
#748 = LINE ( 'NONE', #677, #344 ) ;
#749 = FACE_OUTER_BOUND ( 'NONE', #975, .T. ) ;
#750 = EDGE_CURVE ( 'NONE', #560, #643, #151, .T. ) ;
#751 = PRESENTATION_STYLE_ASSIGNMENT (( #965 ) ) ;
#752 = ORIENTED_EDGE ( 'NONE', *, *, #1104, .F. ) ;
#753 = VECTOR ( 'NONE', #1043, 1000.000000000000000 ) ;
#754 = DIRECTION ( 'NONE',  ( 1.020017403874362370E-12, 0.000000000000000000, 1.000000000000000000 ) ) ;
#755 = ADVANCED_FACE ( 'NONE', ( #251 ), #242, .F. ) ;
#756 = VERTEX_POINT ( 'NONE', #260 ) ;
#757 = CARTESIAN_POINT ( 'NONE',  ( -112.5000000000517559, 3.514504704576388553E-16, -0.4999999999490238878 ) ) ;
#758 = EDGE_CURVE ( 'NONE', #129, #36, #748, .T. ) ;
#759 = CARTESIAN_POINT ( 'NONE',  ( -90.18989904416091008, 1.600000000000013411, 2.500000000028179237 ) ) ;
#760 = EDGE_LOOP ( 'NONE', ( #177, #557, #493, #146, #1048, #578, #998, #791, #916, #356, #1092, #692, #856, #891, #1205, #1139, #259, #773, #351, #867, #844 ) ) ;
#761 = LINE ( 'NONE', #982, #1002 ) ;
#762 = CARTESIAN_POINT ( 'NONE',  ( -14.70000000006092300, 161.8000000000000114, -2.400000000049548277 ) ) ;
#763 = ORIENTED_EDGE ( 'NONE', *, *, #1237, .F. ) ;
#764 = ORIENTED_EDGE ( 'NONE', *, *, #415, .F. ) ;
#765 = CARTESIAN_POINT ( 'NONE',  ( -12.50000000005989342, 170.0000000000000000, -8.500000000051160853 ) ) ;
#766 = ORIENTED_EDGE ( 'NONE', *, *, #495, .T. ) ;
#767 = DIRECTION ( 'NONE',  ( -1.021800699607666527E-12, 0.000000000000000000, -1.000000000000000000 ) ) ;
#768 = EDGE_LOOP ( 'NONE', ( #1061, #987, #269, #991 ) ) ;
#769 = PLANE ( 'NONE',  #231 ) ;
#770 = EDGE_LOOP ( 'NONE', ( #1133, #427, #320, #164 ) ) ;
#771 = EDGE_LOOP ( 'NONE', ( #901, #1338, #725, #404 ) ) ;
#772 = CARTESIAN_POINT ( 'NONE',  ( -110.9000000000486921, 170.0000000000000568, 2.500000000049360960 ) ) ;
#773 = ORIENTED_EDGE ( 'NONE', *, *, #799, .T. ) ;
#774 = ADVANCED_FACE ( 'NONE', ( #455 ), #660, .T. ) ;
#775 = DIRECTION ( 'NONE',  ( -1.021800699607666527E-12, 1.188166764367676588E-16, -1.000000000000000000 ) ) ;
#776 = ORIENTED_EDGE ( 'NONE', *, *, #255, .T. ) ;
#777 = EDGE_CURVE ( 'NONE', #1029, #474, #122, .T. ) ;
#778 = DIRECTION ( 'NONE',  ( 1.000000000000000000, 0.000000000000000000, -1.021800699607666527E-12 ) ) ;
#779 = VERTEX_POINT ( 'NONE', #539 ) ;
#780 = EDGE_LOOP ( 'NONE', ( #72, #1304, #1095, #1246 ) ) ;
#781 = VECTOR ( 'NONE', #109, 1000.000000000000000 ) ;
#782 = PLANE ( 'NONE',  #56 ) ;
#783 = EDGE_CURVE ( 'NONE', #1087, #678, #1268, .T. ) ;
#784 = ORIENTED_EDGE ( 'NONE', *, *, #1036, .F. ) ;
#785 = PLANE ( 'NONE',  #314 ) ;
#786 = ORIENTED_EDGE ( 'NONE', *, *, #380, .F. ) ;
#787 = CARTESIAN_POINT ( 'NONE',  ( -105.3000000000632070, 212.0000000000000000, -11.69999999995634532 ) ) ;
#788 = ORIENTED_EDGE ( 'NONE', *, *, #299, .F. ) ;
#789 = DIRECTION ( 'NONE',  ( -1.000000000000000000, -8.601934591620529637E-16, 1.021800699607666527E-12 ) ) ;
#790 = LINE ( 'NONE', #55, #1098 ) ;
#791 = ORIENTED_EDGE ( 'NONE', *, *, #1222, .F. ) ;
#792 = CARTESIAN_POINT ( 'NONE',  ( -14.15685424955636584, 1.656854249492384801, -12.50000000004947154 ) ) ;
#793 = ORIENTED_EDGE ( 'NONE', *, *, #537, .F. ) ;
#794 = DIRECTION ( 'NONE',  ( -1.000000000000000000, 0.000000000000000000, 1.021800699607666527E-12 ) ) ;
#795 = DIRECTION ( 'NONE',  ( -0.000000000000000000, -1.000000000000000000, -0.000000000000000000 ) ) ;
#796 = AXIS2_PLACEMENT_3D ( 'NONE', #1257, #197, #919 ) ;
#797 = DIRECTION ( 'NONE',  ( 0.000000000000000000, 1.000000000000000000, 0.000000000000000000 ) ) ;
#798 = EDGE_LOOP ( 'NONE', ( #763, #590, #1155, #354 ) ) ;
#799 = EDGE_CURVE ( 'NONE', #159, #779, #668, .T. ) ;
#800 = CARTESIAN_POINT ( 'NONE',  ( 0.000000000000000000, 170.0000000000000000, 0.000000000000000000 ) ) ;
#801 = CARTESIAN_POINT ( 'NONE',  ( -12.50000000005989342, 370.0000000000000000, -8.500000000051160853 ) ) ;
#802 = ORIENTED_EDGE ( 'NONE', *, *, #417, .T. ) ;
#803 = ADVANCED_FACE ( 'NONE', ( #974 ), #545, .T. ) ;
#804 = DIRECTION ( 'NONE',  ( 1.021800699607666527E-12, 0.000000000000000000, 1.000000000000000000 ) ) ;
#805 = LINE ( 'NONE', #512, #1150 ) ;
#806 = CARTESIAN_POINT ( 'NONE',  ( -16.50000000006153655, 0.3339394440353971039, -10.10000000004707488 ) ) ;
#807 = DIRECTION ( 'NONE',  ( -1.000000000000000000, 0.000000000000000000, 1.020716497435181023E-12 ) ) ;
#808 = AXIS2_PLACEMENT_3D ( 'NONE', #715, #928, #6 ) ;
#809 =( BOUNDED_CURVE ( )  B_SPLINE_CURVE ( 3, ( #1099, #372, #687, #481 ),
 .UNSPECIFIED., .F., .F. ) 
 B_SPLINE_CURVE_WITH_KNOTS ( ( 4, 4 ),
 ( 2.498091544796513297, 3.141592653589793116 ),
 .UNSPECIFIED. ) 
 CURVE ( )  GEOMETRIC_REPRESENTATION_ITEM ( )  RATIONAL_B_SPLINE_CURVE ( ( 1.000000000000000000, 0.9657888653670095858, 0.9657888653670095858, 1.000000000000000000 ) ) 
 REPRESENTATION_ITEM ( '' )  );
#810 = LINE ( 'NONE', #888, #913 ) ;
#811 = AXIS2_PLACEMENT_3D ( 'NONE', #1260, #119, #1266 ) ;
#812 = LINE ( 'NONE', #711, #626 ) ;
#813 = VECTOR ( 'NONE', #1124, 1000.000000000000000 ) ;
#814 = CARTESIAN_POINT ( 'NONE',  ( -13.50000000006092371, 161.8000000000000114, -2.400000000049548277 ) ) ;
#815 = STYLED_ITEM ( 'NONE', ( #691 ), #206 ) ;
#816 = CARTESIAN_POINT ( 'NONE',  ( -25.40000000004673097, -7.000000000000000000, 4.399999999961975661 ) ) ;
#817 =( BOUNDED_CURVE ( )  B_SPLINE_CURVE ( 3, ( #1166, #641, #1149, #132 ),
 .UNSPECIFIED., .F., .T. ) 
 B_SPLINE_CURVE_WITH_KNOTS ( ( 4, 4 ),
 ( 3.141592653589792228, 3.785093762383076488 ),
 .UNSPECIFIED. ) 
 CURVE ( )  GEOMETRIC_REPRESENTATION_ITEM ( )  RATIONAL_B_SPLINE_CURVE ( ( 1.000000000000000000, 0.9657888653670091417, 0.9657888653670091417, 1.000000000000000000 ) ) 
 REPRESENTATION_ITEM ( '' )  );
#818 = LINE ( 'NONE', #391, #329 ) ;
#819 = ORIENTED_EDGE ( 'NONE', *, *, #312, .T. ) ;
#820 = DIRECTION ( 'NONE',  ( 1.000000000000000000, 0.000000000000000000, -1.021800699607666527E-12 ) ) ;
#821 = DIRECTION ( 'NONE',  ( 0.000000000000000000, -1.000000000000000000, 0.000000000000000000 ) ) ;
#822 = EDGE_CURVE ( 'NONE', #265, #148, #1273, .T. ) ;
#823 = VECTOR ( 'NONE', #336, 1000.000000000000000 ) ;
#824 = DIRECTION ( 'NONE',  ( -0.9863939238323117253, 0.000000000000000000, -0.1643989873043487926 ) ) ;
#825 = ORIENTED_EDGE ( 'NONE', *, *, #858, .T. ) ;
#826 = CARTESIAN_POINT ( 'NONE',  ( -112.5000000000487006, 0.000000000000000000, 2.500000000050975224 ) ) ;
#827 = FACE_OUTER_BOUND ( 'NONE', #313, .T. ) ;
#828 = DIRECTION ( 'NONE',  ( 1.021800699607666527E-12, -0.000000000000000000, 1.000000000000000000 ) ) ;
#829 = VERTEX_POINT ( 'NONE', #875 ) ;
#830 = DIRECTION ( 'NONE',  ( 1.000000000000000000, 0.000000000000000000, 0.000000000000000000 ) ) ;
#831 = CARTESIAN_POINT ( 'NONE',  ( -111.7000000000599300, 170.0000000000000000, -2.399999999949005591 ) ) ;
#832 = PLANE ( 'NONE',  #857 ) ;
#833 = ADVANCED_FACE ( 'NONE', ( #1287 ), #769, .F. ) ;
#834 = EDGE_CURVE ( 'NONE', #1000, #713, #695, .T. ) ;
#835 = DIRECTION ( 'NONE',  ( 0.000000000000000000, 1.000000000000000000, 0.000000000000000000 ) ) ;
#836 = VECTOR ( 'NONE', #310, 1000.000000000000000 ) ;
#837 = ORIENTED_EDGE ( 'NONE', *, *, #1214, .T. ) ;
#838 = DIRECTION ( 'NONE',  ( -0.000000000000000000, -0.000000000000000000, -1.000000000000000000 ) ) ;
#839 = PLANE ( 'NONE',  #696 ) ;
#840 = LINE ( 'NONE', #118, #615 ) ;
#841 = DIRECTION ( 'NONE',  ( -0.000000000000000000, 1.000000000000000000, -0.000000000000000000 ) ) ;
#842 = DIRECTION ( 'NONE',  ( -1.000000000000000000, 0.000000000000000000, 1.021800699607666527E-12 ) ) ;
#843 =( NAMED_UNIT ( * ) SI_UNIT ( $, .STERADIAN. ) SOLID_ANGLE_UNIT ( ) );
#844 = ORIENTED_EDGE ( 'NONE', *, *, #659, .T. ) ;
#845 = AXIS2_PLACEMENT_3D ( 'NONE', #1196, #890, #392 ) ;
#846 = CARTESIAN_POINT ( 'NONE',  ( -14.70000000006092300, 170.0000000000000000, -2.400000000049548277 ) ) ;
#847 = VECTOR ( 'NONE', #835, 1000.000000000000000 ) ;
#848 = PLANE ( 'NONE',  #796 ) ;
#849 = CARTESIAN_POINT ( 'NONE',  ( -14.70000000006092300, 161.8000000000000114, -2.400000000049548277 ) ) ;
#850 = AXIS2_PLACEMENT_3D ( 'NONE', #939, #212, #622 ) ;
#851 = ORIENTED_EDGE ( 'NONE', *, *, #382, .F. ) ;
#852 = DIRECTION ( 'NONE',  ( 1.021800699607666527E-12, -0.000000000000000000, 1.000000000000000000 ) ) ;
#853 = CARTESIAN_POINT ( 'NONE',  ( -34.81010095593644849, -7.000000000000000000, 2.499999999971590725 ) ) ;
#854 = PLANE ( 'NONE',  #1047 ) ;
#855 = ADVANCED_FACE ( 'NONE', ( #75 ), #161, .F. ) ;
#856 = ORIENTED_EDGE ( 'NONE', *, *, #1237, .T. ) ;
#857 = AXIS2_PLACEMENT_3D ( 'NONE', #1143, #82, #394 ) ;
#858 = EDGE_CURVE ( 'NONE', #566, #152, #178, .T. ) ;
#859 = DIRECTION ( 'NONE',  ( 1.000000000000000000, 0.000000000000000000, 0.000000000000000000 ) ) ;
#860 = EDGE_LOOP ( 'NONE', ( #486, #819, #670, #776 ) ) ;
#861 = LINE ( 'NONE', #757, #1333 ) ;
#862 = CARTESIAN_POINT ( 'NONE',  ( -107.8553013270779388, 1.600000000000035394, -0.4999999999537700912 ) ) ;
#863 = ADVANCED_FACE ( 'NONE', ( #1091 ), #170, .F. ) ;
#864 = ORIENTED_EDGE ( 'NONE', *, *, #37, .F. ) ;
#865 = DIRECTION ( 'NONE',  ( 0.000000000000000000, 1.000000000000000000, 0.000000000000000000 ) ) ;
#866 = LINE ( 'NONE', #1176, #894 ) ;
#867 = ORIENTED_EDGE ( 'NONE', *, *, #33, .T. ) ;
#868 = ORIENTED_EDGE ( 'NONE', *, *, #540, .T. ) ;
#869 = CARTESIAN_POINT ( 'NONE',  ( -100.5000000000640199, 170.0000000000000000, -12.49999999996124345 ) ) ;
#870 = VERTEX_POINT ( 'NONE', #592 ) ;
#871 = ORIENTED_EDGE ( 'NONE', *, *, #63, .T. ) ;
#872 = DIRECTION ( 'NONE',  ( -0.000000000000000000, 1.000000000000000000, -0.000000000000000000 ) ) ;
#873 = ORIENTED_EDGE ( 'NONE', *, *, #31, .F. ) ;
#874 = VECTOR ( 'NONE', #1158, 1000.000000000000000 ) ;
#875 = CARTESIAN_POINT ( 'NONE',  ( -15.50000000006092371, 170.0000000000000000, -9.500000000048096638 ) ) ;
#876 = ORIENTED_EDGE ( 'NONE', *, *, #924, .F. ) ;
#877 = ORIENTED_EDGE ( 'NONE', *, *, #979, .T. ) ;
#878 = DIRECTION ( 'NONE',  ( 1.000000000000000000, 0.000000000000000000, -1.021800699607666527E-12 ) ) ;
#879 = PRODUCT_DEFINITION_FORMATION_WITH_SPECIFIED_SOURCE ( 'ANY', '', #273, .NOT_KNOWN. ) ;
#880 = EDGE_CURVE ( 'NONE', #829, #1029, #1010, .T. ) ;
#881 = VERTEX_POINT ( 'NONE', #1303 ) ;
#882 = DIRECTION ( 'NONE',  ( -0.000000000000000000, -1.000000000000000000, -0.000000000000000000 ) ) ;
#883 = ORIENTED_EDGE ( 'NONE', *, *, #186, .T. ) ;
#884 = LINE ( 'NONE', #651, #124 ) ;
#885 = ORIENTED_EDGE ( 'NONE', *, *, #382, .T. ) ;
#886 = VERTEX_POINT ( 'NONE', #1198 ) ;
#887 = EDGE_CURVE ( 'NONE', #148, #1000, #809, .T. ) ;
#888 = CARTESIAN_POINT ( 'NONE',  ( -12.50000000006153122, 0.3339394440353281590, -10.10000000005116227 ) ) ;
#889 = ORIENTED_EDGE ( 'NONE', *, *, #880, .T. ) ;
#890 = DIRECTION ( 'NONE',  ( 0.000000000000000000, -1.000000000000000000, -0.000000000000000000 ) ) ;
#891 = ORIENTED_EDGE ( 'NONE', *, *, #730, .T. ) ;
#892 = DIRECTION ( 'NONE',  ( -1.000000000000000000, 0.000000000000000000, 1.021800699607666527E-12 ) ) ;
#893 = VERTEX_POINT ( 'NONE', #68 ) ;
#894 = VECTOR ( 'NONE', #956, 1000.000000000000000 ) ;
#895 = CARTESIAN_POINT ( 'NONE',  ( -100.5000000000640199, 4.000000000000000000, -12.49999999996124345 ) ) ;
#896 = AXIS2_PLACEMENT_3D ( 'NONE', #704, #907, #471 ) ;
#897 = DIRECTION ( 'NONE',  ( 1.021687116522929912E-12, 0.000000000000000000, 1.000000000000000000 ) ) ;
#898 = ORIENTED_EDGE ( 'NONE', *, *, #758, .F. ) ;
#899 = COLOUR_RGB ( '',0.7921568627450980005, 0.8196078431372548767, 0.9333333333333333481 ) ;
#900 = DIRECTION ( 'NONE',  ( 1.000000000000000000, 0.000000000000000000, -3.336006684570783101E-16 ) ) ;
#901 = ORIENTED_EDGE ( 'NONE', *, *, #1320, .T. ) ;
#902 = FACE_OUTER_BOUND ( 'NONE', #366, .T. ) ;
#903 = DIRECTION ( 'NONE',  ( -1.214069631081469458E-28, -1.000000000000000000, -1.188166764367676588E-16 ) ) ;
#904 = ADVANCED_FACE ( 'NONE', ( #902 ), #1311, .F. ) ;
#905 = CARTESIAN_POINT ( 'NONE',  ( -105.3000000000632070, 1.600000000000008971, -11.69999999995634532 ) ) ;
#906 = ORIENTED_EDGE ( 'NONE', *, *, #232, .T. ) ;
#907 = DIRECTION ( 'NONE',  ( -8.601934591619336485E-16, 1.000000000000000000, 1.171501568200919154E-16 ) ) ;
#908 = EDGE_LOOP ( 'NONE', ( #217, #972, #995, #1085 ) ) ;
#909 = ADVANCED_FACE ( 'NONE', ( #1017 ), #598, .F. ) ;
#910 = CARTESIAN_POINT ( 'NONE',  ( -16.50000000006399148, 212.0000000000000000, -12.50000000004707523 ) ) ;
#911 = ADVANCED_FACE ( 'NONE', ( #1226 ), #1014, .T. ) ;
#912 = CARTESIAN_POINT ( 'NONE',  ( -15.98989904416088592, -7.000000000000000000, 2.499999999952361662 ) ) ;
#913 = VECTOR ( 'NONE', #370, 1000.000000000000000 ) ;
#914 = ADVANCED_FACE ( 'NONE', ( #296 ), #708, .F. ) ;
#915 = DIRECTION ( 'NONE',  ( -1.021800699607666527E-12, 0.000000000000000000, -1.000000000000000000 ) ) ;
#916 = ORIENTED_EDGE ( 'NONE', *, *, #8, .T. ) ;
#917 = CARTESIAN_POINT ( 'NONE',  ( -12.50000000005989342, 0.000000000000000000, -8.500000000051160853 ) ) ;
#918 = PLANE ( 'NONE',  #110 ) ;
#919 = DIRECTION ( 'NONE',  ( -1.021800699607666527E-12, 0.000000000000000000, -1.000000000000000000 ) ) ;
#920 = CARTESIAN_POINT ( 'NONE',  ( -16.50000000006153655, 170.0000000000000000, -10.10000000004707488 ) ) ;
#921 = DIRECTION ( 'NONE',  ( 5.966990492490394629E-18, -1.000000000000000000, -6.097075059778979566E-30 ) ) ;
#922 = VECTOR ( 'NONE', #838, 1000.000000000000000 ) ;
#923 = DIRECTION ( 'NONE',  ( 1.262632416324728146E-28, 1.000000000000000000, 1.235693434942383514E-16 ) ) ;
#924 = EDGE_CURVE ( 'NONE', #277, #657, #690, .T. ) ;
#925 = DIRECTION ( 'NONE',  ( -1.000000000000000000, 0.000000000000000000, 1.021800699607666527E-12 ) ) ;
#926 = VECTOR ( 'NONE', #1318, 1000.000000000000000 ) ;
#927 = VERTEX_POINT ( 'NONE', #180 ) ;
#928 = DIRECTION ( 'NONE',  ( -8.601934591619336485E-16, 1.000000000000000000, 1.171501568200919154E-16 ) ) ;
#929 = AXIS2_PLACEMENT_3D ( 'NONE', #1290, #797, #181 ) ;
#930 = EDGE_CURVE ( 'NONE', #986, #1289, #1312, .T. ) ;
#931 = DIRECTION ( 'NONE',  ( 0.000000000000000000, -1.000000000000000000, 0.000000000000000000 ) ) ;
#932 = CARTESIAN_POINT ( 'NONE',  ( -16.50000000005989875, 170.0000000000000000, -8.500000000047073456 ) ) ;
#933 = ORIENTED_EDGE ( 'NONE', *, *, #154, .F. ) ;
#934 = LINE ( 'NONE', #846, #1046 ) ;
#935 = LINE ( 'NONE', #1121, #141 ) ;
#936 = AXIS2_PLACEMENT_3D ( 'NONE', #1276, #968, #567 ) ;
#937 = CARTESIAN_POINT ( 'NONE',  ( -16.50000000006153655, 170.0000000000000000, -10.10000000004707488 ) ) ;
#938 = ORIENTED_EDGE ( 'NONE', *, *, #611, .T. ) ;
#939 = CARTESIAN_POINT ( 'NONE',  ( -110.9000000000517616, 1.599999999999994760, -0.4999999999506579695 ) ) ;
#940 = LINE ( 'NONE', #418, #1245 ) ;
#941 = ADVANCED_FACE ( 'NONE', ( #496 ), #918, .F. ) ;
#942 = DIRECTION ( 'NONE',  ( 0.000000000000000000, 1.000000000000000000, 0.000000000000000000 ) ) ;
#943 = ORIENTED_EDGE ( 'NONE', *, *, #57, .T. ) ;
#944 = CARTESIAN_POINT ( 'NONE',  ( -109.5000000000609504, 170.0000000000000000, -9.499999999952047247 ) ) ;
#945 = CARTESIAN_POINT ( 'NONE',  ( -111.7000000000599300, 170.0000000000000000, -7.599999999949004881 ) ) ;
#946 = CARTESIAN_POINT ( 'NONE',  ( -105.3000000000623828, 0.8000000000000229150, -10.89999999995634639 ) ) ;
#947 = CARTESIAN_POINT ( 'NONE',  ( -109.5000000000487006, 3.000000000000000000, 2.500000000047910120 ) ) ;
#948 = VERTEX_POINT ( 'NONE', #1200 ) ;
#949 = DIRECTION ( 'NONE',  ( -8.601934591619332540E-16, 1.000000000000000000, 1.171501568200919154E-16 ) ) ;
#950 = DIRECTION ( 'NONE',  ( -1.000000000000000000, -0.000000000000000000, 1.021800699607666527E-12 ) ) ;
#951 = CARTESIAN_POINT ( 'NONE',  ( -110.5000000000599272, 161.8000000000000114, -7.599999999949004881 ) ) ;
#952 = CARTESIAN_POINT ( 'NONE',  ( -112.5000000000538023, 370.0000000000000000, -2.499999999948980367 ) ) ;
#953 = ORIENTED_EDGE ( 'NONE', *, *, #1132, .F. ) ;
#954 = CIRCLE ( 'NONE', #541, 9.599999999999997868 ) ;
#955 =( BOUNDED_CURVE ( )  B_SPLINE_CURVE ( 3, ( #189, #792, #378, #917 ),
 .UNSPECIFIED., .F., .T. ) 
 B_SPLINE_CURVE_WITH_KNOTS ( ( 4, 4 ),
 ( 4.712388980384688786, 6.283185307179586232 ),
 .UNSPECIFIED. ) 
 CURVE ( )  GEOMETRIC_REPRESENTATION_ITEM ( )  RATIONAL_B_SPLINE_CURVE ( ( 1.000000000000000000, 0.8047378541243648264, 0.8047378541243648264, 1.000000000000000000 ) ) 
 REPRESENTATION_ITEM ( '' )  );
#956 = DIRECTION ( 'NONE',  ( -1.020716497435181023E-12, 0.000000000000000000, -1.000000000000000000 ) ) ;
#957 = VECTOR ( 'NONE', #828, 1000.000000000000000 ) ;
#958 = CARTESIAN_POINT ( 'NONE',  ( -19.70000000006319496, 170.0000000000000000, -11.70000000004380780 ) ) ;
#959 = ADVANCED_FACE ( 'NONE', ( #606 ), #270, .F. ) ;
#960 = ORIENTED_EDGE ( 'NONE', *, *, #179, .T. ) ;
#961 = DIRECTION ( 'NONE',  ( -1.000000000000000000, -8.601934591620529637E-16, 1.021800699607666527E-12 ) ) ;
#962 = ORIENTED_EDGE ( 'NONE', *, *, #1005, .T. ) ;
#963 = EDGE_CURVE ( 'NONE', #150, #136, #587, .T. ) ;
#964 = DIRECTION ( 'NONE',  ( -1.000000000000000000, 0.000000000000000000, -0.000000000000000000 ) ) ;
#965 = SURFACE_STYLE_USAGE ( .BOTH. , #106 ) ;
#966 = ORIENTED_EDGE ( 'NONE', *, *, #629, .F. ) ;
#967 = AXIS2_PLACEMENT_3D ( 'NONE', #816, #406, #1227 ) ;
#968 = DIRECTION ( 'NONE',  ( -1.000000000000000000, 0.000000000000000000, 0.000000000000000000 ) ) ;
#969 = ORIENTED_EDGE ( 'NONE', *, *, #978, .T. ) ;
#970 = VERTEX_POINT ( 'NONE', #1324 ) ;
#971 = LINE ( 'NONE', #536, #398 ) ;
#972 = ORIENTED_EDGE ( 'NONE', *, *, #380, .T. ) ;
#973 = LINE ( 'NONE', #575, #1299 ) ;
#974 = FACE_OUTER_BOUND ( 'NONE', #1068, .T. ) ;
#975 = EDGE_LOOP ( 'NONE', ( #546, #369, #1197, #647 ) ) ;
#976 = EDGE_CURVE ( 'NONE', #377, #948, #600, .T. ) ;
#977 = ORIENTED_EDGE ( 'NONE', *, *, #339, .T. ) ;
#978 = EDGE_CURVE ( 'NONE', #1090, #948, #81, .T. ) ;
#979 = EDGE_CURVE ( 'NONE', #1053, #67, #375, .T. ) ;
#980 = CARTESIAN_POINT ( 'NONE',  ( -14.10000000005172360, 1.600000000000078026, -0.5000000000495684604 ) ) ;
#981 = ORIENTED_EDGE ( 'NONE', *, *, #537, .T. ) ;
#982 = CARTESIAN_POINT ( 'NONE',  ( -112.5000000000517559, 3.514504704576388553E-16, -0.4999999999490238878 ) ) ;
#983 = ORIENTED_EDGE ( 'NONE', *, *, #650, .T. ) ;
#984 = ADVANCED_FACE ( 'NONE', ( #280 ), #190, .F. ) ;
#985 = DIRECTION ( 'NONE',  ( 0.9863939238319761049, 0.000000000000000000, -0.1643989873063639029 ) ) ;
#986 = VERTEX_POINT ( 'NONE', #814 ) ;
#987 = ORIENTED_EDGE ( 'NONE', *, *, #317, .F. ) ;
#988 = AXIS2_PLACEMENT_3D ( 'NONE', #980, #636, #18 ) ;
#989 = VECTOR ( 'NONE', #1030, 1000.000000000000000 ) ;
#990 = CARTESIAN_POINT ( 'NONE',  ( -100.5000000000615614, 0.3339394440353415927, -10.09999999996125197 ) ) ;
#991 = ORIENTED_EDGE ( 'NONE', *, *, #1024, .F. ) ;
#992 = LINE ( 'NONE', #623, #671 ) ;
#993 = ORIENTED_EDGE ( 'NONE', *, *, #686, .T. ) ;
#994 = DIRECTION ( 'NONE',  ( -0.1643989873063638751, 0.000000000000000000, -0.9863939238319759939 ) ) ;
#995 = ORIENTED_EDGE ( 'NONE', *, *, #654, .T. ) ;
#996 = ORIENTED_EDGE ( 'NONE', *, *, #31, .T. ) ;
#997 = CARTESIAN_POINT ( 'NONE',  ( -16.50000000006399148, 4.000000000000003553, -12.50000000004707523 ) ) ;
#998 = ORIENTED_EDGE ( 'NONE', *, *, #211, .F. ) ;
#999 = CARTESIAN_POINT ( 'NONE',  ( -13.50000000006092371, 161.8000000000000114, -2.400000000049548277 ) ) ;
#1000 = VERTEX_POINT ( 'NONE', #895 ) ;
#1001 = EDGE_CURVE ( 'NONE', #779, #12, #69, .T. ) ;
#1002 = VECTOR ( 'NONE', #316, 1000.000000000000000 ) ;
#1003 = CARTESIAN_POINT ( 'NONE',  ( -13.50000000006092549, 161.8000000000000114, -7.600000000049548454 ) ) ;
#1004 = CARTESIAN_POINT ( 'NONE',  ( -110.5000000000599272, 170.0000000000000000, -7.599999999949004881 ) ) ;
#1005 = EDGE_CURVE ( 'NONE', #1164, #713, #1229, .T. ) ;
#1006 = ORIENTED_EDGE ( 'NONE', *, *, #1222, .T. ) ;
#1007 = CARTESIAN_POINT ( 'NONE',  ( -14.70000000006092300, 161.8000000000000114, -2.400000000049548277 ) ) ;
#1008 = ORIENTED_EDGE ( 'NONE', *, *, #275, .T. ) ;
#1009 = EDGE_CURVE ( 'NONE', #150, #927, #1111, .T. ) ;
#1010 = LINE ( 'NONE', #473, #628 ) ;
#1011 = CARTESIAN_POINT ( 'NONE',  ( -110.9000000000517616, 1.599999999999994760, -0.4999999999506579695 ) ) ;
#1012 = DIRECTION ( 'NONE',  ( 1.000000000000000000, 0.000000000000000000, -1.021770197386546999E-12 ) ) ;
#1013 = FACE_OUTER_BOUND ( 'NONE', #167, .T. ) ;
#1014 = PLANE ( 'NONE',  #46 ) ;
#1015 = CARTESIAN_POINT ( 'NONE',  ( -12.50000000004866685, 3.000000000000000000, 2.499999999948794738 ) ) ;
#1016 = EDGE_CURVE ( 'NONE', #970, #265, #631, .T. ) ;
#1017 = FACE_OUTER_BOUND ( 'NONE', #446, .T. ) ;
#1018 = CARTESIAN_POINT ( 'NONE',  ( -15.98989904416088592, 3.000000000000000000, 2.499999999952361662 ) ) ;
#1019 = VECTOR ( 'NONE', #1300, 1000.000000000000000 ) ;
#1020 = EDGE_CURVE ( 'NONE', #379, #386, #722, .T. ) ;
#1021 = DIRECTION ( 'NONE',  ( -1.000000000000000000, -8.601934591620529637E-16, 1.021800699607666527E-12 ) ) ;
#1022 = VECTOR ( 'NONE', #529, 1000.000000000000000 ) ;
#1023 = VERTEX_POINT ( 'NONE', #742 ) ;
#1024 = EDGE_CURVE ( 'NONE', #153, #228, #934, .T. ) ;
#1025 = DIRECTION ( 'NONE',  ( -1.000000000000000000, -8.601934591620529637E-16, 1.021800699607666527E-12 ) ) ;
#1026 = VECTOR ( 'NONE', #1021, 1000.000000000000000 ) ;
#1027 = CARTESIAN_POINT ( 'NONE',  ( -14.70000000006092300, 170.0000000000000000, -7.600000000049548454 ) ) ;
#1028 = CARTESIAN_POINT ( 'NONE',  ( -111.7000000000599300, 161.8000000000000114, -7.599999999949004881 ) ) ;
#1029 = VERTEX_POINT ( 'NONE', #944 ) ;
#1030 = DIRECTION ( 'NONE',  ( 0.000000000000000000, -1.000000000000000000, 0.000000000000000000 ) ) ;
#1031 = VECTOR ( 'NONE', #1056, 1000.000000000000000 ) ;
#1032 = CARTESIAN_POINT ( 'NONE',  ( -111.7000000000599300, 161.8000000000000114, -7.599999999949004881 ) ) ;
#1033 = AXIS2_PLACEMENT_3D ( 'NONE', #1243, #348, #675 ) ;
#1034 = FACE_BOUND ( 'NONE', #768, .T. ) ;
#1035 = ORIENTED_EDGE ( 'NONE', *, *, #1175, .T. ) ;
#1036 = EDGE_CURVE ( 'NONE', #1023, #1172, #405, .T. ) ;
#1037 = CARTESIAN_POINT ( 'NONE',  ( -14.70000000006092300, 161.8000000000000114, -2.400000000049548277 ) ) ;
#1038 = DIRECTION ( 'NONE',  ( -1.000000000000000000, -0.000000000000000000, -0.000000000000000000 ) ) ;
#1039 = LINE ( 'NONE', #1144, #1062 ) ;
#1040 = ADVANCED_FACE ( 'NONE', ( #1256 ), #1247, .F. ) ;
#1041 = ORIENTED_EDGE ( 'NONE', *, *, #1218, .F. ) ;
#1042 = LINE ( 'NONE', #421, #922 ) ;
#1043 = DIRECTION ( 'NONE',  ( 0.000000000000000000, 0.000000000000000000, 1.000000000000000000 ) ) ;
#1044 = EDGE_CURVE ( 'NONE', #1076, #488, #205, .T. ) ;
#1045 = VECTOR ( 'NONE', #509, 1000.000000000000000 ) ;
#1046 = VECTOR ( 'NONE', #830, 1000.000000000000000 ) ;
#1047 = AXIS2_PLACEMENT_3D ( 'NONE', #952, #1052, #1077 ) ;
#1048 = ORIENTED_EDGE ( 'NONE', *, *, #554, .T. ) ;
#1049 = CARTESIAN_POINT ( 'NONE',  ( -110.9000000000517616, 1.599999999999994760, -0.4999999999506579695 ) ) ;
#1050 = CARTESIAN_POINT ( 'NONE',  ( -12.50000000004866685, 365.0000000000000000, 2.499999999948840035 ) ) ;
#1051 = AXIS2_PLACEMENT_3D ( 'NONE', #23, #216, #19 ) ;
#1052 = DIRECTION ( 'NONE',  ( 1.000000000000000000, 0.000000000000000000, -1.021800699607666527E-12 ) ) ;
#1053 = VERTEX_POINT ( 'NONE', #304 ) ;
#1054 = DIRECTION ( 'NONE',  ( -1.000000000000000000, 0.000000000000000000, -0.000000000000000000 ) ) ;
#1055 = DIRECTION ( 'NONE',  ( 1.000000000000000000, 0.000000000000000000, -0.000000000000000000 ) ) ;
#1056 = DIRECTION ( 'NONE',  ( -1.000000000000000000, -8.601934591620529637E-16, 1.021800699607666527E-12 ) ) ;
#1057 = VECTOR ( 'NONE', #144, 1000.000000000000000 ) ;
#1058 = EDGE_LOOP ( 'NONE', ( #238, #825, #906, #171 ) ) ;
#1059 = CIRCLE ( 'NONE', #429, 4.000000000000000000 ) ;
#1060 = PLANE ( 'NONE',  #65 ) ;
#1061 = ORIENTED_EDGE ( 'NONE', *, *, #736, .F. ) ;
#1062 = VECTOR ( 'NONE', #842, 1000.000000000000000 ) ;
#1063 = CARTESIAN_POINT ( 'NONE',  ( -107.8553013270779388, 0.000000000000000000, -0.4999999999537700912 ) ) ;
#1064 = CARTESIAN_POINT ( 'NONE',  ( -111.7000000000599300, 161.8000000000000114, -2.399999999949005591 ) ) ;
#1065 = VERTEX_POINT ( 'NONE', #1340 ) ;
#1066 = CARTESIAN_POINT ( 'NONE',  ( -16.50000000006153655, 212.0000000000000000, -10.10000000004707488 ) ) ;
#1067 = VERTEX_POINT ( 'NONE', #2 ) ;
#1068 = EDGE_LOOP ( 'NONE', ( #193, #39, #453, #962, #470, #347, #261, #524, #169, #43, #1301 ) ) ;
#1069 = LINE ( 'NONE', #555, #468 ) ;
#1070 = ORIENTED_EDGE ( 'NONE', *, *, #1109, .T. ) ;
#1071 = VECTOR ( 'NONE', #612, 1000.000000000000000 ) ;
#1072 = CARTESIAN_POINT ( 'NONE',  ( -91.34469867302559010, 1.600000000000035394, -0.4999999999706402631 ) ) ;
#1073 = EDGE_CURVE ( 'NONE', #12, #1164, #97, .T. ) ;
#1074 = LINE ( 'NONE', #448, #588 ) ;
#1075 = VERTEX_POINT ( 'NONE', #330 ) ;
#1076 = VERTEX_POINT ( 'NONE', #108 ) ;
#1077 = DIRECTION ( 'NONE',  ( -1.021800699607666527E-12, 0.000000000000000000, -1.000000000000000000 ) ) ;
#1078 = UNCERTAINTY_MEASURE_WITH_UNIT (LENGTH_MEASURE( 1.000000000000000082E-05 ), #625, 'distance_accuracy_value', 'NONE');
#1079 = VERTEX_POINT ( 'NONE', #226 ) ;
#1080 = LINE ( 'NONE', #1148, #712 ) ;
#1081 = ORIENTED_EDGE ( 'NONE', *, *, #514, .T. ) ;
#1082 = VECTOR ( 'NONE', #882, 1000.000000000000000 ) ;
#1083 = DIRECTION ( 'NONE',  ( 0.2425356250353413456, 0.000000000000000000, -0.9701425001455799002 ) ) ;
#1084 = ORIENTED_EDGE ( 'NONE', *, *, #1283, .F. ) ;
#1085 = ORIENTED_EDGE ( 'NONE', *, *, #1044, .F. ) ;
#1086 = CARTESIAN_POINT ( 'NONE',  ( -109.5000000000487006, 3.000000000000000000, 2.500000000047910120 ) ) ;
#1087 = VERTEX_POINT ( 'NONE', #309 ) ;
#1088 = AXIS2_PLACEMENT_3D ( 'NONE', #192, #1211, #100 ) ;
#1089 = LINE ( 'NONE', #48, #781 ) ;
#1090 = VERTEX_POINT ( 'NONE', #640 ) ;
#1091 = FACE_OUTER_BOUND ( 'NONE', #627, .T. ) ;
#1092 = ORIENTED_EDGE ( 'NONE', *, *, #1278, .T. ) ;
#1093 = EDGE_LOOP ( 'NONE', ( #981, #1177, #621, #576 ) ) ;
#1094 = DIRECTION ( 'NONE',  ( -1.000000000000000000, -0.000000000000000000, -0.000000000000000000 ) ) ;
#1095 = ORIENTED_EDGE ( 'NONE', *, *, #114, .F. ) ;
#1096 = CARTESIAN_POINT ( 'NONE',  ( -13.50000000006092549, 161.8000000000000114, -7.600000000049548454 ) ) ;
#1097 = ORIENTED_EDGE ( 'NONE', *, *, #656, .F. ) ;
#1098 = VECTOR ( 'NONE', #682, 1000.000000000000000 ) ;
#1099 = CARTESIAN_POINT ( 'NONE',  ( -105.3000000000632070, 1.600000000000008971, -11.69999999995634532 ) ) ;
#1100 = ORIENTED_EDGE ( 'NONE', *, *, #412, .F. ) ;
#1101 = EDGE_CURVE ( 'NONE', #131, #657, #45, .T. ) ;
#1102 = DIRECTION ( 'NONE',  ( -1.021800699607666527E-12, 1.188166764367676588E-16, -1.000000000000000000 ) ) ;
#1103 = CARTESIAN_POINT ( 'NONE',  ( -19.70000000006319496, 170.0000000000000000, -11.70000000004380780 ) ) ;
#1104 = EDGE_CURVE ( 'NONE', #35, #986, #726, .T. ) ;
#1105 = ORIENTED_EDGE ( 'NONE', *, *, #717, .T. ) ;
#1106 = LINE ( 'NONE', #73, #323 ) ;
#1107 = EDGE_LOOP ( 'NONE', ( #688, #450, #1128, #1236, #301, #62 ) ) ;
#1108 = DIRECTION ( 'NONE',  ( -0.9863939238319759939, 0.000000000000000000, 0.1643989873063638751 ) ) ;
#1109 = EDGE_CURVE ( 'NONE', #49, #886, #739, .T. ) ;
#1110 = VECTOR ( 'NONE', #357, 1000.000000000000000 ) ;
#1111 = LINE ( 'NONE', #410, #989 ) ;
#1112 = FILL_AREA_STYLE ('',( #697 ) ) ;
#1113 = CARTESIAN_POINT ( 'NONE',  ( -15.50000000004866862, 3.000000000000000000, 2.499999999951860286 ) ) ;
#1114 = CYLINDRICAL_SURFACE ( 'NONE', #845, 4.000000000000000000 ) ;
#1115 = AXIS2_PLACEMENT_3D ( 'NONE', #1213, #490, #921 ) ;
#1116 = CARTESIAN_POINT ( 'NONE',  ( -108.5000000000640199, 4.000000000000000000, -12.49999999995306865 ) ) ;
#1117 = LINE ( 'NONE', #188, #306 ) ;
#1118 = LINE ( 'NONE', #999, #1019 ) ;
#1119 = ADVANCED_FACE ( 'NONE', ( #1334 ), #200, .T. ) ;
#1120 = CARTESIAN_POINT ( 'NONE',  ( -110.9000000000517616, 1.599999999999994760, -0.4999999999506579695 ) ) ;
#1121 = CARTESIAN_POINT ( 'NONE',  ( -100.5000000000640199, 212.0000000000000000, -12.49999999996124345 ) ) ;
#1122 = DIRECTION ( 'NONE',  ( 0.9701425001455797892, -0.000000000000000000, 0.2425356250353413179 ) ) ;
#1123 = ADVANCED_FACE ( 'NONE', ( #1242 ), #1141, .F. ) ;
#1124 = DIRECTION ( 'NONE',  ( -3.336006684570783101E-16, -0.000000000000000000, -1.000000000000000000 ) ) ;
#1125 = CARTESIAN_POINT ( 'NONE',  ( -110.9000000000517616, 170.0000000000000568, -0.4999999999506396509 ) ) ;
#1126 = CIRCLE ( 'NONE', #368, 9.599999999999997868 ) ;
#1127 = CARTESIAN_POINT ( 'NONE',  ( -12.50000000005172041, 169.9999999999999432, -0.5000000000511840570 ) ) ;
#1128 = ORIENTED_EDGE ( 'NONE', *, *, #63, .F. ) ;
#1129 = CARTESIAN_POINT ( 'NONE',  ( -112.5000000000517559, 170.0000000000000000, -0.4999999999490036817 ) ) ;
#1130 = CARTESIAN_POINT ( 'NONE',  ( -17.14469867302553752, -6.999999999999999112, -0.5000000000464580596 ) ) ;
#1131 = PLANE ( 'NONE',  #373 ) ;
#1132 = EDGE_CURVE ( 'NONE', #584, #893, #1042, .T. ) ;
#1133 = ORIENTED_EDGE ( 'NONE', *, *, #317, .T. ) ;
#1134 = CARTESIAN_POINT ( 'NONE',  ( -99.60000000004674803, 1.600000000000004974, 4.400000000037794123 ) ) ;
#1135 = ADVANCED_FACE ( 'NONE', ( #1147 ), #218, .F. ) ;
#1136 = DIRECTION ( 'NONE',  ( 1.000000000000000000, 8.601934591620529637E-16, -1.021800699607666527E-12 ) ) ;
#1137 = VECTOR ( 'NONE', #214, 1000.000000000000000 ) ;
#1138 = EDGE_CURVE ( 'NONE', #893, #1182, #116, .T. ) ;
#1139 = ORIENTED_EDGE ( 'NONE', *, *, #518, .T. ) ;
#1140 = EDGE_CURVE ( 'NONE', #115, #1298, #614, .T. ) ;
#1141 = PLANE ( 'NONE',  #850 ) ;
#1142 = CARTESIAN_POINT ( 'NONE',  ( -105.3000000000632070, 212.0000000000000000, -11.69999999995634532 ) ) ;
#1143 = CARTESIAN_POINT ( 'NONE',  ( -15.50000000005377565, 370.0000000000000000, -2.500000000048095750 ) ) ;
#1144 = CARTESIAN_POINT ( 'NONE',  ( -12.50000000004866685, 3.000000000000000000, 2.499999999948794738 ) ) ;
#1145 =( NAMED_UNIT ( * ) SI_UNIT ( $, .STERADIAN. ) SOLID_ANGLE_UNIT ( ) );
#1146 = EDGE_LOOP ( 'NONE', ( #1313, #58, #652, #883 ) ) ;
#1147 = FACE_OUTER_BOUND ( 'NONE', #1262, .T. ) ;
#1148 = CARTESIAN_POINT ( 'NONE',  ( -109.0101009559364655, -7.000000000000000000, 2.500000000047408744 ) ) ;
#1149 = CARTESIAN_POINT ( 'NONE',  ( -17.60445119526496782, 2.298516268266248552, -12.22388720124563477 ) ) ;
#1150 = VECTOR ( 'NONE', #1331, 1000.000000000000000 ) ;
#1151 = CARTESIAN_POINT ( 'NONE',  ( -14.70000000006092300, 161.8000000000000114, -7.600000000049548454 ) ) ;
#1152 = FACE_OUTER_BOUND ( 'NONE', #1184, .T. ) ;
#1153 = VECTOR ( 'NONE', #737, 1000.000000000000114 ) ;
#1154 = SHAPE_DEFINITION_REPRESENTATION ( #563, #716 ) ;
#1155 = ORIENTED_EDGE ( 'NONE', *, *, #195, .T. ) ;
#1156 = EDGE_CURVE ( 'NONE', #464, #513, #89, .T. ) ;
#1157 = VECTOR ( 'NONE', #321, 1000.000000000000000 ) ;
#1158 = DIRECTION ( 'NONE',  ( 0.000000000000000000, -1.000000000000000000, 0.000000000000000000 ) ) ;
#1159 = EDGE_CURVE ( 'NONE', #1075, #870, #202, .T. ) ;
#1160 = DIRECTION ( 'NONE',  ( 0.000000000000000000, 1.000000000000000000, 0.000000000000000000 ) ) ;
#1161 = AXIS2_PLACEMENT_3D ( 'NONE', #1201, #1194, #878 ) ;
#1162 = DIRECTION ( 'NONE',  ( -8.601934591619336485E-16, 1.000000000000000000, 1.171501568200919154E-16 ) ) ;
#1163 = EDGE_CURVE ( 'NONE', #513, #1067, #307, .T. ) ;
#1164 = VERTEX_POINT ( 'NONE', #396 ) ;
#1165 = CARTESIAN_POINT ( 'NONE',  ( -105.3000000000599243, 4.000000000000000000, -8.499999999956337149 ) ) ;
#1166 = CARTESIAN_POINT ( 'NONE',  ( -16.50000000006399148, 4.000000000000003553, -12.50000000004707523 ) ) ;
#1167 = CARTESIAN_POINT ( 'NONE',  ( -111.7000000000599300, 161.8000000000000114, -7.599999999949004881 ) ) ;
#1168 = AXIS2_PLACEMENT_3D ( 'NONE', #787, #994, #1108 ) ;
#1169 = EDGE_LOOP ( 'NONE', ( #371, #1274, #752, #591 ) ) ;
#1170 = LINE ( 'NONE', #1294, #175 ) ;
#1171 = ORIENTED_EDGE ( 'NONE', *, *, #484, .F. ) ;
#1172 = VERTEX_POINT ( 'NONE', #1127 ) ;
#1173 = PRODUCT_DEFINITION ( 'UNKNOWN', '', #879, #425 ) ;
#1174 = ORIENTED_EDGE ( 'NONE', *, *, #534, .F. ) ;
#1175 = EDGE_CURVE ( 'NONE', #159, #1164, #1322, .T. ) ;
#1176 = CARTESIAN_POINT ( 'NONE',  ( -105.3000000000623828, 170.0000000000000000, -10.89999999995634639 ) ) ;
#1177 = ORIENTED_EDGE ( 'NONE', *, *, #211, .T. ) ;
#1178 = ORIENTED_EDGE ( 'NONE', *, *, #1138, .T. ) ;
#1179 = DIRECTION ( 'NONE',  ( 0.000000000000000000, 0.000000000000000000, 1.000000000000000000 ) ) ;
#1180 = ORIENTED_EDGE ( 'NONE', *, *, #1214, .F. ) ;
#1181 = FACE_OUTER_BOUND ( 'NONE', #1107, .T. ) ;
#1182 = VERTEX_POINT ( 'NONE', #1028 ) ;
#1183 = DIRECTION ( 'NONE',  ( 0.000000000000000000, 1.000000000000000000, 0.000000000000000000 ) ) ;
#1184 = EDGE_LOOP ( 'NONE', ( #639, #1189, #680, #1041, #1185, #247, #1293, #661 ) ) ;
#1185 = ORIENTED_EDGE ( 'NONE', *, *, #1156, .T. ) ;
#1186 = FACE_OUTER_BOUND ( 'NONE', #860, .T. ) ;
#1187 = ORIENTED_EDGE ( 'NONE', *, *, #299, .T. ) ;
#1188 = LINE ( 'NONE', #59, #1302 ) ;
#1189 = ORIENTED_EDGE ( 'NONE', *, *, #783, .F. ) ;
#1190 = VECTOR ( 'NONE', #872, 1000.000000000000000 ) ;
#1191 = PLANE ( 'NONE',  #475 ) ;
#1192 = ORIENTED_EDGE ( 'NONE', *, *, #597, .T. ) ;
#1193 = ORIENTED_EDGE ( 'NONE', *, *, #750, .F. ) ;
#1194 = DIRECTION ( 'NONE',  ( 1.021800699607666527E-12, 0.000000000000000000, 1.000000000000000000 ) ) ;
#1195 = ORIENTED_EDGE ( 'NONE', *, *, #133, .T. ) ;
#1196 = CARTESIAN_POINT ( 'NONE',  ( -16.50000000005989875, 370.0000000000000000, -8.500000000047073456 ) ) ;
#1197 = ORIENTED_EDGE ( 'NONE', *, *, #1138, .F. ) ;
#1198 = CARTESIAN_POINT ( 'NONE',  ( -109.0101009559364655, 1.599999999999997202, 2.500000000047408744 ) ) ;
#1199 = ORIENTED_EDGE ( 'NONE', *, *, #275, .F. ) ;
#1200 = CARTESIAN_POINT ( 'NONE',  ( -15.98989904416088592, 1.600000000000075806, 2.499999999952361662 ) ) ;
#1201 = CARTESIAN_POINT ( 'NONE',  ( -12.50000000006398793, 0.000000000000000000, -12.50000000005116263 ) ) ;
#1202 = ORIENTED_EDGE ( 'NONE', *, *, #312, .F. ) ;
#1203 = EDGE_CURVE ( 'NONE', #67, #139, #818, .T. ) ;
#1204 = CARTESIAN_POINT ( 'NONE',  ( -99.60000000004674803, 3.000000000000000000, 4.400000000037794123 ) ) ;
#1205 = ORIENTED_EDGE ( 'NONE', *, *, #758, .T. ) ;
#1206 = AXIS2_PLACEMENT_3D ( 'NONE', #1167, #29, #964 ) ;
#1207 = VECTOR ( 'NONE', #28, 1000.000000000000000 ) ;
#1208 = DIRECTION ( 'NONE',  ( 1.262632416324728146E-28, 1.000000000000000000, 1.235693434942383514E-16 ) ) ;
#1209 = DIRECTION ( 'NONE',  ( 1.000000000000000000, 0.000000000000000000, -1.021800699607666527E-12 ) ) ;
#1210 = DIRECTION ( 'NONE',  ( -0.000000000000000000, -0.000000000000000000, -1.000000000000000000 ) ) ;
#1211 = DIRECTION ( 'NONE',  ( 0.000000000000000000, 1.000000000000000000, 0.000000000000000000 ) ) ;
#1212 = FACE_OUTER_BOUND ( 'NONE', #26, .T. ) ;
#1213 = CARTESIAN_POINT ( 'NONE',  ( -110.9000000000517616, 365.0000000000000000, -0.4999999999506163362 ) ) ;
#1214 = EDGE_CURVE ( 'NONE', #1053, #361, #805, .T. ) ;
#1215 = DIRECTION ( 'NONE',  ( -1.000000000000000000, -8.601934591620529637E-16, 1.021800699607666527E-12 ) ) ;
#1216 = ADVANCED_FACE ( 'NONE', ( #608 ), #1228, .F. ) ;
#1217 = DIRECTION ( 'NONE',  ( -0.000000000000000000, 1.000000000000000000, -0.000000000000000000 ) ) ;
#1218 = EDGE_CURVE ( 'NONE', #464, #377, #1336, .T. ) ;
#1219 = AXIS2_PLACEMENT_3D ( 'NONE', #532, #102, #521 ) ;
#1220 = AXIS2_PLACEMENT_3D ( 'NONE', #196, #286, #705 ) ;
#1221 = DIRECTION ( 'NONE',  ( -1.000000000000000000, 0.000000000000000000, 0.000000000000000000 ) ) ;
#1222 = EDGE_CURVE ( 'NONE', #566, #91, #681, .T. ) ;
#1223 = LINE ( 'NONE', #1032, #836 ) ;
#1224 = PLANE ( 'NONE',  #88 ) ;
#1225 = VECTOR ( 'NONE', #1210, 1000.000000000000000 ) ;
#1226 = FACE_OUTER_BOUND ( 'NONE', #667, .T. ) ;
#1227 = DIRECTION ( 'NONE',  ( 1.000000000000000000, 0.000000000000000000, -1.021770197386546999E-12 ) ) ;
#1228 = CYLINDRICAL_SURFACE ( 'NONE', #1088, 9.599999999999997868 ) ;
#1229 =( BOUNDED_CURVE ( )  B_SPLINE_CURVE ( 3, ( #593, #1319, #390, #1116 ),
 .UNSPECIFIED., .F., .F. ) 
 B_SPLINE_CURVE_WITH_KNOTS ( ( 4, 4 ),
 ( 3.141592653589793116, 4.712388980384687898 ),
 .UNSPECIFIED. ) 
 CURVE ( )  GEOMETRIC_REPRESENTATION_ITEM ( )  RATIONAL_B_SPLINE_CURVE ( ( 1.000000000000000000, 0.8047378541243654926, 0.8047378541243654926, 1.000000000000000000 ) ) 
 REPRESENTATION_ITEM ( '' )  );
#1230 = EDGE_LOOP ( 'NONE', ( #101, #802, #438, #1291 ) ) ;
#1231 = CARTESIAN_POINT ( 'NONE',  ( -16.50000000006153655, 212.0000000000000000, -10.10000000004707488 ) ) ;
#1232 = VECTOR ( 'NONE', #852, 1000.000000000000000 ) ;
#1233 = LINE ( 'NONE', #1130, #1071 ) ;
#1234 = FACE_BOUND ( 'NONE', #662, .T. ) ;
#1235 = PRESENTATION_LAYER_ASSIGNMENT (  '', '', ( #1306 ) ) ;
#1236 = ORIENTED_EDGE ( 'NONE', *, *, #556, .T. ) ;
#1237 = EDGE_CURVE ( 'NONE', #604, #970, #812, .T. ) ;
#1238 = CARTESIAN_POINT ( 'NONE',  ( -14.70000000006092300, 161.8000000000000114, -7.600000000049548454 ) ) ;
#1239 = EDGE_CURVE ( 'NONE', #49, #1053, #719, .T. ) ;
#1240 = CARTESIAN_POINT ( 'NONE',  ( -14.70000000006092300, 161.8000000000000114, -7.600000000049548454 ) ) ;
#1241 = ORIENTED_EDGE ( 'NONE', *, *, #650, .F. ) ;
#1242 = FACE_OUTER_BOUND ( 'NONE', #683, .T. ) ;
#1243 = CARTESIAN_POINT ( 'NONE',  ( -109.5000000000538023, 370.0000000000000000, -2.499999999952045915 ) ) ;
#1244 = CARTESIAN_POINT ( 'NONE',  ( 0.000000000000000000, 161.8000000000000114, 0.000000000000000000 ) ) ;
#1245 = VECTOR ( 'NONE', #821, 1000.000000000000000 ) ;
#1246 = ORIENTED_EDGE ( 'NONE', *, *, #1020, .T. ) ;
#1247 = PLANE ( 'NONE',  #702 ) ;
#1248 = DIRECTION ( 'NONE',  ( -0.000000000000000000, 1.000000000000000000, -0.000000000000000000 ) ) ;
#1249 =( NAMED_UNIT ( * ) PLANE_ANGLE_UNIT ( ) SI_UNIT ( $, .RADIAN. ) );
#1250 = CIRCLE ( 'NONE', #194, 4.000000000000000000 ) ;
#1251 = LINE ( 'NONE', #345, #439 ) ;
#1252 = DIRECTION ( 'NONE',  ( -0.1643989873043487926, 0.000000000000000000, 0.9863939238323118364 ) ) ;
#1253 = ADVANCED_FACE ( 'NONE', ( #1234, #1034, #1314 ), #1131, .T. ) ;
#1254 = ORIENTED_EDGE ( 'NONE', *, *, #179, .F. ) ;
#1255 = EDGE_CURVE ( 'NONE', #377, #1087, #714, .T. ) ;
#1256 = FACE_OUTER_BOUND ( 'NONE', #770, .T. ) ;
#1257 = CARTESIAN_POINT ( 'NONE',  ( -12.50000000005377387, 370.0000000000000000, -2.500000000051160853 ) ) ;
#1258 = VECTOR ( 'NONE', #183, 1000.000000000000000 ) ;
#1259 = EDGE_CURVE ( 'NONE', #1308, #277, #288, .T. ) ;
#1260 = CARTESIAN_POINT ( 'NONE',  ( -25.40000000004673097, 0.000000000000000000, 4.399999999961975661 ) ) ;
#1261 =( NAMED_UNIT ( * ) PLANE_ANGLE_UNIT ( ) SI_UNIT ( $, .RADIAN. ) );
#1262 = EDGE_LOOP ( 'NONE', ( #969, #943, #359, #60 ) ) ;
#1263 = DIRECTION ( 'NONE',  ( -1.000000000000000000, 0.000000000000000000, 1.021800699607666527E-12 ) ) ;
#1264 =( NAMED_UNIT ( * ) SI_UNIT ( $, .STERADIAN. ) SOLID_ANGLE_UNIT ( ) );
#1265 = COLOUR_RGB ( '',0.7921568627450980005, 0.8196078431372548767, 0.9333333333333333481 ) ;
#1266 = DIRECTION ( 'NONE',  ( 1.000000000000000000, 0.000000000000000000, -1.021770197386546999E-12 ) ) ;
#1267 = ORIENTED_EDGE ( 'NONE', *, *, #924, .T. ) ;
#1268 = LINE ( 'NONE', #559, #1110 ) ;
#1269 = ORIENTED_EDGE ( 'NONE', *, *, #1156, .F. ) ;
#1270 = CARTESIAN_POINT ( 'NONE',  ( -108.5000000000640199, 0.000000000000000000, -12.49999999995306865 ) ) ;
#1271 = CARTESIAN_POINT ( 'NONE',  ( -105.3000000000632070, 170.0000000000000000, -11.69999999995634532 ) ) ;
#1272 = EDGE_CURVE ( 'NONE', #1164, #350, #1117, .T. ) ;
#1273 = CIRCLE ( 'NONE', #644, 4.000000000000000888 ) ;
#1274 = ORIENTED_EDGE ( 'NONE', *, *, #499, .F. ) ;
#1275 = FACE_OUTER_BOUND ( 'NONE', #771, .T. ) ;
#1276 = CARTESIAN_POINT ( 'NONE',  ( -111.7000000000599300, 161.8000000000000114, -7.599999999949004881 ) ) ;
#1277 = ORIENTED_EDGE ( 'NONE', *, *, #750, .T. ) ;
#1278 = EDGE_CURVE ( 'NONE', #136, #1076, #501, .T. ) ;
#1279 = ORIENTED_EDGE ( 'NONE', *, *, #417, .F. ) ;
#1280 = ADVANCED_FACE ( 'NONE', ( #1326 ), #1224, .F. ) ;
#1281 = DIRECTION ( 'NONE',  ( -1.000000000000000000, -0.000000000000000000, -0.000000000000000000 ) ) ;
#1282 = AXIS2_PLACEMENT_3D ( 'NONE', #701, #1221, #172 ) ;
#1283 = EDGE_CURVE ( 'NONE', #1065, #350, #311, .T. ) ;
#1284 = ORIENTED_EDGE ( 'NONE', *, *, #540, .F. ) ;
#1285 = FACE_OUTER_BOUND ( 'NONE', #434, .T. ) ;
#1286 = ORIENTED_EDGE ( 'NONE', *, *, #1320, .F. ) ;
#1287 = FACE_OUTER_BOUND ( 'NONE', #365, .T. ) ;
#1288 = ORIENTED_EDGE ( 'NONE', *, *, #799, .F. ) ;
#1289 = VERTEX_POINT ( 'NONE', #413 ) ;
#1290 = CARTESIAN_POINT ( 'NONE',  ( -12.50000000004866685, 0.000000000000000000, 2.499999999948794738 ) ) ;
#1291 = ORIENTED_EDGE ( 'NONE', *, *, #250, .T. ) ;
#1292 = DIRECTION ( 'NONE',  ( -1.021752127350339379E-12, 0.000000000000000000, -1.000000000000000000 ) ) ;
#1293 = ORIENTED_EDGE ( 'NONE', *, *, #182, .F. ) ;
#1294 = CARTESIAN_POINT ( 'NONE',  ( -12.50000000005172041, 3.514504704576388553E-16, -0.5000000000512042631 ) ) ;
#1295 = ORIENTED_EDGE ( 'NONE', *, *, #887, .T. ) ;
#1296 = ORIENTED_EDGE ( 'NONE', *, *, #209, .F. ) ;
#1297 = SURFACE_STYLE_USAGE ( .BOTH. , #460 ) ;
#1298 = VERTEX_POINT ( 'NONE', #326 ) ;
#1299 = VECTOR ( 'NONE', #734, 1000.000000000000000 ) ;
#1300 = DIRECTION ( 'NONE',  ( -0.000000000000000000, 1.000000000000000000, -0.000000000000000000 ) ) ;
#1301 = ORIENTED_EDGE ( 'NONE', *, *, #611, .F. ) ;
#1302 = VECTOR ( 'NONE', #767, 1000.000000000000000 ) ;
#1303 = CARTESIAN_POINT ( 'NONE',  ( -19.70000000006237428, 0.8000000000000012657, -10.90000000004380531 ) ) ;
#1304 = ORIENTED_EDGE ( 'NONE', *, *, #500, .F. ) ;
#1305 = CARTESIAN_POINT ( 'NONE',  ( -12.50000000006092016, 0.000000000000000000, -9.500000000051162630 ) ) ;
#1306 = STYLED_ITEM ( 'NONE', ( #751 ), #716 ) ;
#1307 = CARTESIAN_POINT ( 'NONE',  ( -112.5000000000599272, 170.0000000000000000, -8.499999999948983032 ) ) ;
#1308 = VERTEX_POINT ( 'NONE', #738 ) ;
#1309 = DIRECTION ( 'NONE',  ( 0.2425356250373233713, 0.000000000000000000, 0.9701425001450842966 ) ) ;
#1310 = EDGE_LOOP ( 'NONE', ( #1288, #1035, #409, #142 ) ) ;
#1311 = PLANE ( 'NONE',  #163 ) ;
#1312 = LINE ( 'NONE', #1003, #813 ) ;
#1313 = ORIENTED_EDGE ( 'NONE', *, *, #114, .T. ) ;
#1314 = FACE_OUTER_BOUND ( 'NONE', #760, .T. ) ;
#1315 = DIRECTION ( 'NONE',  ( 0.000000000000000000, 1.000000000000000000, 0.000000000000000000 ) ) ;
#1316 = EDGE_LOOP ( 'NONE', ( #20, #551, #64, #1195, #456, #837 ) ) ;
#1317 = VECTOR ( 'NONE', #931, 1000.000000000000000 ) ;
#1318 = DIRECTION ( 'NONE',  ( 0.000000000000000000, -1.000000000000000000, 0.000000000000000000 ) ) ;
#1319 = CARTESIAN_POINT ( 'NONE',  ( -112.5000000000623004, 5.804091436589159059E-16, -10.84314575045659801 ) ) ;
#1320 = EDGE_CURVE ( 'NONE', #1067, #1029, #113, .T. ) ;
#1321 = ADVANCED_FACE ( 'NONE', ( #1152 ), #523, .T. ) ;
#1322 = LINE ( 'NONE', #507, #506 ) ;
#1323 = LINE ( 'NONE', #1007, #256 ) ;
#1324 = CARTESIAN_POINT ( 'NONE',  ( -105.3000000000623828, 170.0000000000000000, -10.89999999995634639 ) ) ;
#1325 = DIRECTION ( 'NONE',  ( -1.219415011955796222E-28, -1.000000000000000000, -1.193398098498079265E-16 ) ) ;
#1326 = FACE_OUTER_BOUND ( 'NONE', #798, .T. ) ;
#1327 = VECTOR ( 'NONE', #925, 1000.000000000000000 ) ;
#1328 = DIRECTION ( 'NONE',  ( 1.021800699607666527E-12, -1.171501568192129271E-16, 1.000000000000000000 ) ) ;
#1329 = LINE ( 'NONE', #1342, #385 ) ;
#1330 = VECTOR ( 'NONE', #526, 1000.000000000000000 ) ;
#1331 = DIRECTION ( 'NONE',  ( -5.966990492368453989E-18, 1.000000000000000000, 1.193398098498139908E-16 ) ) ;
#1332 = VERTEX_POINT ( 'NONE', #947 ) ;
#1333 = VECTOR ( 'NONE', #343, 1000.000000000000000 ) ;
#1334 = FACE_OUTER_BOUND ( 'NONE', #569, .T. ) ;
#1335 = PLANE ( 'NONE',  #80 ) ;
#1336 = LINE ( 'NONE', #1015, #1258 ) ;
#1337 = EDGE_CURVE ( 'NONE', #1076, #604, #424, .T. ) ;
#1338 = ORIENTED_EDGE ( 'NONE', *, *, #777, .T. ) ;
#1339 = EDGE_CURVE ( 'NONE', #1079, #1332, #1039, .T. ) ;
#1340 = CARTESIAN_POINT ( 'NONE',  ( -12.50000000005172041, 3.514504704576388553E-16, -0.5000000000512042631 ) ) ;
#1341 = AXIS2_PLACEMENT_3D ( 'NONE', #341, #1263, #41 ) ;
#1342 = CARTESIAN_POINT ( 'NONE',  ( -14.10000000004867005, 1.600000000000077582, 2.499999999950430762 ) ) ;
#1343 = EDGE_CURVE ( 'NONE', #829, #1075, #215, .T. ) ;
#1344 = CARTESIAN_POINT ( 'NONE',  ( -15.50000000005377565, 170.0000000000000000, -2.500000000048095750 ) ) ;
ENDSEC;
END-ISO-10303-21;
