ISO-10303-21;
HEADER;
FILE_DESCRIPTION (( 'STEP AP214' ),
    '1' );
FILE_NAME ('Top Cover 1.STEP',
    '2026-04-26T13:43:21',
    ( '' ),
    ( '' ),
    'SwSTEP 2.0',
    'SolidWorks 2022',
    '' );
FILE_SCHEMA (( 'AUTOMOTIVE_DESIGN' ));
ENDSEC;

DATA;
#1 = CARTESIAN_POINT ( 'NONE',  ( -100.0000000000640199, 294.9399056868683147, 67.60439952050606394 ) ) ;
#2 = EDGE_CURVE ( 'NONE', #908, #4, #966, .T. ) ;
#3 = CARTESIAN_POINT ( 'NONE',  ( -14.10000000005172360, 305.9361362615971416, 67.31645308912698056 ) ) ;
#4 = VERTEX_POINT ( 'NONE', #146 ) ;
#5 = CARTESIAN_POINT ( 'NONE',  ( -112.5000000000599272, 297.1535692126772688, 37.53614892631468081 ) ) ;
#6 = ADVANCED_FACE ( 'NONE', ( #765 ), #260, .F. ) ;
#7 = VECTOR ( 'NONE', #376, 1000.000000000000114 ) ;
#8 = LINE ( 'NONE', #529, #349 ) ;
#9 = CARTESIAN_POINT ( 'NONE',  ( -16.50000000005377743, 303.1515131624326500, 37.37908723647409204 ) ) ;
#10 = DIRECTION ( 'NONE',  ( -0.000000000000000000, 0.02617694830719357463, 0.9996573249755752455 ) ) ;
#11 = CARTESIAN_POINT ( 'NONE',  ( -12.50000000005377387, 302.9944514725854106, 31.38114328662072694 ) ) ;
#12 = EDGE_LOOP ( 'NONE', ( #916, #284, #405, #251 ) ) ;
#13 = VECTOR ( 'NONE', #1321, 1000.000000000000000 ) ;
#14 = VECTOR ( 'NONE', #839, 1000.000000000000000 ) ;
#15 = CARTESIAN_POINT ( 'NONE',  ( -15.49999999993932676, 415.2440183012320745, 39.44555565094626104 ) ) ;
#16 = DIRECTION ( 'NONE',  ( 0.000000000000000000, -0.9996573249755751345, 0.02617694830719357116 ) ) ;
#17 = ORIENTED_EDGE ( 'NONE', *, *, #1151, .T. ) ;
#18 = EDGE_LOOP ( 'NONE', ( #855, #691, #1205, #49 ) ) ;
#19 = EDGE_CURVE ( 'NONE', #858, #1199, #551, .T. ) ;
#20 = CARTESIAN_POINT ( 'NONE',  ( -40.00000000006402701, 295.1493212733258247, 75.60165812031065968 ) ) ;
#21 = COLOUR_RGB ( '',0.7921568627450980005, 0.8196078431372548767, 0.9333333333333333481 ) ;
#22 = EDGE_CURVE ( 'NONE', #1181, #680, #862, .T. ) ;
#23 = LINE ( 'NONE', #850, #418 ) ;
#24 = DIRECTION ( 'NONE',  ( 0.000000000000000000, 0.9996573249755751345, -0.02617694830719357116 ) ) ;
#25 = FACE_OUTER_BOUND ( 'NONE', #422, .T. ) ;
#26 = CARTESIAN_POINT ( 'NONE',  ( -70.00000000006401990, 294.9399056868672915, 67.60439952050606394 ) ) ;
#27 = VERTEX_POINT ( 'NONE', #234 ) ;
#28 = DIRECTION ( 'NONE',  ( 0.000000000000000000, -0.9996573249755751345, 0.02617694830719357116 ) ) ;
#29 = EDGE_CURVE ( 'NONE', #731, #119, #744, .T. ) ;
#30 = ORIENTED_EDGE ( 'NONE', *, *, #1128, .F. ) ;
#31 = AXIS2_PLACEMENT_3D ( 'NONE', #541, #153, #433 ) ;
#32 = FACE_OUTER_BOUND ( 'NONE', #1127, .T. ) ;
#33 = LINE ( 'NONE', #1278, #1271 ) ;
#34 = DIRECTION ( 'NONE',  ( 0.000000000000000000, -0.9996573249755751345, 0.02617694830719357116 ) ) ;
#35 = FACE_OUTER_BOUND ( 'NONE', #929, .T. ) ;
#36 = DIRECTION ( 'NONE',  ( 1.156482317317872218E-16, -0.9996573249755751345, 0.02617694830719357116 ) ) ;
#37 = ORIENTED_EDGE ( 'NONE', *, *, #582, .T. ) ;
#38 = AXIS2_PLACEMENT_3D ( 'NONE', #89, #679, #1189 ) ;
#39 = ORIENTED_EDGE ( 'NONE', *, *, #709, .F. ) ;
#40 = PLANE ( 'NONE',  #796 ) ;
#41 = DIRECTION ( 'NONE',  ( -1.022330368508993333E-12, -0.9996573249755749124, 0.02617694830720390664 ) ) ;
#42 = VERTEX_POINT ( 'NONE', #1164 ) ;
#43 = ORIENTED_EDGE ( 'NONE', *, *, #890, .F. ) ;
#44 = CARTESIAN_POINT ( 'NONE',  ( -110.8999999999379185, 416.5650077113737098, 36.40993594838693070 ) ) ;
#45 = VECTOR ( 'NONE', #777, 1000.000000000000000 ) ;
#46 = ORIENTED_EDGE ( 'NONE', *, *, #974, .T. ) ;
#47 = DIRECTION ( 'NONE',  ( -1.021800699607666931E-12, -0.9996573249755751345, 0.02617694830719357116 ) ) ;
#48 = CARTESIAN_POINT ( 'NONE',  ( -40.00000000006402701, 296.1489785983014258, 75.57548117200346383 ) ) ;
#49 = ORIENTED_EDGE ( 'NONE', *, *, #1001, .T. ) ;
#50 = EDGE_LOOP ( 'NONE', ( #967, #1061, #64, #1068 ) ) ;
#51 = FACE_OUTER_BOUND ( 'NONE', #876, .T. ) ;
#52 = CARTESIAN_POINT ( 'NONE',  ( -40.00000000006402701, 296.1489785983014258, 75.57548117200346383 ) ) ;
#53 = EDGE_CURVE ( 'NONE', #1259, #1101, #347, .T. ) ;
#54 = ORIENTED_EDGE ( 'NONE', *, *, #926, .T. ) ;
#55 = LINE ( 'NONE', #462, #1121 ) ;
#56 = VECTOR ( 'NONE', #677, 1000.000000000000114 ) ;
#57 = CARTESIAN_POINT ( 'NONE',  ( -108.5000000000538023, 303.1515131625266690, 37.37908723647165488 ) ) ;
#58 = VERTEX_POINT ( 'NONE', #675 ) ;
#59 = ORIENTED_EDGE ( 'NONE', *, *, #1255, .T. ) ;
#60 = CARTESIAN_POINT ( 'NONE',  ( -85.00000000006401990, 294.9399056868683147, 67.60439952050606394 ) ) ;
#61 = CARTESIAN_POINT ( 'NONE',  ( -12.49999999993625721, 418.1644594312341496, 36.36805283109806197 ) ) ;
#62 = VECTOR ( 'NONE', #1334, 1000.000000000000114 ) ;
#63 = DIRECTION ( 'NONE',  ( 0.000000000000000000, -0.9996573249755751345, 0.02617694830719357116 ) ) ;
#64 = ORIENTED_EDGE ( 'NONE', *, *, #1267, .F. ) ;
#65 = ADVANCED_FACE ( 'NONE', ( #788 ), #479, .F. ) ;
#66 = ORIENTED_EDGE ( 'NONE', *, *, #275, .F. ) ;
#67 = CARTESIAN_POINT ( 'NONE',  ( -40.00000000006402701, 296.1489785983014258, 75.57548117200346383 ) ) ;
#68 = AXIS2_PLACEMENT_3D ( 'NONE', #558, #36, #659 ) ;
#69 = ADVANCED_FACE ( 'NONE', ( #168 ), #160, .T. ) ;
#70 = PLANE ( 'NONE',  #1260 ) ;
#71 = DIRECTION ( 'NONE',  ( 0.000000000000000000, 0.02617694830719357116, 0.9996573249755751345 ) ) ;
#72 = ORIENTED_EDGE ( 'NONE', *, *, #1001, .F. ) ;
#73 = CARTESIAN_POINT ( 'NONE',  ( -12.49999999993627853, 417.8937074395893774, 26.02845141831313214 ) ) ;
#74 = DIRECTION ( 'NONE',  ( 1.021800699607666325E-12, 0.9996573249755751345, -0.02617694830719357116 ) ) ;
#75 = DIRECTION ( 'NONE',  ( 1.000000000000000000, -1.021450554027970906E-12, 2.674762409388410479E-14 ) ) ;
#76 = VECTOR ( 'NONE', #720, 1000.000000000000000 ) ;
#77 = ORIENTED_EDGE ( 'NONE', *, *, #772, .T. ) ;
#78 = EDGE_LOOP ( 'NONE', ( #975, #976, #199, #1097 ) ) ;
#79 = CARTESIAN_POINT ( 'NONE',  ( -12.49999999993625721, 418.1644594312341496, 36.36805283109806197 ) ) ;
#80 = CIRCLE ( 'NONE', #262, 6.000000000000027534 ) ;
#81 = EDGE_CURVE ( 'NONE', #814, #1179, #82, .T. ) ;
#82 = LINE ( 'NONE', #574, #914 ) ;
#83 = VECTOR ( 'NONE', #1252, 1000.000000000000114 ) ;
#84 = VERTEX_POINT ( 'NONE', #382 ) ;
#85 = DIRECTION ( 'NONE',  ( -3.155443620884047222E-30, -0.02617694830719357116, -0.9996573249755751345 ) ) ;
#86 = DIRECTION ( 'NONE',  ( -1.000000000000000000, 1.021450554027971310E-12, -2.674762409388411425E-14 ) ) ;
#87 = EDGE_CURVE ( 'NONE', #1046, #112, #1214, .T. ) ;
#88 = VECTOR ( 'NONE', #185, 1000.000000000000114 ) ;
#89 = CARTESIAN_POINT ( 'NONE',  ( -16.50000000005377743, 303.1515131624326500, 37.37908723647409204 ) ) ;
#90 = VERTEX_POINT ( 'NONE', #801 ) ;
#91 = CARTESIAN_POINT ( 'NONE',  ( -12.49999999993932320, 414.9298949215427115, 27.44966775123947045 ) ) ;
#92 = ADVANCED_FACE ( 'NONE', ( #887 ), #682, .F. ) ;
#93 = CARTESIAN_POINT ( 'NONE',  ( -100.0000000000640199, 296.1489785983014258, 75.57548117200346383 ) ) ;
#94 = DIRECTION ( 'NONE',  ( 0.000000000000000000, -0.02617694830719357116, -0.9996573249755751345 ) ) ;
#95 = ORIENTED_EDGE ( 'NONE', *, *, #272, .T. ) ;
#96 = CARTESIAN_POINT ( 'NONE',  ( -12.50000000004866685, 308.9351082365222396, 67.23792224420543562 ) ) ;
#97 = AXIS2_PLACEMENT_3D ( 'NONE', #398, #1347, #412 ) ;
#98 = CARTESIAN_POINT ( 'NONE',  ( -12.50000000005377387, 303.1515131624286141, 37.37908723647420572 ) ) ;
#99 = ORIENTED_EDGE ( 'NONE', *, *, #1128, .T. ) ;
#100 = FACE_OUTER_BOUND ( 'NONE', #625, .T. ) ;
#101 = EDGE_CURVE ( 'NONE', #243, #159, #989, .T. ) ;
#102 = CARTESIAN_POINT ( 'NONE',  ( -14.09999999993789821, 416.6435385561964608, 39.40890792331624937 ) ) ;
#103 = CARTESIAN_POINT ( 'NONE',  ( -109.4999999999393481, 415.2440183013280830, 39.44555565094376703 ) ) ;
#104 = VECTOR ( 'NONE', #1040, 1000.000000000000000 ) ;
#105 = EDGE_LOOP ( 'NONE', ( #1188, #1141, #193, #528 ) ) ;
#106 = FACE_OUTER_BOUND ( 'NONE', #924, .T. ) ;
#107 = LINE ( 'NONE', #627, #209 ) ;
#108 = CARTESIAN_POINT ( 'NONE',  ( -12.50000000006092016, 296.1539118875995200, 37.56232587462454831 ) ) ;
#109 = PLANE ( 'NONE',  #1185 ) ;
#110 = FACE_BOUND ( 'NONE', #962, .T. ) ;
#111 = DIRECTION ( 'NONE',  ( 3.155443620884047222E-30, 0.02617694830719357116, 0.9996573249755751345 ) ) ;
#112 = VERTEX_POINT ( 'NONE', #1119 ) ;
#113 = EDGE_LOOP ( 'NONE', ( #1053, #1335, #597, #171 ) ) ;
#114 = DIRECTION ( 'NONE',  ( 0.000000000000000000, 0.02617694830719357116, 0.9996573249755751345 ) ) ;
#115 = LINE ( 'NONE', #20, #734 ) ;
#116 = CYLINDRICAL_SURFACE ( 'NONE', #148, 4.000000000000000000 ) ;
#117 = DIRECTION ( 'NONE',  ( 0.000000000000000000, 0.9996573249755751345, -0.02617694830719357116 ) ) ;
#118 = ADVANCED_FACE ( 'NONE', ( #1014 ), #904, .T. ) ;
#119 = VERTEX_POINT ( 'NONE', #578 ) ;
#120 = ORIENTED_EDGE ( 'NONE', *, *, #101, .F. ) ;
#121 = EDGE_CURVE ( 'NONE', #1175, #90, #179, .T. ) ;
#122 = DIRECTION ( 'NONE',  ( 1.021800699607666325E-12, 0.9996573249755751345, -0.02617694830719357116 ) ) ;
#123 = DIRECTION ( 'NONE',  ( 0.000000000000000000, 0.000000000000000000, 1.000000000000000000 ) ) ;
#124 = CARTESIAN_POINT ( 'NONE',  ( -16.50000000005377743, 302.8897436793607199, 27.38251398671831538 ) ) ;
#125 = DIRECTION ( 'NONE',  ( 1.021800699607666325E-12, 0.9996573249755751345, -0.02617694830719357116 ) ) ;
#126 = DIRECTION ( 'NONE',  ( -1.021800699607666527E-12, -0.9996573249755752455, 0.02617694830719357463 ) ) ;
#127 = ADVANCED_FACE ( 'NONE', ( #584 ), #70, .F. ) ;
#128 = DIRECTION ( 'NONE',  ( 1.000000000000000000, 0.000000000000000000, 0.000000000000000000 ) ) ;
#129 = LINE ( 'NONE', #1140, #1056 ) ;
#130 = EDGE_LOOP ( 'NONE', ( #395, #66, #357, #267 ) ) ;
#131 = AXIS2_PLACEMENT_3D ( 'NONE', #256, #123, #1062 ) ;
#132 = EDGE_CURVE ( 'NONE', #1165, #543, #378, .T. ) ;
#133 = ORIENTED_EDGE ( 'NONE', *, *, #502, .T. ) ;
#134 = SURFACE_STYLE_USAGE ( .BOTH. , #1182 ) ;
#135 = FACE_OUTER_BOUND ( 'NONE', #1025, .T. ) ;
#136 = DIRECTION ( 'NONE',  ( 0.000000000000000000, 0.02617694830719357116, 0.9996573249755751345 ) ) ;
#137 = ORIENTED_EDGE ( 'NONE', *, *, #177, .F. ) ;
#138 = VERTEX_POINT ( 'NONE', #781 ) ;
#139 = AXIS2_PLACEMENT_3D ( 'NONE', #9, #822, #215 ) ;
#140 = ORIENTED_EDGE ( 'NONE', *, *, #702, .F. ) ;
#141 = VECTOR ( 'NONE', #338, 1000.000000000000114 ) ;
#142 = CARTESIAN_POINT ( 'NONE',  ( -12.49999999994034994, 413.9564145448742920, 28.47550202452226031 ) ) ;
#143 = DIRECTION ( 'NONE',  ( 1.021800699607666325E-12, 0.9996573249755751345, -0.02617694830719357116 ) ) ;
#144 = DIRECTION ( 'NONE',  ( -3.155443620884047222E-30, -0.02617694830719357116, -0.9996573249755751345 ) ) ;
#145 = CARTESIAN_POINT ( 'NONE',  ( -85.00000000006401990, 295.1493212733258247, 75.60165812031065968 ) ) ;
#146 = CARTESIAN_POINT ( 'NONE',  ( -14.09999999993789821, 416.5650077112748590, 36.40993594838953840 ) ) ;
#147 = ORIENTED_EDGE ( 'NONE', *, *, #1230, .T. ) ;
#148 = AXIS2_PLACEMENT_3D ( 'NONE', #142, #948, #1082 ) ;
#149 = EDGE_CURVE ( 'NONE', #936, #1299, #1152, .T. ) ;
#150 = ORIENTED_EDGE ( 'NONE', *, *, #1290, .F. ) ;
#151 = VECTOR ( 'NONE', #71, 1000.000000000000114 ) ;
#152 = CARTESIAN_POINT ( 'NONE',  ( -110.9000000000486921, 308.9351082366227956, 67.23792224420283503 ) ) ;
#153 = DIRECTION ( 'NONE',  ( -1.000000000000000000, 0.000000000000000000, 0.000000000000000000 ) ) ;
#154 = ADVANCED_FACE ( 'NONE', ( #996 ), #266, .F. ) ;
#155 = ORIENTED_EDGE ( 'NONE', *, *, #331, .T. ) ;
#156 = ORIENTED_EDGE ( 'NONE', *, *, #712, .T. ) ;
#157 = PLANE ( 'NONE',  #508 ) ;
#158 = AXIS2_PLACEMENT_3D ( 'NONE', #1065, #136, #16 ) ;
#159 = VERTEX_POINT ( 'NONE', #291 ) ;
#160 = TOROIDAL_SURFACE ( 'NONE', #1092, 6.000000000000005329, 4.000000000000000000 ) ;
#161 = LINE ( 'NONE', #1314, #415 ) ;
#162 = LINE ( 'NONE', #658, #1103 ) ;
#163 = LINE ( 'NONE', #469, #88 ) ;
#164 = CARTESIAN_POINT ( 'NONE',  ( -110.9000000000517616, 305.2817125540162237, 42.32501996473503425 ) ) ;
#165 = EDGE_LOOP ( 'NONE', ( #470, #99, #1076, #451 ) ) ;
#166 = CARTESIAN_POINT ( 'NONE',  ( -55.00000000006402701, 296.1489785983004026, 75.57548117200352067 ) ) ;
#167 = VECTOR ( 'NONE', #1044, 1000.000000000000114 ) ;
#168 = FACE_OUTER_BOUND ( 'NONE', #12, .T. ) ;
#169 = EDGE_CURVE ( 'NONE', #1157, #1016, #1195, .T. ) ;
#170 = CARTESIAN_POINT ( 'NONE',  ( -100.0000000000640199, 296.1489785983014258, 75.57548117200346383 ) ) ;
#171 = ORIENTED_EDGE ( 'NONE', *, *, #283, .F. ) ;
#172 = CARTESIAN_POINT ( 'NONE',  ( -55.00000000006402701, 295.1493212733248015, 75.60165812031065968 ) ) ;
#173 = DIRECTION ( 'NONE',  ( 0.000000000000000000, -0.02617694830719357116, -0.9996573249755751345 ) ) ;
#174 = ADVANCED_BREP_SHAPE_REPRESENTATION ( 'Top Cover 1', ( #208, #131 ), #1241 ) ;
#175 = DIRECTION ( 'NONE',  ( 0.000000000000000000, -0.02617694830719357116, -0.9996573249755751345 ) ) ;
#176 = ORIENTED_EDGE ( 'NONE', *, *, #797, .F. ) ;
#177 = EDGE_CURVE ( 'NONE', #471, #1298, #163, .T. ) ;
#178 = CARTESIAN_POINT ( 'NONE',  ( -15.50000000005377565, 302.9682745242812985, 30.38148596164502635 ) ) ;
#179 = LINE ( 'NONE', #372, #488 ) ;
#180 = DIRECTION ( 'NONE',  ( -5.966990492368452448E-18, -0.02617694830719345320, -0.9996573249755751345 ) ) ;
#181 = VERTEX_POINT ( 'NONE', #894 ) ;
#182 = EDGE_CURVE ( 'NONE', #466, #667, #1310, .T. ) ;
#183 = LINE ( 'NONE', #1013, #1297 ) ;
#184 = LINE ( 'NONE', #910, #496 ) ;
#185 = DIRECTION ( 'NONE',  ( 0.000000000000000000, -0.9996573249755751345, 0.02617694830719357116 ) ) ;
#186 = CIRCLE ( 'NONE', #769, 10.00000000000002842 ) ;
#187 = VERTEX_POINT ( 'NONE', #210 ) ;
#188 = ADVANCED_FACE ( 'NONE', ( #110, #723, #516, #308 ), #397, .F. ) ;
#189 =( LENGTH_UNIT ( ) NAMED_UNIT ( * ) SI_UNIT ( .MILLI., .METRE. ) );
#190 = CARTESIAN_POINT ( 'NONE',  ( -55.00000000006402701, 295.9395630118428926, 67.57822257219892492 ) ) ;
#191 = AXIS2_PLACEMENT_3D ( 'NONE', #492, #1225, #417 ) ;
#192 = EDGE_CURVE ( 'NONE', #119, #667, #408, .T. ) ;
#193 = ORIENTED_EDGE ( 'NONE', *, *, #401, .T. ) ;
#194 = DIRECTION ( 'NONE',  ( -1.000000000000000000, 1.156086019711537867E-16, -3.027317783861335767E-18 ) ) ;
#195 = VERTEX_POINT ( 'NONE', #404 ) ;
#196 = DIRECTION ( 'NONE',  ( 0.000000000000000000, 0.9996573249755751345, -0.02617694830719357116 ) ) ;
#197 = LINE ( 'NONE', #490, #62 ) ;
#198 = AXIS2_PLACEMENT_3D ( 'NONE', #281, #1115, #687 ) ;
#199 = ORIENTED_EDGE ( 'NONE', *, *, #1250, .F. ) ;
#200 = DIRECTION ( 'NONE',  ( 0.000000000000000000, -0.02617694830719357116, -0.9996573249755751345 ) ) ;
#201 = DIRECTION ( 'NONE',  ( 1.000000000000000000, 0.000000000000000000, 0.000000000000000000 ) ) ;
#202 = LINE ( 'NONE', #608, #791 ) ;
#203 = EDGE_CURVE ( 'NONE', #181, #1265, #730, .T. ) ;
#204 = VECTOR ( 'NONE', #743, 1000.000000000000114 ) ;
#205 = ORIENTED_EDGE ( 'NONE', *, *, #420, .F. ) ;
#206 = DIRECTION ( 'NONE',  ( -1.021800699607666325E-12, -0.9996573249755751345, 0.02617694830719357116 ) ) ;
#207 = CARTESIAN_POINT ( 'NONE',  ( -108.5000000000640199, 293.1549399127709421, 37.64085671954359213 ) ) ;
#208 = MANIFOLD_SOLID_BREP ( 'Body-Move/Copy1', #1063 ) ;
#209 = VECTOR ( 'NONE', #594, 1000.000000000000114 ) ;
#210 = CARTESIAN_POINT ( 'NONE',  ( -85.00000000006401990, 295.9395630118438589, 67.57822257219886808 ) ) ;
#211 = ORIENTED_EDGE ( 'NONE', *, *, #1012, .T. ) ;
#212 = DIRECTION ( 'NONE',  ( 0.000000000000000000, 0.9996573249755751345, -0.02617694830719357116 ) ) ;
#213 = AXIS2_PLACEMENT_3D ( 'NONE', #726, #212, #411 ) ;
#214 = LINE ( 'NONE', #1054, #1218 ) ;
#215 = DIRECTION ( 'NONE',  ( -1.021800699607666729E-12, -0.9996573249755750235, 0.02617694830719378279 ) ) ;
#216 = AXIS2_PLACEMENT_3D ( 'NONE', #751, #1058, #41 ) ;
#217 = DIRECTION ( 'NONE',  ( 0.000000000000000000, -0.02617694830719357116, -0.9996573249755751345 ) ) ;
#218 = ORIENTED_EDGE ( 'NONE', *, *, #786, .T. ) ;
#219 = ORIENTED_EDGE ( 'NONE', *, *, #279, .F. ) ;
#220 = DIRECTION ( 'NONE',  ( -1.000000000000000000, 0.000000000000000000, 0.000000000000000000 ) ) ;
#221 = CARTESIAN_POINT ( 'NONE',  ( -110.9000000000517616, 305.2031817090946788, 39.32604798980832328 ) ) ;
#222 = EDGE_CURVE ( 'NONE', #753, #708, #1035, .T. ) ;
#223 = CARTESIAN_POINT ( 'NONE',  ( -112.5000000000517559, 305.9361362616976976, 67.31645308912436576 ) ) ;
#224 = DIRECTION ( 'NONE',  ( 1.000000000000000000, -1.021450554027971310E-12, 2.674762409388411741E-14 ) ) ;
#225 = FACE_OUTER_BOUND ( 'NONE', #247, .T. ) ;
#226 = CARTESIAN_POINT ( 'NONE',  ( -12.49999999994034994, 413.8517067516455086, 24.47687272461995889 ) ) ;
#227 = CARTESIAN_POINT ( 'NONE',  ( -12.50000000005377387, 303.1515131624286141, 37.37908723647420572 ) ) ;
#228 = ORIENTED_EDGE ( 'NONE', *, *, #465, .T. ) ;
#229 = ORIENTED_EDGE ( 'NONE', *, *, #1193, .T. ) ;
#230 = VECTOR ( 'NONE', #217, 1000.000000000000114 ) ;
#231 = EDGE_CURVE ( 'NONE', #1179, #353, #129, .T. ) ;
#232 = DIRECTION ( 'NONE',  ( -1.021800699607666931E-12, -0.9996573249755751345, 0.02617694830719357116 ) ) ;
#233 = PLANE ( 'NONE',  #380 ) ;
#234 = CARTESIAN_POINT ( 'NONE',  ( -40.00000000006402701, 296.1489785983014258, 75.57548117200346383 ) ) ;
#235 = ORIENTED_EDGE ( 'NONE', *, *, #331, .F. ) ;
#236 = LINE ( 'NONE', #767, #14 ) ;
#237 = ADVANCED_FACE ( 'NONE', ( #1328 ), #1123, .T. ) ;
#238 =( GEOMETRIC_REPRESENTATION_CONTEXT ( 3 ) GLOBAL_UNCERTAINTY_ASSIGNED_CONTEXT ( ( #644 ) ) GLOBAL_UNIT_ASSIGNED_CONTEXT ( ( #414, #918, #824 ) ) REPRESENTATION_CONTEXT ( 'NONE', 'WORKASPACE' ) );
#239 = ORIENTED_EDGE ( 'NONE', *, *, #582, .F. ) ;
#240 = DIRECTION ( 'NONE',  ( 1.021800699607666325E-12, 0.9996573249755751345, -0.02617694830719357116 ) ) ;
#241 = FACE_OUTER_BOUND ( 'NONE', #384, .T. ) ;
#242 = DIRECTION ( 'NONE',  ( 1.000000000000000000, -1.021450554027970906E-12, 2.674762409388410479E-14 ) ) ;
#243 = VERTEX_POINT ( 'NONE', #103 ) ;
#244 = ORIENTED_EDGE ( 'NONE', *, *, #22, .T. ) ;
#245 = VECTOR ( 'NONE', #1281, 1000.000000000000000 ) ;
#246 = COLOUR_RGB ( '',0.7921568627450980005, 0.8196078431372548767, 0.9333333333333333481 ) ;
#247 = EDGE_LOOP ( 'NONE', ( #155, #95, #585, #1212, #276, #333 ) ) ;
#248 = SURFACE_STYLE_FILL_AREA ( #741 ) ;
#249 = DIRECTION ( 'NONE',  ( 1.000000000000000000, 0.000000000000000000, 0.000000000000000000 ) ) ;
#250 = LINE ( 'NONE', #1073, #1113 ) ;
#251 = ORIENTED_EDGE ( 'NONE', *, *, #377, .F. ) ;
#252 = ORIENTED_EDGE ( 'NONE', *, *, #539, .F. ) ;
#253 = EDGE_CURVE ( 'NONE', #880, #325, #197, .T. ) ;
#254 = AXIS2_PLACEMENT_3D ( 'NONE', #297, #1041, #1033 ) ;
#255 = VERTEX_POINT ( 'NONE', #813 ) ;
#256 = CARTESIAN_POINT ( 'NONE',  ( 0.000000000000000000, 0.000000000000000000, 0.000000000000000000 ) ) ;
#257 = EDGE_CURVE ( 'NONE', #159, #1294, #1231, .T. ) ;
#258 = DIRECTION ( 'NONE',  ( 0.000000000000000000, -0.9996573249755751345, 0.02617694830719357116 ) ) ;
#259 = PLANE ( 'NONE',  #158 ) ;
#260 = PLANE ( 'NONE',  #68 ) ;
#261 = EDGE_LOOP ( 'NONE', ( #1191, #699, #436, #1125, #140, #410, #756 ) ) ;
#262 = AXIS2_PLACEMENT_3D ( 'NONE', #1057, #1286, #343 ) ;
#263 = EDGE_LOOP ( 'NONE', ( #519, #17, #156, #575 ) ) ;
#264 = VECTOR ( 'NONE', #114, 1000.000000000000114 ) ;
#265 = DIRECTION ( 'NONE',  ( 1.021800699607666325E-12, 0.9996573249755751345, -0.02617694830719357116 ) ) ;
#266 = PLANE ( 'NONE',  #1020 ) ;
#267 = ORIENTED_EDGE ( 'NONE', *, *, #87, .T. ) ;
#268 = CARTESIAN_POINT ( 'NONE',  ( -14.10000000004867005, 308.9351082365239449, 67.23792224420543562 ) ) ;
#269 = STYLED_ITEM ( 'NONE', ( #655 ), #174 ) ;
#270 = ORIENTED_EDGE ( 'NONE', *, *, #1012, .F. ) ;
#271 = AXIS2_PLACEMENT_3D ( 'NONE', #567, #274, #588 ) ;
#272 = EDGE_CURVE ( 'NONE', #510, #42, #509, .T. ) ;
#273 = FACE_OUTER_BOUND ( 'NONE', #762, .T. ) ;
#274 = DIRECTION ( 'NONE',  ( -1.156482317317872218E-16, -0.9996573249755751345, 0.02617694830719357116 ) ) ;
#275 = EDGE_CURVE ( 'NONE', #435, #1173, #601, .T. ) ;
#276 = ORIENTED_EDGE ( 'NONE', *, *, #823, .T. ) ;
#277 = ORIENTED_EDGE ( 'NONE', *, *, #555, .F. ) ;
#278 = LINE ( 'NONE', #800, #309 ) ;
#279 = EDGE_CURVE ( 'NONE', #543, #1259, #202, .T. ) ;
#280 = AXIS2_PLACEMENT_3D ( 'NONE', #1263, #330, #125 ) ;
#281 = CARTESIAN_POINT ( 'NONE',  ( -108.5000000000599272, 306.8390400863348191, 407.4093591672776142 ) ) ;
#282 = ORIENTED_EDGE ( 'NONE', *, *, #565, .F. ) ;
#283 = EDGE_CURVE ( 'NONE', #1199, #1299, #1030, .T. ) ;
#284 = ORIENTED_EDGE ( 'NONE', *, *, #1174, .F. ) ;
#285 = DIRECTION ( 'NONE',  ( 0.000000000000000000, -0.02617694830719357116, -0.9996573249755751345 ) ) ;
#286 = DIRECTION ( 'NONE',  ( 1.000000000000000000, -1.021450554027971310E-12, 2.674762409388411425E-14 ) ) ;
#287 = CARTESIAN_POINT ( 'NONE',  ( -110.8999999999379185, 416.5650077113737098, 36.40993594838693070 ) ) ;
#288 = ORIENTED_EDGE ( 'NONE', *, *, #476, .F. ) ;
#289 = VECTOR ( 'NONE', #355, 1000.000000000000000 ) ;
#290 = CARTESIAN_POINT ( 'NONE',  ( -40.00000000006402701, 295.9395630118438589, 67.57822257219886808 ) ) ;
#291 = CARTESIAN_POINT ( 'NONE',  ( -109.5000000000487006, 308.2806845289415492, 42.24648911981348931 ) ) ;
#292 = ADVANCED_FACE ( 'NONE', ( #1155 ), #233, .F. ) ;
#293 = ORIENTED_EDGE ( 'NONE', *, *, #1235, .F. ) ;
#294 = CARTESIAN_POINT ( 'NONE',  ( -70.00000000006401990, 296.1489785983004026, 75.57548117200352067 ) ) ;
#295 = CARTESIAN_POINT ( 'NONE',  ( -112.4999999999362927, 418.1644594313362973, 36.36805283109539744 ) ) ;
#296 = ORIENTED_EDGE ( 'NONE', *, *, #1154, .F. ) ;
#297 = CARTESIAN_POINT ( 'NONE',  ( -16.50000000005377743, 302.9944514725895033, 31.38114328662061681 ) ) ;
#298 = DIRECTION ( 'NONE',  ( 0.000000000000000000, -0.9996573249755751345, 0.02617694830719357116 ) ) ;
#299 = VERTEX_POINT ( 'NONE', #549 ) ;
#300 = CARTESIAN_POINT ( 'NONE',  ( -40.00000000006402701, 295.9395630118438589, 67.57822257219886808 ) ) ;
#301 = CARTESIAN_POINT ( 'NONE',  ( -110.8431457504456290, 416.1940495647263560, 24.41553631943004277 ) ) ;
#302 = EDGE_CURVE ( 'NONE', #858, #181, #546, .T. ) ;
#303 = VECTOR ( 'NONE', #854, 1000.000000000000000 ) ;
#304 = VECTOR ( 'NONE', #201, 1000.000000000000000 ) ;
#305 = ORIENTED_EDGE ( 'NONE', *, *, #754, .T. ) ;
#306 = PLANE ( 'NONE',  #191 ) ;
#307 = CARTESIAN_POINT ( 'NONE',  ( -25.00000000006402701, 295.9395630118438589, 67.57822257219886808 ) ) ;
#308 = FACE_BOUND ( 'NONE', #78, .T. ) ;
#309 = VECTOR ( 'NONE', #909, 1000.000000000000000 ) ;
#310 = EDGE_LOOP ( 'NONE', ( #984, #632, #610, #713 ) ) ;
#311 = CARTESIAN_POINT ( 'NONE',  ( -110.8999999999379185, 416.6435385562953115, 39.40890792331364167 ) ) ;
#312 = CARTESIAN_POINT ( 'NONE',  ( -110.9000000000517616, 305.2031817090946788, 39.32604798980832328 ) ) ;
#313 = CARTESIAN_POINT ( 'NONE',  ( -109.5000000000487006, 308.9351082366213745, 67.23792224420289187 ) ) ;
#314 = VECTOR ( 'NONE', #224, 1000.000000000000000 ) ;
#315 = FILL_AREA_STYLE ('',( #1249 ) ) ;
#316 = ORIENTED_EDGE ( 'NONE', *, *, #370, .F. ) ;
#317 = FACE_OUTER_BOUND ( 'NONE', #1000, .T. ) ;
#318 = AXIS2_PLACEMENT_3D ( 'NONE', #889, #1220, #899 ) ;
#319 = EDGE_CURVE ( 'NONE', #1226, #466, #1257, .T. ) ;
#320 = LINE ( 'NONE', #221, #1227 ) ;
#321 = LINE ( 'NONE', #733, #1150 ) ;
#322 = APPLICATION_PROTOCOL_DEFINITION ( 'draft international standard', 'automotive_design', 1998, #1018 ) ;
#323 = CARTESIAN_POINT ( 'NONE',  ( -100.0000000000640199, 296.1489785983014258, 75.57548117200346383 ) ) ;
#324 = CIRCLE ( 'NONE', #216, 6.000000000000029310 ) ;
#325 = VERTEX_POINT ( 'NONE', #1051 ) ;
#326 = VERTEX_POINT ( 'NONE', #964 ) ;
#327 = EDGE_CURVE ( 'NONE', #1046, #435, #1177, .T. ) ;
#328 = DIRECTION ( 'NONE',  ( 0.000000000000000000, 0.9996573249755751345, -0.02617694830719357116 ) ) ;
#329 = PLANE ( 'NONE',  #482 ) ;
#330 = DIRECTION ( 'NONE',  ( -1.000000000000000000, 1.021450554027970906E-12, -2.674762409388410479E-14 ) ) ;
#331 = EDGE_CURVE ( 'NONE', #1005, #510, #419, .T. ) ;
#332 = CARTESIAN_POINT ( 'NONE',  ( -112.5000000000517559, 305.2031817090962704, 39.32604798980826644 ) ) ;
#333 = ORIENTED_EDGE ( 'NONE', *, *, #480, .T. ) ;
#334 = ORIENTED_EDGE ( 'NONE', *, *, #500, .T. ) ;
#335 = VECTOR ( 'NONE', #739, 1000.000000000000000 ) ;
#336 = VERTEX_POINT ( 'NONE', #332 ) ;
#337 = CARTESIAN_POINT ( 'NONE',  ( -12.50000000004866685, 308.2806845288424142, 42.24648911981604726 ) ) ;
#338 = DIRECTION ( 'NONE',  ( 0.000000000000000000, 0.02617694830719357116, 0.9996573249755751345 ) ) ;
#339 = ORIENTED_EDGE ( 'NONE', *, *, #500, .F. ) ;
#340 = EDGE_LOOP ( 'NONE', ( #846, #176, #631, #348 ) ) ;
#341 = DIRECTION ( 'NONE',  ( 1.021800699607666527E-12, 0.9996573249755752455, -0.02617694830719357463 ) ) ;
#342 = ORIENTED_EDGE ( 'NONE', *, *, #253, .F. ) ;
#343 = DIRECTION ( 'NONE',  ( -1.021752127350334734E-12, -0.9996573249755752455, 0.02617694830719350871 ) ) ;
#344 = DIRECTION ( 'NONE',  ( 1.000000000000000000, -1.021450554027971310E-12, 2.674762409388411425E-14 ) ) ;
#345 = ADVANCED_FACE ( 'NONE', ( #241 ), #1264, .F. ) ;
#346 = FACE_OUTER_BOUND ( 'NONE', #165, .T. ) ;
#347 = LINE ( 'NONE', #760, #735 ) ;
#348 = ORIENTED_EDGE ( 'NONE', *, *, #671, .T. ) ;
#349 = VECTOR ( 'NONE', #770, 1000.000000000000114 ) ;
#350 = CARTESIAN_POINT ( 'NONE',  ( -16.50000000005989875, 297.1535692125792139, 37.53614892631723876 ) ) ;
#351 = LINE ( 'NONE', #52, #907 ) ;
#352 = ADVANCED_FACE ( 'NONE', ( #442 ), #1287, .T. ) ;
#353 = VERTEX_POINT ( 'NONE', #323 ) ;
#354 = LINE ( 'NONE', #337, #1081 ) ;
#355 = DIRECTION ( 'NONE',  ( 1.000000000000000000, 0.000000000000000000, 0.000000000000000000 ) ) ;
#356 = CARTESIAN_POINT ( 'NONE',  ( -16.50000000006399148, 293.9402483618927704, 67.63057646881325979 ) ) ;
#357 = ORIENTED_EDGE ( 'NONE', *, *, #327, .F. ) ;
#358 = ORIENTED_EDGE ( 'NONE', *, *, #1099, .T. ) ;
#359 = LINE ( 'NONE', #1088, #104 ) ;
#360 = VECTOR ( 'NONE', #265, 1000.000000000000114 ) ;
#361 = EDGE_LOOP ( 'NONE', ( #1089, #205, #339, #969 ) ) ;
#362 = CYLINDRICAL_SURFACE ( 'NONE', #727, 6.999999999999986677 ) ;
#363 = FACE_OUTER_BOUND ( 'NONE', #458, .T. ) ;
#364 = DIRECTION ( 'NONE',  ( 5.966990492490393858E-18, 0.02617694830719357116, 0.9996573249755751345 ) ) ;
#365 = ORIENTED_EDGE ( 'NONE', *, *, #968, .T. ) ;
#366 = CARTESIAN_POINT ( 'NONE',  ( -15.50000000004866862, 308.2806845288454838, 42.24648911981599042 ) ) ;
#367 = DIRECTION ( 'NONE',  ( -1.000000000000000000, 1.021450554027971310E-12, -2.674762409388411425E-14 ) ) ;
#368 = EDGE_CURVE ( 'NONE', #662, #243, #852, .T. ) ;
#369 = ORIENTED_EDGE ( 'NONE', *, *, #1302, .F. ) ;
#370 = EDGE_CURVE ( 'NONE', #255, #544, #250, .T. ) ;
#371 = CARTESIAN_POINT ( 'NONE',  ( -109.5000000000538023, 303.1515131625276922, 37.37908723647159803 ) ) ;
#372 = CARTESIAN_POINT ( 'NONE',  ( -15.50000000005377565, 302.9682745242812985, 30.38148596164502635 ) ) ;
#373 = EDGE_CURVE ( 'NONE', #84, #731, #941, .T. ) ;
#374 = ORIENTED_EDGE ( 'NONE', *, *, #29, .F. ) ;
#375 = VECTOR ( 'NONE', #173, 1000.000000000000114 ) ;
#376 = DIRECTION ( 'NONE',  ( -1.021800699607666325E-12, -0.9996573249755751345, 0.02617694830719357116 ) ) ;
#377 = EDGE_CURVE ( 'NONE', #326, #936, #324, .T. ) ;
#378 = LINE ( 'NONE', #898, #981 ) ;
#379 = VERTEX_POINT ( 'NONE', #637 ) ;
#380 = AXIS2_PLACEMENT_3D ( 'NONE', #758, #144, #532 ) ;
#381 = DIRECTION ( 'NONE',  ( -1.000000000000000000, 1.021450554027971310E-12, -2.674762409388411425E-14 ) ) ;
#382 = CARTESIAN_POINT ( 'NONE',  ( -70.00000000006401990, 295.9395630118428926, 67.57822257219892492 ) ) ;
#383 = VECTOR ( 'NONE', #979, 1000.000000000000114 ) ;
#384 = EDGE_LOOP ( 'NONE', ( #616, #1320, #748, #737 ) ) ;
#385 = LINE ( 'NONE', #581, #7 ) ;
#386 = VECTOR ( 'NONE', #1206, 1000.000000000000000 ) ;
#387 = CARTESIAN_POINT ( 'NONE',  ( -110.9000000000517616, 305.2817125540162237, 42.32501996473503425 ) ) ;
#388 = EDGE_CURVE ( 'NONE', #790, #863, #931, .T. ) ;
#389 = EDGE_CURVE ( 'NONE', #326, #544, #391, .T. ) ;
#390 = EDGE_LOOP ( 'NONE', ( #527, #705, #498, #252 ) ) ;
#391 = CIRCLE ( 'NONE', #803, 4.000000000000003553 ) ;
#392 = AXIS2_PLACEMENT_3D ( 'NONE', #1304, #795, #693 ) ;
#393 = LINE ( 'NONE', #1192, #360 ) ;
#394 = DIRECTION ( 'NONE',  ( 1.000000000000000000, -1.021450554027971310E-12, 2.674762409388411741E-14 ) ) ;
#395 = ORIENTED_EDGE ( 'NONE', *, *, #1250, .T. ) ;
#396 = LINE ( 'NONE', #1022, #304 ) ;
#397 = PLANE ( 'NONE',  #428 ) ;
#398 = CARTESIAN_POINT ( 'NONE',  ( -16.50000000005989875, 297.1535692125792139, 37.53614892631723876 ) ) ;
#399 = ORIENTED_EDGE ( 'NONE', *, *, #1228, .T. ) ;
#400 = CARTESIAN_POINT ( 'NONE',  ( -25.00000000006402701, 296.1489785983014258, 75.57548117200346383 ) ) ;
#401 = EDGE_CURVE ( 'NONE', #379, #660, #1170, .T. ) ;
#402 = LINE ( 'NONE', #810, #648 ) ;
#403 = EDGE_CURVE ( 'NONE', #708, #1226, #949, .T. ) ;
#404 = CARTESIAN_POINT ( 'NONE',  ( -12.50000000005172041, 305.2031817089941228, 39.32604798981093097 ) ) ;
#405 = ORIENTED_EDGE ( 'NONE', *, *, #149, .F. ) ;
#406 = PLANE ( 'NONE',  #1194 ) ;
#407 =( NAMED_UNIT ( * ) SI_UNIT ( $, .STERADIAN. ) SOLID_ANGLE_UNIT ( ) );
#408 = LINE ( 'NONE', #190, #1202 ) ;
#409 = ADVANCED_FACE ( 'NONE', ( #1184 ), #259, .T. ) ;
#410 = ORIENTED_EDGE ( 'NONE', *, *, #1272, .T. ) ;
#411 = DIRECTION ( 'NONE',  ( 1.000000000000000000, 0.000000000000000000, 0.000000000000000000 ) ) ;
#412 = DIRECTION ( 'NONE',  ( -1.000000000000000000, 1.026956297778269800E-12, -2.602085213965210642E-14 ) ) ;
#413 = CARTESIAN_POINT ( 'NONE',  ( -108.4999999999403855, 413.8517067517436203, 24.47687272461734764 ) ) ;
#414 =( LENGTH_UNIT ( ) NAMED_UNIT ( * ) SI_UNIT ( .MILLI., .METRE. ) );
#415 = VECTOR ( 'NONE', #564, 1000.000000000000114 ) ;
#416 = ORIENTED_EDGE ( 'NONE', *, *, #1290, .T. ) ;
#417 = DIRECTION ( 'NONE',  ( -1.000000000000000000, 1.021450554027971310E-12, -2.674762409388411425E-14 ) ) ;
#418 = VECTOR ( 'NONE', #432, 1000.000000000000114 ) ;
#419 = LINE ( 'NONE', #958, #607 ) ;
#420 = EDGE_CURVE ( 'NONE', #27, #1157, #456, .T. ) ;
#421 = FACE_OUTER_BOUND ( 'NONE', #430, .T. ) ;
#422 = EDGE_LOOP ( 'NONE', ( #305, #1117, #649, #147 ) ) ;
#423 = ORIENTED_EDGE ( 'NONE', *, *, #522, .T. ) ;
#424 = VECTOR ( 'NONE', #937, 1000.000000000000000 ) ;
#425 = CARTESIAN_POINT ( 'NONE',  ( -100.0000000000640199, 295.9395630118438589, 67.57822257219886808 ) ) ;
#426 = CARTESIAN_POINT ( 'NONE',  ( -12.50000000004866685, 308.9351082365222396, 67.23792224420543562 ) ) ;
#427 = CARTESIAN_POINT ( 'NONE',  ( -108.5000000000538023, 302.9944514726835223, 31.38114328661817254 ) ) ;
#428 = AXIS2_PLACEMENT_3D ( 'NONE', #1237, #717, #1344 ) ;
#429 = CARTESIAN_POINT ( 'NONE',  ( -112.4999999999362927, 418.1644594313362973, 36.36805283109539744 ) ) ;
#430 = EDGE_LOOP ( 'NONE', ( #873, #1251, #752, #454, #399, #1156, #1104 ) ) ;
#431 = CARTESIAN_POINT ( 'NONE',  ( -12.50000000005172041, 305.2031817089941228, 39.32604798981093097 ) ) ;
#432 = DIRECTION ( 'NONE',  ( 0.000000000000000000, 0.9996573249755751345, -0.02617694830719357116 ) ) ;
#433 = DIRECTION ( 'NONE',  ( 0.000000000000000000, 0.9996573249755751345, -0.02617694830719357116 ) ) ;
#434 = CARTESIAN_POINT ( 'NONE',  ( -100.0000000000640199, 296.1489785983014258, 75.57548117200346383 ) ) ;
#435 = VERTEX_POINT ( 'NONE', #878 ) ;
#436 = ORIENTED_EDGE ( 'NONE', *, *, #1215, .F. ) ;
#437 = ADVANCED_FACE ( 'NONE', ( #1296 ), #980, .F. ) ;
#438 = ORIENTED_EDGE ( 'NONE', *, *, #203, .T. ) ;
#439 =( NAMED_UNIT ( * ) SI_UNIT ( $, .STERADIAN. ) SOLID_ANGLE_UNIT ( ) );
#440 = UNCERTAINTY_MEASURE_WITH_UNIT (LENGTH_MEASURE( 1.000000000000000082E-05 ), #635, 'distance_accuracy_value', 'NONE');
#441 = DIRECTION ( 'NONE',  ( 1.000000000000000000, -1.021450554027971310E-12, 2.674762409388411425E-14 ) ) ;
#442 = FACE_OUTER_BOUND ( 'NONE', #457, .T. ) ;
#443 = ADVANCED_FACE ( 'NONE', ( #523 ), #1145, .F. ) ;
#444 = CARTESIAN_POINT ( 'NONE',  ( -109.5000000000538023, 302.9682745243773070, 30.38148596164252879 ) ) ;
#445 = ORIENTED_EDGE ( 'NONE', *, *, #950, .T. ) ;
#446 = ORIENTED_EDGE ( 'NONE', *, *, #1215, .T. ) ;
#447 = ORIENTED_EDGE ( 'NONE', *, *, #1095, .T. ) ;
#448 = CARTESIAN_POINT ( 'NONE',  ( -12.50000000004866685, 308.2806845288424142, 42.24648911981604726 ) ) ;
#449 = DIRECTION ( 'NONE',  ( -1.000000000000000000, 1.026956297778268790E-12, -2.602085213965208433E-14 ) ) ;
#450 = CARTESIAN_POINT ( 'NONE',  ( -12.50000000006398793, 293.9402483618886208, 67.63057646881337348 ) ) ;
#451 = ORIENTED_EDGE ( 'NONE', *, *, #231, .T. ) ;
#452 = VECTOR ( 'NONE', #932, 1000.000000000000000 ) ;
#453 = CARTESIAN_POINT ( 'NONE',  ( -110.9000000000486921, 308.2806845289429702, 42.24648911981343247 ) ) ;
#454 = ORIENTED_EDGE ( 'NONE', *, *, #1203, .T. ) ;
#455 = FACE_OUTER_BOUND ( 'NONE', #50, .T. ) ;
#456 = LINE ( 'NONE', #48, #560 ) ;
#457 = EDGE_LOOP ( 'NONE', ( #603, #906, #1011, #133 ) ) ;
#458 = EDGE_LOOP ( 'NONE', ( #799, #1305, #552, #211, #615, #520, #960 ) ) ;
#459 = CARTESIAN_POINT ( 'NONE',  ( -70.00000000006401990, 296.1489785983004026, 75.57548117200352067 ) ) ;
#460 = ORIENTED_EDGE ( 'NONE', *, *, #465, .F. ) ;
#461 = AXIS2_PLACEMENT_3D ( 'NONE', #371, #242, #674 ) ;
#462 = CARTESIAN_POINT ( 'NONE',  ( -85.00000000006401990, 296.1489785983014258, 75.57548117200346383 ) ) ;
#463 = LINE ( 'NONE', #1085, #922 ) ;
#464 = DIRECTION ( 'NONE',  ( -1.021800699607666729E-12, -0.9996573249755750235, 0.02617694830719378279 ) ) ;
#465 = EDGE_CURVE ( 'NONE', #1101, #880, #834, .T. ) ;
#466 = VERTEX_POINT ( 'NONE', #1159 ) ;
#467 = VECTOR ( 'NONE', #829, 1000.000000000000114 ) ;
#468 = LINE ( 'NONE', #1217, #13 ) ;
#469 = CARTESIAN_POINT ( 'NONE',  ( -100.0000000000640199, 295.9395630118438589, 67.57822257219886808 ) ) ;
#470 = ORIENTED_EDGE ( 'NONE', *, *, #1267, .T. ) ;
#471 = VERTEX_POINT ( 'NONE', #425 ) ;
#472 = DIRECTION ( 'NONE',  ( 0.000000000000000000, 0.02617694830719357116, 0.9996573249755751345 ) ) ;
#473 = DIRECTION ( 'NONE',  ( 0.000000000000000000, -0.9996573249755751345, 0.02617694830719357116 ) ) ;
#474 = DIRECTION ( 'NONE',  ( 1.000000000000000000, -1.021450710225573062E-12, 2.674165914813023962E-14 ) ) ;
#475 = VERTEX_POINT ( 'NONE', #562 ) ;
#476 = EDGE_CURVE ( 'NONE', #544, #379, #214, .T. ) ;
#477 = VECTOR ( 'NONE', #600, 1000.000000000000000 ) ;
#478 = LINE ( 'NONE', #1006, #940 ) ;
#479 = PLANE ( 'NONE',  #271 ) ;
#480 = EDGE_CURVE ( 'NONE', #1345, #1005, #8, .T. ) ;
#481 = ORIENTED_EDGE ( 'NONE', *, *, #1272, .F. ) ;
#482 = AXIS2_PLACEMENT_3D ( 'NONE', #957, #47, #524 ) ;
#483 = ORIENTED_EDGE ( 'NONE', *, *, #897, .T. ) ;
#484 = CARTESIAN_POINT ( 'NONE',  ( -85.00000000006401990, 296.1489785983014258, 75.57548117200346383 ) ) ;
#485 = VECTOR ( 'NONE', #175, 1000.000000000000114 ) ;
#486 = CARTESIAN_POINT ( 'NONE',  ( -108.5000000000599414, 297.1535692126732329, 37.53614892631479449 ) ) ;
#487 = ORIENTED_EDGE ( 'NONE', *, *, #953, .F. ) ;
#488 = VECTOR ( 'NONE', #1003, 1000.000000000000114 ) ;
#489 = LINE ( 'NONE', #939, #1246 ) ;
#490 = CARTESIAN_POINT ( 'NONE',  ( -110.9000000000517616, 305.2817125540162237, 42.32501996473503425 ) ) ;
#491 = EDGE_LOOP ( 'NONE', ( #1031, #563, #845, #654 ) ) ;
#492 = CARTESIAN_POINT ( 'NONE',  ( -12.50000000005377387, 302.9682745242782289, 30.38148596164514004 ) ) ;
#493 = ADVANCED_FACE ( 'NONE', ( #51 ), #157, .F. ) ;
#494 = CARTESIAN_POINT ( 'NONE',  ( -110.9000000000517616, 305.9361362616961060, 67.31645308912442260 ) ) ;
#495 = DIRECTION ( 'NONE',  ( 1.021800699607666325E-12, 0.9996573249755751345, -0.02617694830719357116 ) ) ;
#496 = VECTOR ( 'NONE', #1224, 1000.000000000000114 ) ;
#497 = LINE ( 'NONE', #623, #167 ) ;
#498 = ORIENTED_EDGE ( 'NONE', *, *, #283, .T. ) ;
#499 = CARTESIAN_POINT ( 'NONE',  ( -70.00000000006401990, 294.9399056868672915, 67.60439952050606394 ) ) ;
#500 = EDGE_CURVE ( 'NONE', #435, #27, #359, .T. ) ;
#501 = PLANE ( 'NONE',  #1010 ) ;
#502 = EDGE_CURVE ( 'NONE', #466, #753, #985, .T. ) ;
#503 = SURFACE_SIDE_STYLE ('',( #1147 ) ) ;
#504 = ORIENTED_EDGE ( 'NONE', *, *, #638, .T. ) ;
#505 = VERTEX_POINT ( 'NONE', #1197 ) ;
#506 = LINE ( 'NONE', #108, #452 ) ;
#507 = CARTESIAN_POINT ( 'NONE',  ( -12.50000000005172041, 305.9361362615955500, 67.31645308912715109 ) ) ;
#508 = AXIS2_PLACEMENT_3D ( 'NONE', #44, #1292, #367 ) ;
#509 = LINE ( 'NONE', #3, #998 ) ;
#510 = VERTEX_POINT ( 'NONE', #268 ) ;
#511 = LINE ( 'NONE', #5, #1084 ) ;
#512 = CARTESIAN_POINT ( 'NONE',  ( -112.5000000000517559, 314.8362986861434933, 407.1999435808199337 ) ) ;
#513 = CARTESIAN_POINT ( 'NONE',  ( -16.50000000006399148, 293.1549399126769231, 37.64085671954603640 ) ) ;
#514 = EDGE_CURVE ( 'NONE', #1077, #1312, #1190, .T. ) ;
#515 = UNCERTAINTY_MEASURE_WITH_UNIT (LENGTH_MEASURE( 1.000000000000000082E-05 ), #189, 'distance_accuracy_value', 'NONE');
#516 = FACE_BOUND ( 'NONE', #865, .T. ) ;
#517 = VECTOR ( 'NONE', #381, 1000.000000000000000 ) ;
#518 = PLANE ( 'NONE',  #1162 ) ;
#519 = ORIENTED_EDGE ( 'NONE', *, *, #1238, .T. ) ;
#520 = ORIENTED_EDGE ( 'NONE', *, *, #101, .T. ) ;
#521 = DIRECTION ( 'NONE',  ( 1.000000000000000000, -1.021450554027971310E-12, 2.674762409388411425E-14 ) ) ;
#522 = EDGE_CURVE ( 'NONE', #505, #790, #506, .T. ) ;
#523 = FACE_OUTER_BOUND ( 'NONE', #310, .T. ) ;
#524 = DIRECTION ( 'NONE',  ( -1.000000000000000000, 1.021450554027971310E-12, -2.674762409388411425E-14 ) ) ;
#525 = DIRECTION ( 'NONE',  ( -1.219415011955795997E-28, 0.02617694830719345320, 0.9996573249755751345 ) ) ;
#526 = CARTESIAN_POINT ( 'NONE',  ( -12.50000000005377387, 302.8897436793566840, 27.38251398671842551 ) ) ;
#527 = ORIENTED_EDGE ( 'NONE', *, *, #1340, .T. ) ;
#528 = ORIENTED_EDGE ( 'NONE', *, *, #997, .T. ) ;
#529 = CARTESIAN_POINT ( 'NONE',  ( -14.09999999993789821, 416.6435385561964608, 39.40890792331624937 ) ) ;
#530 = PRODUCT_CONTEXT ( 'NONE', #1018, 'mechanical' ) ;
#531 = CARTESIAN_POINT ( 'NONE',  ( -12.50000000005377387, 302.9682745242782289, 30.38148596164514004 ) ) ;
#532 = DIRECTION ( 'NONE',  ( 1.000000000000000000, -1.021450554027971310E-12, 2.674762409388411425E-14 ) ) ;
#533 = FACE_OUTER_BOUND ( 'NONE', #1221, .T. ) ;
#534 = ORIENTED_EDGE ( 'NONE', *, *, #1034, .F. ) ;
#535 = ORIENTED_EDGE ( 'NONE', *, *, #1300, .F. ) ;
#536 = CARTESIAN_POINT ( 'NONE',  ( -108.5000000000538023, 302.9944514726835223, 31.38114328661817254 ) ) ;
#537 = ADVANCED_FACE ( 'NONE', ( #827 ), #1247, .F. ) ;
#538 = EDGE_LOOP ( 'NONE', ( #1059, #1166, #792, #738 ) ) ;
#539 = EDGE_CURVE ( 'NONE', #1268, #1299, #321, .T. ) ;
#540 = PLANE ( 'NONE',  #1322 ) ;
#541 = CARTESIAN_POINT ( 'NONE',  ( -85.00000000006401990, 296.1489785983014258, 75.57548117200346383 ) ) ;
#542 = DIRECTION ( 'NONE',  ( 1.000000000000000000, -1.021450554027970906E-12, 2.674762409388410479E-14 ) ) ;
#543 = VERTEX_POINT ( 'NONE', #223 ) ;
#544 = VERTEX_POINT ( 'NONE', #1048 ) ;
#545 = VECTOR ( 'NONE', #692, 1000.000000000000114 ) ;
#546 = CIRCLE ( 'NONE', #1317, 4.000000000000000000 ) ;
#547 = ORIENTED_EDGE ( 'NONE', *, *, #911, .T. ) ;
#548 = DIRECTION ( 'NONE',  ( -1.021800699607666729E-12, -0.9996573249755751345, 0.02617694830719344626 ) ) ;
#549 = CARTESIAN_POINT ( 'NONE',  ( -14.10000000005172360, 305.2031817089957144, 39.32604798981087413 ) ) ;
#550 = VECTOR ( 'NONE', #240, 1000.000000000000114 ) ;
#551 = LINE ( 'NONE', #450, #820 ) ;
#552 = ORIENTED_EDGE ( 'NONE', *, *, #388, .T. ) ;
#553 = VECTOR ( 'NONE', #626, 1000.000000000000000 ) ;
#554 = ORIENTED_EDGE ( 'NONE', *, *, #302, .F. ) ;
#555 = EDGE_CURVE ( 'NONE', #1019, #1016, #115, .T. ) ;
#556 = CARTESIAN_POINT ( 'NONE',  ( -100.0000000000640199, 296.1489785983014258, 75.57548117200346383 ) ) ;
#557 = DIRECTION ( 'NONE',  ( 0.000000000000000000, -0.02617694830719357116, -0.9996573249755751345 ) ) ;
#558 = CARTESIAN_POINT ( 'NONE',  ( -70.00000000006401990, 296.1489785983004026, 75.57548117200352067 ) ) ;
#559 = ORIENTED_EDGE ( 'NONE', *, *, #389, .F. ) ;
#560 = VECTOR ( 'NONE', #557, 1000.000000000000114 ) ;
#561 = VECTOR ( 'NONE', #1108, 1000.000000000000114 ) ;
#562 = CARTESIAN_POINT ( 'NONE',  ( -109.5000000000609504, 296.9392203369144454, 67.55204562388917111 ) ) ;
#563 = ORIENTED_EDGE ( 'NONE', *, *, #1116, .F. ) ;
#564 = DIRECTION ( 'NONE',  ( 0.000000000000000000, 0.02617694830719357116, 0.9996573249755751345 ) ) ;
#565 = EDGE_CURVE ( 'NONE', #27, #1019, #351, .T. ) ;
#566 = CYLINDRICAL_SURFACE ( 'NONE', #572, 4.000000000000000000 ) ;
#567 = CARTESIAN_POINT ( 'NONE',  ( -40.00000000006402701, 296.1489785983014258, 75.57548117200346383 ) ) ;
#568 = LINE ( 'NONE', #888, #612 ) ;
#569 = ORIENTED_EDGE ( 'NONE', *, *, #121, .T. ) ;
#570 = ADVANCED_FACE ( 'NONE', ( #747 ), #1158, .F. ) ;
#571 = ORIENTED_EDGE ( 'NONE', *, *, #671, .F. ) ;
#572 = AXIS2_PLACEMENT_3D ( 'NONE', #1066, #988, #774 ) ;
#573 = CARTESIAN_POINT ( 'NONE',  ( -16.49999999994035349, 413.8517067516496013, 24.47687272461984520 ) ) ;
#574 = CARTESIAN_POINT ( 'NONE',  ( -85.00000000006401990, 296.1489785983014258, 75.57548117200346383 ) ) ;
#575 = ORIENTED_EDGE ( 'NONE', *, *, #911, .F. ) ;
#576 = ORIENTED_EDGE ( 'NONE', *, *, #1174, .T. ) ;
#577 = CARTESIAN_POINT ( 'NONE',  ( -12.49999999993625721, 417.9550438447765828, 28.37079423129346267 ) ) ;
#578 = CARTESIAN_POINT ( 'NONE',  ( -55.00000000006402701, 294.9399056868672915, 67.60439952050606394 ) ) ;
#579 = ADVANCED_FACE ( 'NONE', ( #857 ), #651, .F. ) ;
#580 = ORIENTED_EDGE ( 'NONE', *, *, #420, .T. ) ;
#581 = CARTESIAN_POINT ( 'NONE',  ( -14.09999999993789821, 416.5650077112748590, 36.40993594838953840 ) ) ;
#582 = EDGE_CURVE ( 'NONE', #1259, #783, #784, .T. ) ;
#583 =( BOUNDED_CURVE ( )  B_SPLINE_CURVE ( 3, ( #1132, #1236, #301, #413 ),
 .UNSPECIFIED., .F., .T. ) 
 B_SPLINE_CURVE_WITH_KNOTS ( ( 4, 4 ),
 ( 0.000000000000000000, 1.570796326794890785 ),
 .UNSPECIFIED. ) 
 CURVE ( )  GEOMETRIC_REPRESENTATION_ITEM ( )  RATIONAL_B_SPLINE_CURVE ( ( 1.000000000000000000, 0.8047378541243663808, 0.8047378541243663808, 1.000000000000000000 ) ) 
 REPRESENTATION_ITEM ( '' )  );
#584 = FACE_OUTER_BOUND ( 'NONE', #1319, .T. ) ;
#585 = ORIENTED_EDGE ( 'NONE', *, *, #1238, .F. ) ;
#586 = AXIS2_PLACEMENT_3D ( 'NONE', #67, #1326, #473 ) ;
#587 = CARTESIAN_POINT ( 'NONE',  ( -14.15685424943035642, 416.1940495646275622, 24.41553631943264691 ) ) ;
#588 = DIRECTION ( 'NONE',  ( -1.000000000000000000, 1.156086019711538114E-16, -3.027317783861336537E-18 ) ) ;
#589 = EDGE_LOOP ( 'NONE', ( #219, #881, #785, #1052, #1045, #438, #778, #944, #1210, #986, #416, #229, #1258, #1060 ) ) ;
#590 = VECTOR ( 'NONE', #285, 1000.000000000000114 ) ;
#591 = ORIENTED_EDGE ( 'NONE', *, *, #1340, .F. ) ;
#592 = VECTOR ( 'NONE', #521, 1000.000000000000000 ) ;
#593 = DIRECTION ( 'NONE',  ( 1.000000000000000000, -1.026956297778268790E-12, 2.602085213965208433E-14 ) ) ;
#594 = DIRECTION ( 'NONE',  ( 0.000000000000000000, -0.02617694830719357116, -0.9996573249755751345 ) ) ;
#595 = VERTEX_POINT ( 'NONE', #1120 ) ;
#596 = EDGE_CURVE ( 'NONE', #668, #138, #1306, .T. ) ;
#597 = ORIENTED_EDGE ( 'NONE', *, *, #149, .T. ) ;
#598 =( GEOMETRIC_REPRESENTATION_CONTEXT ( 3 ) GLOBAL_UNCERTAINTY_ASSIGNED_CONTEXT ( ( #440 ) ) GLOBAL_UNIT_ASSIGNED_CONTEXT ( ( #635, #1055, #439 ) ) REPRESENTATION_CONTEXT ( 'NONE', 'WORKASPACE' ) );
#599 = VECTOR ( 'NONE', #495, 1000.000000000000114 ) ;
#600 = DIRECTION ( 'NONE',  ( -1.000000000000000000, -1.156086019711537867E-16, 3.027317783861335767E-18 ) ) ;
#601 = LINE ( 'NONE', #1023, #965 ) ;
#602 = EDGE_CURVE ( 'NONE', #353, #471, #683, .T. ) ;
#603 = ORIENTED_EDGE ( 'NONE', *, *, #222, .T. ) ;
#604 = LINE ( 'NONE', #311, #592 ) ;
#605 = EDGE_CURVE ( 'NONE', #908, #325, #1004, .T. ) ;
#606 = DIRECTION ( 'NONE',  ( 0.000000000000000000, -0.9996573249755751345, 0.02617694830719357116 ) ) ;
#607 = VECTOR ( 'NONE', #525, 1000.000000000000114 ) ;
#608 = CARTESIAN_POINT ( 'NONE',  ( -112.5000000000517559, 305.9361362616976976, 67.31645308912436576 ) ) ;
#609 = ORIENTED_EDGE ( 'NONE', *, *, #514, .T. ) ;
#610 = ORIENTED_EDGE ( 'NONE', *, *, #1337, .F. ) ;
#611 = CARTESIAN_POINT ( 'NONE',  ( -70.00000000006401990, 296.1489785983004026, 75.57548117200352067 ) ) ;
#612 = VECTOR ( 'NONE', #472, 1000.000000000000114 ) ;
#613 = DIRECTION ( 'NONE',  ( 1.000000000000000000, -1.021450554027971310E-12, 2.674762409388411425E-14 ) ) ;
#614 = CARTESIAN_POINT ( 'NONE',  ( -12.50000000005377387, 303.9368216116444046, 67.36880698574142912 ) ) ;
#615 = ORIENTED_EDGE ( 'NONE', *, *, #368, .T. ) ;
#616 = ORIENTED_EDGE ( 'NONE', *, *, #1034, .T. ) ;
#617 = PLANE ( 'NONE',  #213 ) ;
#618 = EDGE_CURVE ( 'NONE', #90, #662, #1009, .T. ) ;
#619 = DIRECTION ( 'NONE',  ( -5.966990492368452448E-18, -0.02617694830719345320, -0.9996573249755751345 ) ) ;
#620 = FACE_OUTER_BOUND ( 'NONE', #1266, .T. ) ;
#621 = AXIS2_PLACEMENT_3D ( 'NONE', #874, #669, #954 ) ;
#622 = EDGE_CURVE ( 'NONE', #1173, #1157, #732, .T. ) ;
#623 = CARTESIAN_POINT ( 'NONE',  ( -109.5000000000609504, 305.8393827613602411, 407.4355361155847390 ) ) ;
#624 = ORIENTED_EDGE ( 'NONE', *, *, #182, .T. ) ;
#625 = EDGE_LOOP ( 'NONE', ( #831, #1274, #30, #365 ) ) ;
#626 = DIRECTION ( 'NONE',  ( -1.000000000000000000, 1.021450554027971310E-12, -2.674762409388411425E-14 ) ) ;
#627 = CARTESIAN_POINT ( 'NONE',  ( -100.0000000000640199, 295.1493212733258247, 75.60165812031065968 ) ) ;
#628 = CARTESIAN_POINT ( 'NONE',  ( -14.10000000004867005, 308.2806845288440627, 42.24648911981604726 ) ) ;
#629 = PLANE ( 'NONE',  #280 ) ;
#630 = CARTESIAN_POINT ( 'NONE',  ( -70.00000000006401990, 295.9395630118428926, 67.57822257219892492 ) ) ;
#631 = ORIENTED_EDGE ( 'NONE', *, *, #222, .F. ) ;
#632 = ORIENTED_EDGE ( 'NONE', *, *, #87, .F. ) ;
#633 = FACE_OUTER_BOUND ( 'NONE', #1301, .T. ) ;
#634 = AXIS2_PLACEMENT_3D ( 'NONE', #1163, #871, #861 ) ;
#635 =( LENGTH_UNIT ( ) NAMED_UNIT ( * ) SI_UNIT ( .MILLI., .METRE. ) );
#636 = LINE ( 'NONE', #963, #905 ) ;
#637 = CARTESIAN_POINT ( 'NONE',  ( -108.4999999999403855, 413.8517067517436203, 24.47687272461734764 ) ) ;
#638 = EDGE_CURVE ( 'NONE', #325, #1345, #604, .T. ) ;
#639 = ORIENTED_EDGE ( 'NONE', *, *, #1337, .T. ) ;
#640 = ORIENTED_EDGE ( 'NONE', *, *, #2, .F. ) ;
#641 = VECTOR ( 'NONE', #298, 1000.000000000000114 ) ;
#642 = ADVANCED_FACE ( 'NONE', ( #106 ), #306, .T. ) ;
#643 = ORIENTED_EDGE ( 'NONE', *, *, #927, .T. ) ;
#644 = UNCERTAINTY_MEASURE_WITH_UNIT (LENGTH_MEASURE( 1.000000000000000082E-05 ), #414, 'distance_accuracy_value', 'NONE');
#645 = CARTESIAN_POINT ( 'NONE',  ( -15.50000000005377565, 303.1515131624316837, 37.37908723647409204 ) ) ;
#646 = DIRECTION ( 'NONE',  ( 1.000000000000000000, -1.021450554027971310E-12, 2.674762409388411425E-14 ) ) ;
#647 = VECTOR ( 'NONE', #1086, 1000.000000000000000 ) ;
#648 = VECTOR ( 'NONE', #805, 1000.000000000000114 ) ;
#649 = ORIENTED_EDGE ( 'NONE', *, *, #231, .F. ) ;
#650 = EDGE_LOOP ( 'NONE', ( #244, #483, #218, #1291, #1289, #1282, #547, #643 ) ) ;
#651 = PLANE ( 'NONE',  #318 ) ;
#652 = CARTESIAN_POINT ( 'NONE',  ( -109.5000000000609504, 296.1539118876986549, 37.56232587462194061 ) ) ;
#653 = ADVANCED_FACE ( 'NONE', ( #100 ), #617, .F. ) ;
#654 = ORIENTED_EDGE ( 'NONE', *, *, #797, .T. ) ;
#655 = PRESENTATION_STYLE_ASSIGNMENT (( #134 ) ) ;
#656 = DIRECTION ( 'NONE',  ( 1.021752127350341398E-12, 0.9996573249755751345, -0.02617694830719351218 ) ) ;
#657 = DIRECTION ( 'NONE',  ( 0.000000000000000000, 0.02617694830719357116, 0.9996573249755751345 ) ) ;
#658 = CARTESIAN_POINT ( 'NONE',  ( -14.09999999993789821, 416.5650077112748590, 36.40993594838953840 ) ) ;
#659 = DIRECTION ( 'NONE',  ( -1.000000000000000000, -1.156086019711538114E-16, 3.027317783861336537E-18 ) ) ;
#660 = VERTEX_POINT ( 'NONE', #826 ) ;
#661 = TOROIDAL_SURFACE ( 'NONE', #139, 6.000000000000005329, 4.000000000000000000 ) ;
#662 = VERTEX_POINT ( 'NONE', #920 ) ;
#663 = FACE_OUTER_BOUND ( 'NONE', #18, .T. ) ;
#664 = CARTESIAN_POINT ( 'NONE',  ( -108.5000000000640199, 302.8404107864325283, 407.5140669605063977 ) ) ;
#665 = AXIS2_PLACEMENT_3D ( 'NONE', #645, #441, #859 ) ;
#666 = CARTESIAN_POINT ( 'NONE',  ( -110.9000000000486921, 308.2806845289429702, 42.24648911981343247 ) ) ;
#667 = VERTEX_POINT ( 'NONE', #832 ) ;
#668 = VERTEX_POINT ( 'NONE', #1149 ) ;
#669 = DIRECTION ( 'NONE',  ( -1.021800699607666729E-12, -0.9996573249755751345, 0.02617694830719345320 ) ) ;
#670 = VECTOR ( 'NONE', #394, 1000.000000000000000 ) ;
#671 = EDGE_CURVE ( 'NONE', #753, #84, #925, .T. ) ;
#672 = ORIENTED_EDGE ( 'NONE', *, *, #605, .T. ) ;
#673 = LINE ( 'NONE', #1308, #1074 ) ;
#674 = DIRECTION ( 'NONE',  ( -1.021800699607666325E-12, -0.9996573249755751345, 0.02617694830719357116 ) ) ;
#675 = CARTESIAN_POINT ( 'NONE',  ( -12.50000000005989342, 297.1535692125751211, 37.53614892631734534 ) ) ;
#676 = VECTOR ( 'NONE', #63, 1000.000000000000114 ) ;
#677 = DIRECTION ( 'NONE',  ( -1.262632416324727922E-28, 0.02617694830719344626, 0.9996573249755751345 ) ) ;
#678 = CARTESIAN_POINT ( 'NONE',  ( -15.49999999993625899, 418.2429902761588210, 39.36702480602466636 ) ) ;
#679 = DIRECTION ( 'NONE',  ( -1.000000000000000000, 1.021450554027971310E-12, -2.674762409388411425E-14 ) ) ;
#680 = VERTEX_POINT ( 'NONE', #295 ) ;
#681 = LINE ( 'NONE', #1098, #545 ) ;
#682 = PLANE ( 'NONE',  #392 ) ;
#683 = LINE ( 'NONE', #170, #485 ) ;
#684 = ORIENTED_EDGE ( 'NONE', *, *, #1255, .F. ) ;
#685 = VECTOR ( 'NONE', #74, 1000.000000000000114 ) ;
#686 = PLANE ( 'NONE',  #900 ) ;
#687 = DIRECTION ( 'NONE',  ( 1.000000000000000000, -1.026956297778268790E-12, 2.775557561562888827E-14 ) ) ;
#688 = EDGE_CURVE ( 'NONE', #1165, #1199, #1144, .T. ) ;
#689 = ORIENTED_EDGE ( 'NONE', *, *, #502, .F. ) ;
#690 = EDGE_CURVE ( 'NONE', #936, #1165, #511, .T. ) ;
#691 = ORIENTED_EDGE ( 'NONE', *, *, #522, .F. ) ;
#692 = DIRECTION ( 'NONE',  ( -1.219415011955795997E-28, 0.02617694830719345320, 0.9996573249755751345 ) ) ;
#693 = DIRECTION ( 'NONE',  ( 1.262632416324727922E-28, -0.02617694830719344626, -0.9996573249755751345 ) ) ;
#694 = VECTOR ( 'NONE', #1096, 1000.000000000000114 ) ;
#695 = ORIENTED_EDGE ( 'NONE', *, *, #1228, .F. ) ;
#696 = ORIENTED_EDGE ( 'NONE', *, *, #1302, .T. ) ;
#697 = DIRECTION ( 'NONE',  ( 1.000000000000000000, 0.000000000000000000, 0.000000000000000000 ) ) ;
#698 = CARTESIAN_POINT ( 'NONE',  ( -40.00000000006402701, 295.9395630118438589, 67.57822257219886808 ) ) ;
#699 = ORIENTED_EDGE ( 'NONE', *, *, #132, .T. ) ;
#700 = ADVANCED_FACE ( 'NONE', ( #819 ), #1336, .F. ) ;
#701 = DIRECTION ( 'NONE',  ( 1.021800699607666931E-12, 0.9996573249755751345, -0.02617694830719357116 ) ) ;
#702 = EDGE_CURVE ( 'NONE', #138, #680, #1346, .T. ) ;
#703 = CARTESIAN_POINT ( 'NONE',  ( -110.8999999999379185, 416.5650077113737098, 36.40993594838693070 ) ) ;
#704 = DIRECTION ( 'NONE',  ( -1.000000000000000000, 0.000000000000000000, 0.000000000000000000 ) ) ;
#705 = ORIENTED_EDGE ( 'NONE', *, *, #19, .T. ) ;
#706 = ORIENTED_EDGE ( 'NONE', *, *, #702, .T. ) ;
#707 = LINE ( 'NONE', #1233, #424 ) ;
#708 = VERTEX_POINT ( 'NONE', #1126 ) ;
#709 = EDGE_CURVE ( 'NONE', #1077, #243, #707, .T. ) ;
#710 = DIRECTION ( 'NONE',  ( 1.000000000000000000, -1.021450554027971310E-12, 2.674762409388411425E-14 ) ) ;
#711 = DIRECTION ( 'NONE',  ( -1.021800699607666325E-12, -0.9996573249755751345, 0.02617694830719357116 ) ) ;
#712 = EDGE_CURVE ( 'NONE', #1265, #195, #714, .T. ) ;
#713 = ORIENTED_EDGE ( 'NONE', *, *, #555, .T. ) ;
#714 = LINE ( 'NONE', #1245, #1324 ) ;
#715 = PRESENTATION_LAYER_ASSIGNMENT (  '', '', ( #269 ) ) ;
#716 = LINE ( 'NONE', #1333, #821 ) ;
#717 = DIRECTION ( 'NONE',  ( 0.000000000000000000, -0.02617694830719357116, -0.9996573249755751345 ) ) ;
#718 = ORIENTED_EDGE ( 'NONE', *, *, #327, .T. ) ;
#719 = DIRECTION ( 'NONE',  ( 1.000000000000000000, -1.021450554027970906E-12, 2.674762409388410479E-14 ) ) ;
#720 = DIRECTION ( 'NONE',  ( -1.000000000000000000, 1.021450554027971310E-12, -2.674762409388411741E-14 ) ) ;
#721 = VECTOR ( 'NONE', #606, 1000.000000000000114 ) ;
#722 = VECTOR ( 'NONE', #24, 1000.000000000000114 ) ;
#723 = FACE_OUTER_BOUND ( 'NONE', #589, .T. ) ;
#724 = EDGE_CURVE ( 'NONE', #1101, #1294, #1142, .T. ) ;
#725 = ORIENTED_EDGE ( 'NONE', *, *, #802, .F. ) ;
#726 = CARTESIAN_POINT ( 'NONE',  ( -100.0000000000640199, 295.1493212733258247, 75.60165812031065968 ) ) ;
#727 = AXIS2_PLACEMENT_3D ( 'NONE', #757, #773, #656 ) ;
#728 = LINE ( 'NONE', #307, #1316 ) ;
#729 = AXIS2_PLACEMENT_3D ( 'NONE', #400, #220, #815 ) ;
#730 = LINE ( 'NONE', #614, #599 ) ;
#731 = VERTEX_POINT ( 'NONE', #499 ) ;
#732 = LINE ( 'NONE', #300, #1015 ) ;
#733 = CARTESIAN_POINT ( 'NONE',  ( -12.50000000006398793, 293.1549399126728304, 37.64085671954614298 ) ) ;
#734 = VECTOR ( 'NONE', #864, 1000.000000000000114 ) ;
#735 = VECTOR ( 'NONE', #1315, 1000.000000000000114 ) ;
#736 = DIRECTION ( 'NONE',  ( 0.000000000000000000, -0.9996573249755751345, 0.02617694830719357116 ) ) ;
#737 = ORIENTED_EDGE ( 'NONE', *, *, #1332, .T. ) ;
#738 = ORIENTED_EDGE ( 'NONE', *, *, #974, .F. ) ;
#739 = DIRECTION ( 'NONE',  ( 1.000000000000000000, -1.021450554027971310E-12, 2.674762409388411425E-14 ) ) ;
#740 = EDGE_CURVE ( 'NONE', #181, #58, #1343, .T. ) ;
#741 = FILL_AREA_STYLE ('',( #1261 ) ) ;
#742 = FACE_OUTER_BOUND ( 'NONE', #745, .T. ) ;
#743 = DIRECTION ( 'NONE',  ( 0.000000000000000000, -0.02617694830719357116, -0.9996573249755751345 ) ) ;
#744 = LINE ( 'NONE', #26, #303 ) ;
#745 = EDGE_LOOP ( 'NONE', ( #369, #952, #296, #1080 ) ) ;
#746 = AXIS2_PLACEMENT_3D ( 'NONE', #886, #794, #1114 ) ;
#747 = FACE_OUTER_BOUND ( 'NONE', #340, .T. ) ;
#748 = ORIENTED_EDGE ( 'NONE', *, *, #81, .F. ) ;
#749 = ADVANCED_FACE ( 'NONE', ( #317 ), #406, .F. ) ;
#750 = DIRECTION ( 'NONE',  ( -1.000000000000000000, 1.021450554027971310E-12, -2.674762409388411425E-14 ) ) ;
#751 = CARTESIAN_POINT ( 'NONE',  ( -112.5000000000538023, 303.1515131625307617, 37.37908723647154119 ) ) ;
#752 = ORIENTED_EDGE ( 'NONE', *, *, #1027, .T. ) ;
#753 = VERTEX_POINT ( 'NONE', #611 ) ;
#754 = EDGE_CURVE ( 'NONE', #187, #471, #236, .T. ) ;
#755 = PRODUCT ( 'Top Cover 1', 'Top Cover 1', '', ( #530 ) ) ;
#756 = ORIENTED_EDGE ( 'NONE', *, *, #377, .T. ) ;
#757 = CARTESIAN_POINT ( 'NONE',  ( -12.50000000005377387, 303.1515131624286141, 37.37908723647420572 ) ) ;
#758 = CARTESIAN_POINT ( 'NONE',  ( -112.5000000000640199, 293.2072938093893413, 39.64017136949460252 ) ) ;
#759 = DIRECTION ( 'NONE',  ( -1.021800699607666325E-12, -0.9996573249755751345, 0.02617694830719357116 ) ) ;
#760 = CARTESIAN_POINT ( 'NONE',  ( -110.9000000000517616, 305.9361362616961060, 67.31645308912442260 ) ) ;
#761 = ORIENTED_EDGE ( 'NONE', *, *, #823, .F. ) ;
#762 = EDGE_LOOP ( 'NONE', ( #919, #1196, #884, #804 ) ) ;
#763 = FACE_OUTER_BOUND ( 'NONE', #1067, .T. ) ;
#764 = CARTESIAN_POINT ( 'NONE',  ( -16.50000000005989875, 297.9388776617950612, 67.52586867558446215 ) ) ;
#765 = FACE_OUTER_BOUND ( 'NONE', #913, .T. ) ;
#766 = ORIENTED_EDGE ( 'NONE', *, *, #169, .T. ) ;
#767 = CARTESIAN_POINT ( 'NONE',  ( -100.0000000000640199, 295.9395630118438589, 67.57822257219886808 ) ) ;
#768 = ADVANCED_FACE ( 'NONE', ( #633 ), #847, .T. ) ;
#769 = AXIS2_PLACEMENT_3D ( 'NONE', #1118, #903, #1091 ) ;
#770 = DIRECTION ( 'NONE',  ( -1.021800699607666325E-12, -0.9996573249755751345, 0.02617694830719357116 ) ) ;
#771 = EDGE_LOOP ( 'NONE', ( #460, #1122, #1148, #358 ) ) ;
#772 = EDGE_CURVE ( 'NONE', #1268, #58, #1338, .T. ) ;
#773 = DIRECTION ( 'NONE',  ( -1.000000000000000000, 1.021450554027971310E-12, -2.674762409388411425E-14 ) ) ;
#774 = DIRECTION ( 'NONE',  ( -1.000000000000000000, 1.026956297778269800E-12, -2.602085213965210642E-14 ) ) ;
#775 = DIRECTION ( 'NONE',  ( -1.000000000000000000, 1.026956297778268790E-12, -2.602085213965208433E-14 ) ) ;
#776 = ORIENTED_EDGE ( 'NONE', *, *, #1134, .F. ) ;
#777 = DIRECTION ( 'NONE',  ( -1.000000000000000000, -1.156086019711537867E-16, 3.027317783861335767E-18 ) ) ;
#778 = ORIENTED_EDGE ( 'NONE', *, *, #1151, .F. ) ;
#779 = LINE ( 'NONE', #1200, #517 ) ;
#780 =( BOUNDED_CURVE ( )  B_SPLINE_CURVE ( 3, ( #573, #587, #73, #577 ),
 .UNSPECIFIED., .F., .T. ) 
 B_SPLINE_CURVE_WITH_KNOTS ( ( 4, 4 ),
 ( 1.570796326794893671, 3.141592653589788231 ),
 .UNSPECIFIED. ) 
 CURVE ( )  GEOMETRIC_REPRESENTATION_ITEM ( )  RATIONAL_B_SPLINE_CURVE ( ( 1.000000000000000000, 0.8047378541243654926, 0.8047378541243654926, 1.000000000000000000 ) ) 
 REPRESENTATION_ITEM ( '' )  );
#781 = CARTESIAN_POINT ( 'NONE',  ( -112.4999999999362927, 417.9550438448787304, 28.37079423129079814 ) ) ;
#782 = STYLED_ITEM ( 'NONE', ( #1043 ), #208 ) ;
#783 = VERTEX_POINT ( 'NONE', #312 ) ;
#784 = LINE ( 'NONE', #164, #798 ) ;
#785 = ORIENTED_EDGE ( 'NONE', *, *, #688, .T. ) ;
#786 = EDGE_CURVE ( 'NONE', #336, #783, #320, .T. ) ;
#787 = LINE ( 'NONE', #793, #590 ) ;
#788 = FACE_OUTER_BOUND ( 'NONE', #361, .T. ) ;
#789 = PRODUCT_DEFINITION ( 'UNKNOWN', '', #1201, #1071 ) ;
#790 = VERTEX_POINT ( 'NONE', #652 ) ;
#791 = VECTOR ( 'NONE', #935, 1000.000000000000000 ) ;
#792 = ORIENTED_EDGE ( 'NONE', *, *, #772, .F. ) ;
#793 = CARTESIAN_POINT ( 'NONE',  ( -55.00000000006402701, 295.1493212733248015, 75.60165812031065968 ) ) ;
#794 = DIRECTION ( 'NONE',  ( 0.000000000000000000, 0.02617694830719357116, 0.9996573249755751345 ) ) ;
#795 = DIRECTION ( 'NONE',  ( -1.021800699607666729E-12, -0.9996573249755751345, 0.02617694830719344626 ) ) ;
#796 = AXIS2_PLACEMENT_3D ( 'NONE', #556, #249, #258 ) ;
#797 = EDGE_CURVE ( 'NONE', #708, #731, #1036, .T. ) ;
#798 = VECTOR ( 'NONE', #180, 1000.000000000000000 ) ;
#799 = ORIENTED_EDGE ( 'NONE', *, *, #1193, .F. ) ;
#800 = CARTESIAN_POINT ( 'NONE',  ( -112.5000000000517559, 305.9361362616976976, 67.31645308912436576 ) ) ;
#801 = CARTESIAN_POINT ( 'NONE',  ( -15.49999999993932676, 414.9298949215457242, 27.44966775123936031 ) ) ;
#802 = EDGE_CURVE ( 'NONE', #475, #790, #497, .T. ) ;
#803 = AXIS2_PLACEMENT_3D ( 'NONE', #427, #126, #449 ) ;
#804 = ORIENTED_EDGE ( 'NONE', *, *, #1116, .T. ) ;
#805 = DIRECTION ( 'NONE',  ( -0.000000000000000000, 0.02617694830719357116, 0.9996573249755751345 ) ) ;
#806 = DIRECTION ( 'NONE',  ( 0.000000000000000000, -0.02617694830719357116, -0.9996573249755751345 ) ) ;
#807 = DIRECTION ( 'NONE',  ( -0.000000000000000000, 0.02617694830719357463, 0.9996573249755752455 ) ) ;
#808 = ADVANCED_FACE ( 'NONE', ( #817 ), #518, .F. ) ;
#809 = VERTEX_POINT ( 'NONE', #11 ) ;
#810 = CARTESIAN_POINT ( 'NONE',  ( -16.50000000006399148, 302.8404107863385661, 407.5140669605088419 ) ) ;
#811 = ADVANCED_FACE ( 'NONE', ( #421 ), #837, .T. ) ;
#812 = AXIS2_PLACEMENT_3D ( 'NONE', #536, #341, #593 ) ;
#813 = CARTESIAN_POINT ( 'NONE',  ( -16.50000000005377743, 302.8897436793607199, 27.38251398671831538 ) ) ;
#814 = VERTEX_POINT ( 'NONE', #145 ) ;
#815 = DIRECTION ( 'NONE',  ( 0.000000000000000000, 0.9996573249755751345, -0.02617694830719357116 ) ) ;
#816 = DIRECTION ( 'NONE',  ( -1.021800699607666325E-12, -0.9996573249755751345, 0.02617694830719357116 ) ) ;
#817 = FACE_OUTER_BOUND ( 'NONE', #105, .T. ) ;
#818 = ORIENTED_EDGE ( 'NONE', *, *, #253, .T. ) ;
#819 = FACE_OUTER_BOUND ( 'NONE', #130, .T. ) ;
#820 = VECTOR ( 'NONE', #1178, 1000.000000000000000 ) ;
#821 = VECTOR ( 'NONE', #917, 1000.000000000000114 ) ;
#822 = DIRECTION ( 'NONE',  ( 1.000000000000000000, -1.021450554027971310E-12, 2.674762409388411425E-14 ) ) ;
#823 = EDGE_CURVE ( 'NONE', #4, #1345, #162, .T. ) ;
#824 =( NAMED_UNIT ( * ) SI_UNIT ( $, .STERADIAN. ) SOLID_ANGLE_UNIT ( ) );
#825 = ORIENTED_EDGE ( 'NONE', *, *, #754, .F. ) ;
#826 = CARTESIAN_POINT ( 'NONE',  ( -16.49999999994035349, 413.8517067516496013, 24.47687272461984520 ) ) ;
#827 = FACE_OUTER_BOUND ( 'NONE', #263, .T. ) ;
#828 = CIRCLE ( 'NONE', #254, 4.000000000000000000 ) ;
#829 = DIRECTION ( 'NONE',  ( -1.262632416324727922E-28, 0.02617694830719344626, 0.9996573249755751345 ) ) ;
#830 = CARTESIAN_POINT ( 'NONE',  ( -70.00000000006401990, 295.1493212733248015, 75.60165812031065968 ) ) ;
#831 = ORIENTED_EDGE ( 'NONE', *, *, #1134, .T. ) ;
#832 = CARTESIAN_POINT ( 'NONE',  ( -55.00000000006402701, 295.9395630118428926, 67.57822257219892492 ) ) ;
#833 = CIRCLE ( 'NONE', #38, 10.00000000000003020 ) ;
#834 = LINE ( 'NONE', #453, #1327 ) ;
#835 = AXIS2_PLACEMENT_3D ( 'NONE', #930, #807, #1047 ) ;
#836 = CARTESIAN_POINT ( 'NONE',  ( -55.00000000006402701, 296.1489785983004026, 75.57548117200352067 ) ) ;
#837 = PLANE ( 'NONE',  #992 ) ;
#838 = ORIENTED_EDGE ( 'NONE', *, *, #368, .F. ) ;
#839 = DIRECTION ( 'NONE',  ( -1.000000000000000000, 0.000000000000000000, 0.000000000000000000 ) ) ;
#840 = DIRECTION ( 'NONE',  ( 1.000000000000000000, -1.022534384671450841E-12, 2.677600519810781643E-14 ) ) ;
#841 = ADVANCED_FACE ( 'NONE', ( #363 ), #1075, .T. ) ;
#842 = VECTOR ( 'NONE', #806, 1000.000000000000114 ) ;
#843 = CARTESIAN_POINT ( 'NONE',  ( -109.5000000000538023, 302.9682745243773070, 30.38148596164252879 ) ) ;
#844 = CARTESIAN_POINT ( 'NONE',  ( -25.00000000006402701, 296.1489785983014258, 75.57548117200346383 ) ) ;
#845 = ORIENTED_EDGE ( 'NONE', *, *, #403, .F. ) ;
#846 = ORIENTED_EDGE ( 'NONE', *, *, #373, .T. ) ;
#847 = CYLINDRICAL_SURFACE ( 'NONE', #812, 4.000000000000003553 ) ;
#848 = ADVANCED_FACE ( 'NONE', ( #35 ), #1171, .T. ) ;
#849 = ORIENTED_EDGE ( 'NONE', *, *, #192, .F. ) ;
#850 = CARTESIAN_POINT ( 'NONE',  ( -85.00000000006401990, 295.9395630118438589, 67.57822257219886808 ) ) ;
#851 = EDGE_CURVE ( 'NONE', #1016, #112, #1093, .T. ) ;
#852 = LINE ( 'NONE', #1270, #141 ) ;
#853 = DIRECTION ( 'NONE',  ( -1.000000000000000000, -0.000000000000000000, 0.000000000000000000 ) ) ;
#854 = DIRECTION ( 'NONE',  ( 1.000000000000000000, 0.000000000000000000, 0.000000000000000000 ) ) ;
#855 = ORIENTED_EDGE ( 'NONE', *, *, #388, .F. ) ;
#856 = VECTOR ( 'NONE', #128, 1000.000000000000000 ) ;
#857 = FACE_OUTER_BOUND ( 'NONE', #491, .T. ) ;
#858 = VERTEX_POINT ( 'NONE', #356 ) ;
#859 = DIRECTION ( 'NONE',  ( -1.021752127350341398E-12, -0.9996573249755751345, 0.02617694830719351218 ) ) ;
#860 = DIRECTION ( 'NONE',  ( -1.000000000000000000, 1.021450554027971310E-12, -2.674762409388411425E-14 ) ) ;
#861 = DIRECTION ( 'NONE',  ( 1.000000000000000000, -1.021450554027971310E-12, 2.674762409388411425E-14 ) ) ;
#862 = LINE ( 'NONE', #429, #245 ) ;
#863 = VERTEX_POINT ( 'NONE', #444 ) ;
#864 = DIRECTION ( 'NONE',  ( 0.000000000000000000, -0.02617694830719357116, -0.9996573249755751345 ) ) ;
#865 = EDGE_LOOP ( 'NONE', ( #1331, #684, #849, #374 ) ) ;
#866 = APPLICATION_PROTOCOL_DEFINITION ( 'draft international standard', 'automotive_design', 1998, #1105 ) ;
#867 = VECTOR ( 'NONE', #646, 1000.000000000000000 ) ;
#868 = DIRECTION ( 'NONE',  ( 1.262632416324727922E-28, -0.02617694830719344626, -0.9996573249755751345 ) ) ;
#869 = CARTESIAN_POINT ( 'NONE',  ( -70.00000000006401990, 295.1493212733248015, 75.60165812031065968 ) ) ;
#870 = ADVANCED_FACE ( 'NONE', ( #533 ), #566, .T. ) ;
#871 = DIRECTION ( 'NONE',  ( 1.021800699607666931E-12, 0.9996573249755751345, -0.02617694830719357116 ) ) ;
#872 = CARTESIAN_POINT ( 'NONE',  ( -110.8999999999379185, 416.5650077113737098, 36.40993594838693070 ) ) ;
#873 = ORIENTED_EDGE ( 'NONE', *, *, #203, .F. ) ;
#874 = CARTESIAN_POINT ( 'NONE',  ( -112.5000000000517559, 314.8362986861434933, 407.1999435808199337 ) ) ;
#875 = ADVANCED_FACE ( 'NONE', ( #25 ), #879, .F. ) ;
#876 = EDGE_LOOP ( 'NONE', ( #504, #761, #640, #672 ) ) ;
#877 = PLANE ( 'NONE',  #970 ) ;
#878 = CARTESIAN_POINT ( 'NONE',  ( -25.00000000006402701, 296.1489785983014258, 75.57548117200346383 ) ) ;
#879 = PLANE ( 'NONE',  #1029 ) ;
#880 = VERTEX_POINT ( 'NONE', #666 ) ;
#881 = ORIENTED_EDGE ( 'NONE', *, *, #132, .F. ) ;
#882 = LINE ( 'NONE', #366, #56 ) ;
#883 = CARTESIAN_POINT ( 'NONE',  ( -40.00000000006402701, 295.1493212733258247, 75.60165812031065968 ) ) ;
#884 = ORIENTED_EDGE ( 'NONE', *, *, #319, .F. ) ;
#885 = DIRECTION ( 'NONE',  ( 1.021800699607666325E-12, 0.9996573249755751345, -0.02617694830719357116 ) ) ;
#886 = CARTESIAN_POINT ( 'NONE',  ( 0.000000000000000000, 306.6453805105920196, 75.30062321477670650 ) ) ;
#887 = FACE_OUTER_BOUND ( 'NONE', #771, .T. ) ;
#888 = CARTESIAN_POINT ( 'NONE',  ( -15.49999999993932676, 414.8513640766241792, 24.45069577631264934 ) ) ;
#889 = CARTESIAN_POINT ( 'NONE',  ( -70.00000000006401990, 295.1493212733248015, 75.60165812031065968 ) ) ;
#890 = EDGE_CURVE ( 'NONE', #783, #908, #463, .T. ) ;
#891 = EDGE_LOOP ( 'NONE', ( #446, #1330, #37, #977 ) ) ;
#892 = FACE_OUTER_BOUND ( 'NONE', #1037, .T. ) ;
#893 = ADVANCED_FACE ( 'NONE', ( #346 ), #982, .T. ) ;
#894 = CARTESIAN_POINT ( 'NONE',  ( -12.50000000005989342, 297.9388776617909684, 67.52586867558457584 ) ) ;
#895 = ORIENTED_EDGE ( 'NONE', *, *, #618, .T. ) ;
#896 = CARTESIAN_POINT ( 'NONE',  ( -108.5000000000640199, 293.9402483619867326, 67.63057646881081553 ) ) ;
#897 = EDGE_CURVE ( 'NONE', #680, #336, #184, .T. ) ;
#898 = CARTESIAN_POINT ( 'NONE',  ( -112.5000000000538023, 303.9368216117465522, 67.36880698573877169 ) ) ;
#899 = DIRECTION ( 'NONE',  ( 1.000000000000000000, 0.000000000000000000, 0.000000000000000000 ) ) ;
#900 = AXIS2_PLACEMENT_3D ( 'NONE', #166, #1208, #1002 ) ;
#901 = VECTOR ( 'NONE', #117, 1000.000000000000114 ) ;
#902 = ORIENTED_EDGE ( 'NONE', *, *, #953, .T. ) ;
#903 = DIRECTION ( 'NONE',  ( 1.000000000000000000, -1.021450554027971310E-12, 2.674762409388411425E-14 ) ) ;
#904 = CYLINDRICAL_SURFACE ( 'NONE', #198, 4.000000000000003553 ) ;
#905 = VECTOR ( 'NONE', #1269, 1000.000000000000114 ) ;
#906 = ORIENTED_EDGE ( 'NONE', *, *, #403, .T. ) ;
#907 = VECTOR ( 'NONE', #1180, 1000.000000000000114 ) ;
#908 = VERTEX_POINT ( 'NONE', #703 ) ;
#909 = DIRECTION ( 'NONE',  ( 1.000000000000000000, -1.021450554027971310E-12, 2.674762409388411741E-14 ) ) ;
#910 = CARTESIAN_POINT ( 'NONE',  ( -112.5000000000517559, 305.2031817090962704, 39.32604798980826644 ) ) ;
#911 = EDGE_CURVE ( 'NONE', #299, #195, #934, .T. ) ;
#912 = VECTOR ( 'NONE', #736, 1000.000000000000114 ) ;
#913 = EDGE_LOOP ( 'NONE', ( #59, #571, #689, #624 ) ) ;
#914 = VECTOR ( 'NONE', #1323, 1000.000000000000114 ) ;
#915 = ADVANCED_FACE ( 'NONE', ( #225 ), #629, .F. ) ;
#916 = ORIENTED_EDGE ( 'NONE', *, *, #389, .T. ) ;
#917 = DIRECTION ( 'NONE',  ( 0.000000000000000000, -0.02617694830719357116, -0.9996573249755751345 ) ) ;
#918 =( NAMED_UNIT ( * ) PLANE_ANGLE_UNIT ( ) SI_UNIT ( $, .RADIAN. ) );
#919 = ORIENTED_EDGE ( 'NONE', *, *, #192, .T. ) ;
#920 = CARTESIAN_POINT ( 'NONE',  ( -109.4999999999393481, 414.9298949216417896, 27.44966775123686276 ) ) ;
#921 = CARTESIAN_POINT ( 'NONE',  ( -12.50000000006398793, 302.8404107863344734, 407.5140669605089556 ) ) ;
#922 = VECTOR ( 'NONE', #1280, 1000.000000000000114 ) ;
#923 = SURFACE_STYLE_USAGE ( .BOTH. , #503 ) ;
#924 = EDGE_LOOP ( 'NONE', ( #270, #72, #569, #895 ) ) ;
#925 = LINE ( 'NONE', #1130, #1254 ) ;
#926 = EDGE_CURVE ( 'NONE', #999, #595, #33, .T. ) ;
#927 = EDGE_CURVE ( 'NONE', #195, #1181, #1007, .T. ) ;
#928 = DIRECTION ( 'NONE',  ( 0.000000000000000000, 0.9996573249755751345, -0.02617694830719357116 ) ) ;
#929 = EDGE_LOOP ( 'NONE', ( #150, #447, #423, #725 ) ) ;
#930 = CARTESIAN_POINT ( 'NONE',  ( -108.5000000000599272, 297.9388776618889665, 67.52586867558201789 ) ) ;
#931 = CIRCLE ( 'NONE', #1284, 6.999999999999986677 ) ;
#932 = DIRECTION ( 'NONE',  ( -1.000000000000000000, 1.021450554027971310E-12, -2.674762409388411425E-14 ) ) ;
#933 = LINE ( 'NONE', #1017, #76 ) ;
#934 = LINE ( 'NONE', #431, #335 ) ;
#935 = DIRECTION ( 'NONE',  ( 1.000000000000000000, -1.021450554027971310E-12, 2.674762409388411741E-14 ) ) ;
#936 = VERTEX_POINT ( 'NONE', #1107 ) ;
#937 = DIRECTION ( 'NONE',  ( -1.000000000000000000, 1.021450554027971310E-12, -2.674762409388411425E-14 ) ) ;
#938 = DIRECTION ( 'NONE',  ( -1.021800699607666729E-12, -0.9996573249755751345, 0.02617694830719345320 ) ) ;
#939 = CARTESIAN_POINT ( 'NONE',  ( -112.5000000000538023, 302.9944514726875582, 31.38114328661806240 ) ) ;
#940 = VECTOR ( 'NONE', #697, 1000.000000000000000 ) ;
#941 = LINE ( 'NONE', #630, #912 ) ;
#942 = ADVANCED_FACE ( 'NONE', ( #1042 ), #1223, .T. ) ;
#943 = DIRECTION ( 'NONE',  ( -1.000000000000000000, 1.021450554027971310E-12, -2.674762409388411425E-14 ) ) ;
#944 = ORIENTED_EDGE ( 'NONE', *, *, #272, .F. ) ;
#945 = DIRECTION ( 'NONE',  ( -0.000000000000000000, 0.02617694830719357116, 0.9996573249755751345 ) ) ;
#946 = PRODUCT_RELATED_PRODUCT_CATEGORY ( 'part', '', ( #755 ) ) ;
#947 = DIRECTION ( 'NONE',  ( 1.000000000000000000, 0.000000000000000000, 0.000000000000000000 ) ) ;
#948 = DIRECTION ( 'NONE',  ( -1.000000000000000000, 1.021450554027971310E-12, -2.674762409388411425E-14 ) ) ;
#949 = LINE ( 'NONE', #869, #289 ) ;
#950 = EDGE_CURVE ( 'NONE', #1312, #595, #882, .T. ) ;
#951 = EDGE_LOOP ( 'NONE', ( #1285, #576, #316, #46 ) ) ;
#952 = ORIENTED_EDGE ( 'NONE', *, *, #596, .F. ) ;
#953 = EDGE_CURVE ( 'NONE', #90, #1077, #568, .T. ) ;
#954 = DIRECTION ( 'NONE',  ( 1.214069631081469234E-28, -0.02617694830719345320, -0.9996573249755751345 ) ) ;
#955 = SHAPE_DEFINITION_REPRESENTATION ( #1169, #174 ) ;
#956 = PRESENTATION_LAYER_ASSIGNMENT (  '', '', ( #782 ) ) ;
#957 = CARTESIAN_POINT ( 'NONE',  ( -12.49999999993932320, 414.8513640766211097, 24.45069577631275948 ) ) ;
#958 = CARTESIAN_POINT ( 'NONE',  ( -14.10000000004867005, 317.7933875436781932, 405.5219610159400077 ) ) ;
#959 = ORIENTED_EDGE ( 'NONE', *, *, #709, .T. ) ;
#960 = ORIENTED_EDGE ( 'NONE', *, *, #257, .T. ) ;
#961 = DIRECTION ( 'NONE',  ( 0.000000000000000000, 0.02617694830719357463, 0.9996573249755752455 ) ) ;
#962 = EDGE_LOOP ( 'NONE', ( #137, #825, #534, #776 ) ) ;
#963 = CARTESIAN_POINT ( 'NONE',  ( -15.50000000006092371, 305.8393827612642895, 407.4355361155872970 ) ) ;
#964 = CARTESIAN_POINT ( 'NONE',  ( -112.5000000000538023, 302.9944514726875582, 31.38114328661806240 ) ) ;
#965 = VECTOR ( 'NONE', #94, 1000.000000000000114 ) ;
#966 = LINE ( 'NONE', #872, #647 ) ;
#967 = ORIENTED_EDGE ( 'NONE', *, *, #177, .T. ) ;
#968 = EDGE_CURVE ( 'NONE', #1239, #1298, #107, .T. ) ;
#969 = ORIENTED_EDGE ( 'NONE', *, *, #275, .T. ) ;
#970 = AXIS2_PLACEMENT_3D ( 'NONE', #448, #548, #868 ) ;
#971 = CARTESIAN_POINT ( 'NONE',  ( -40.00000000006402701, 294.9399056868683147, 67.60439952050606394 ) ) ;
#972 = DIRECTION ( 'NONE',  ( -1.021008674432065537E-12, -0.9996573249755751345, 0.02617694830719351218 ) ) ;
#973 = AXIS2_PLACEMENT_3D ( 'NONE', #1293, #1079, #28 ) ;
#974 = EDGE_CURVE ( 'NONE', #255, #1268, #833, .T. ) ;
#975 = ORIENTED_EDGE ( 'NONE', *, *, #169, .F. ) ;
#976 = ORIENTED_EDGE ( 'NONE', *, *, #622, .F. ) ;
#977 = ORIENTED_EDGE ( 'NONE', *, *, #786, .F. ) ;
#978 = AXIS2_PLACEMENT_3D ( 'NONE', #512, #938, #1256 ) ;
#979 = DIRECTION ( 'NONE',  ( -1.021800699607666325E-12, -0.9996573249755751345, 0.02617694830719357116 ) ) ;
#980 = PLANE ( 'NONE',  #621 ) ;
#981 = VECTOR ( 'NONE', #1008, 1000.000000000000114 ) ;
#982 = PLANE ( 'NONE',  #746 ) ;
#983 = EDGE_LOOP ( 'NONE', ( #554, #591, #77, #1216 ) ) ;
#984 = ORIENTED_EDGE ( 'NONE', *, *, #851, .T. ) ;
#985 = LINE ( 'NONE', #459, #45 ) ;
#986 = ORIENTED_EDGE ( 'NONE', *, *, #926, .F. ) ;
#987 = PLANE ( 'NONE',  #586 ) ;
#988 = DIRECTION ( 'NONE',  ( -1.021800699607666527E-12, -0.9996573249755752455, 0.02617694830719357463 ) ) ;
#989 = LINE ( 'NONE', #1100, #561 ) ;
#990 = ADVANCED_FACE ( 'NONE', ( #455 ), #40, .F. ) ;
#991 = EDGE_LOOP ( 'NONE', ( #1325, #639, #718, #334 ) ) ;
#992 = AXIS2_PLACEMENT_3D ( 'NONE', #227, #542, #759 ) ;
#993 = ADVANCED_FACE ( 'NONE', ( #763 ), #877, .F. ) ;
#994 = ORIENTED_EDGE ( 'NONE', *, *, #514, .F. ) ;
#995 = DIRECTION ( 'NONE',  ( -1.214069631081469234E-28, 0.02617694830719345320, 0.9996573249755751345 ) ) ;
#996 = FACE_OUTER_BOUND ( 'NONE', #261, .T. ) ;
#997 = EDGE_CURVE ( 'NONE', #660, #255, #1262, .T. ) ;
#998 = VECTOR ( 'NONE', #711, 1000.000000000000114 ) ;
#999 = VERTEX_POINT ( 'NONE', #1050 ) ;
#1000 = EDGE_LOOP ( 'NONE', ( #1275, #54, #1232, #994, #487, #1111, #1124 ) ) ;
#1001 = EDGE_CURVE ( 'NONE', #1175, #863, #1277, .T. ) ;
#1002 = DIRECTION ( 'NONE',  ( 0.000000000000000000, 0.9996573249755751345, -0.02617694830719357116 ) ) ;
#1003 = DIRECTION ( 'NONE',  ( 1.021800699607666325E-12, 0.9996573249755751345, -0.02617694830719357116 ) ) ;
#1004 = LINE ( 'NONE', #287, #151 ) ;
#1005 = VERTEX_POINT ( 'NONE', #628 ) ;
#1006 = CARTESIAN_POINT ( 'NONE',  ( -100.0000000000640199, 294.9399056868683147, 67.60439952050606394 ) ) ;
#1007 = LINE ( 'NONE', #61, #685 ) ;
#1008 = DIRECTION ( 'NONE',  ( 1.021800699607666325E-12, 0.9996573249755751345, -0.02617694830719357116 ) ) ;
#1009 = LINE ( 'NONE', #91, #553 ) ;
#1010 = AXIS2_PLACEMENT_3D ( 'NONE', #921, #701, #613 ) ;
#1011 = ORIENTED_EDGE ( 'NONE', *, *, #319, .T. ) ;
#1012 = EDGE_CURVE ( 'NONE', #863, #662, #1168, .T. ) ;
#1013 = CARTESIAN_POINT ( 'NONE',  ( -109.5000000000538023, 303.9368216117434827, 67.36880698573882853 ) ) ;
#1014 = FACE_OUTER_BOUND ( 'NONE', #113, .T. ) ;
#1015 = VECTOR ( 'NONE', #194, 1000.000000000000000 ) ;
#1016 = VERTEX_POINT ( 'NONE', #971 ) ;
#1017 = CARTESIAN_POINT ( 'NONE',  ( -12.50000000006092016, 296.9392203368153673, 67.55204562389177170 ) ) ;
#1018 = APPLICATION_CONTEXT ( 'automotive_design' ) ;
#1019 = VERTEX_POINT ( 'NONE', #1183 ) ;
#1020 = AXIS2_PLACEMENT_3D ( 'NONE', #1094, #75, #1219 ) ;
#1021 = ORIENTED_EDGE ( 'NONE', *, *, #596, .T. ) ;
#1022 = CARTESIAN_POINT ( 'NONE',  ( -40.00000000006402701, 295.1493212733258247, 75.60165812031065968 ) ) ;
#1023 = CARTESIAN_POINT ( 'NONE',  ( -25.00000000006402701, 296.1489785983014258, 75.57548117200346383 ) ) ;
#1024 = ADVANCED_FACE ( 'NONE', ( #32 ), #329, .T. ) ;
#1025 = EDGE_LOOP ( 'NONE', ( #706, #1276, #695, #1021 ) ) ;
#1026 = DIRECTION ( 'NONE',  ( 1.214069631081469234E-28, -0.02617694830719345320, -0.9996573249755751345 ) ) ;
#1027 = EDGE_CURVE ( 'NONE', #58, #809, #80, .T. ) ;
#1028 = CARTESIAN_POINT ( 'NONE',  ( -70.00000000006401990, 295.9395630118428926, 67.57822257219892492 ) ) ;
#1029 = AXIS2_PLACEMENT_3D ( 'NONE', #434, #1186, #853 ) ;
#1030 = LINE ( 'NONE', #664, #204 ) ;
#1031 = ORIENTED_EDGE ( 'NONE', *, *, #29, .T. ) ;
#1032 = CARTESIAN_POINT ( 'NONE',  ( -112.4999999999362927, 417.8503360516500038, 24.37216493138849671 ) ) ;
#1033 = DIRECTION ( 'NONE',  ( -1.000000000000000000, 1.026956297778269800E-12, -2.602085213965210642E-14 ) ) ;
#1034 = EDGE_CURVE ( 'NONE', #1135, #187, #23, .T. ) ;
#1035 = LINE ( 'NONE', #294, #641 ) ;
#1036 = LINE ( 'NONE', #830, #230 ) ;
#1037 = EDGE_LOOP ( 'NONE', ( #766, #277, #282, #580 ) ) ;
#1038 = AXIS2_PLACEMENT_3D ( 'NONE', #883, #328, #947 ) ;
#1039 = ADVANCED_FACE ( 'NONE', ( #663 ), #362, .F. ) ;
#1040 = DIRECTION ( 'NONE',  ( -1.000000000000000000, 1.156086019711537867E-16, -3.027317783861335767E-18 ) ) ;
#1041 = DIRECTION ( 'NONE',  ( -1.021800699607666527E-12, -0.9996573249755752455, 0.02617694830719357463 ) ) ;
#1042 = FACE_OUTER_BOUND ( 'NONE', #983, .T. ) ;
#1043 = PRESENTATION_STYLE_ASSIGNMENT (( #923 ) ) ;
#1044 = DIRECTION ( 'NONE',  ( 0.000000000000000000, -0.02617694830719357116, -0.9996573249755751345 ) ) ;
#1045 = ORIENTED_EDGE ( 'NONE', *, *, #302, .T. ) ;
#1046 = VERTEX_POINT ( 'NONE', #1072 ) ;
#1047 = DIRECTION ( 'NONE',  ( 0.000000000000000000, 0.9996573249755752455, -0.02617694830719247134 ) ) ;
#1048 = CARTESIAN_POINT ( 'NONE',  ( -108.5000000000538023, 302.8897436794546820, 27.38251398671587111 ) ) ;
#1049 = EDGE_CURVE ( 'NONE', #595, #510, #1064, .T. ) ;
#1050 = CARTESIAN_POINT ( 'NONE',  ( -15.50000000006092371, 296.9392203368184369, 67.55204562389171485 ) ) ;
#1051 = CARTESIAN_POINT ( 'NONE',  ( -110.8999999999379185, 416.6435385562953115, 39.40890792331364167 ) ) ;
#1052 = ORIENTED_EDGE ( 'NONE', *, *, #19, .F. ) ;
#1053 = ORIENTED_EDGE ( 'NONE', *, *, #688, .F. ) ;
#1054 = CARTESIAN_POINT ( 'NONE',  ( -108.5000000000538023, 302.8897436794546820, 27.38251398671587111 ) ) ;
#1055 =( NAMED_UNIT ( * ) PLANE_ANGLE_UNIT ( ) SI_UNIT ( $, .RADIAN. ) );
#1056 = VECTOR ( 'NONE', #704, 1000.000000000000000 ) ;
#1057 = CARTESIAN_POINT ( 'NONE',  ( -12.50000000005377387, 303.1515131624286141, 37.37908723647420572 ) ) ;
#1058 = DIRECTION ( 'NONE',  ( -1.000000000000000000, 1.021450554027971310E-12, -2.674762409388411425E-14 ) ) ;
#1059 = ORIENTED_EDGE ( 'NONE', *, *, #1300, .T. ) ;
#1060 = ORIENTED_EDGE ( 'NONE', *, *, #53, .F. ) ;
#1061 = ORIENTED_EDGE ( 'NONE', *, *, #968, .F. ) ;
#1062 = DIRECTION ( 'NONE',  ( 1.000000000000000000, 0.000000000000000000, 0.000000000000000000 ) ) ;
#1063 = CLOSED_SHELL ( 'NONE', ( #188, #292, #493, #537, #915, #127, #118, #942, #69, #1283, #768, #870, #1069, #841, #749, #1024, #642, #1039, #848, #154, #811, #1090, #808, #237, #1318, #993, #1313, #437, #92, #570, #579, #1137, #6, #352, #990, #653, #345, #875, #893, #1198, #443, #700, #65, #409 ) ) ;
#1064 = LINE ( 'NONE', #426, #314 ) ;
#1065 = CARTESIAN_POINT ( 'NONE',  ( 0.000000000000000000, 306.6453805105920196, 75.30062321477670650 ) ) ;
#1066 = CARTESIAN_POINT ( 'NONE',  ( -16.50000000005377743, 302.9944514725895033, 31.38114328662061681 ) ) ;
#1067 = EDGE_LOOP ( 'NONE', ( #445, #1087, #235, #1244 ) ) ;
#1068 = ORIENTED_EDGE ( 'NONE', *, *, #602, .T. ) ;
#1069 = ADVANCED_FACE ( 'NONE', ( #742 ), #116, .T. ) ;
#1070 = ORIENTED_EDGE ( 'NONE', *, *, #618, .F. ) ;
#1071 = PRODUCT_DEFINITION_CONTEXT ( 'detailed design', #1105, 'design' ) ;
#1072 = CARTESIAN_POINT ( 'NONE',  ( -25.00000000006402701, 295.1493212733258247, 75.60165812031065968 ) ) ;
#1073 = CARTESIAN_POINT ( 'NONE',  ( -12.50000000005377387, 302.8897436793566840, 27.38251398671842551 ) ) ;
#1074 = VECTOR ( 'NONE', #995, 1000.000000000000000 ) ;
#1075 = PLANE ( 'NONE',  #461 ) ;
#1076 = ORIENTED_EDGE ( 'NONE', *, *, #81, .T. ) ;
#1077 = VERTEX_POINT ( 'NONE', #15 ) ;
#1078 = DIRECTION ( 'NONE',  ( -1.000000000000000000, 1.026956297778269800E-12, -2.602085213965210642E-14 ) ) ;
#1079 = DIRECTION ( 'NONE',  ( 1.000000000000000000, 0.000000000000000000, 0.000000000000000000 ) ) ;
#1080 = ORIENTED_EDGE ( 'NONE', *, *, #401, .F. ) ;
#1081 = VECTOR ( 'NONE', #750, 1000.000000000000000 ) ;
#1082 = DIRECTION ( 'NONE',  ( 1.021752127350339379E-12, 0.9996573249755752455, -0.02617694830719333871 ) ) ;
#1083 = DIRECTION ( 'NONE',  ( 0.000000000000000000, 0.9996573249755752455, -0.02617694830719247134 ) ) ;
#1084 = VECTOR ( 'NONE', #945, 1000.000000000000114 ) ;
#1085 = CARTESIAN_POINT ( 'NONE',  ( -110.9000000000517616, 305.2031817090946788, 39.32604798980832328 ) ) ;
#1086 = DIRECTION ( 'NONE',  ( 1.000000000000000000, -1.021450554027971310E-12, 2.674762409388411425E-14 ) ) ;
#1087 = ORIENTED_EDGE ( 'NONE', *, *, #1049, .T. ) ;
#1088 = CARTESIAN_POINT ( 'NONE',  ( -40.00000000006402701, 296.1489785983014258, 75.57548117200346383 ) ) ;
#1089 = ORIENTED_EDGE ( 'NONE', *, *, #622, .T. ) ;
#1090 = ADVANCED_FACE ( 'NONE', ( #135 ), #540, .F. ) ;
#1091 = DIRECTION ( 'NONE',  ( -1.021405182655141190E-12, -0.9996573249755751345, 0.02617694830719378626 ) ) ;
#1092 = AXIS2_PLACEMENT_3D ( 'NONE', #57, #286, #464 ) ;
#1093 = LINE ( 'NONE', #1288, #856 ) ;
#1094 = CARTESIAN_POINT ( 'NONE',  ( -112.5000000000538023, 303.1515131625307617, 37.37908723647154119 ) ) ;
#1095 = EDGE_CURVE ( 'NONE', #999, #505, #636, .T. ) ;
#1096 = DIRECTION ( 'NONE',  ( -1.021800699607666325E-12, -0.9996573249755751345, 0.02617694830719357116 ) ) ;
#1097 = ORIENTED_EDGE ( 'NONE', *, *, #851, .F. ) ;
#1098 = CARTESIAN_POINT ( 'NONE',  ( -14.10000000005172360, 314.7944155687514467, 405.6004918608616094 ) ) ;
#1099 = EDGE_CURVE ( 'NONE', #159, #880, #354, .T. ) ;
#1100 = CARTESIAN_POINT ( 'NONE',  ( -109.4999999999362927, 418.2429902762548295, 39.36702480602216525 ) ) ;
#1101 = VERTEX_POINT ( 'NONE', #152 ) ;
#1102 = EDGE_CURVE ( 'NONE', #505, #1175, #1253, .T. ) ;
#1103 = VECTOR ( 'NONE', #1273, 1000.000000000000114 ) ;
#1104 = ORIENTED_EDGE ( 'NONE', *, *, #712, .F. ) ;
#1105 = APPLICATION_CONTEXT ( 'automotive_design' ) ;
#1106 = CARTESIAN_POINT ( 'NONE',  ( -112.5000000000599272, 297.9388776618930592, 67.52586867558191841 ) ) ;
#1107 = CARTESIAN_POINT ( 'NONE',  ( -112.5000000000599272, 297.1535692126772688, 37.53614892631468081 ) ) ;
#1108 = DIRECTION ( 'NONE',  ( -1.021800699607666325E-12, -0.9996573249755751345, 0.02617694830719357116 ) ) ;
#1109 = ORIENTED_EDGE ( 'NONE', *, *, #1099, .F. ) ;
#1110 = CARTESIAN_POINT ( 'NONE',  ( -12.49999999993625721, 417.9550438447765828, 28.37079423129346267 ) ) ;
#1111 = ORIENTED_EDGE ( 'NONE', *, *, #121, .F. ) ;
#1112 = CARTESIAN_POINT ( 'NONE',  ( -100.0000000000640199, 295.1493212733258247, 75.60165812031065968 ) ) ;
#1113 = VECTOR ( 'NONE', #860, 1000.000000000000000 ) ;
#1114 = DIRECTION ( 'NONE',  ( 0.000000000000000000, -0.9996573249755751345, 0.02617694830719357116 ) ) ;
#1115 = DIRECTION ( 'NONE',  ( 0.000000000000000000, -0.02617694830719357463, -0.9996573249755752455 ) ) ;
#1116 = EDGE_CURVE ( 'NONE', #1226, #119, #787, .T. ) ;
#1117 = ORIENTED_EDGE ( 'NONE', *, *, #602, .F. ) ;
#1118 = CARTESIAN_POINT ( 'NONE',  ( -108.5000000000538023, 303.1515131625266690, 37.37908723647165488 ) ) ;
#1119 = CARTESIAN_POINT ( 'NONE',  ( -25.00000000006402701, 294.9399056868683147, 67.60439952050606394 ) ) ;
#1120 = CARTESIAN_POINT ( 'NONE',  ( -15.50000000004866862, 308.9351082365253092, 67.23792224420537877 ) ) ;
#1121 = VECTOR ( 'NONE', #1303, 1000.000000000000114 ) ;
#1122 = ORIENTED_EDGE ( 'NONE', *, *, #724, .T. ) ;
#1123 = CYLINDRICAL_SURFACE ( 'NONE', #1234, 10.00000000000002842 ) ;
#1124 = ORIENTED_EDGE ( 'NONE', *, *, #1102, .F. ) ;
#1125 = ORIENTED_EDGE ( 'NONE', *, *, #897, .F. ) ;
#1126 = CARTESIAN_POINT ( 'NONE',  ( -70.00000000006401990, 295.1493212733248015, 75.60165812031065968 ) ) ;
#1127 = EDGE_LOOP ( 'NONE', ( #838, #1070, #902, #959 ) ) ;
#1128 = EDGE_CURVE ( 'NONE', #1239, #814, #468, .T. ) ;
#1129 = ORIENTED_EDGE ( 'NONE', *, *, #53, .T. ) ;
#1130 = CARTESIAN_POINT ( 'NONE',  ( -70.00000000006401990, 296.1489785983004026, 75.57548117200352067 ) ) ;
#1131 = EDGE_CURVE ( 'NONE', #4, #299, #385, .T. ) ;
#1132 = CARTESIAN_POINT ( 'NONE',  ( -112.4999999999362927, 417.9550438448787304, 28.37079423129079814 ) ) ;
#1133 = CARTESIAN_POINT ( 'NONE',  ( -109.5000000000487006, 308.2806845289415492, 42.24648911981348931 ) ) ;
#1134 = EDGE_CURVE ( 'NONE', #1298, #1135, #478, .T. ) ;
#1135 = VERTEX_POINT ( 'NONE', #60 ) ;
#1136 = CARTESIAN_POINT ( 'NONE',  ( -12.50000000005989342, 297.1535692125751211, 37.53614892631734534 ) ) ;
#1137 = ADVANCED_FACE ( 'NONE', ( #273 ), #686, .F. ) ;
#1138 = AXIS2_PLACEMENT_3D ( 'NONE', #1279, #657, #34 ) ;
#1139 = CARTESIAN_POINT ( 'NONE',  ( -12.49999999993625721, 418.2429902761557514, 39.36702480602477294 ) ) ;
#1140 = CARTESIAN_POINT ( 'NONE',  ( -100.0000000000640199, 296.1489785983014258, 75.57548117200346383 ) ) ;
#1141 = ORIENTED_EDGE ( 'NONE', *, *, #476, .T. ) ;
#1142 = LINE ( 'NONE', #96, #670 ) ;
#1143 = VECTOR ( 'NONE', #1295, 1000.000000000000000 ) ;
#1144 = CIRCLE ( 'NONE', #835, 4.000000000000000000 ) ;
#1145 = PLANE ( 'NONE',  #1038 ) ;
#1146 = CARTESIAN_POINT ( 'NONE',  ( -15.50000000004866862, 308.2806845288454838, 42.24648911981599042 ) ) ;
#1147 = SURFACE_STYLE_FILL_AREA ( #315 ) ;
#1148 = ORIENTED_EDGE ( 'NONE', *, *, #257, .F. ) ;
#1149 = CARTESIAN_POINT ( 'NONE',  ( -12.49999999993625721, 417.9550438447765828, 28.37079423129346267 ) ) ;
#1150 = VECTOR ( 'NONE', #1153, 1000.000000000000000 ) ;
#1151 = EDGE_CURVE ( 'NONE', #42, #1265, #278, .T. ) ;
#1152 = CIRCLE ( 'NONE', #1329, 4.000000000000003553 ) ;
#1153 = DIRECTION ( 'NONE',  ( -1.000000000000000000, 1.021450554027971310E-12, -2.674762409388411425E-14 ) ) ;
#1154 = EDGE_CURVE ( 'NONE', #660, #668, #780, .T. ) ;
#1155 = FACE_OUTER_BOUND ( 'NONE', #650, .T. ) ;
#1156 = ORIENTED_EDGE ( 'NONE', *, *, #927, .F. ) ;
#1157 = VERTEX_POINT ( 'NONE', #290 ) ;
#1158 = PLANE ( 'NONE',  #973 ) ;
#1159 = CARTESIAN_POINT ( 'NONE',  ( -55.00000000006402701, 296.1489785983004026, 75.57548117200352067 ) ) ;
#1160 = CARTESIAN_POINT ( 'NONE',  ( -12.49999999993625721, 417.8503360515478562, 24.37216493139116125 ) ) ;
#1161 = CARTESIAN_POINT ( 'NONE',  ( -109.5000000000538023, 303.1515131625276922, 37.37908723647159803 ) ) ;
#1162 = AXIS2_PLACEMENT_3D ( 'NONE', #526, #111, #943 ) ;
#1163 = CARTESIAN_POINT ( 'NONE',  ( -12.50000000006092016, 305.8393827612612199, 407.4355361155873538 ) ) ;
#1164 = CARTESIAN_POINT ( 'NONE',  ( -14.10000000005172360, 305.9361362615971416, 67.31645308912698056 ) ) ;
#1165 = VERTEX_POINT ( 'NONE', #1106 ) ;
#1166 = ORIENTED_EDGE ( 'NONE', *, *, #1027, .F. ) ;
#1167 = MECHANICAL_DESIGN_GEOMETRIC_PRESENTATION_REPRESENTATION (  '', ( #782 ), #238 ) ;
#1168 = LINE ( 'NONE', #843, #550 ) ;
#1169 = PRODUCT_DEFINITION_SHAPE ( 'NONE', 'NONE',  #789 ) ;
#1170 = LINE ( 'NONE', #226, #867 ) ;
#1171 = PLANE ( 'NONE',  #634 ) ;
#1172 = ORIENTED_EDGE ( 'NONE', *, *, #605, .F. ) ;
#1173 = VERTEX_POINT ( 'NONE', #1213 ) ;
#1174 = EDGE_CURVE ( 'NONE', #1299, #544, #186, .T. ) ;
#1175 = VERTEX_POINT ( 'NONE', #178 ) ;
#1176 = DIRECTION ( 'NONE',  ( -1.000000000000000000, 1.021450554027971310E-12, -2.674762409388411425E-14 ) ) ;
#1177 = LINE ( 'NONE', #844, #722 ) ;
#1178 = DIRECTION ( 'NONE',  ( -1.000000000000000000, 1.021450554027971310E-12, -2.674762409388411741E-14 ) ) ;
#1179 = VERTEX_POINT ( 'NONE', #484 ) ;
#1180 = DIRECTION ( 'NONE',  ( 0.000000000000000000, -0.9996573249755751345, 0.02617694830719357116 ) ) ;
#1181 = VERTEX_POINT ( 'NONE', #79 ) ;
#1182 = SURFACE_SIDE_STYLE ('',( #248 ) ) ;
#1183 = CARTESIAN_POINT ( 'NONE',  ( -40.00000000006402701, 295.1493212733258247, 75.60165812031065968 ) ) ;
#1184 = FACE_OUTER_BOUND ( 'NONE', #991, .T. ) ;
#1185 = AXIS2_PLACEMENT_3D ( 'NONE', #1139, #85, #710 ) ;
#1186 = DIRECTION ( 'NONE',  ( 0.000000000000000000, -0.9996573249755751345, 0.02617694830719357116 ) ) ;
#1187 = ORIENTED_EDGE ( 'NONE', *, *, #638, .F. ) ;
#1188 = ORIENTED_EDGE ( 'NONE', *, *, #370, .T. ) ;
#1189 = DIRECTION ( 'NONE',  ( -1.021752127350336349E-12, -0.9996573249755750235, 0.02617694830719447321 ) ) ;
#1190 = LINE ( 'NONE', #678, #694 ) ;
#1191 = ORIENTED_EDGE ( 'NONE', *, *, #690, .T. ) ;
#1192 = CARTESIAN_POINT ( 'NONE',  ( -12.49999999993625721, 417.9550438447765828, 28.37079423129346267 ) ) ;
#1193 = EDGE_CURVE ( 'NONE', #475, #1294, #183, .T. ) ;
#1194 = AXIS2_PLACEMENT_3D ( 'NONE', #1240, #719, #206 ) ;
#1195 = LINE ( 'NONE', #698, #676 ) ;
#1196 = ORIENTED_EDGE ( 'NONE', *, *, #182, .F. ) ;
#1197 = CARTESIAN_POINT ( 'NONE',  ( -15.50000000006092371, 296.1539118876026464, 37.56232587462449146 ) ) ;
#1198 = ADVANCED_FACE ( 'NONE', ( #892 ), #987, .F. ) ;
#1199 = VERTEX_POINT ( 'NONE', #896 ) ;
#1200 = CARTESIAN_POINT ( 'NONE',  ( -12.50000000004866685, 308.2806845288424142, 42.24648911981604726 ) ) ;
#1201 = PRODUCT_DEFINITION_FORMATION_WITH_SPECIFIED_SOURCE ( 'ANY', '', #755, .NOT_KNOWN. ) ;
#1202 = VECTOR ( 'NONE', #928, 1000.000000000000114 ) ;
#1203 = EDGE_CURVE ( 'NONE', #809, #668, #393, .T. ) ;
#1204 = DIRECTION ( 'NONE',  ( 0.000000000000000000, 0.02617694830719357463, 0.9996573249755752455 ) ) ;
#1205 = ORIENTED_EDGE ( 'NONE', *, *, #1102, .T. ) ;
#1206 = DIRECTION ( 'NONE',  ( -1.000000000000000000, 1.021450554027971310E-12, -2.674762409388411425E-14 ) ) ;
#1207 = ORIENTED_EDGE ( 'NONE', *, *, #1203, .F. ) ;
#1208 = DIRECTION ( 'NONE',  ( -1.000000000000000000, 0.000000000000000000, 0.000000000000000000 ) ) ;
#1209 = CARTESIAN_POINT ( 'NONE',  ( -25.00000000006402701, 295.1493212733258247, 75.60165812031065968 ) ) ;
#1210 = ORIENTED_EDGE ( 'NONE', *, *, #1049, .F. ) ;
#1211 = AXIS2_PLACEMENT_3D ( 'NONE', #350, #961, #1078 ) ;
#1212 = ORIENTED_EDGE ( 'NONE', *, *, #1131, .F. ) ;
#1213 = CARTESIAN_POINT ( 'NONE',  ( -25.00000000006402701, 295.9395630118438589, 67.57822257219886808 ) ) ;
#1214 = LINE ( 'NONE', #1209, #375 ) ;
#1215 = EDGE_CURVE ( 'NONE', #336, #543, #673, .T. ) ;
#1216 = ORIENTED_EDGE ( 'NONE', *, *, #740, .F. ) ;
#1217 = CARTESIAN_POINT ( 'NONE',  ( -100.0000000000640199, 295.1493212733258247, 75.60165812031065968 ) ) ;
#1218 = VECTOR ( 'NONE', #122, 1000.000000000000114 ) ;
#1219 = DIRECTION ( 'NONE',  ( -1.021800699607666325E-12, -0.9996573249755751345, 0.02617694830719357116 ) ) ;
#1220 = DIRECTION ( 'NONE',  ( 0.000000000000000000, 0.9996573249755751345, -0.02617694830719357116 ) ) ;
#1221 = EDGE_LOOP ( 'NONE', ( #1342, #1207, #535, #1311 ) ) ;
#1222 = FACE_OUTER_BOUND ( 'NONE', #390, .T. ) ;
#1223 = CYLINDRICAL_SURFACE ( 'NONE', #1211, 4.000000000000000000 ) ;
#1224 = DIRECTION ( 'NONE',  ( -1.021800699607666325E-12, -0.9996573249755751345, 0.02617694830719357116 ) ) ;
#1225 = DIRECTION ( 'NONE',  ( 3.155443620884047222E-30, 0.02617694830719357116, 0.9996573249755751345 ) ) ;
#1226 = VERTEX_POINT ( 'NONE', #172 ) ;
#1227 = VECTOR ( 'NONE', #840, 1000.000000000000000 ) ;
#1228 = EDGE_CURVE ( 'NONE', #668, #1181, #161, .T. ) ;
#1229 = LINE ( 'NONE', #1028, #477 ) ;
#1230 = EDGE_CURVE ( 'NONE', #1179, #187, #55, .T. ) ;
#1231 = LINE ( 'NONE', #1133, #467 ) ;
#1232 = ORIENTED_EDGE ( 'NONE', *, *, #950, .F. ) ;
#1233 = CARTESIAN_POINT ( 'NONE',  ( -12.49999999993932320, 415.2440183012290618, 39.44555565094637473 ) ) ;
#1234 = AXIS2_PLACEMENT_3D ( 'NONE', #98, #86, #1243 ) ;
#1235 = EDGE_CURVE ( 'NONE', #1005, #1312, #779, .T. ) ;
#1236 = CARTESIAN_POINT ( 'NONE',  ( -112.4999999999362927, 417.8937074396915250, 26.02845141831044629 ) ) ;
#1237 = CARTESIAN_POINT ( 'NONE',  ( 0.000000000000000000, 306.4359649241345096, 67.30336461497211076 ) ) ;
#1238 = EDGE_CURVE ( 'NONE', #299, #42, #681, .T. ) ;
#1239 = VERTEX_POINT ( 'NONE', #1112 ) ;
#1240 = CARTESIAN_POINT ( 'NONE',  ( -15.50000000005377565, 303.1515131624316837, 37.37908723647409204 ) ) ;
#1241 =( GEOMETRIC_REPRESENTATION_CONTEXT ( 3 ) GLOBAL_UNCERTAINTY_ASSIGNED_CONTEXT ( ( #515 ) ) GLOBAL_UNIT_ASSIGNED_CONTEXT ( ( #189, #1339, #407 ) ) REPRESENTATION_CONTEXT ( 'NONE', 'WORKASPACE' ) );
#1242 = LINE ( 'NONE', #93, #721 ) ;
#1243 = DIRECTION ( 'NONE',  ( 1.021752127350336551E-12, 0.9996573249755751345, -0.02617694830719378626 ) ) ;
#1244 = ORIENTED_EDGE ( 'NONE', *, *, #1235, .T. ) ;
#1245 = CARTESIAN_POINT ( 'NONE',  ( -12.50000000005172041, 314.8362986860413457, 407.1999435808226053 ) ) ;
#1246 = VECTOR ( 'NONE', #816, 1000.000000000000114 ) ;
#1247 = PLANE ( 'NONE',  #978 ) ;
#1248 = FACE_OUTER_BOUND ( 'NONE', #538, .T. ) ;
#1249 = FILL_AREA_STYLE_COLOUR ( '', #21 ) ;
#1250 = EDGE_CURVE ( 'NONE', #112, #1173, #728, .T. ) ;
#1251 = ORIENTED_EDGE ( 'NONE', *, *, #740, .T. ) ;
#1252 = DIRECTION ( 'NONE',  ( 0.000000000000000000, -0.02617694830719357116, -0.9996573249755751345 ) ) ;
#1253 = CIRCLE ( 'NONE', #665, 6.999999999999986677 ) ;
#1254 = VECTOR ( 'NONE', #200, 1000.000000000000114 ) ;
#1255 = EDGE_CURVE ( 'NONE', #667, #84, #1229, .T. ) ;
#1256 = DIRECTION ( 'NONE',  ( 1.214069631081469234E-28, -0.02617694830719345320, -0.9996573249755751345 ) ) ;
#1257 = LINE ( 'NONE', #836, #901 ) ;
#1258 = ORIENTED_EDGE ( 'NONE', *, *, #724, .F. ) ;
#1259 = VERTEX_POINT ( 'NONE', #494 ) ;
#1260 = AXIS2_PLACEMENT_3D ( 'NONE', #387, #474, #364 ) ;
#1261 = FILL_AREA_STYLE_COLOUR ( '', #246 ) ;
#1262 = LINE ( 'NONE', #124, #383 ) ;
#1263 = CARTESIAN_POINT ( 'NONE',  ( -14.10000000005172360, 314.7944155687514467, 405.6004918608616094 ) ) ;
#1264 = PLANE ( 'NONE',  #31 ) ;
#1265 = VERTEX_POINT ( 'NONE', #507 ) ;
#1266 = EDGE_LOOP ( 'NONE', ( #293, #1307, #1187, #342, #1109, #120, #39, #609 ) ) ;
#1267 = EDGE_CURVE ( 'NONE', #353, #1239, #1242, .T. ) ;
#1268 = VERTEX_POINT ( 'NONE', #513 ) ;
#1269 = DIRECTION ( 'NONE',  ( 0.000000000000000000, -0.02617694830719357116, -0.9996573249755751345 ) ) ;
#1270 = CARTESIAN_POINT ( 'NONE',  ( -109.4999999999393481, 414.8513640767201878, 24.45069577631014823 ) ) ;
#1271 = VECTOR ( 'NONE', #143, 1000.000000000000114 ) ;
#1272 = EDGE_CURVE ( 'NONE', #138, #326, #489, .T. ) ;
#1273 = DIRECTION ( 'NONE',  ( 0.000000000000000000, 0.02617694830719357116, 0.9996573249755751345 ) ) ;
#1274 = ORIENTED_EDGE ( 'NONE', *, *, #1332, .F. ) ;
#1275 = ORIENTED_EDGE ( 'NONE', *, *, #1095, .F. ) ;
#1276 = ORIENTED_EDGE ( 'NONE', *, *, #22, .F. ) ;
#1277 = LINE ( 'NONE', #531, #1143 ) ;
#1278 = CARTESIAN_POINT ( 'NONE',  ( -15.50000000005377565, 303.9368216116474741, 67.36880698574132964 ) ) ;
#1279 = CARTESIAN_POINT ( 'NONE',  ( 0.000000000000000000, 306.6453805105920196, 75.30062321477670650 ) ) ;
#1280 = DIRECTION ( 'NONE',  ( 1.021837683164717020E-12, 0.9996573249755751345, -0.02617694830719357116 ) ) ;
#1281 = DIRECTION ( 'NONE',  ( -1.000000000000000000, 1.021450554027971310E-12, -2.674762409388411425E-14 ) ) ;
#1282 = ORIENTED_EDGE ( 'NONE', *, *, #1131, .T. ) ;
#1283 = ADVANCED_FACE ( 'NONE', ( #1248 ), #661, .T. ) ;
#1284 = AXIS2_PLACEMENT_3D ( 'NONE', #1161, #344, #972 ) ;
#1285 = ORIENTED_EDGE ( 'NONE', *, *, #539, .T. ) ;
#1286 = DIRECTION ( 'NONE',  ( 1.000000000000000000, -1.021450554027971310E-12, 2.674762409388411425E-14 ) ) ;
#1287 = PLANE ( 'NONE',  #1138 ) ;
#1288 = CARTESIAN_POINT ( 'NONE',  ( -40.00000000006402701, 294.9399056868683147, 67.60439952050606394 ) ) ;
#1289 = ORIENTED_EDGE ( 'NONE', *, *, #2, .T. ) ;
#1290 = EDGE_CURVE ( 'NONE', #999, #475, #933, .T. ) ;
#1291 = ORIENTED_EDGE ( 'NONE', *, *, #890, .T. ) ;
#1292 = DIRECTION ( 'NONE',  ( -1.021800699607666931E-12, -0.9996573249755751345, 0.02617694830719357116 ) ) ;
#1293 = CARTESIAN_POINT ( 'NONE',  ( -70.00000000006401990, 296.1489785983004026, 75.57548117200352067 ) ) ;
#1294 = VERTEX_POINT ( 'NONE', #313 ) ;
#1295 = DIRECTION ( 'NONE',  ( -1.000000000000000000, 1.021450554027971310E-12, -2.674762409388411425E-14 ) ) ;
#1296 = FACE_OUTER_BOUND ( 'NONE', #891, .T. ) ;
#1297 = VECTOR ( 'NONE', #885, 1000.000000000000114 ) ;
#1298 = VERTEX_POINT ( 'NONE', #1 ) ;
#1299 = VERTEX_POINT ( 'NONE', #207 ) ;
#1300 = EDGE_CURVE ( 'NONE', #255, #809, #828, .T. ) ;
#1301 = EDGE_LOOP ( 'NONE', ( #696, #288, #559, #481 ) ) ;
#1302 = EDGE_CURVE ( 'NONE', #138, #379, #583, .T. ) ;
#1303 = DIRECTION ( 'NONE',  ( 0.000000000000000000, -0.02617694830719357116, -0.9996573249755751345 ) ) ;
#1304 = CARTESIAN_POINT ( 'NONE',  ( -12.50000000004866685, 308.2806845288424142, 42.24648911981604726 ) ) ;
#1305 = ORIENTED_EDGE ( 'NONE', *, *, #802, .T. ) ;
#1306 = LINE ( 'NONE', #1110, #386 ) ;
#1307 = ORIENTED_EDGE ( 'NONE', *, *, #480, .F. ) ;
#1308 = CARTESIAN_POINT ( 'NONE',  ( -112.5000000000517559, 305.2817125540178722, 42.32501996473497741 ) ) ;
#1309 = MECHANICAL_DESIGN_GEOMETRIC_PRESENTATION_REPRESENTATION (  '', ( #269 ), #598 ) ;
#1310 = LINE ( 'NONE', #1341, #842 ) ;
#1311 = ORIENTED_EDGE ( 'NONE', *, *, #997, .F. ) ;
#1312 = VERTEX_POINT ( 'NONE', #1146 ) ;
#1313 = ADVANCED_FACE ( 'NONE', ( #620 ), #109, .F. ) ;
#1314 = CARTESIAN_POINT ( 'NONE',  ( -12.49999999993625721, 417.8503360515478562, 24.37216493139116125 ) ) ;
#1315 = DIRECTION ( 'NONE',  ( 1.021800699607666325E-12, 0.9996573249755751345, -0.02617694830719357116 ) ) ;
#1316 = VECTOR ( 'NONE', #196, 1000.000000000000114 ) ;
#1317 = AXIS2_PLACEMENT_3D ( 'NONE', #764, #10, #1083 ) ;
#1318 = ADVANCED_FACE ( 'NONE', ( #1222 ), #501, .F. ) ;
#1319 = EDGE_LOOP ( 'NONE', ( #239, #1129, #228, #818, #1172, #43 ) ) ;
#1320 = ORIENTED_EDGE ( 'NONE', *, *, #1230, .F. ) ;
#1321 = DIRECTION ( 'NONE',  ( 1.000000000000000000, 0.000000000000000000, 0.000000000000000000 ) ) ;
#1322 = AXIS2_PLACEMENT_3D ( 'NONE', #1160, #232, #1176 ) ;
#1323 = DIRECTION ( 'NONE',  ( 0.000000000000000000, 0.9996573249755751345, -0.02617694830719357116 ) ) ;
#1324 = VECTOR ( 'NONE', #1026, 1000.000000000000000 ) ;
#1325 = ORIENTED_EDGE ( 'NONE', *, *, #565, .T. ) ;
#1326 = DIRECTION ( 'NONE',  ( 1.000000000000000000, 0.000000000000000000, 0.000000000000000000 ) ) ;
#1327 = VECTOR ( 'NONE', #619, 1000.000000000000000 ) ;
#1328 = FACE_OUTER_BOUND ( 'NONE', #951, .T. ) ;
#1329 = AXIS2_PLACEMENT_3D ( 'NONE', #486, #1204, #775 ) ;
#1330 = ORIENTED_EDGE ( 'NONE', *, *, #279, .T. ) ;
#1331 = ORIENTED_EDGE ( 'NONE', *, *, #373, .F. ) ;
#1332 = EDGE_CURVE ( 'NONE', #814, #1135, #716, .T. ) ;
#1333 = CARTESIAN_POINT ( 'NONE',  ( -85.00000000006401990, 295.1493212733258247, 75.60165812031065968 ) ) ;
#1334 = DIRECTION ( 'NONE',  ( 1.021837683164717020E-12, 0.9996573249755751345, -0.02617694830719357116 ) ) ;
#1335 = ORIENTED_EDGE ( 'NONE', *, *, #690, .F. ) ;
#1336 = PLANE ( 'NONE',  #729 ) ;
#1337 = EDGE_CURVE ( 'NONE', #1019, #1046, #396, .T. ) ;
#1338 = CIRCLE ( 'NONE', #97, 4.000000000000000000 ) ;
#1339 =( NAMED_UNIT ( * ) PLANE_ANGLE_UNIT ( ) SI_UNIT ( $, .RADIAN. ) );
#1340 = EDGE_CURVE ( 'NONE', #1268, #858, #402, .T. ) ;
#1341 = CARTESIAN_POINT ( 'NONE',  ( -55.00000000006402701, 296.1489785983004026, 75.57548117200352067 ) ) ;
#1342 = ORIENTED_EDGE ( 'NONE', *, *, #1154, .T. ) ;
#1343 = LINE ( 'NONE', #1136, #83 ) ;
#1344 = DIRECTION ( 'NONE',  ( 0.000000000000000000, 0.9996573249755751345, -0.02617694830719357116 ) ) ;
#1345 = VERTEX_POINT ( 'NONE', #102 ) ;
#1346 = LINE ( 'NONE', #1032, #264 ) ;
#1347 = DIRECTION ( 'NONE',  ( 0.000000000000000000, 0.02617694830719357463, 0.9996573249755752455 ) ) ;
ENDSEC;
END-ISO-10303-21;
